<?xml version="1.0" encoding="UTF-8" standalone="no"?>
<!-- Created with Inkscape (http://www.inkscape.org/) -->

<svg
   xmlns:dc="http://purl.org/dc/elements/1.1/"
   xmlns:cc="http://creativecommons.org/ns#"
   xmlns:rdf="http://www.w3.org/1999/02/22-rdf-syntax-ns#"
   xmlns:svg="http://www.w3.org/2000/svg"
   xmlns="http://www.w3.org/2000/svg"
   xmlns:sodipodi="http://sodipodi.sourceforge.net/DTD/sodipodi-0.dtd"
   xmlns:inkscape="http://www.inkscape.org/namespaces/inkscape"
   version="1.1"
   id="svg2"
   xml:space="preserve"
   width="100"
   height="40"
   viewBox="0 0 99.999999 39.999999"
   sodipodi:docname="בהצדעה.svg"
   inkscape:version="0.92.3 (2405546, 2018-03-11)"><metadata
     id="metadata8"><rdf:RDF><cc:Work
         rdf:about=""><dc:format>image/svg+xml</dc:format><dc:type
           rdf:resource="http://purl.org/dc/dcmitype/StillImage" /><dc:title></dc:title></cc:Work></rdf:RDF></metadata><defs
     id="defs6"><clipPath
       clipPathUnits="userSpaceOnUse"
       id="clipPath22"><path
         d="M 0,841.89 H 595.276 V 0 H 0 Z"
         id="path20"
         inkscape:connector-curvature="0" /></clipPath></defs><sodipodi:namedview
     pagecolor="#ffffff"
     bordercolor="#666666"
     borderopacity="1"
     objecttolerance="10"
     gridtolerance="10"
     guidetolerance="10"
     inkscape:pageopacity="0"
     inkscape:pageshadow="2"
     inkscape:window-width="1366"
     inkscape:window-height="705"
     id="namedview4"
     showgrid="false"
     inkscape:zoom="6.7277196"
     inkscape:cx="52.892619"
     inkscape:cy="24.86904"
     inkscape:window-x="-8"
     inkscape:window-y="-8"
     inkscape:window-maximized="1"
     inkscape:current-layer="g10" /><g
     id="g10"
     inkscape:groupmode="layer"
     inkscape:label="takanon_bitulim"
     transform="matrix(1.3333333,0,0,-1.3333333,0,39.99998)"><g
       id="g16"
       transform="matrix(0.47754915,0,0,0.47754915,-198.4604,-362.09732)"><g
         id="g18"
         clip-path="url(#clipPath22)"><g
           id="g24"
           transform="translate(443.4028,792.6548)"><path
             d="m 0,0 c -0.088,-0.319 1.032,-0.85 1.032,-1.069 0,-0.273 0.264,-1.029 0.172,-1.248 C 1.114,-2.77 0.447,-2.681 0.09,-2.99 c -0.223,-0.135 0.181,-0.443 0,-0.62 -0.314,-0.273 -1.202,-0.451 -1.648,-0.451 -0.491,0 -1.162,0.317 -1.558,0.532 -0.273,0.179 -0.944,0.584 -1.03,0.944 0,0.174 0.491,0.043 0.445,0.221 -0.09,0.358 -0.489,0.578 -0.489,0.981 0,0.266 -0.222,0.533 -0.088,0.803 0.088,0.223 0.443,0.402 0.533,0.622 0.134,0.494 0,0.762 0.356,1.118 0.134,0.222 0.893,0.624 2.096,0.799 C -0.98,1.917 -0.31,1.784 -0.088,1.604 0.271,1.382 1.382,0.487 1.517,-0.58 1.604,-0.85 0.046,0.355 0,0 M 1.878,14.811 1.47,14.049 1.248,12.841 1.071,12.218 0.937,11.147 1.071,10.301 0.761,9.362 0.892,8.876 V 8.115 L 0.713,7.892 0.536,7.535 0.849,7.626 0.713,6.554 -0.042,5.173 -0.31,4.546 -1.379,2.856 -1.43,2.763 -1.739,2.672 -2.361,2.635 l -0.268,0.308 -0.534,2.494 -0.136,0.269 0.311,0.447 -0.128,0.58 -0.273,0.893 -0.047,0.399 -0.175,0.492 -0.18,1.021 -0.044,1.521 -0.269,0.577 -0.4,1.116 0.042,1.116 -0.263,1.515 0.087,1.164 0.492,0.889 2.186,1.337 2.852,-0.758 0.538,-0.934 0.489,-0.182 0.089,-0.979 z"
             style="fill:#c5c7c9;fill-opacity:1;fill-rule:nonzero;stroke:none"
             id="path26"
             inkscape:connector-curvature="0" /></g><g
           id="g28"
           transform="translate(449.3247,790.7798)"><path
             d="M 0,0 0.264,-0.131 V -0.356 L 0,-1.335 l -4.775,0.265 0.134,0.355 0.133,0.492 -0.133,0.494 0.088,2.049 -0.088,0.889 v 0.227 l 0.133,4.995 -0.267,0.134 0.267,0.754 -0.267,1.431 0.54,0.133 v 0.486 l 0.257,0.138 h 0.403 L -0.273,11.417 0.31,10.703 0.131,10.036 0.531,9.41 0.801,1.381 Z M 8.737,-0.045 8.604,-0.442 H 8.199 l -0.402,-0.58 -3.744,-0.273 -0.579,0.63 -0.536,0.49 V 0.18 L 3.608,0.537 3.877,1.026 3.744,1.518 3.341,1.877 3.206,3.124 V 3.346 H 3.608 L 3.474,4.328 3.608,4.548 3.206,5.305 3.341,7.002 3.078,7.133 V 7.852 L 2.803,8.206 h 0.671 l 0.27,1.113 -0.403,0.14 0.403,0.085 v 0.4 l -0.27,0.982 0.134,0.581 H 3.474 l -0.396,0.314 0.128,0.577 0.268,0.132 -0.133,0.404 0.267,0.708 -0.267,0.271 v 0.403 l -0.263,0.138 -0.81,0.486 v 0.357 H 1.333 l -0.265,0.225 -0.45,-0.537 -0.533,0.226 -1.029,-0.226 -0.131,0.226 -1.781,-0.141 -0.538,-0.13 -0.535,0.493 -1.07,-0.222 0.132,0.713 v 2.717 l 0.407,0.133 3.385,-0.177 1.027,0.088 1.34,-0.223 v 0.135 h 0.667 l 0.13,0.22 1.07,-0.132 0.276,0.272 3.919,-0.36 0.404,0.22 0.802,-1.068 H 8.69 L 8.066,15.786 8.737,15.297 c 0,-2.051 0.045,-3.835 0.134,-6.109 L 9.271,8.966 8.871,7.981 9.139,7.625 H 8.871 L 8.737,7.271 9.139,5.305 V 4.949 L 9.005,3.971 8.737,2.721 9.005,2.633 V 1.654 L 8.871,0.537 9.271,0.447 V 0.18 Z"
             style="fill:#c5c7c9;fill-opacity:1;fill-rule:nonzero;stroke:none"
             id="path30"
             inkscape:connector-curvature="0" /></g><g
           id="g32"
           transform="translate(463.9819,794.1685)"><path
             d="M 0,0 H -0.358 L -0.932,-0.265 -2.498,0.582 H -2.539 V 0.804 H -2.896 L -3.07,1.159 -3.211,1.658 -3.256,2.01 -3.699,3.037 -4.099,3.972 H -4.188 L -4.099,4.815 -4.28,6.87 h -0.266 l -0.131,1.785 -0.54,0.623 v 1.294 l -0.577,0.492 v 1.29 l 0.043,0.49 0.268,0.716 -0.268,0.31 -0.267,0.222 0.267,1.075 0.268,0.354 0.045,-0.225 4.102,0.131 0.978,-0.844 -0.177,-0.355 0.271,-0.136 0.172,-0.49 -0.305,-0.624 0.444,-0.624 -0.311,-0.936 H 0.092 L -0.092,11.151 V 10.572 L 0.177,10.213 -0.358,9.366 -0.178,9.278 V 8.565 H 0.136 V 7.363 L 0.271,4.686 0.626,3.792 0.715,3.436 0.626,3.037 0.807,2.587 V 1.743 L 1.161,1.521 H 1.202 Z M 7.717,-2.452 V -2.807 L 7.179,-3.299 V -3.788 L 6.913,-4.279 V -4.638 L 2.593,-4.723 0,-4.861 l -0.135,0.223 -1.423,-0.223 -0.801,0.223 -1.429,-0.085 -0.625,0.221 -0.578,-0.221 -1.073,0.536 -0.311,0.929 0.581,2.14 0.265,0.091 0.228,-0.222 1.513,0.131 h 1.87 l 0.849,-0.083 0.711,0.447 1.165,0.22 0.486,-0.22 0.359,0.22 L 1.92,-0.401 2.188,0.27 2.636,0.401 3.123,1.25 2.854,1.606 2.987,3.082 2.767,3.349 2.987,4.504 2.543,6.113 2.41,7.273 2.678,7.406 V 8.612 L 2.41,8.696 2.767,11.19 2.543,11.551 H 2.188 v 0.221 l 0.49,0.227 v 1.073 l -0.271,0.127 0.271,1.788 -0.271,0.223 h 0.494 l 0.131,0.217 H 6.601 L 7.002,15.7 7.135,15.475 H 7.717 V 15.21 L 7.806,14.144 8.297,14.047 8.162,13.56 8.429,13.334 8.651,13.199 8.52,12.978 8.297,12.753 8.162,11.327 8.429,11.19 V 10.254 9.548 L 8.297,9.189 8.429,8.696 8.297,8.252 8.52,8.12 8.429,3.792 8.52,2.854 V 2.633 L 8.297,1.658 8.52,0.135 v -2.144 l 0.131,-0.085 z"
             style="fill:#c5c7c9;fill-opacity:1;fill-rule:nonzero;stroke:none"
             id="path34"
             inkscape:connector-curvature="0" /></g><g
           id="g36"
           transform="translate(485.7495,805.9404)"><path
             d="m 0,0 -0.136,-0.401 h -0.536 l -0.446,-0.354 -0.131,-0.402 h -0.27 v -1.115 l -0.356,-1.024 0.626,-0.535 -0.358,-0.359 0.177,-1.469 -0.22,-0.222 0.085,-1.654 -0.357,-0.401 0.272,-0.268 0.31,-1.381 -0.131,-2.138 v -1.924 l -0.136,-0.62 0.136,-0.399 -0.273,-0.365 0.273,-1.152 -4.462,-0.273 -0.488,0.671 -0.673,0.089 -0.087,0.136 -0.137,0.753 0.224,1.301 v 0.218 l -0.354,1.565 0.13,0.352 v 0.403 l -0.215,2.545 0.133,2.002 v 0.54 0.62 l -0.36,0.225 0.227,0.891 -0.046,0.314 0.485,0.798 -0.132,1.25 -0.492,0.264 v 1.118 l -0.531,0.582 h -0.225 l -0.444,0.486 -0.357,-0.214 -1.651,0.214 -0.671,-0.214 -0.354,-0.142 -1.789,0.142 -0.442,1.113 0.442,2.047 3.034,0.266 0.268,-0.266 1.52,0.137 1.158,0.262 0.889,-0.262 h 0.938 L 0,3.613 H 0.623 L 0.755,3.261 1.383,1.656 V 1.383 0.361 Z"
             style="fill:#c5c7c9;fill-opacity:1;fill-rule:nonzero;stroke:none"
             id="path38"
             inkscape:connector-curvature="0" /></g><g
           id="g40"
           transform="translate(501.0757,802.5508)"><path
             d="M 0,0 -0.892,-1.916 -1.026,-2.27 -1.785,-2.853 -2.05,-3.52 l -1.245,-0.938 -0.456,0.4 -1.288,1.788 v 0.494 l -0.401,0.798 0.222,1.028 0.223,0.71 -0.09,0.848 V 2.234 L -5.44,2.808 -5.663,3.39 -5.889,4.596 -5.973,5.134 -5.843,6.426 -5.218,6.56 -0.98,6.785 -0.757,6.56 0.226,6.426 V 5.843 L 0.579,5.267 0.485,1.207 0.758,1.119 Z m -10.972,-9.409 h 0.135 z m 11.016,-2.407 -0.268,-0.221 0.14,-0.713 -0.494,-0.355 H -5.62 l -4.192,-0.359 h -2.805 l -0.135,0.269 -0.491,-0.134 -0.271,0.224 -1.603,0.084 -0.183,2.32 0.407,0.225 0.087,0.801 1.292,0.492 0.491,-0.226 h 2.051 l -0.264,0.226 0.399,-0.226 2.012,0.096 0.443,0.176 -0.095,0.354 -0.309,0.712 -0.399,0.355 -0.313,0.674 -0.269,0.136 0.135,0.22 -0.892,0.625 v 1.203 l -0.358,0.089 -0.264,1.291 -0.761,0.58 -0.31,0.716 -0.535,0.711 0.135,0.669 -0.626,1.251 -0.138,0.358 h -0.262 l -0.449,0.49 -0.487,1.248 v 1.206 l -0.409,0.353 v 1.03 l 2.191,1.651 2.538,-0.053 1.074,-0.533 0.537,-0.979 V 4.55 L -8.293,4.282 V 3.701 L -7.758,2.989 V 2.545 l 0.042,-0.493 0.448,-1.113 0.18,-0.71 v -0.715 l 0.402,-0.228 v -0.578 l 0.355,-0.223 -0.046,-1.206 0.404,-0.085 0.447,-0.492 -0.137,-0.8 0.624,-0.135 v -1.028 l 0.177,-0.132 c 0,-0.087 1.517,-0.446 1.648,-0.716 0.227,-0.308 0.54,-0.174 0.893,-0.308 0,-0.132 -0.042,-0.359 0,-0.489 l 0.271,-0.136 c 0.179,-0.496 0,-1.251 0,-1.251 l 1.158,-0.27 v -0.22 l 0.493,-0.8 0.625,-0.716 z"
             style="fill:#c5c7c9;fill-opacity:1;fill-rule:nonzero;stroke:none"
             id="path42"
             inkscape:connector-curvature="0" /></g><g
           id="g44"
           transform="translate(505.8022,790.7798)"><path
             d="M 0,0 0.269,-0.131 V -0.356 L 0,-1.335 l -4.769,0.265 0.131,0.355 0.137,0.492 -0.137,0.494 0.09,2.049 -0.09,0.889 v 0.227 l 0.137,4.995 -0.268,0.134 0.268,0.754 -0.268,1.431 0.532,0.133 v 0.486 l 0.268,0.138 h 0.401 L -0.264,11.417 0.312,10.703 0.137,10.036 0.537,9.41 0.8,1.381 Z M 8.739,-0.045 8.609,-0.442 H 8.203 l -0.398,-0.58 -3.744,-0.273 -0.584,0.63 -0.532,0.49 V 0.18 L 3.613,0.537 3.88,1.021 3.749,1.518 3.346,1.877 3.209,3.124 V 3.346 H 3.613 L 3.477,4.328 3.613,4.548 3.209,5.305 3.346,7.002 3.081,7.133 V 7.852 L 2.813,8.206 h 0.664 l 0.272,1.113 -0.403,0.14 0.403,0.085 v 0.4 l -0.272,0.982 0.136,0.581 H 3.477 l -0.396,0.314 0.128,0.577 0.268,0.132 -0.131,0.404 0.267,0.708 -0.267,0.271 v 0.403 l -0.265,0.138 -0.806,0.487 v 0.356 H 1.339 L 1.07,15.522 0.625,14.985 0.09,15.211 -0.936,14.985 -1.07,15.211 -2.854,15.07 l -0.538,-0.129 -0.531,0.492 -1.069,-0.222 0.132,0.713 v 2.717 l 0.405,0.133 3.385,-0.177 1.025,0.088 1.34,-0.223 v 0.135 h 0.67 l 0.132,0.22 1.07,-0.132 0.271,0.272 3.923,-0.36 0.404,0.22 0.797,-1.068 H 8.696 L 8.075,15.786 8.739,15.297 c 0,-2.051 0.049,-3.835 0.134,-6.109 L 9.275,8.966 8.873,7.981 9.144,7.625 H 8.873 L 8.739,7.271 9.144,5.305 V 4.949 L 9.007,3.971 8.739,2.721 9.007,2.634 V 1.654 L 8.873,0.537 9.275,0.447 V 0.18 Z"
             style="fill:#c5c7c9;fill-opacity:1;fill-rule:nonzero;stroke:none"
             id="path46"
             inkscape:connector-curvature="0" /></g><g
           id="g48"
           transform="translate(526.9575,798.1401)"><path
             d="m 0,0 -0.179,-1.831 -0.269,-0.267 v -0.353 l -0.311,-1.476 -3.522,-0.265 -0.226,0.845 h -0.534 l 0.403,0.27 -0.449,0.487 -0.486,0.492 0.444,0.313 -0.401,0.539 0.489,0.127 v 0.359 l -0.088,0.402 -0.138,0.222 0.358,1.472 0.095,0.673 -0.138,0.889 H -5.22 l 0.133,1.652 -0.398,0.132 v 0.267 l -0.18,1.158 -0.356,0.625 V 7.218 L -6.869,6.91 -7.227,7.536 -7.982,7.399 -8.874,7.267 h -0.845 l -1.389,0.402 -0.62,-0.133 -0.671,0.536 0.134,-0.088 -0.354,2.228 0.669,1.069 2.361,0.174 1.206,0.141 0.626,-0.141 0.133,-0.218 0.755,0.359 h 5.842 l 0.536,-0.494 h 0.353 V 10.523 L 0.265,10.256 V 9.63 9.408 9.006 L 0.402,8.607 0.265,8.515 V 7.984 6.732 L 0.402,6.107 H 0 L -0.138,5.708 0.131,3.656 0,3.302 0.265,2.407 0.402,2.141 V 0.891 0.403 Z M 2.05,-8.743 1.915,-9.01 1.383,-8.743 H 0.131 l -0.269,-0.267 -0.755,0.267 -5.083,-0.134 -0.131,0.267 -1.12,-0.267 h -1.606 l -0.485,0.267 -0.137,-0.267 h -1.785 l -0.755,0.315 -0.491,-0.133 0.087,3.297 h -0.087 v 0.27 l -0.402,0.131 0.131,0.225 0.358,0.399 4.149,-0.089 0.358,0.27 1.47,-0.27 0.757,0.136 v -0.268 h 0.536 v -0.223 l 4.86,0.223 0.131,-0.223 1.433,0.444 0.088,-0.266 H 2.144 L 2.404,-5.398 2.05,-7.583 V -8.12 h 0.224 v -0.133 l 0.13,-0.223 z"
             style="fill:#c5c7c9;fill-opacity:1;fill-rule:nonzero;stroke:none"
             id="path50"
             inkscape:connector-curvature="0" /></g><g
           id="g52"
           transform="translate(442.8198,813.0269)"><path
             d="m 0,0 0.039,-1.238 -0.269,-0.603 -0.294,-1.053 0.013,-0.866 -0.455,-0.895 0.062,-0.505 -0.115,-0.765 -0.469,-1.982 -0.239,-0.332 0.329,0.045 -0.292,-1.052 -0.388,-0.444 0.089,-0.654 -0.302,-0.778 -0.055,-0.082 -0.326,-0.045 -0.629,0.051 -0.224,0.348 0.145,1.625 -0.091,0.287 0.379,0.401 -0.049,0.598 -0.136,0.939 0.147,1.298 -0.105,0.519 -0.027,1.054 0.181,1.523 -0.122,1.071 -0.233,1.171 0.208,1.108 0.404,1.498 0.265,1.147 0.619,0.82 0.915,0.322 L 0.067,4.502 0.464,3.488 0.485,3.301 0.427,2.31 0.512,0.698 Z m -1.496,-15.665 c -0.057,-0.355 -0.388,-0.443 -0.533,-0.79 -0.063,-0.131 0.405,-0.058 0.335,-0.232 -0.084,-0.26 -0.721,-0.534 -0.962,-0.633 -0.389,-0.17 -0.957,-0.313 -1.407,-0.248 -0.355,0.052 -1.097,0.297 -1.33,0.562 -0.16,0.154 0.237,0.372 0.077,0.536 -0.276,0.267 -0.373,0.235 -0.446,0.659 -0.022,0.188 0.3,0.823 0.328,1 0.029,0.18 -0.018,0.188 0.101,0.398 0.229,0.925 0.812,1.16 1.104,1.298 0.4,0.214 0.456,0.296 0.952,0.221 0.088,-0.009 0.135,-0.613 0.311,-0.641 0.365,-0.007 0.822,0.288 0.988,0.178 0.33,-0.235 0.227,-0.629 0.309,-1.003 0.016,-0.186 0.292,-0.46 0.358,-0.649 0.056,-0.236 -0.155,-0.434 -0.185,-0.656"
             style="fill:#055ca9;fill-opacity:1;fill-rule:nonzero;stroke:none"
             id="path54"
             inkscape:connector-curvature="0" /></g><g
           id="g56"
           transform="translate(445.7866,796.2881)"><path
             d="m 0,0 0.248,-0.17 -0.031,-0.224 -0.411,-0.946 -2.51,0.647 0.188,0.333 0.204,0.473 -0.058,0.514 0.391,2.044 0.045,0.904 0.033,0.221 0.674,3.644 -0.247,0.174 0.373,0.717 -0.048,1.471 0.558,0.058 0.07,0.49 0.285,0.093 0.402,-0.057 1.06,-0.25 L 1.705,9.334 1.428,8.694 1.733,8.007 1.01,1.268 Z M 9.195,-1.405 9.002,-1.785 8.603,-1.726 8.111,-2.244 5.664,-2.161 5.618,-1.515 5.157,-0.943 5.212,-0.585 5.937,-0.329 6.271,0.125 6.213,0.635 5.859,1.053 5.915,2.324 5.949,2.545 6.349,2.481 6.36,3.489 6.528,3.692 6.237,4.511 6.62,6.189 6.374,6.36 6.479,7.077 6.261,7.475 6.934,7.372 7.366,8.452 6.985,8.648 7.402,8.673 7.46,9.077 7.34,10.105 7.557,10.662 7.424,10.684 7.134,11.5 7.357,12.064 7.645,12.156 7.631,13.021 8.005,13.699 7.778,14.005 7.902,14.856 7.656,15.029 6.924,15.641 6.977,16 6.04,16.138 5.802,16.401 4.454,16.505 3.945,16.809 2.883,16.739 2.785,16.984 1.493,17.494 0.938,17.437 0.477,18.008 -0.632,17.94 l 0.241,0.692 0.075,0.496 0.417,0.075 2.921,-0.611 1.043,-0.067 1.306,-0.421 0.023,0.136 0.667,-0.101 0.165,0.204 1.051,-0.29 0.314,0.23 2.983,-0.808 0.436,0.163 0.647,-1.195 0.131,-0.019 -0.914,-1.871 0.594,-0.588 C 11.165,11.912 10.947,10.114 10.696,7.824 L 11.065,7.545 10.52,6.618 10.735,6.218 10.463,6.259 10.281,5.923 10.389,3.895 10.342,3.54 10.059,2.579 9.604,1.367 9.859,1.237 9.717,0.255 9.417,-0.842 9.803,-0.996 9.767,-1.262 Z"
             style="fill:#055ca9;fill-opacity:1;fill-rule:nonzero;stroke:none"
             id="path58"
             inkscape:connector-curvature="0" /></g><g
           id="g60"
           transform="translate(463.1479,797.6509)"><path
             d="m 0,0 -0.358,0.051 -0.621,-0.177 -0.544,0.942 -0.09,0.014 0.035,0.22 -0.315,0.048 -0.127,0.387 -0.101,0.513 0.496,0.296 0.088,0.577 -0.374,0.558 -0.093,0.012 0.215,0.835 0.105,1.632 -0.267,0.04 0.086,1.815 -0.402,0.693 0.196,1.3 -0.509,0.572 0.193,1.302 -0.332,0.544 0.329,0.685 -0.043,1.24 -0.236,0.264 0.425,1.03 0.279,0.325 0.054,-0.238 1.452,-0.076 -0.04,-0.863 -0.233,-0.331 0.25,-0.174 0.059,-0.512 -0.049,-1.544 0.314,-0.684 0.037,-0.964 L 0.243,10.28 0.024,10.036 -0.063,9.455 0.106,9.063 -0.063,8.225 0.058,8.113 -0.052,7.399 0.308,7.347 0.133,6.142 0.318,3.379 0.63,3.332 0.663,2.958 0.518,2.569 0.293,2.601 0.102,1.306 0.382,1.035 0.469,1.022 Z M 6.849,-3.985 6.798,-4.34 7.082,-4.888 7.009,-5.378 6.219,-5.759 6.166,-6.122 l -3.894,0.489 -2.655,0.251 -0.058,0.24 -1.463,-0.008 -0.815,0.343 -1.444,0.126 -0.552,0.31 -0.61,-0.136 -1.059,0.241 0.209,0.475 0.83,1.61 0.241,0.056 0.232,-0.261 1.044,-0.019 1.991,0.164 0.79,-0.211 0.779,0.345 1.174,-0.401 0.482,0.154 0.319,-0.275 1.231,-0.045 0.325,0.638 0.506,0.06 0.64,1.231 -0.17,0.391 0.922,2.28 -0.219,0.311 0.44,1.119 0.236,1.61 0.032,1.177 0.248,0.101 0.182,1.21 -0.214,0.119 0.729,2.448 -0.173,0.391 -0.359,0.057 0.033,0.219 0.484,0.162 0.156,1.068 -0.206,0.17 0.494,1.753 -0.192,0.258 0.487,-0.071 0.125,0.205 0.494,-0.069 0.439,0.208 L 8.434,14.134 9.015,14.043 8.975,13.779 8.948,12.693 9.428,12.522 9.225,12.052 9.413,11.797 9.662,11.623 9.491,11.419 9.238,11.229 8.891,9.82 9.101,9.651 8.958,8.71 8.85,7.999 8.703,7.655 8.725,7.153 8.566,6.717 8.771,6.551 8.001,2.24 7.994,1.28 7.965,1.054 7.594,0.107 7.589,-1.445 7.273,-3.592 7.395,-3.696 Z"
             style="fill:#055ca9;fill-opacity:1;fill-rule:nonzero;stroke:none"
             id="path62"
             inkscape:connector-curvature="0" /></g><g
           id="g64"
           transform="translate(485.8257,807.2588)"><path
             d="m 0,0 -0.191,-0.381 -0.535,0.078 -0.504,-0.291 -0.19,-0.38 -0.269,0.035 -0.165,-1.118 -0.511,-0.973 0.547,-0.626 -0.408,-0.304 -0.239,-2.838 -0.257,-0.196 -0.154,-1.664 -0.416,-0.352 0.226,-0.303 0.109,-1.432 -0.45,-2.124 -0.283,-1.923 -0.226,-0.604 0.075,-0.423 -0.325,-0.319 0.099,-1.196 -1.83,-0.002 -0.386,0.739 -0.66,0.184 -0.071,0.146 -0.023,0.781 0.414,1.266 0.04,0.22 -0.13,1.617 0.185,0.341 0.058,0.401 0.157,2.58 0.43,1.985 0.078,0.537 0.092,0.629 -0.322,0.275 0.357,0.861 0.198,1.661 0.612,0.73 0.05,1.273 -0.453,0.337 0.166,1.118 -0.452,0.656 -0.223,0.035 -0.372,0.56 -1.288,-0.04 -1.615,0.468 -0.705,-0.128 -0.378,-0.077 -1.763,0.396 0.027,0.223 0.243,1.61 L -8.556,3.867 -8.325,3.56 -7.677,3.599 -6.48,3.697 -5.63,3.3 -4.689,3.158 0.337,2.279 0.963,2.187 1.043,1.81 1.632,1.446 1.589,1.178 1.438,0.154 Z"
             style="fill:#055ca9;fill-opacity:1;fill-rule:nonzero;stroke:none"
             id="path66"
             inkscape:connector-curvature="0" /></g><g
           id="g68"
           transform="translate(499.769,797.1191)"><path
             d="m 0,0 -0.821,-0.015 -0.325,-0.639 -1.369,-0.299 -0.769,0.979 0.669,0.814 0.077,0.491 0.543,0.286 -0.122,1.069 0.311,0.227 0.06,1.316 0.716,1.443 -0.318,0.644 0.355,0.541 -0.026,1.693 -0.476,0.158 0.322,1.279 0.648,0.04 0.66,0.13 L 0.365,9.894 0.838,9.686 0.755,9.107 1.068,8.467 0.182,3.077 0.438,2.949 0.292,1.367 0.14,0.346 Z m -1.851,-8.813 0.033,-0.736 -0.547,-0.28 -3.711,0.545 -4.248,0.268 -1.924,0.283 -0.096,0.286 -0.552,-0.058 -0.194,0.258 -1.593,0.33 -0.032,1.008 0.389,0.171 0.259,0.782 1.365,0.301 0.457,-0.298 1.298,-0.188 0.522,0.147 0.233,-0.263 3.498,-0.421 0.601,1.005 -0.029,0.371 -0.189,1.209 -0.304,0.415 0.234,0.651 -0.243,0.173 0.162,0.206 -1.119,1.715 0.179,1.207 -0.389,0.148 -0.03,1.326 -0.722,0.696 0.244,0.696 -0.386,0.79 0.236,0.649 -0.62,0.46 -0.036,0.372 -0.266,0.034 -0.376,0.562 -1.242,1.459 0.179,1.207 -0.307,0.411 0.153,1.024 0.603,1.6 L -9.06,10.651 -9.077,9.602 -8.739,9.417 -8.837,8.743 -8.479,8.418 -8.566,7.837 -8.177,7.052 -8.241,6.603 -7.782,6.035 -7.435,5.3 -6.914,4.49 -7.017,3.778 -6.647,3.491 -6.735,2.908 -6.411,2.637 -6.187,1.367 -5.845,1.23 -5.914,0.734 l 0.638,-0.918 0.651,-0.227 -0.151,-1.028 c 0,0 0.444,-0.071 0.604,-0.228 -0.06,-0.082 -0.329,-0.405 -0.238,-0.697 0.133,-0.339 0.463,-0.25 0.846,-0.447 -0.014,-0.133 -0.096,-0.347 -0.072,-0.483 l 0.247,-0.177 c 0.105,-0.52 -0.186,-1.253 -0.186,-1.253 l 1.124,-0.438 -0.031,-0.226 0.368,-0.873 0.522,-0.808 0.041,-1.56 z"
             style="fill:#055ca9;fill-opacity:1;fill-rule:nonzero;stroke:none"
             id="path70"
             inkscape:connector-curvature="0" /></g><g
           id="g72"
           transform="translate(502.8892,787.8467)"><path
             d="m 0,0 0.251,-0.168 -0.033,-0.23 -0.411,-0.941 -2.516,0.646 0.189,0.333 0.211,0.471 -0.063,0.512 0.393,2.044 0.041,0.909 0.035,0.223 0.675,3.641 -0.253,0.175 0.384,0.714 -0.058,1.473 0.556,0.057 0.071,0.492 0.292,0.091 0.402,-0.06 1.062,-0.25 L 1.701,9.333 1.418,8.686 1.735,8.009 1.01,1.263 Z M 9.193,-1.407 8.999,-1.788 8.599,-1.727 8.11,-2.246 5.66,-2.163 5.622,-1.513 5.154,-0.945 5.21,-0.587 5.93,-0.332 6.272,0.121 6.21,0.637 5.867,1.048 5.912,2.323 5.942,2.544 6.344,2.483 6.356,3.49 6.523,3.691 6.235,4.506 6.623,6.186 6.37,6.363 6.478,7.076 6.261,7.475 6.933,7.374 7.367,8.451 6.983,8.643 l 0.416,0.03 0.06,0.404 -0.126,1.022 0.221,0.557 -0.135,0.023 -0.291,0.819 0.22,0.562 0.29,0.092 -0.007,0.87 0.369,0.672 -0.225,0.31 0.13,0.851 -0.25,0.169 -0.73,0.618 0.052,0.353 -0.941,0.138 -0.235,0.263 -1.35,0.111 -0.505,0.306 -1.058,-0.078 -0.106,0.245 -1.295,0.512 -0.549,-0.055 -0.465,0.569 -1.106,-0.066 0.237,0.696 0.073,0.489 0.425,0.076 2.921,-0.61 1.041,-0.069 1.304,-0.418 0.023,0.132 0.669,-0.097 0.167,0.204 1.052,-0.295 0.31,0.23 2.982,-0.803 0.436,0.162 0.645,-1.195 0.134,-0.019 -0.919,-1.872 0.597,-0.595 C 11.162,11.91 10.941,10.113 10.695,7.826 L 11.062,7.54 10.518,6.616 10.731,6.219 10.464,6.259 10.277,5.921 10.388,3.894 10.337,3.534 10.057,2.579 9.604,1.363 9.861,1.236 9.718,0.254 9.414,-0.846 9.803,-0.994 9.767,-1.262 Z"
             style="fill:#055ca9;fill-opacity:1;fill-rule:nonzero;stroke:none"
             id="path74"
             inkscape:connector-curvature="0" /></g><g
           id="g76"
           transform="translate(525.2231,791.6162)"><path
             d="m 0,0 -0.587,-2.697 -0.305,-0.229 -0.05,-0.352 -0.02,-1.048 -1.337,-0.082 -0.163,0.438 -0.537,0.081 0.443,0.207 0.076,0.496 -0.423,0.561 0.628,1.141 -0.327,0.593 0.511,0.061 0.057,0.356 -0.035,0.417 -0.099,0.242 0.194,1.933 0.194,0.663 -0.006,0.908 -0.268,0.04 0.373,1.636 -0.38,0.192 0.045,0.269 0.44,1.118 -0.067,2.021 0.073,0.491 -1.282,0.325 -0.259,0.678 -0.779,-0.023 h -0.916 l -1.293,0.194 -1.329,0.604 -0.645,-0.044 -0.589,0.636 0.121,-0.108 -0.225,0.948 0.759,0.522 2.395,-0.168 1.675,-0.107 0.604,-0.231 0.104,-0.242 0.813,0.249 3.168,-0.474 0.464,-0.572 0.355,-0.05 L 1.487,11.011 1.848,10.689 1.758,10.059 1.724,9.834 1.662,9.433 1.738,9.01 1.591,8.945 1.512,8.408 1.329,7.157 1.369,6.509 0.969,6.569 0.773,6.191 0.741,4.094 0.554,3.751 0.685,2.821 0.782,2.538 0.534,0.832 0.455,0.348 Z m 0.874,-8.25 -0.171,-0.253 -0.496,0.35 -1.253,0.19 -0.308,-0.236 -0.72,0.385 -2.433,0.222 -0.089,0.286 -1.161,-0.1 -2.054,0.298 -0.45,0.345 -0.176,-0.251 -1.785,0.266 -0.716,0.424 -0.506,-0.06 0.26,1.147 -0.089,0.016 0.039,0.267 -0.382,0.195 0.164,0.205 0.418,0.344 4.589,-0.768 0.397,0.216 1.944,-0.106 0.781,0.023 -0.035,-0.271 0.529,-0.075 -0.035,-0.228 1.782,-0.036 0.097,-0.242 1.498,0.241 0.05,-0.283 L 1.321,-5.854 1.477,-6.655 1.044,-7.092 0.969,-7.627 1.191,-7.659 1.173,-7.791 1.269,-8.036 Z"
             style="fill:#055ca9;fill-opacity:1;fill-rule:nonzero;stroke:none"
             id="path78"
             inkscape:connector-curvature="0" /></g><g
           id="g80"
           transform="translate(547.5425,813.4424)"><path
             d="m 0,0 c 0.699,0.392 1.395,0.804 2.067,1.234 l 0.05,0.033 h 0.01 C 2.38,1.41 2.697,1.375 2.916,1.188 L 3.074,0.997 C 3.174,0.812 3.193,0.586 3.107,0.381 2.269,-1.572 1.577,-3.6 1.037,-5.698 c 4.218,1.322 8.631,1.997 13.072,1.985 0.784,0 1.567,-0.022 2.351,-0.067 l 0.192,0.051 C 12.49,-1.197 8.781,2.044 5.717,5.871 5.596,6.025 5.405,6.126 5.201,6.132 5.074,6.135 4.944,6.106 4.831,6.044 L 4.659,5.912 C 2.868,4.052 1.262,2.04 -0.152,-0.081 l 0.143,0.076 z"
             style="fill:#ed3c93;fill-opacity:1;fill-rule:nonzero;stroke:none"
             id="path82"
             inkscape:connector-curvature="0" /></g><g
           id="g84"
           transform="translate(547.3296,799.8193)"><path
             d="M 0,0 C 1.192,0.83 2.433,1.604 3.73,2.323 3.987,2.464 4.241,2.6 4.504,2.731 4.799,2.893 5.09,3.035 5.385,3.18 L 5.354,3.195 C 5.209,3.17 5.064,3.185 4.929,3.247 3.509,3.897 2.061,4.466 0.598,4.954 0.325,3.442 0.133,1.901 0.019,0.334 0.012,0.226 0.003,0.112 0,0"
             style="fill:#ed3c93;fill-opacity:1;fill-rule:nonzero;stroke:none"
             id="path86"
             inkscape:connector-curvature="0" /></g><g
           id="g88"
           transform="translate(557.5415,802.6099)"><path
             d="M 0,0 C -0.112,0.766 -0.247,1.528 -0.403,2.274 -1.843,1.753 -3.274,1.156 -4.683,0.46 L -4.827,0.389 c 1.586,-0.743 3.137,-1.593 4.65,-2.551 0.157,-0.103 0.315,-0.208 0.474,-0.31 l -0.01,0.138 C 0.229,-1.694 0.151,-1.052 0.064,-0.42 H 0.063 Z"
             style="fill:#904b96;fill-opacity:1;fill-rule:nonzero;stroke:none"
             id="path90"
             inkscape:connector-curvature="0" /></g><g
           id="g92"
           transform="translate(572.604,808.0469)"><path
             d="m 0,0 -0.001,0.008 -0.043,0.109 -0.074,0.117 -0.099,0.107 -0.098,0.06 -0.101,0.056 -0.031,0.014 -0.003,0.001 h -0.013 l -0.03,0.012 c -2.578,0.638 -5.181,1.032 -7.795,1.19 L -8.409,1.667 -8.15,1.507 -8.141,1.499 c 0.697,-0.411 1.4,-0.806 2.115,-1.181 h 0.005 c 0.122,-0.068 0.218,-0.163 0.285,-0.285 0.075,-0.138 0.104,-0.298 0.073,-0.465 -0.04,-0.206 -0.17,-0.381 -0.35,-0.479 l -0.008,-0.005 -0.244,-0.083 c -2.106,-0.247 -4.213,-0.661 -6.296,-1.242 0.49,-0.454 0.967,-0.92 1.442,-1.397 l 10e-4,-0.002 0.016,-0.019 c 1.725,-1.744 3.302,-3.623 4.713,-5.631 0.892,-1.279 1.727,-2.611 2.485,-3.989 0.263,-0.483 0.522,-0.978 0.775,-1.479 l 0.009,-0.013 c 0.068,-0.147 0.141,-0.3 0.211,-0.448 l 0.037,0.203 c 0.081,4.964 1.043,9.906 2.857,14.565 l 0.014,0.033 v 0.017 l 0.006,0.011 0.005,0.03 0.014,0.098 v 0.007 L 0.029,-0.131 0,0"
             style="fill:#904b96;fill-opacity:1;fill-rule:nonzero;stroke:none"
             id="path94"
             inkscape:connector-curvature="0" /></g><g
           id="g96"
           transform="translate(552.8589,803.0684)"><path
             d="m 0,0 -0.176,-0.056 0.031,-0.012 z"
             style="fill:#904b96;fill-opacity:1;fill-rule:nonzero;stroke:none"
             id="path98"
             inkscape:connector-curvature="0" /></g><g
           id="g100"
           transform="translate(564.1284,809.6563)"><path
             d="M 0,0 C 0.115,-0.005 0.221,-0.037 0.318,-0.101 L 0.331,-0.107 0.325,-0.103 0.066,0.06 -0.127,0.009 0,0"
             style="fill:#904b96;fill-opacity:1;fill-rule:nonzero;stroke:none"
             id="path102"
             inkscape:connector-curvature="0" /></g><g
           id="g104"
           transform="translate(535.7163,801.3213)"><path
             d="M 0,0 C 0,0.617 -0.013,1.236 -0.039,1.847 -0.051,2.121 0.094,2.373 0.324,2.493 L 0.426,2.539 C 0.714,2.644 1.036,2.544 1.221,2.298 2.489,0.593 3.903,-1.021 5.45,-2.532 6.594,2.586 8.664,7.482 11.576,11.896 l 0.098,0.142 -0.061,-0.031 C 7.336,9.65 2.644,8.051 -2.233,7.307 L -2.461,7.23 C -2.561,7.173 -2.652,7.09 -2.718,6.979 -2.819,6.823 -2.849,6.613 -2.8,6.42 -2.076,3.932 -1.139,1.533 -0.012,-0.752 l 0.006,0.164 C 0,-0.392 0,-0.196 0,0"
             style="fill:#ffcc06;fill-opacity:1;fill-rule:nonzero;stroke:none"
             id="path106"
             inkscape:connector-curvature="0" /></g><g
           id="g108"
           transform="translate(547.1489,793.9155)"><path
             d="m 0,0 0.25,-0.163 c -0.098,1.2 -0.153,2.415 -0.149,3.641 0,0.536 0.016,1.078 0.034,1.623 0.017,0.268 0.028,0.536 0.046,0.804 L -0.09,5.718 -0.101,5.709 H -0.104 C -1.38,4.808 -2.591,3.843 -3.735,2.827 -2.565,1.832 -1.324,0.896 -0.024,0.022 L 0,0"
             style="fill:#ffcc06;fill-opacity:1;fill-rule:nonzero;stroke:none"
             id="path110"
             inkscape:connector-curvature="0" /></g><g
           id="g112"
           transform="translate(547.0591,799.6333)"><path
             d="m 0,0 -0.014,-0.009 h 0.003 z"
             style="fill:#ffcc06;fill-opacity:1;fill-rule:nonzero;stroke:none"
             id="path114"
             inkscape:connector-curvature="0" /></g><g
           id="g116"
           transform="translate(547.0591,799.6333)"><path
             d="M 0,0 0.271,0.188 C 0.273,0.298 0.282,0.412 0.289,0.521 0.277,0.312 0.168,0.123 0,0"
             style="fill:#ffcc06;fill-opacity:1;fill-rule:nonzero;stroke:none"
             id="path118"
             inkscape:connector-curvature="0" /></g><g
           id="g120"
           transform="translate(547.5337,813.437)"><path
             d="M 0,0 0.009,0.008 0.001,0.004 -0.142,-0.075 -0.241,-0.222 C -0.179,-0.129 -0.102,-0.054 0,0"
             style="fill:#ffcc06;fill-opacity:1;fill-rule:nonzero;stroke:none"
             id="path122"
             inkscape:connector-curvature="0" /></g><g
           id="g124"
           transform="translate(569.5347,792.3462)"><path
             d="m 0,0 c 0,-0.613 0.015,-1.221 0.039,-1.824 0.009,-0.269 -0.127,-0.51 -0.362,-0.638 l -0.104,-0.047 c -0.291,-0.104 -0.608,-0.012 -0.795,0.237 -1.266,1.702 -2.679,3.317 -4.223,4.833 -1.142,-5.116 -3.212,-10.014 -6.121,-14.427 l -0.092,-0.14 0.034,0.019 c 4.288,2.358 8.979,3.965 13.863,4.707 l 0.233,0.078 c 0.104,0.056 0.187,0.137 0.248,0.235 0.109,0.169 0.142,0.379 0.083,0.569 C 2.116,-4.016 1.228,-1.714 0.16,0.482 0.13,0.382 0.075,0.293 0.005,0.221 L 0,0"
             style="fill:#1ebaed;fill-opacity:1;fill-rule:nonzero;stroke:none"
             id="path126"
             inkscape:connector-curvature="0" /></g><g
           id="g128"
           transform="translate(557.9106,799.999)"><path
             d="m 0,0 -0.051,0.125 -0.014,0.006 c 0.104,-1.241 0.161,-2.499 0.158,-3.775 0,-0.555 -0.015,-1.114 -0.035,-1.678 L 0.056,-5.321 C 0.045,-5.592 0.03,-5.857 0.016,-6.127 l 0.241,0.168 0.029,0.02 C 1.564,-5.03 2.781,-4.069 3.93,-3.042 2.761,-2.053 1.527,-1.119 0.229,-0.243 0.127,-0.182 0.056,-0.087 0,0"
             style="fill:#1ebaed;fill-opacity:1;fill-rule:nonzero;stroke:none"
             id="path130"
             inkscape:connector-curvature="0" /></g><g
           id="g132"
           transform="translate(557.8286,800.2759)"><path
             d="M 0,0 0.01,-0.139 0.031,-0.152 Z"
             style="fill:#1ebaed;fill-opacity:1;fill-rule:nonzero;stroke:none"
             id="path134"
             inkscape:connector-curvature="0" /></g><g
           id="g136"
           transform="translate(569.5425,792.9751)"><path
             d="m 0,0 c -0.003,-0.14 -0.003,-0.276 -0.003,-0.408 0.07,0.073 0.125,0.161 0.155,0.261 C 0.082,0.004 0.01,0.153 -0.059,0.301 -0.021,0.205 0.002,0.1 0,0"
             style="fill:#1ebaed;fill-opacity:1;fill-rule:nonzero;stroke:none"
             id="path138"
             inkscape:connector-curvature="0" /></g><g
           id="g140"
           transform="translate(561.4849,804.4087)"><path
             d="M 0,0 C -0.475,0.477 -0.952,0.943 -1.441,1.397 L -1.447,1.396 C -0.954,0.941 -0.475,0.477 0,0"
             style="fill:#18a4dd;fill-opacity:1;fill-rule:nonzero;stroke:none"
             id="path142"
             inkscape:connector-curvature="0" /></g><g
           id="g144"
           transform="translate(557.9087,793.5396)"><path
             d="m 0,0 c 0.002,0.108 0.01,0.22 0.018,0.333 -1.193,-0.824 -2.436,-1.599 -3.74,-2.313 -0.256,-0.149 -0.513,-0.285 -0.77,-0.421 -0.242,-0.121 -0.482,-0.247 -0.725,-0.368 l 0.271,-0.124 0.033,-0.015 c 1.425,-0.66 2.874,-1.221 4.337,-1.707 C -0.307,-3.11 -0.113,-1.57 0,0"
             style="fill:#54b852;fill-opacity:1;fill-rule:nonzero;stroke:none"
             id="path146"
             inkscape:connector-curvature="0" /></g><g
           id="g148"
           transform="translate(557.7339,780.2651)"><path
             d="M 0,0 -0.012,-0.011 C -0.716,-0.403 -1.42,-0.823 -2.108,-1.255 l -0.014,-0.008 -0.021,-0.011 -0.006,-0.005 c -0.252,-0.139 -0.564,-0.107 -0.784,0.076 L -3.1,-1.002 c -0.1,0.185 -0.109,0.41 -0.022,0.614 0.836,1.95 1.533,3.981 2.069,6.076 -4.222,-1.322 -8.633,-1.998 -13.073,-1.987 -0.825,0 -1.656,0.026 -2.482,0.073 h -0.005 l -0.167,0.014 c 4.193,-2.539 7.943,-5.807 11.04,-9.671 0.128,-0.165 0.318,-0.256 0.512,-0.264 0.136,-0.006 0.256,0.028 0.371,0.089 l 0.006,0.008 0.158,0.114 c 1.805,1.87 3.414,3.88 4.836,6.011 L 0.017,0.006 Z"
             style="fill:#54b852;fill-opacity:1;fill-rule:nonzero;stroke:none"
             id="path150"
             inkscape:connector-curvature="0" /></g><g
           id="g152"
           transform="translate(557.7339,780.2651)"><path
             d="m 0,0 0.017,0.006 0.126,0.069 0.091,0.14 z"
             style="fill:#54b852;fill-opacity:1;fill-rule:nonzero;stroke:none"
             id="path154"
             inkscape:connector-curvature="0" /></g><g
           id="g156"
           transform="translate(557.9087,793.5396)"><path
             d="M 0,0 C 0.01,0.196 0.104,0.377 0.259,0.5 L 0.018,0.333 C 0.01,0.22 0.002,0.108 0,0"
             style="fill:#54b852;fill-opacity:1;fill-rule:nonzero;stroke:none"
             id="path158"
             inkscape:connector-curvature="0" /></g><g
           id="g160"
           transform="translate(564.5659,798.3198)"><path
             d="M 0,0 C -0.066,0.119 -0.168,0.219 -0.295,0.286 -0.505,0.391 -0.748,0.385 -0.946,0.277 L -1.119,0.145 C -1.3,-0.036 -1.491,-0.223 -1.688,-0.407 -1.838,-0.551 -1.989,-0.692 -2.146,-0.837 -2.332,-1.011 -2.529,-1.186 -2.726,-1.362 -3.874,-2.39 -5.091,-3.351 -6.369,-4.26 l -0.029,-0.02 c -0.155,-0.124 -0.249,-0.306 -0.259,-0.502 -0.114,-1.569 -0.307,-3.109 -0.576,-4.614 0.247,-0.084 0.496,-0.164 0.743,-0.243 0.201,-0.059 0.397,-0.122 0.599,-0.176 0.262,-0.079 0.523,-0.155 0.785,-0.221 h 0.002 c 0.188,-0.054 0.336,-0.177 0.431,-0.343 0.048,-0.09 0.078,-0.188 0.086,-0.303 0.01,-0.266 -0.127,-0.513 -0.365,-0.645 l -0.08,-0.035 c -0.425,-0.173 -0.852,-0.326 -1.281,-0.482 -0.122,-0.041 -0.247,-0.088 -0.37,-0.132 -0.396,-0.138 -0.798,-0.265 -1.202,-0.391 -0.536,-2.096 -1.233,-4.127 -2.069,-6.077 -0.085,-0.202 -0.078,-0.428 0.022,-0.616 l 0.167,-0.195 c 0.22,-0.185 0.532,-0.218 0.784,-0.08 l 0.006,0.002 0.021,0.015 0.014,0.008 c 0.688,0.431 1.392,0.852 2.096,1.247 l 0.01,0.005 c 0.097,0.058 0.178,0.132 0.236,0.219 2.91,4.413 4.98,9.31 6.121,14.426 0.09,0.413 0.18,0.825 0.26,1.241 0.027,0.125 0.046,0.254 0.071,0.382 0.08,0.452 0.159,0.895 0.227,1.349 C 0.103,-0.287 0.074,-0.135 0,0"
             style="fill:#31a549;fill-opacity:1;fill-rule:nonzero;stroke:none"
             id="path162"
             inkscape:connector-curvature="0" /></g><g
           id="g164"
           transform="translate(552.4019,790.6304)"><path
             d="m 0,0 c 0.1,0.049 0.194,0.097 0.289,0.141 -1.567,0.74 -3.107,1.58 -4.605,2.536 -0.231,0.147 -0.457,0.292 -0.687,0.446 0.011,-0.113 0.017,-0.222 0.026,-0.333 0.146,-1.566 0.375,-3.102 0.691,-4.604 1.432,0.513 2.859,1.11 4.255,1.795 L 0,0"
             style="fill:#e61c4d;fill-opacity:1;fill-rule:nonzero;stroke:none"
             id="path166"
             inkscape:connector-curvature="0" /></g><g
           id="g168"
           transform="translate(540.8071,784.1387)"><path
             d="m 0,0 c -0.693,0.418 -1.406,0.815 -2.129,1.191 -0.124,0.069 -0.226,0.175 -0.292,0.287 -0.073,0.135 -0.1,0.302 -0.07,0.454 0.033,0.216 0.164,0.396 0.348,0.497 l 0.257,0.076 C 0.223,2.756 2.328,3.169 4.413,3.754 2.104,5.871 0.037,8.234 -1.76,10.8 c -0.903,1.284 -1.726,2.611 -2.484,3.984 -0.266,0.488 -0.523,0.978 -0.769,1.466 l -0.014,0.029 0.006,-0.005 -0.082,0.156 C -5.198,11.521 -6.147,6.638 -7.95,2.018 -8.025,1.842 -8.015,1.635 -7.928,1.456 l 0.003,-0.009 h 0.002 l 0.01,-0.014 C -7.82,1.26 -7.658,1.137 -7.475,1.091 -4.951,0.465 -2.406,0.078 0.146,-0.086 L 0.014,-0.007 0,0"
             style="fill:#e61c4d;fill-opacity:1;fill-rule:nonzero;stroke:none"
             id="path170"
             inkscape:connector-curvature="0" /></g><g
           id="g172"
           transform="translate(547.1489,793.9155)"><path
             d="m 0,0 0.199,-0.225 c 0.044,-0.08 0.072,-0.171 0.077,-0.27 -0.009,0.111 -0.015,0.22 -0.026,0.332 L 0,0"
             style="fill:#e61c4d;fill-opacity:1;fill-rule:nonzero;stroke:none"
             id="path174"
             inkscape:connector-curvature="0" /></g><g
           id="g176"
           transform="translate(535.7798,800.4175)"><path
             d="M 0,0 0.015,-0.027 0.006,-0.006 C -0.049,0.098 -0.069,0.203 -0.069,0.317 L -0.075,0.151 0.006,-0.006 Z"
             style="fill:#e61c4d;fill-opacity:1;fill-rule:nonzero;stroke:none"
             id="path178"
             inkscape:connector-curvature="0" /></g><g
           id="g180"
           transform="translate(540.8208,784.1313)"><path
             d="M 0,0 0.133,-0.079 0.3,-0.093 C 0.196,-0.081 0.097,-0.055 0,0"
             style="fill:#e61c4d;fill-opacity:1;fill-rule:nonzero;stroke:none"
             id="path182"
             inkscape:connector-curvature="0" /></g><g
           id="g184"
           transform="translate(552.4019,790.6304)"><path
             d="m 0,0 -0.031,-0.019 0.027,0.014 C 0.173,0.078 0.38,0.088 0.561,0.017 L 0.289,0.141 C 0.194,0.097 0.1,0.049 0,0"
             style="fill:#e61c4d;fill-opacity:1;fill-rule:nonzero;stroke:none"
             id="path186"
             inkscape:connector-curvature="0" /></g><g
           id="g188"
           transform="translate(559.8931,787.9404)"><path
             d="M 0,0 C -0.095,0.163 -0.243,0.289 -0.431,0.343 H -0.434 C -0.695,0.412 -0.956,0.486 -1.218,0.562 -1.416,0.618 -1.617,0.683 -1.815,0.739 -2.064,0.819 -2.313,0.901 -2.561,0.986 -4.023,1.471 -5.473,2.031 -6.897,2.69 L -6.931,2.707 C -7.111,2.778 -7.318,2.769 -7.495,2.685 L -7.522,2.671 c -1.396,-0.687 -2.824,-1.28 -4.255,-1.796 0.053,-0.259 0.111,-0.513 0.165,-0.769 0.047,-0.204 0.095,-0.404 0.141,-0.609 0.066,-0.263 0.132,-0.528 0.202,-0.787 v -0.005 c 0.077,-0.287 -0.042,-0.598 -0.29,-0.762 l -0.028,-0.013 -0.02,-0.003 -0.005,-0.01 c -0.245,-0.139 -0.544,-0.114 -0.77,0.064 -0.355,0.284 -0.704,0.578 -1.05,0.875 -0.098,0.081 -0.195,0.163 -0.296,0.245 -0.318,0.283 -0.636,0.563 -0.945,0.851 -2.085,-0.584 -4.19,-0.997 -6.299,-1.249 l -0.257,-0.076 c -0.184,-0.101 -0.315,-0.28 -0.348,-0.497 -0.03,-0.151 -0.003,-0.318 0.07,-0.456 0.066,-0.11 0.168,-0.216 0.292,-0.284 0.723,-0.377 1.436,-0.773 2.129,-1.192 l 0.014,-0.007 c 0.096,-0.055 0.196,-0.081 0.3,-0.093 h 0.002 c 0.829,-0.049 1.66,-0.072 2.485,-0.072 4.44,-0.013 8.85,0.666 13.073,1.987 0.403,0.126 0.806,0.252 1.202,0.391 0.123,0.044 0.248,0.091 0.366,0.132 0.433,0.155 0.86,0.309 1.285,0.482 l 0.08,0.034 c 0.238,0.131 0.375,0.383 0.365,0.646 C 0.078,-0.189 0.048,-0.089 0,0"
             style="fill:#c81f43;fill-opacity:1;fill-rule:nonzero;stroke:none"
             id="path190"
             inkscape:connector-curvature="0" /></g><g
           id="g192"
           transform="translate(548.6245,786.6455)"><path
             d="m 0,0 v 0.005 c -0.07,0.259 -0.137,0.524 -0.199,0.787 -0.049,0.205 -0.098,0.405 -0.145,0.609 -0.053,0.256 -0.111,0.512 -0.165,0.769 -0.315,1.503 -0.545,3.039 -0.69,4.605 -0.006,0.099 -0.033,0.19 -0.08,0.27 L -1.476,7.27 -1.492,7.284 C -2.8,8.166 -4.041,9.102 -5.211,10.097 -5.404,9.92 -5.599,9.743 -5.789,9.569 -5.944,9.427 -6.1,9.284 -6.247,9.143 -6.45,8.953 -6.647,8.755 -6.844,8.561 L -6.991,8.454 C -7.188,8.346 -7.437,8.335 -7.646,8.445 c -0.125,0.067 -0.232,0.167 -0.292,0.284 -0.077,0.136 -0.106,0.288 -0.077,0.444 0.064,0.45 0.144,0.899 0.224,1.35 0.024,0.127 0.049,0.251 0.07,0.379 0.082,0.413 0.168,0.826 0.263,1.242 -1.547,1.51 -2.961,3.125 -4.23,4.83 -0.184,0.246 -0.506,0.345 -0.794,0.24 l -0.102,-0.045 c -0.23,-0.12 -0.375,-0.373 -0.363,-0.647 0.026,-0.61 0.039,-1.228 0.039,-1.846 0,-0.196 0,-0.392 -0.006,-0.589 0,-0.109 0.02,-0.217 0.075,-0.321 l 0.009,-0.021 c 0.246,-0.49 0.503,-0.979 0.768,-1.468 0.758,-1.373 1.584,-2.698 2.485,-3.983 1.797,-2.566 3.864,-4.93 6.173,-7.046 0.308,-0.29 0.627,-0.569 0.945,-0.852 0.101,-0.082 0.197,-0.164 0.296,-0.245 0.346,-0.297 0.694,-0.591 1.05,-0.875 0.225,-0.178 0.524,-0.203 0.769,-0.063 l 0.005,0.009 0.023,0.003 0.026,0.013 C -0.042,-0.598 0.076,-0.287 0,0"
             style="fill:#e6b821;fill-opacity:1;fill-rule:nonzero;stroke:none"
             id="path194"
             inkscape:connector-curvature="0" /></g><g
           id="g196"
           transform="translate(550.6167,814.4395)"><path
             d="m 0,0 -0.158,0.191 c -0.219,0.187 -0.536,0.222 -0.789,0.081 h -0.01 L -1.007,0.238 C -1.68,-0.195 -2.375,-0.605 -3.074,-0.997 l -0.008,-0.001 c -0.103,-0.058 -0.18,-0.133 -0.242,-0.225 -2.913,-4.413 -4.983,-9.309 -6.126,-14.427 -0.095,-0.414 -0.181,-0.829 -0.263,-1.242 -0.021,-0.129 -0.046,-0.252 -0.07,-0.377 -0.08,-0.453 -0.16,-0.904 -0.224,-1.352 -0.029,-0.156 0,-0.308 0.077,-0.443 0.06,-0.118 0.166,-0.218 0.292,-0.285 0.209,-0.109 0.458,-0.099 0.655,0.009 l 0.147,0.106 c 0.196,0.198 0.394,0.393 0.597,0.583 0.147,0.141 0.302,0.286 0.458,0.426 0.19,0.174 0.385,0.351 0.578,0.528 1.144,1.016 2.355,1.981 3.632,2.882 l 0.013,0.009 c 0.168,0.123 0.278,0.311 0.289,0.52 0.115,1.567 0.307,3.108 0.58,4.619 -0.249,0.084 -0.5,0.164 -0.749,0.247 -0.198,0.061 -0.4,0.118 -0.598,0.174 -0.259,0.079 -0.521,0.152 -0.788,0.229 -0.185,0.05 -0.34,0.174 -0.431,0.338 -0.045,0.085 -0.074,0.189 -0.084,0.287 -0.015,0.279 0.134,0.532 0.36,0.659 l 0.085,0.041 c 0.426,0.164 0.852,0.321 1.285,0.471 0.118,0.043 0.244,0.086 0.369,0.134 0.398,0.136 0.801,0.266 1.203,0.389 0.54,2.102 1.231,4.132 2.07,6.083 C 0.119,-0.413 0.1,-0.187 0,0"
             style="fill:#d51080;fill-opacity:1;fill-rule:nonzero;stroke:none"
             id="path198"
             inkscape:connector-curvature="0" /></g><g
           id="g200"
           transform="translate(556.9038,807.7939)"><path
             d="M 0,0 0.063,0.042 0.067,0.046 H 0.06 L 0.002,0.008 C -0.173,-0.122 -0.28,-0.323 -0.295,-0.533 -0.28,-0.323 -0.173,-0.122 0,0"
             style="fill:#87348c;fill-opacity:1;fill-rule:nonzero;stroke:none"
             id="path202"
             inkscape:connector-curvature="0" /></g><g
           id="g204"
           transform="translate(557.5796,807.873)"><path
             d="M 0,0 0.163,-0.1 C 0.521,-0.383 0.868,-0.672 1.214,-0.964 0.868,-0.672 0.521,-0.383 0.163,-0.1 L 0,0"
             style="fill:#87348c;fill-opacity:1;fill-rule:nonzero;stroke:none"
             id="path206"
             inkscape:connector-curvature="0" /></g><g
           id="g208"
           transform="translate(560.0376,805.8042)"><path
             d="M 0,0 0.006,0.002 -0.25,0.228 Z"
             style="fill:#87348c;fill-opacity:1;fill-rule:nonzero;stroke:none"
             id="path210"
             inkscape:connector-curvature="0" /></g><g
           id="g212"
           transform="translate(559.0952,806.6489)"><path
             d="M 0,0 C -0.098,0.088 -0.198,0.171 -0.302,0.26 -0.198,0.171 -0.098,0.088 0,0"
             style="fill:#87348c;fill-opacity:1;fill-rule:nonzero;stroke:none"
             id="path214"
             inkscape:connector-curvature="0" /></g><g
           id="g216"
           transform="translate(559.0952,806.6475)"><path
             d="M 0,0 C 0.109,-0.09 0.215,-0.191 0.324,-0.286 0.215,-0.191 0.109,-0.09 0,0.001 Z"
             style="fill:#87348c;fill-opacity:1;fill-rule:nonzero;stroke:none"
             id="path218"
             inkscape:connector-curvature="0" /></g><g
           id="g220"
           transform="translate(566.8677,808.0801)"><path
             d="M 0,0 C -0.066,0.12 -0.163,0.216 -0.285,0.285 H -0.29 c -0.715,0.375 -1.418,0.77 -2.109,1.179 l -0.022,0.011 c -0.098,0.063 -0.203,0.098 -0.318,0.101 l -0.127,0.007 c -0.783,0.044 -1.567,0.066 -2.35,0.066 -4.441,0.012 -8.854,-0.663 -13.072,-1.985 -0.402,-0.126 -0.805,-0.257 -1.203,-0.392 -0.125,-0.046 -0.251,-0.091 -0.369,-0.135 -0.433,-0.149 -0.859,-0.305 -1.285,-0.47 l -0.085,-0.041 c -0.226,-0.126 -0.375,-0.379 -0.36,-0.659 0.01,-0.099 0.035,-0.202 0.084,-0.289 0.091,-0.163 0.246,-0.284 0.431,-0.337 0.267,-0.072 0.529,-0.15 0.788,-0.228 0.198,-0.056 0.4,-0.113 0.599,-0.176 0.248,-0.081 0.499,-0.158 0.747,-0.243 1.462,-0.485 2.912,-1.057 4.332,-1.711 0.135,-0.059 0.28,-0.074 0.424,-0.05 l 0.176,0.055 c 1.408,0.695 2.84,1.295 4.28,1.816 -0.051,0.253 -0.105,0.509 -0.164,0.765 -0.043,0.201 -0.09,0.402 -0.142,0.602 -0.065,0.269 -0.133,0.534 -0.201,0.796 l -0.023,0.214 c 0.015,0.212 0.122,0.41 0.297,0.54 l 0.058,0.039 h 0.008 c 0.187,0.102 0.414,0.116 0.608,0.035 l 0.163,-0.102 c 0.358,-0.283 0.705,-0.572 1.051,-0.864 0.103,-0.089 0.204,-0.172 0.302,-0.26 0.109,-0.092 0.214,-0.191 0.324,-0.286 0.127,-0.112 0.245,-0.221 0.368,-0.331 l 0.256,-0.227 c 2.083,0.582 4.189,0.998 6.296,1.242 l 0.243,0.082 0.009,0.005 c 0.179,0.099 0.309,0.275 0.349,0.481 C 0.104,-0.297 0.075,-0.138 0,0"
             style="fill:#87348c;fill-opacity:1;fill-rule:nonzero;stroke:none"
             id="path222"
             inkscape:connector-curvature="0" /></g><g
           id="g224"
           transform="translate(557.5415,802.6099)"><path
             d="M 0,0 0.063,-0.42 H 0.064 C -0.063,0.488 -0.214,1.385 -0.399,2.278 L -0.403,2.274 C -0.247,1.528 -0.112,0.766 0,0"
             style="fill:#18a4dd;fill-opacity:1;fill-rule:nonzero;stroke:none"
             id="path226"
             inkscape:connector-curvature="0" /></g><g
           id="g228"
           transform="translate(561.4858,804.4067)"><path
             d="M 0,0 -0.001,0.004 0.017,-0.019 Z"
             style="fill:#18a4dd;fill-opacity:1;fill-rule:nonzero;stroke:none"
             id="path230"
             inkscape:connector-curvature="0" /></g><g
           id="g232"
           transform="translate(557.5796,807.873)"><path
             d="M 0,0 C -0.194,0.081 -0.421,0.069 -0.608,-0.031 -0.42,0.069 -0.191,0.081 0,0"
             style="fill:#18a4dd;fill-opacity:1;fill-rule:nonzero;stroke:none"
             id="path234"
             inkscape:connector-curvature="0" /></g><g
           id="g236"
           transform="translate(556.6313,807.0474)"><path
             d="M 0,0 C 0.072,-0.262 0.137,-0.526 0.203,-0.796 0.137,-0.526 0.072,-0.262 0,0"
             style="fill:#18a4dd;fill-opacity:1;fill-rule:nonzero;stroke:none"
             id="path238"
             inkscape:connector-curvature="0" /></g><g
           id="g240"
           transform="translate(556.6313,807.0474)"><path
             d="M 0,0 -0.022,0.213 Z"
             style="fill:#18a4dd;fill-opacity:1;fill-rule:nonzero;stroke:none"
             id="path242"
             inkscape:connector-curvature="0" /></g><g
           id="g244"
           transform="translate(559.4194,806.3613)"><path
             d="M 0,0 C 0.127,-0.11 0.245,-0.219 0.368,-0.33 0.245,-0.219 0.127,-0.11 0,0"
             style="fill:#18a4dd;fill-opacity:1;fill-rule:nonzero;stroke:none"
             id="path246"
             inkscape:connector-curvature="0" /></g><g
           id="g248"
           transform="translate(556.8345,806.2515)"><path
             d="M 0,0 V 0 C 0.05,-0.201 0.098,-0.402 0.141,-0.601 0.202,-0.86 0.253,-1.114 0.304,-1.368 l 0.004,0.004 C 0.256,-1.113 0.202,-0.854 0.141,-0.598 0.098,-0.396 0.05,-0.201 0,0"
             style="fill:#18a4dd;fill-opacity:1;fill-rule:nonzero;stroke:none"
             id="path250"
             inkscape:connector-curvature="0" /></g><g
           id="g252"
           transform="translate(569.5347,792.3462)"><path
             d="m 0,0 0.005,0.221 c 0,0.132 0,0.268 0.003,0.408 0.002,0.1 -0.02,0.204 -0.059,0.301 L -0.06,0.946 c -0.253,0.495 -0.511,0.993 -0.775,1.473 -0.758,1.378 -1.593,2.713 -2.484,3.991 -1.327,1.888 -2.804,3.664 -4.407,5.317 h 0.003 l -0.309,0.315 -0.018,0.023 c -0.474,0.477 -0.957,0.938 -1.447,1.392 l -0.25,0.229 c -0.123,0.11 -0.241,0.219 -0.368,0.331 -0.11,0.093 -0.215,0.194 -0.324,0.284 v 0.002 c -0.098,0.088 -0.199,0.171 -0.302,0.26 -0.346,0.292 -0.693,0.581 -1.051,0.865 l -0.163,0.101 c -0.191,0.081 -0.417,0.067 -0.608,-0.035 l -0.004,-0.004 -0.064,-0.042 c -0.173,-0.123 -0.28,-0.322 -0.295,-0.533 l 0.023,-0.214 c 0.072,-0.262 0.136,-0.527 0.203,-0.796 0.05,-0.2 0.097,-0.396 0.139,-0.597 0.06,-0.257 0.117,-0.516 0.168,-0.766 0.187,-0.895 0.336,-1.792 0.464,-2.699 0.087,-0.633 0.164,-1.273 0.223,-1.913 l 0.031,-0.153 0.051,-0.124 c 0.056,-0.088 0.129,-0.182 0.229,-0.243 1.298,-0.876 2.532,-1.81 3.701,-2.799 0.196,0.175 0.393,0.352 0.58,0.526 0.156,0.144 0.307,0.286 0.458,0.43 0.196,0.184 0.388,0.371 0.568,0.552 l 0.173,0.131 c 0.198,0.109 0.441,0.115 0.651,0.009 C -5.137,6.192 -5.036,6.093 -4.969,5.974 -4.895,5.838 -4.866,5.688 -4.888,5.533 -4.956,5.079 -5.035,4.635 -5.115,4.184 -5.14,4.055 -5.159,3.926 -5.186,3.801 -5.266,3.385 -5.355,2.974 -5.445,2.561 c 1.544,-1.516 2.957,-3.131 4.223,-4.833 0.187,-0.249 0.504,-0.341 0.795,-0.237 l 0.104,0.047 c 0.235,0.128 0.371,0.369 0.362,0.638 C 0.015,-1.221 0,-0.613 0,0"
             style="fill:#18a4dd;fill-opacity:1;fill-rule:nonzero;stroke:none"
             id="path254"
             inkscape:connector-curvature="0" /></g><g
           id="g256"
           transform="translate(420.5161,774.5337)"><path
             d="M 0,0 H -0.838 V -5.162 H -1.871 V 0 H -4.935 V 0.862 H 0 Z"
             style="fill:#77797c;fill-opacity:1;fill-rule:nonzero;stroke:none"
             id="path258"
             inkscape:connector-curvature="0" /></g><g
           id="g260"
           transform="translate(423.4556,769.3716)"><path
             d="M 0,0 H -1.034 V 5.162 H -2.066 V 6.024 H 0 Z"
             style="fill:#77797c;fill-opacity:1;fill-rule:nonzero;stroke:none"
             id="path262"
             inkscape:connector-curvature="0" /></g><g
           id="g264"
           transform="translate(429.8228,769.3716)"><path
             d="m 0,0 h -4.934 v 0.86 h 3.052 v 4.302 h -3.052 v 0.862 h 4.083 V 0.86 H 0 Z"
             style="fill:#77797c;fill-opacity:1;fill-rule:nonzero;stroke:none"
             id="path266"
             inkscape:connector-curvature="0" /></g><g
           id="g268"
           transform="translate(435.146,772.3784)"><path
             d="m 0,0 c 0,-0.92 -0.191,-1.631 -0.575,-2.136 -0.434,-0.581 -1.097,-0.871 -1.984,-0.871 h -1.8 v 0.86 h 1.709 c 0.595,0 1.028,0.219 1.296,0.653 0.214,0.353 0.322,0.85 0.322,1.494 0,0.648 -0.105,1.146 -0.311,1.491 -0.266,0.444 -0.703,0.664 -1.307,0.664 h -1.709 v 0.862 h 1.8 c 0.879,0 1.538,-0.29 1.975,-0.873 C -0.195,1.625 0,0.909 0,0"
             style="fill:#77797c;fill-opacity:1;fill-rule:nonzero;stroke:none"
             id="path270"
             inkscape:connector-curvature="0" /></g><g
           id="g272"
           transform="translate(441.1714,769.3716)"><path
             d="m 0,0 h -4.935 v 0.86 h 3.053 V 5.162 H -4.935 V 6.024 H -0.85 V 0.86 H 0 Z"
             style="fill:#77797c;fill-opacity:1;fill-rule:nonzero;stroke:none"
             id="path274"
             inkscape:connector-curvature="0" /></g><g
           id="g276"
           transform="translate(449.3296,770.2314)"><path
             d="M 0,0 V 2.983 C 0,3.42 -0.126,3.749 -0.378,3.97 -0.631,4.192 -0.983,4.302 -1.434,4.302 H -3.178 V 0 Z m 1.032,-0.86 h -5.244 v 6.024 h 2.916 c 0.688,0 1.239,-0.172 1.653,-0.517 0.45,-0.375 0.675,-0.898 0.675,-1.572 z"
             style="fill:#77797c;fill-opacity:1;fill-rule:nonzero;stroke:none"
             id="path278"
             inkscape:connector-curvature="0" /></g><g
           id="g280"
           transform="translate(453.5757,772.1475)"><path
             d="M 0,0 H -1.032 V 2.386 H -2.064 V 3.248 H 0 Z"
             style="fill:#77797c;fill-opacity:1;fill-rule:nonzero;stroke:none"
             id="path282"
             inkscape:connector-curvature="0" /></g><g
           id="g284"
           transform="translate(459.0503,769.3716)"><path
             d="m 0,0 h -1.033 v 3.855 c 0,0.429 -0.122,0.753 -0.367,0.975 -0.246,0.222 -0.586,0.332 -1.021,0.332 h -1.963 v 0.862 h 2.067 c 0.725,0 1.293,-0.19 1.702,-0.569 C -0.204,5.077 0,4.528 0,3.809 Z"
             style="fill:#77797c;fill-opacity:1;fill-rule:nonzero;stroke:none"
             id="path286"
             inkscape:connector-curvature="0" /></g><g
           id="g288"
           transform="translate(464.522,769.3716)"><path
             d="m 0,0 h -1.032 v 3.855 c 0,0.429 -0.121,0.753 -0.367,0.975 -0.247,0.222 -0.586,0.332 -1.022,0.332 h -1.962 v 0.862 h 2.066 c 0.726,0 1.294,-0.19 1.704,-0.569 C -0.203,5.077 0,4.528 0,3.809 Z"
             style="fill:#77797c;fill-opacity:1;fill-rule:nonzero;stroke:none"
             id="path290"
             inkscape:connector-curvature="0" /></g><g
           id="g292"
           transform="translate(471.3149,769.3716)"><path
             d="m 0,0 h -1.032 v 3.809 c 0,0.444 -0.118,0.781 -0.356,1.009 C -1.625,5.047 -1.97,5.162 -2.42,5.162 H -4.096 V 0 h -1.033 v 6.024 h 2.813 c 0.686,0 1.247,-0.181 1.674,-0.545 C -0.214,5.115 0,4.594 0,3.912 Z"
             style="fill:#77797c;fill-opacity:1;fill-rule:nonzero;stroke:none"
             id="path294"
             inkscape:connector-curvature="0" /></g><g
           id="g296"
           transform="translate(474.6206,769.3716)"><path
             d="M 0,0 H -1.032 V 5.162 H -2.064 V 6.024 H 0 Z"
             style="fill:#77797c;fill-opacity:1;fill-rule:nonzero;stroke:none"
             id="path298"
             inkscape:connector-curvature="0" /></g><g
           id="g300"
           transform="translate(482.9106,775.3955)"><path
             d="M 0,0 -0.215,-2.159 C -0.321,-3.231 -0.612,-4.106 -1.088,-4.787 -1.663,-5.612 -2.447,-6.024 -3.444,-6.024 H -5.996 L -6.741,0 h 1.006 l 0.385,-2.915 h 0.446 c 0.276,0 0.483,0.13 0.62,0.388 0.084,0.161 0.157,0.417 0.22,0.766 0.036,0.245 0.073,0.524 0.108,0.835 0.033,0.312 0.065,0.621 0.096,0.926 h 1.008 l -0.217,-1.966 c -0.062,-0.49 -0.251,-0.886 -0.569,-1.185 -0.318,-0.302 -0.723,-0.453 -1.215,-0.453 h -0.423 l 0.168,-1.561 1.392,0.001 c 0.798,0 1.411,0.306 1.84,0.918 0.359,0.504 0.578,1.185 0.654,2.042 L -1.014,0 Z"
             style="fill:#77797c;fill-opacity:1;fill-rule:nonzero;stroke:none"
             id="path302"
             inkscape:connector-curvature="0" /></g><g
           id="g304"
           transform="translate(490.0317,769.3716)"><path
             d="m 0,0 h -2.88 v 0.86 h 1.848 v 2.882 c 0,0.947 -0.46,1.42 -1.377,1.42 H -3.58 L -4.521,0 h -1.016 l 0.943,5.164 -1.2,-0.002 v 0.862 h 3.478 c 0.732,0 1.302,-0.186 1.71,-0.563 C -0.203,5.086 0,4.537 0,3.809 Z"
             style="fill:#77797c;fill-opacity:1;fill-rule:nonzero;stroke:none"
             id="path306"
             inkscape:connector-curvature="0" /></g><g
           id="g308"
           transform="translate(496.0112,775.3955)"><path
             d="m 0,0 -2.434,-6.024 h -1.087 l 2.111,5.162 h -3.421 v 2.549 h 1.032 V 0 Z"
             style="fill:#77797c;fill-opacity:1;fill-rule:nonzero;stroke:none"
             id="path310"
             inkscape:connector-curvature="0" /></g><g
           id="g312"
           transform="translate(505.731,769.3716)"><path
             d="M 0,0 H -1.032 V 5.162 H -3.949 V 1.306 C -3.949,0.917 -4.071,0.602 -4.32,0.362 -4.57,0.121 -4.894,0 -5.291,0 h -0.964 v 0.86 h 0.838 c 0.13,0 0.235,0.04 0.315,0.12 0.081,0.082 0.121,0.186 0.121,0.314 v 3.868 h -1.17 V 6.024 H 0 Z"
             style="fill:#77797c;fill-opacity:1;fill-rule:nonzero;stroke:none"
             id="path314"
             inkscape:connector-curvature="0" /></g><g
           id="g316"
           transform="translate(509.0923,769.3716)"><path
             d="M 0,0 H -1.034 V 5.162 H -2.066 V 6.024 H 0 Z"
             style="fill:#77797c;fill-opacity:1;fill-rule:nonzero;stroke:none"
             id="path318"
             inkscape:connector-curvature="0" /></g><g
           id="g320"
           transform="translate(515.4614,769.3716)"><path
             d="m 0,0 h -4.935 v 0.86 h 3.051 v 4.302 h -3.051 v 0.862 h 4.084 V 0.86 H 0 Z"
             style="fill:#77797c;fill-opacity:1;fill-rule:nonzero;stroke:none"
             id="path322"
             inkscape:connector-curvature="0" /></g><g
           id="g324"
           transform="translate(522.2192,773.1133)"><path
             d="M 0,0 C 0,-1.026 -0.294,-1.896 -0.883,-2.606 -1.51,-3.363 -2.328,-3.742 -3.339,-3.742 h -1.744 l -0.596,6.024 h 1.036 l 0.513,-5.162 0.66,-0.002 c 0.783,0 1.394,0.291 1.834,0.872 0.404,0.528 0.604,1.197 0.604,2.01 0,0.412 -0.095,0.768 -0.285,1.064 -0.221,0.354 -0.528,0.529 -0.924,0.529 -0.198,0 -0.393,-0.023 -0.584,-0.069 -0.19,-0.045 -0.327,-0.129 -0.41,-0.253 v 0.897 c 0.115,0.083 0.268,0.145 0.459,0.189 0.192,0.041 0.375,0.062 0.552,0.062 0.688,0 1.231,-0.227 1.628,-0.682 C -0.198,1.282 0,0.704 0,0"
             style="fill:#77797c;fill-opacity:1;fill-rule:nonzero;stroke:none"
             id="path326"
             inkscape:connector-curvature="0" /></g><path
           d="m 524.666,769.372 h -1.034 v 3.626 h 1.034 z m 3.98,0 h -1.033 v 5.162 h -4.072 v 0.862 h 5.105 z"
           style="fill:#77797c;fill-opacity:1;fill-rule:nonzero;stroke:none"
           id="path328"
           inkscape:connector-curvature="0" /><g
           id="g330"
           transform="translate(420.6421,760.5894)"><path
             d="M 0,0 V 2.984 C 0,3.42 -0.126,3.749 -0.379,3.97 -0.633,4.193 -0.984,4.303 -1.435,4.303 H -3.18 V 0 Z m 1.032,-0.859 h -5.245 v 6.023 h 2.916 c 0.689,0 1.239,-0.172 1.652,-0.517 C 0.806,4.274 1.032,3.749 1.032,3.076 Z"
             style="fill:#77797c;fill-opacity:1;fill-rule:nonzero;stroke:none"
             id="path332"
             inkscape:connector-curvature="0" /></g><g
           id="g334"
           transform="translate(424.8892,762.5063)"><path
             d="M 0,0 H -1.034 V 2.386 H -2.065 V 3.247 H 0 Z"
             style="fill:#77797c;fill-opacity:1;fill-rule:nonzero;stroke:none"
             id="path336"
             inkscape:connector-curvature="0" /></g><g
           id="g338"
           transform="translate(430.8667,765.7534)"><path
             d="m 0,0 -2.434,-6.023 h -1.087 l 2.109,5.162 h -3.419 v 2.549 h 1.032 V 0 Z"
             style="fill:#77797c;fill-opacity:1;fill-rule:nonzero;stroke:none"
             id="path340"
             inkscape:connector-curvature="0" /></g><g
           id="g342"
           transform="translate(433.5864,762.5063)"><path
             d="M 0,0 H -1.032 V 2.386 H -2.064 V 3.247 H 0 Z"
             style="fill:#77797c;fill-opacity:1;fill-rule:nonzero;stroke:none"
             id="path344"
             inkscape:connector-curvature="0" /></g><g
           id="g346"
           transform="translate(440.2788,765.7534)"><path
             d="m 0,0 -0.152,-1.985 c 0,-1.446 -0.239,-2.505 -0.713,-3.179 -0.405,-0.572 -0.979,-0.859 -1.718,-0.859 h -2.583 v 0.859 h 1.344 L -5.256,0 h 1.022 l 1.41,-5.159 0.25,-0.005 c 0.524,0 0.874,0.272 1.048,0.814 0.06,0.193 0.122,0.494 0.182,0.908 L -1.208,-2.066 -1.035,0 Z"
             style="fill:#77797c;fill-opacity:1;fill-rule:nonzero;stroke:none"
             id="path348"
             inkscape:connector-curvature="0" /></g><g
           id="g350"
           transform="translate(446.6577,759.73)"><path
             d="m 0,0 h -4.89 v 0.859 h 3.856 v 2.996 c 0,0.429 -0.123,0.753 -0.368,0.975 -0.244,0.222 -0.584,0.332 -1.021,0.332 H -3.856 V 2.788 H -4.89 v 3.235 h 2.56 c 0.734,0 1.307,-0.186 1.715,-0.562 C -0.207,5.086 0,4.536 0,3.809 Z"
             style="fill:#77797c;fill-opacity:1;fill-rule:nonzero;stroke:none"
             id="path352"
             inkscape:connector-curvature="0" /></g><g
           id="g354"
           transform="translate(455.228,760.5894)"><path
             d="M 0,0 V 2.984 C 0,3.42 -0.126,3.749 -0.38,3.97 -0.632,4.193 -0.984,4.303 -1.435,4.303 H -3.179 V 0 Z m 1.032,-0.859 h -5.244 v 6.023 h 2.915 c 0.689,0 1.239,-0.172 1.652,-0.517 C 0.807,4.273 1.032,3.749 1.032,3.076 Z"
             style="fill:#77797c;fill-opacity:1;fill-rule:nonzero;stroke:none"
             id="path356"
             inkscape:connector-curvature="0" /></g><g
           id="g358"
           transform="translate(459.4751,762.5063)"><path
             d="M 0,0 H -1.035 V 2.386 H -2.066 V 3.247 H 0 Z"
             style="fill:#77797c;fill-opacity:1;fill-rule:nonzero;stroke:none"
             id="path360"
             inkscape:connector-curvature="0" /></g><g
           id="g362"
           transform="translate(466.5308,759.73)"><path
             d="M 0,0 -1.184,-0.002 -2.482,2.016 C -2.627,2.223 -2.77,2.435 -2.906,2.648 -3.014,2.81 -3.166,3.018 -3.364,3.27 -3.44,3.27 -3.532,3.248 -3.639,3.201 -3.883,3.086 -4.066,2.894 -4.188,2.627 -4.281,2.42 -4.345,2.154 -4.384,1.823 L -4.552,-0.001 -5.565,0 -5.383,1.869 c 0.047,0.406 0.155,0.764 0.327,1.074 0.173,0.31 0.427,0.557 0.765,0.741 0.052,0.028 0.126,0.063 0.218,0.097 0.093,0.033 0.164,0.055 0.218,0.062 -0.169,0.215 -0.401,0.49 -0.701,0.826 -0.091,0.108 -0.506,0.56 -1.239,1.354 h 1.297 c 0.497,-0.542 0.872,-0.959 1.124,-1.251 0.39,-0.451 0.747,-0.895 1.067,-1.33 0.253,0.024 0.452,0.167 0.597,0.435 0.107,0.2 0.188,0.449 0.241,0.747 l 0.218,1.399 h 1 L -0.45,4.681 C -0.534,4.13 -0.663,3.732 -0.84,3.489 -1.054,3.181 -1.409,2.975 -1.906,2.869 Z"
             style="fill:#77797c;fill-opacity:1;fill-rule:nonzero;stroke:none"
             id="path364"
             inkscape:connector-curvature="0" /></g><g
           id="g366"
           transform="translate(469.4927,759.73)"><path
             d="M 0,0 H -1.034 V 5.162 H -2.067 V 6.023 H 0 Z"
             style="fill:#77797c;fill-opacity:1;fill-rule:nonzero;stroke:none"
             id="path368"
             inkscape:connector-curvature="0" /></g><g
           id="g370"
           transform="translate(475.5278,765.7534)"><path
             d="m 0,0 -2.434,-6.023 h -1.087 l 2.11,5.162 h -3.42 V 1.688 H -3.8 V 0 Z"
             style="fill:#77797c;fill-opacity:1;fill-rule:nonzero;stroke:none"
             id="path372"
             inkscape:connector-curvature="0" /></g><g
           id="g374"
           transform="translate(478.2476,762.5063)"><path
             d="M 0,0 H -1.033 V 2.386 H -2.065 V 3.247 H 0 Z"
             style="fill:#77797c;fill-opacity:1;fill-rule:nonzero;stroke:none"
             id="path376"
             inkscape:connector-curvature="0" /></g><g
           id="g378"
           transform="translate(485.4878,759.73)"><path
             d="m 0,0 h -2.88 v 0.859 h 1.847 v 2.882 c 0,0.947 -0.459,1.421 -1.377,1.421 H -3.58 L -4.521,0 h -1.015 l 0.942,5.164 -1.201,-0.002 v 0.861 h 3.478 c 0.734,0 1.304,-0.186 1.71,-0.562 C -0.202,5.086 0,4.536 0,3.809 Z"
             style="fill:#77797c;fill-opacity:1;fill-rule:nonzero;stroke:none"
             id="path380"
             inkscape:connector-curvature="0" /></g><g
           id="g382"
           transform="translate(491.3989,762.5063)"><path
             d="M 0,0 H -1.034 V 2.386 H -2.067 V 3.247 H 0 Z"
             style="fill:#77797c;fill-opacity:1;fill-rule:nonzero;stroke:none"
             id="path384"
             inkscape:connector-curvature="0" /></g><g
           id="g386"
           transform="translate(499.0288,759.73)"><path
             d="M 0,0 H -1.033 V 5.162 H -3.948 V 1.307 C -3.948,0.917 -4.071,0.602 -4.32,0.362 -4.569,0.121 -4.892,0 -5.291,0 h -0.963 v 0.859 h 0.838 c 0.13,0 0.234,0.041 0.315,0.121 0.081,0.081 0.121,0.186 0.121,0.314 V 5.162 H -6.149 V 6.023 H 0 Z"
             style="fill:#77797c;fill-opacity:1;fill-rule:nonzero;stroke:none"
             id="path388"
             inkscape:connector-curvature="0" /></g><g
           id="g390"
           transform="translate(504.5581,759.73)"><path
             d="m 0,0 h -1.031 v 3.855 c 0,0.429 -0.123,0.753 -0.367,0.975 -0.247,0.222 -0.587,0.332 -1.022,0.332 h -1.962 v 0.861 h 2.066 c 0.725,0 1.293,-0.189 1.704,-0.568 C -0.203,5.076 0,4.528 0,3.809 Z"
             style="fill:#77797c;fill-opacity:1;fill-rule:nonzero;stroke:none"
             id="path392"
             inkscape:connector-curvature="0" /></g><g
           id="g394"
           transform="translate(512.7925,765.7534)"><path
             d="M 0,0 -0.214,-2.159 C -0.321,-3.23 -0.613,-4.105 -1.089,-4.786 -1.663,-5.611 -2.448,-6.023 -3.444,-6.023 H -5.996 L -6.74,0 h 1.005 l 0.383,-2.914 h 0.448 c 0.275,0 0.481,0.129 0.62,0.388 0.083,0.16 0.156,0.416 0.218,0.766 0.037,0.244 0.073,0.522 0.107,0.834 0.034,0.312 0.068,0.622 0.098,0.926 h 1.009 L -3.07,-1.966 c -0.062,-0.489 -0.25,-0.885 -0.569,-1.185 -0.318,-0.302 -0.722,-0.452 -1.215,-0.452 h -0.425 l 0.171,-1.563 1.392,0.002 c 0.797,0 1.41,0.307 1.839,0.918 0.36,0.505 0.58,1.186 0.654,2.042 L -1.014,0 Z"
             style="fill:#77797c;fill-opacity:1;fill-rule:nonzero;stroke:none"
             id="path396"
             inkscape:connector-curvature="0" /></g><g
           id="g398"
           transform="translate(519.9126,759.73)"><path
             d="m 0,0 h -2.88 v 0.859 h 1.848 v 2.882 c 0,0.947 -0.46,1.421 -1.377,1.421 H -3.581 L -4.521,0 h -1.014 l 0.94,5.164 -1.2,-0.002 v 0.861 h 3.479 c 0.733,0 1.303,-0.186 1.709,-0.562 C -0.202,5.086 0,4.536 0,3.809 Z"
             style="fill:#77797c;fill-opacity:1;fill-rule:nonzero;stroke:none"
             id="path400"
             inkscape:connector-curvature="0" /></g><g
           id="g402"
           transform="translate(525.8921,765.7534)"><path
             d="m 0,0 -2.434,-6.023 h -1.088 l 2.11,5.162 h -3.419 v 2.549 h 1.032 V 0 Z"
             style="fill:#77797c;fill-opacity:1;fill-rule:nonzero;stroke:none"
             id="path404"
             inkscape:connector-curvature="0" /></g><g
           id="g406"
           transform="translate(528.647,759.73)"><path
             d="M 0,0 H -1.034 V 5.162 H -2.065 V 6.023 H 0 Z"
             style="fill:#77797c;fill-opacity:1;fill-rule:nonzero;stroke:none"
             id="path408"
             inkscape:connector-curvature="0" /></g></g></g></g></svg>