<svg height="132.384943" viewBox="0 0 1746.457 305.94" width="755.372911" xmlns="http://www.w3.org/2000/svg"><g clip-rule="evenodd" fill-rule="evenodd"><path d="m305.369 62.863-34.545 37.743c-3.835 4.687-2.349 10.658 4.474 17.916l23.674 27.5c6.823 8.107 8.096 14.717 3.837 19.828l-32.622 35.832c-1.713 1.699-2.349 4.472-1.926 8.309.426 3.411 1.926 6.823 4.485 10.234l26.863 29.434c2.136 2.125 2.986 4.046 2.56 5.745-.423.866-1.287 1.287-2.56 1.287l-43.504 1.278c-2.985 0-6.184-1.699-9.595-5.11l-27.498-31.346c-6.823-8.536-8.11-14.933-3.837-19.191l33.258-37.109c1.712-1.699 2.349-4.259 1.926-7.67-.438-3.835-2.136-7.247-5.124-10.232l-24.949-28.147c-6.821-8.533-8.096-14.93-3.835-19.191l34.545-37.107c2.562-3.412 5.761-5.11 9.596-5.11l40.292-.648c1.713 0 2.986.861 3.849 2.56 1.275 1.283 1.486 2.345.636 3.195zm-257.159-4.472 40.306-.639c1.71 0 2.985.849 3.835 2.548.85 1.289.85 2.349 0 3.198l-33.895 37.746c-1.713 1.71-2.139 4.485-1.289 8.32.852 3.412 2.562 6.61 5.124 9.596l23.663 28.147c6.823 7.672 8.32 14.07 4.485 19.189l-33.271 36.457c-4.259 5.124-3.196 11.082 3.198 17.918l26.225 30.06c4.275 4.685 4.275 7.036 0 7.036l-42.854 1.287c-3.409 0-6.607-1.925-9.593-5.763l-28.15-31.346c-6.397-7.244-7.67-13.642-3.835-19.191l33.908-36.457c3.835-4.698 2.761-10.669-3.199-17.914l-24.949-28.786c-6.823-7.67-8.109-14.067-3.837-19.191l33.897-37.107c3.409-3.409 6.82-5.108 10.231-5.108zm149.687-52.463c1.289 0 2.562.65 3.837 1.925.86 1.71.86 2.986 0 3.835l-33.897 37.743c-3.409 4.261-2.136 10.232 3.837 17.916l23.662 27.5c6.834 8.107 8.32 14.717 4.485 19.828l-33.271 35.832c-1.699 2.125-2.123 4.895-1.273 8.307.424 3.837 1.923 7.249 4.472 10.234l21.114 24.949c6.823 8.109 8.322 14.506 4.474 19.191l-33.258 36.47c-1.713 2.125-2.349 4.897-1.926 8.309.863 3.833 2.563 7.031 5.124 9.596l26.861 30.069c3.412 4.688 3.198 7.035-.637 7.035l-42.854 1.273c-3.837 0-7.036-1.699-9.596-5.11l-28.15-31.98c-2.986-2.986-4.685-6.397-5.122-10.248-.85-3.412-.213-6.184 1.923-8.309l33.261-37.104c3.846-4.685 2.772-10.656-3.199-17.904l-22.389-24.949c-6.397-8.109-7.673-14.506-3.835-19.191l33.909-37.107c1.699-1.699 2.122-4.259 1.273-7.67-.424-3.835-1.912-7.247-4.472-10.232l-24.95-28.152c-6.82-8.533-8.107-14.93-3.835-19.189l33.895-37.106c2.562-3.412 5.974-5.11 10.246-5.11z" fill="#fdb726"/><path d="m945.569 70.365-8.309-61.406c8.096-5.971 18.979-8.959 32.624-8.959 14.493 0 25.797 1.713 33.893 5.124l5.763 43.504c.847 5.108 3.199 7.67 7.031 7.67h65.257c21.751 0 34.758 13.007 39.017 39.019l1.925 85.08c.426 24.302-6.397 43.067-20.478 56.287-12.794 12.368-30.485 18.552-53.088 18.552h-72.288c-.421-6.823.639-14.919 3.198-24.301 2.564-10.244 5.763-17.279 9.596-21.112h37.109c17.9 0 26.861-10.447 26.861-31.346l-.639-64.606c-1.287-8.533-5.971-12.794-14.081-12.794h-66.516c-6.832 0-12.794-2.985-17.918-8.957-5.119-5.975-8.105-13.222-8.957-21.755zm179.747-14.067h60.771c38.817 0 60.98 21.964 66.53 65.891l14.081 104.898c2.546 18.766-4.06 28.148-19.839 28.148h-99.154c0-20.89 3.851-35.818 11.521-44.774h33.258c1.713 0 2.56-.213 2.56-.639.426-.852.426-2.56 0-5.124l-10.23-79.958c-1.273-7.672-4.263-13.644-8.957-17.904-4.689-4.272-10.234-6.397-16.631-6.397h-13.433c-11.942-12.794-18.765-26.662-20.478-41.579v-2.562zm137.536 0h69.09l12.794 100.427c-8.961 3.407-20.469 5.119-34.549 5.119-14.067 0-25.583-1.712-34.545-5.119zm-928.178 0h69.092l12.794 100.427c-9.815 3.407-21.541 5.119-35.184 5.119-13.65 0-24.95-1.712-33.909-5.119zm264.195 17.265c10.658 10.669 18.758 26.662 24.306 47.978l15.349 66.53c2.985 23.024-1.493 40.303-13.431 51.811-10.665 10.243-25.801 15.354-45.416 15.354h-53.736c0-7.67 1.069-15.993 3.198-24.949 2.562-10.234 5.761-16.84 9.596-19.825l10.232-.639c7.253 0 12.794-2.985 16.636-8.957 2.986-5.55 4.048-12.16 3.199-19.83l-13.438-56.296c-4.261-16.206-14.067-24.301-29.423-24.301h-12.794l-2.56 154.797h-69.085l5.117-154.797c-7.247 0-14.069-4.485-20.466-13.431-5.548-8.533-9.17-18.765-10.875-30.71h134.333c20.471 0 36.889 5.761 49.258 17.265zm37.736-16.628h71.008l26.861 198.301h-71.001zm86.364-.637h75.473l69.092 81.884h3.198l-10.882-81.884h69.092l8.318 61.406c4.263 33.698-7.897 54.8-36.466 63.332l62.692 74.2h-78.685l-67.168-80.597-3.199.639 10.882 79.958h-69.09l-8.32-61.406c-1.701-14.507-.426-27.301 3.846-38.382 5.536-13.641 15.78-22.813 30.698-27.509zm846.926 198.937-12.794-97.224c4.698-6.399 13.233-12.158 25.588-17.282 12.368-4.685 23.89-7.033 34.545-7.033h3.198l15.993 121.539zm-226.437-198.937h122.816c14.502 0 27.509 6.184 39.016 18.552 11.095 12.371 17.705 27.287 19.83 44.779l5.758 42.215c1.287 11.521.639 21.33-1.912 29.425-3.411 9.804-9.595 15.993-18.552 18.552h40.942c3.412 20.039-.865 35.184-12.794 45.414h-172.715c1.699-22.177 7.67-37.304 17.905-45.414h48.612c23.889 0 34.332-11.734 31.346-35.184l-5.11-38.38c-3.407-23.875-17.066-35.82-40.942-35.82h-50.537c-12.79-13.642-20.678-28.359-23.663-44.139zm318.555 0c38.804 0 61.193 23.239 67.164 69.729l17.279 129.209h-69.09l-16.627-124.737c-2.985-19.615-11.946-29.423-26.874-29.423l-74.2-.636c-12.368-13.218-20.464-27.935-24.302-44.141h126.65z" fill="#00529b"/></g></svg>