<?xml version="1.0" encoding="UTF-8" standalone="no"?>
<!-- Created with Inkscape (http://www.inkscape.org/) -->

<svg
   xmlns:dc="http://purl.org/dc/elements/1.1/"
   xmlns:cc="http://creativecommons.org/ns#"
   xmlns:rdf="http://www.w3.org/1999/02/22-rdf-syntax-ns#"
   xmlns:svg="http://www.w3.org/2000/svg"
   xmlns="http://www.w3.org/2000/svg"
   xmlns:sodipodi="http://sodipodi.sourceforge.net/DTD/sodipodi-0.dtd"
   xmlns:inkscape="http://www.inkscape.org/namespaces/inkscape"
   version="1.1"
   id="svg2"
   xml:space="preserve"
   width="80"
   height="50"
   viewBox="0 0 80.000001 50.000002"
   sodipodi:docname="Israel Discount Bank.svg"
   inkscape:version="0.92.3 (2405546, 2018-03-11)"><metadata
     id="metadata8"><rdf:RDF><cc:Work
         rdf:about=""><dc:format>image/svg+xml</dc:format><dc:type
           rdf:resource="http://purl.org/dc/dcmitype/StillImage" /><dc:title></dc:title></cc:Work></rdf:RDF></metadata><defs
     id="defs6"><clipPath
       clipPathUnits="userSpaceOnUse"
       id="clipPath1162"><path
         d="M 28.417,29.764 H 737.078 V 1021.89 H 28.417 Z"
         id="path1160"
         inkscape:connector-curvature="0" /></clipPath></defs><sodipodi:namedview
     pagecolor="#ffffff"
     bordercolor="#666666"
     borderopacity="1"
     objecttolerance="10"
     gridtolerance="10"
     guidetolerance="10"
     inkscape:pageopacity="0"
     inkscape:pageshadow="2"
     inkscape:window-width="1366"
     inkscape:window-height="705"
     id="namedview4"
     showgrid="false"
     inkscape:zoom="7.6372543"
     inkscape:cx="26.471335"
     inkscape:cy="29.112683"
     inkscape:window-x="-8"
     inkscape:window-y="-8"
     inkscape:window-maximized="1"
     inkscape:current-layer="g10" /><g
     id="g10"
     inkscape:groupmode="layer"
     inkscape:label="מעריב המוסף 1.11.19"
     transform="matrix(1.3333333,0,0,-1.3333333,0,49.999942)"><g
       id="g1156"
       transform="matrix(0.88600356,0,0,0.88600356,-536.19964,-99.640358)"><g
         id="g1158"
         clip-path="url(#clipPath1162)"><g
           id="g1164"
           transform="translate(645.8865,151.0984)"><path
             d="m 0,0 c 0,0.668 0.068,1.444 -0.117,1.954 -0.282,0.779 -1.01,1.496 -1.871,1.671 -0.3,0.061 -0.742,0.033 -1.119,0.033 -0.343,0 -0.686,0.051 -0.969,0.017 C -4.648,3.606 -5.336,3.737 -5.863,3.642 -6.261,3.57 -6.585,3.359 -6.849,3.157 -7.4,2.736 -7.877,2.124 -7.901,1.236 c -0.069,-2.448 0.051,-4.955 0,-7.417 h 2.789 c 0.011,1.025 -0.022,2.094 0.017,3.091 H -2.79 V -6.181 H 0 Z m -29.033,3.592 v -9.789 h 3.257 v 9.839 h -3.24 l -0.017,-0.05 m 7.501,0.05 c -1.712,-0.081 -3.153,-0.756 -3.258,-2.322 -0.054,-0.813 0.226,-1.288 0.601,-1.721 0.621,-0.715 1.258,-1.072 2.039,-1.604 0.312,-0.212 0.86,-0.533 0.918,-0.902 0.127,-0.811 -0.844,-0.768 -1.537,-0.768 h -2.054 v -2.522 c 3.095,0.015 6.351,-0.359 7.25,1.77 0.582,1.381 -0.368,2.444 -1.103,3.041 -0.391,0.317 -0.842,0.625 -1.32,0.935 -0.319,0.207 -1.201,0.59 -1.169,1.102 0.035,0.568 0.769,0.535 1.403,0.535 0.655,0 1.375,-0.013 1.905,0.017 v 2.439 c -1.257,-0.044 -2.448,0.058 -3.675,0 m 10.924,-4.778 0.234,0.017 c 0.882,0.12 1.454,0.858 1.52,1.77 0.125,1.716 -0.898,2.635 -2.372,2.907 -0.665,0.123 -1.463,0.084 -2.288,0.084 -0.792,0 -1.629,0.057 -2.372,0 -0.768,-0.06 -0.802,-0.526 -0.802,-1.37 v -8.453 h 2.873 c 0.011,1.192 -0.022,2.428 0.017,3.592 1.11,0.035 2.05,-0.071 2.288,-0.886 0.111,-0.375 0.051,-0.854 0.051,-1.319 v -1.387 h 2.789 c -0.104,1.729 0.352,3.653 -0.635,4.46 -0.317,0.26 -0.768,0.417 -1.286,0.468 -0.055,0.006 -0.216,-0.053 -0.217,0.067 0.029,0.096 0.149,0.046 0.2,0.05 M 3.441,3.642 c -0.496,0 -1.005,0.042 -1.487,0 C 1.476,3.6 1.085,3.26 1.002,2.857 0.941,2.555 0.986,2.087 0.986,1.704 c -0.001,-2.581 0,-5.41 0,-7.901 h 6.899 v 2.305 H 3.809 v 1.587 h 4.076 v 2.054 H 3.809 C 3.82,0.273 3.786,0.841 3.825,1.336 h 4.06 v 2.306 z m 5.58,-0.05 c 0,-2.628 -0.001,-5.308 0,-7.952 0,-0.383 -0.041,-0.798 0.033,-1.102 0.079,-0.327 0.373,-0.645 0.785,-0.719 0.404,-0.072 0.894,-0.016 1.353,-0.016 h 4.16 v 2.505 c -0.986,0.05 -2.088,-0.016 -3.074,0.034 v 7.3 H 9.037 L 9.021,3.592 M -9.338,-9.054 c -0.742,-0.804 -1.38,-2.076 -1.336,-3.591 0.044,-1.54 0.606,-2.658 1.403,-3.525 0.756,-0.823 1.947,-1.545 3.424,-1.504 1.502,0.042 2.601,0.705 3.375,1.554 0.786,0.864 1.336,2.023 1.336,3.591 0,1.545 -0.631,2.723 -1.386,3.542 -0.753,0.816 -1.921,1.519 -3.425,1.503 -1.574,-0.016 -2.629,-0.744 -3.391,-1.57 m -26.377,-8.436 c 2.085,0 3.414,0.802 4.26,2.072 0.422,0.633 0.752,1.436 0.785,2.388 0.069,2.004 -0.731,3.512 -1.938,4.394 -0.96,0.701 -2.113,0.985 -3.758,0.985 -0.699,0 -1.89,0.15 -2.255,-0.2 -0.365,-0.35 -0.251,-1.464 -0.251,-2.222 v -7.417 z m 5.763,9.789 v -9.789 h 3.258 v 9.839 h -3.241 l -0.017,-0.05 m 7.651,0.05 c -1.371,-0.065 -2.429,-0.413 -2.99,-1.236 -0.339,-0.498 -0.535,-1.412 -0.251,-2.088 0.302,-0.716 1.044,-1.308 1.637,-1.737 0.301,-0.218 0.649,-0.441 1.003,-0.685 0.308,-0.213 0.784,-0.523 0.802,-0.886 0.036,-0.737 -0.932,-0.701 -1.621,-0.701 h -1.988 v -2.506 c 1.535,0.068 3.131,-0.119 4.461,0.067 1.301,0.182 2.399,0.687 2.823,1.721 0.117,0.287 0.178,0.617 0.15,1.002 -0.078,1.067 -0.942,1.776 -1.62,2.288 -0.354,0.267 -0.755,0.52 -1.17,0.785 -0.347,0.224 -0.991,0.516 -0.985,0.969 0.007,0.566 0.762,0.552 1.37,0.552 h 1.937 v 2.455 c -1.217,-0.042 -2.369,0.056 -3.558,0 m 9.455,0 c -1.68,-0.079 -2.999,-0.791 -3.892,-1.72 -0.889,-0.925 -1.542,-2.45 -1.203,-4.143 0.295,-1.471 1.239,-2.508 2.372,-3.174 1.187,-0.697 2.718,-0.927 4.761,-0.802 v 2.506 c -1.078,-0.057 -2.003,0.056 -2.673,0.451 -0.644,0.379 -1.172,1.012 -1.169,1.971 0.003,0.934 0.543,1.595 1.169,1.955 0.684,0.392 1.594,0.497 2.673,0.451 v 2.505 c -0.711,-0.024 -1.355,0.033 -2.038,0 m 12.495,-0.05 v -5.345 c 0,-0.597 -0.046,-1.198 0.033,-1.754 0.144,-1.003 0.746,-1.644 1.471,-2.105 0.745,-0.474 1.68,-0.775 2.806,-0.769 1.145,0.006 2.072,0.294 2.806,0.769 0.712,0.46 1.299,1.146 1.437,2.138 0.078,0.558 0.033,1.158 0.033,1.754 v 5.362 H 4.978 v -5.162 c 0,-0.515 0.089,-1.261 -0.033,-1.687 -0.259,-0.895 -1.624,-0.864 -1.955,-0.133 -0.181,0.399 -0.084,1.191 -0.084,1.77 v 5.212 h -3.24 l -0.017,-0.05 m 9.605,0 v -9.755 h 2.556 c 0.011,1.386 -0.022,2.817 0.017,4.176 h 0.334 c 0.521,-0.895 1.194,-1.967 1.737,-2.907 0.184,-0.319 0.344,-0.718 0.585,-0.969 0.498,-0.517 1.687,-0.226 2.673,-0.3 v 9.805 H 14.6 v -4.777 c -0.687,1.165 -1.497,2.478 -2.205,3.708 -0.23,0.399 -0.494,0.909 -0.952,1.036 -0.63,0.174 -1.405,-0.06 -2.155,0.033 l -0.034,-0.05 m 8.787,0 v -2.455 h 1.938 v -7.334 h 3.257 c 0.011,2.439 -0.022,4.922 0.017,7.334 h 1.938 v 2.505 h -7.133 l -0.017,-0.05 m -35.063,-15.001 c 0.433,0.637 0.397,1.626 0.083,2.222 -0.659,1.253 -2.139,1.637 -4.009,1.637 -0.938,0 -1.949,0.068 -2.823,0 -0.233,-0.018 -0.514,-0.088 -0.651,-0.234 -0.343,-0.364 -0.234,-1.449 -0.234,-2.205 v -7.333 h 3.892 c 0.688,0 1.352,-0.048 1.938,0.016 1.657,0.183 2.937,1.143 2.873,2.991 -0.042,1.201 -0.707,1.857 -1.62,2.288 0.195,0.259 0.39,0.381 0.551,0.618 m 9.538,-0.133 c 0,0.641 0.066,1.319 0,1.937 -0.062,0.58 -0.403,1 -0.768,1.353 -0.352,0.341 -0.842,0.66 -1.42,0.702 -0.565,0.041 -1.154,0 -1.754,0 -0.568,0 -1.173,0.045 -1.754,0 -0.583,-0.045 -1.101,-0.39 -1.453,-0.735 -0.333,-0.325 -0.691,-0.823 -0.735,-1.403 -0.046,-0.593 0,-1.244 0,-1.905 v -5.729 h 2.789 v 3.073 h 2.322 v -3.073 h 2.773 v 5.78 m 1.003,3.942 v -9.756 h 2.539 c 0.011,1.392 -0.023,2.829 0.016,4.193 h 0.334 c 0.567,-0.95 1.219,-2.05 1.821,-3.057 0.189,-0.314 0.381,-0.771 0.668,-0.969 0.55,-0.377 1.639,-0.061 2.506,-0.167 v 9.806 h -2.556 v -4.777 c -0.697,1.164 -1.472,2.488 -2.188,3.725 -0.222,0.383 -0.522,0.893 -0.952,1.019 -0.243,0.071 -0.719,0.033 -1.086,0.033 h -1.086 l -0.016,-0.05 m 8.836,0 v -9.806 h 3.258 c 0.011,1.392 -0.022,2.829 0.016,4.193 0.819,-0.005 1.606,0 1.838,-0.568 0.093,-0.228 0.05,-0.614 0.05,-0.969 v -2.656 h 3.257 v 1.938 c 0,0.646 0.075,1.319 0,1.938 -0.013,0.114 -0.058,0.243 -0.1,0.334 -0.323,0.702 -1.141,1.014 -1.937,1.236 0.167,0.194 0.39,0.298 0.567,0.484 0.453,0.475 0.642,1.203 0.902,1.888 0.266,0.698 0.553,1.393 0.769,2.038 H 7.734 c -0.313,-0.843 -0.71,-1.85 -1.052,-2.756 -0.185,-0.489 -0.328,-1.028 -1.069,-0.919 v 3.675 H 2.372 l -0.017,-0.05 m -42.664,-8.553 c -0.162,-0.492 -0.222,-1.404 -0.1,-1.921 0.191,-0.808 0.778,-1.157 1.303,-1.553 1.08,-0.816 2.291,-1.543 3.542,-2.172 2.547,-1.281 5.356,-2.301 8.335,-3.09 6.038,-1.601 12.921,-2.456 20.413,-2.456 7.6,0 14.352,0.886 20.397,2.472 4.497,1.181 8.579,2.87 11.877,5.262 0.529,0.384 1.101,0.745 1.286,1.57 0.122,0.545 0.023,1.475 -0.133,1.921 -0.047,0.135 -0.128,0.397 -0.301,0.418 -0.196,0.025 -0.563,-0.307 -0.785,-0.468 -3.647,-2.631 -8.616,-4.103 -13.815,-5.111 -5.632,-1.093 -11.949,-1.654 -18.542,-1.654 -6.741,0 -12.856,0.57 -18.526,1.654 -2.783,0.532 -5.508,1.254 -7.968,2.121 -2.131,0.752 -4.189,1.73 -5.863,2.974 -0.231,0.171 -0.603,0.516 -0.819,0.467 -0.167,-0.037 -0.245,-0.265 -0.301,-0.434"
             style="fill:#ffffff;fill-opacity:1;fill-rule:nonzero;stroke:none"
             id="path1166"
             inkscape:connector-curvature="0" /></g><g
           id="g1168"
           transform="translate(645.8865,144.9176)"><path
             d="M 0,0 H -2.79 V 3.09 H -5.095 C -5.134,2.094 -5.101,1.024 -5.112,0 h -2.789 c 0.051,2.462 -0.069,4.969 0,7.417 0.024,0.888 0.501,1.499 1.052,1.921 0.264,0.202 0.588,0.413 0.986,0.484 0.527,0.095 1.215,-0.035 1.787,0.034 0.283,0.034 0.626,-0.017 0.969,-0.017 0.377,0 0.819,0.027 1.119,-0.033 C -1.127,9.631 -0.399,8.914 -0.117,8.135 0.068,7.625 0,6.849 0,6.181 Z M -2.923,7.283 C -3.254,7.827 -4.658,7.771 -4.978,7.266 -5.316,6.734 -5.031,5.974 -5.128,5.228 H -2.79 C -2.87,5.93 -2.636,6.81 -2.923,7.283"
             style="fill:#59ad29;fill-opacity:1;fill-rule:nonzero;stroke:none"
             id="path1170"
             inkscape:connector-curvature="0" /></g><g
           id="g1172"
           transform="translate(616.8702,154.7399)"><path
             d="M 0,0 H 3.241 V -9.839 H -0.017 V -0.05 Z"
             style="fill:#59ad29;fill-opacity:1;fill-rule:nonzero;stroke:none"
             id="path1174"
             inkscape:connector-curvature="0" /></g><g
           id="g1176"
           transform="translate(628.0291,154.7399)"><path
             d="m 0,0 v -2.439 c -0.53,-0.03 -1.249,-0.017 -1.904,-0.017 -0.635,0 -1.369,0.033 -1.404,-0.534 -0.031,-0.512 0.85,-0.896 1.17,-1.103 0.478,-0.309 0.928,-0.618 1.32,-0.935 0.735,-0.596 1.685,-1.66 1.102,-3.04 -0.899,-2.129 -4.155,-1.755 -7.25,-1.771 v 2.522 h 2.055 c 0.692,0 1.664,-0.043 1.537,0.769 -0.058,0.369 -0.606,0.689 -0.919,0.902 -0.781,0.531 -1.418,0.888 -2.038,1.603 -0.375,0.433 -0.656,0.909 -0.601,1.721 0.105,1.567 1.545,2.241 3.257,2.322 1.228,0.058 2.419,-0.043 3.675,0"
             style="fill:#59ad29;fill-opacity:1;fill-rule:nonzero;stroke:none"
             id="path1178"
             inkscape:connector-curvature="0" /></g><g
           id="g1180"
           transform="translate(635.0784,149.9123)"><path
             d="m 0,0 c 0,-0.12 0.162,-0.061 0.217,-0.067 0.517,-0.051 0.969,-0.208 1.286,-0.468 0.987,-0.807 0.531,-2.731 0.635,-4.46 h -2.789 v 1.387 c 0,0.465 0.059,0.944 -0.051,1.319 -0.238,0.815 -1.178,0.921 -2.288,0.886 -0.039,-1.164 -0.006,-2.4 -0.017,-3.592 H -5.88 v 8.453 c 0,0.844 0.034,1.31 0.802,1.37 0.743,0.057 1.58,0 2.372,0 0.825,0 1.623,0.039 2.288,-0.084 C 1.056,4.472 2.079,3.553 1.954,1.837 1.888,0.925 1.316,0.187 0.434,0.067 L 0.201,0.05 C 0.149,0.046 0.029,0.096 0,0 M -3.007,2.606 V 0.869 c 0.449,-0.024 0.972,-0.021 1.403,0.1 0.382,0.106 0.814,0.329 0.919,0.635 0.07,0.203 0.052,0.467 -0.067,0.668 -0.324,0.549 -1.378,0.342 -2.238,0.384 l -0.017,-0.05"
             style="fill:#59ad29;fill-opacity:1;fill-rule:nonzero;stroke:none"
             id="path1182"
             inkscape:connector-curvature="0" /></g><g
           id="g1184"
           transform="translate(653.7709,154.7399)"><path
             d="M 0,0 V -2.305 H -4.059 C -4.098,-2.801 -4.065,-3.369 -4.076,-3.892 H 0 V -5.947 H -4.076 V -7.534 H 0 v -2.305 h -6.899 v 7.901 c 0,0.384 -0.045,0.852 0.017,1.153 0.082,0.404 0.474,0.743 0.952,0.785 0.482,0.042 0.991,0 1.487,0 z"
             style="fill:#59ad29;fill-opacity:1;fill-rule:nonzero;stroke:none"
             id="path1186"
             inkscape:connector-curvature="0" /></g><g
           id="g1188"
           transform="translate(654.9236,154.7399)"><path
             d="m 0,0 h 3.241 v -7.3 c 0.985,-0.05 2.088,0.017 3.073,-0.033 V -9.839 H 2.155 c -0.459,0 -0.949,-0.056 -1.353,0.017 -0.412,0.073 -0.706,0.391 -0.785,0.718 -0.074,0.305 -0.034,0.719 -0.034,1.102 0,2.644 0.001,5.324 0,7.952 L 0,0"
             style="fill:#59ad29;fill-opacity:1;fill-rule:nonzero;stroke:none"
             id="path1190"
             inkscape:connector-curvature="0" /></g><g
           id="g1192"
           transform="translate(632.0883,152.5683)"><path
             d="M 0,0 C 0.861,-0.042 1.915,0.165 2.238,-0.384 2.357,-0.585 2.375,-0.849 2.305,-1.052 2.2,-1.358 1.768,-1.581 1.387,-1.687 0.955,-1.808 0.432,-1.811 -0.017,-1.787 V -0.05 L 0,0"
             style="fill:#ffffff;fill-opacity:1;fill-rule:nonzero;stroke:none"
             id="path1194"
             inkscape:connector-curvature="0" /></g><g
           id="g1196"
           transform="translate(643.0967,150.1462)" /><g
           id="g1200"
           transform="translate(639.9395,143.6147)"><path
             d="M 0,0 C 1.504,0.015 2.672,-0.688 3.424,-1.504 4.18,-2.322 4.811,-3.5 4.811,-5.045 c 0,-1.568 -0.55,-2.728 -1.336,-3.591 -0.774,-0.85 -1.873,-1.512 -3.375,-1.554 -1.477,-0.041 -2.668,0.681 -3.424,1.504 -0.797,0.867 -1.359,1.985 -1.403,3.524 -0.044,1.516 0.594,2.788 1.336,3.592 C -2.629,-0.744 -1.574,-0.016 0,0 m -1.002,-3.157 c -0.532,-0.367 -0.955,-1.049 -0.952,-1.938 10e-4,-0.622 0.192,-1.058 0.417,-1.386 0.4,-0.583 1.094,-0.976 1.871,-0.852 0.662,0.105 1.245,0.638 1.504,1.252 0.319,0.758 0.216,1.627 -0.134,2.222 -0.309,0.525 -0.9,1.086 -1.771,1.019 C -0.453,-2.869 -0.774,-3 -1.002,-3.157"
             style="fill:#59ad29;fill-opacity:1;fill-rule:nonzero;stroke:none"
             id="path1202"
             inkscape:connector-curvature="0" /></g><g
           id="g1204"
           transform="translate(607.0144,133.6085)"><path
             d="m 0,0 v 7.417 c 0,0.758 -0.114,1.872 0.25,2.222 0.366,0.35 1.557,0.2 2.256,0.2 1.645,0 2.798,-0.284 3.758,-0.985 C 7.471,7.972 8.271,6.464 8.202,4.46 8.169,3.508 7.839,2.705 7.417,2.071 6.57,0.802 5.242,0 3.157,0 Z m 2.706,7.183 v -4.56 c 0.906,-0.089 1.49,0.098 1.938,0.568 0.696,0.73 0.762,2.3 0.167,3.174 -0.408,0.599 -1.113,0.9 -2.088,0.868 L 2.706,7.183"
             style="fill:#59ad29;fill-opacity:1;fill-rule:nonzero;stroke:none"
             id="path1206"
             inkscape:connector-curvature="0" /></g><g
           id="g1208"
           transform="translate(615.9514,143.4476)"><path
             d="M 0,0 H 3.241 V -9.839 H -0.017 V -0.05 Z"
             style="fill:#59ad29;fill-opacity:1;fill-rule:nonzero;stroke:none"
             id="path1210"
             inkscape:connector-curvature="0" /></g><g
           id="g1212"
           transform="translate(627.1437,143.4476)"><path
             d="m 0,0 v -2.456 h -1.938 c -0.607,0 -1.363,0.015 -1.369,-0.551 -0.006,-0.453 0.637,-0.745 0.985,-0.969 0.414,-0.266 0.816,-0.518 1.169,-0.785 0.679,-0.512 1.543,-1.221 1.621,-2.288 0.028,-0.386 -0.033,-0.716 -0.151,-1.003 -0.423,-1.033 -1.522,-1.538 -2.823,-1.72 -1.329,-0.186 -2.925,0 -4.46,-0.067 v 2.506 h 1.988 c 0.688,0 1.657,-0.037 1.62,0.701 -0.018,0.363 -0.494,0.673 -0.801,0.886 -0.354,0.244 -0.702,0.467 -1.003,0.684 -0.593,0.43 -1.336,1.022 -1.637,1.738 -0.284,0.676 -0.089,1.59 0.251,2.088 0.56,0.823 1.619,1.171 2.99,1.236 1.189,0.056 2.341,-0.042 3.558,0"
             style="fill:#59ad29;fill-opacity:1;fill-rule:nonzero;stroke:none"
             id="path1214"
             inkscape:connector-curvature="0" /></g><g
           id="g1216"
           transform="translate(635.0784,143.4476)"><path
             d="m 0,0 v -2.506 c -1.079,0.047 -1.989,-0.059 -2.673,-0.451 -0.626,-0.359 -1.166,-1.02 -1.169,-1.954 -0.003,-0.96 0.525,-1.592 1.169,-1.971 0.67,-0.395 1.595,-0.508 2.673,-0.451 v -2.506 c -2.043,-0.125 -3.574,0.105 -4.761,0.802 -1.133,0.665 -2.077,1.702 -2.372,3.174 -0.339,1.693 0.314,3.217 1.203,4.142 0.893,0.93 2.212,1.642 3.892,1.721 0.683,0.032 1.327,-0.024 2.038,0"
             style="fill:#59ad29;fill-opacity:1;fill-rule:nonzero;stroke:none"
             id="path1218"
             inkscape:connector-curvature="0" /></g><g
           id="g1220"
           transform="translate(645.5522,143.4476)"><path
             d="m 0,0 h 3.241 v -5.212 c 0,-0.58 -0.098,-1.371 0.083,-1.771 0.331,-0.73 1.696,-0.761 1.955,0.134 0.122,0.425 0.033,1.171 0.033,1.687 V 0 H 8.57 v -5.362 c 0,-0.597 0.044,-1.196 -0.034,-1.754 -0.138,-0.992 -0.725,-1.678 -1.437,-2.138 -0.734,-0.475 -1.661,-0.763 -2.806,-0.769 -1.126,-0.006 -2.061,0.294 -2.806,0.769 -0.725,0.46 -1.327,1.102 -1.47,2.104 -0.08,0.557 -0.034,1.157 -0.034,1.754 V -0.05 L 0,0"
             style="fill:#59ad29;fill-opacity:1;fill-rule:nonzero;stroke:none"
             id="path1222"
             inkscape:connector-curvature="0" /></g><g
           id="g1224"
           transform="translate(655.1741,143.4476)"><path
             d="M 0,0 C 0.751,-0.093 1.525,0.141 2.155,-0.033 2.613,-0.16 2.878,-0.67 3.107,-1.069 3.815,-2.299 4.625,-3.613 5.312,-4.778 V 0 h 2.556 v -9.806 c -0.985,0.075 -2.175,-0.216 -2.673,0.301 -0.241,0.25 -0.4,0.65 -0.584,0.969 -0.544,0.94 -1.217,2.012 -1.738,2.906 H 2.539 C 2.5,-6.988 2.534,-8.419 2.522,-9.806 H -0.033 V -0.05 L 0,0"
             style="fill:#59ad29;fill-opacity:1;fill-rule:nonzero;stroke:none"
             id="path1226"
             inkscape:connector-curvature="0" /></g><g
           id="g1228"
           transform="translate(663.9441,143.4476)"><path
             d="M 0,0 H 7.133 V -2.506 H 5.195 C 5.156,-4.917 5.19,-7.4 5.178,-9.839 H 1.921 v 7.333 H -0.017 V -0.05 L 0,0"
             style="fill:#59ad29;fill-opacity:1;fill-rule:nonzero;stroke:none"
             id="path1230"
             inkscape:connector-curvature="0" /></g><g
           id="g1232"
           transform="translate(609.7373,140.8416)" /><g
           id="g1236"
           transform="translate(639.8727,140.7748)" /><g
           id="g1240"
           transform="translate(628.313,127.7786)"><path
             d="m 0,0 c 0.914,-0.431 1.579,-1.088 1.62,-2.289 0.064,-1.847 -1.215,-2.807 -2.873,-2.99 -0.586,-0.064 -1.249,-0.016 -1.938,-0.016 h -3.892 v 7.333 c 0,0.755 -0.108,1.84 0.234,2.205 0.137,0.146 0.418,0.216 0.652,0.234 0.874,0.068 1.884,0 2.823,0 1.869,0 3.35,-0.384 4.009,-1.637 C 0.948,2.244 0.984,1.255 0.551,0.618 0.39,0.381 0.195,0.259 0,0 M -4.31,2.255 V 0.451 c 0.969,0.004 2.151,-0.113 2.506,0.518 0.117,0.208 0.17,0.577 0.033,0.852 -0.143,0.289 -0.681,0.454 -1.136,0.484 -0.456,0.031 -0.935,-0.023 -1.386,0 L -4.31,2.255 m 0,-3.391 v -2.055 c 0.911,0.067 2.064,-0.158 2.69,0.234 0.536,0.336 0.518,1.362 -0.05,1.671 -0.295,0.16 -0.768,0.181 -1.203,0.2 -0.456,0.02 -0.957,-0.015 -1.42,0 l -0.017,-0.05"
             style="fill:#59ad29;fill-opacity:1;fill-rule:nonzero;stroke:none"
             id="path1242"
             inkscape:connector-curvature="0" /></g><g
           id="g1244"
           transform="translate(638.4026,122.4831)"><path
             d="M 0,0 H -2.773 V 3.074 H -5.095 V 0 h -2.79 v 5.73 c 0,0.66 -0.045,1.311 0,1.904 0.045,0.58 0.403,1.078 0.735,1.403 0.353,0.345 0.87,0.69 1.454,0.735 0.58,0.045 1.186,0 1.754,0 0.6,0 1.188,0.041 1.754,0 C -1.61,9.73 -1.121,9.411 -0.768,9.071 -0.403,8.718 -0.062,8.298 0,7.718 0.066,7.1 0,6.421 0,5.78 V 0 M -2.923,7.3 C -3.182,7.694 -4.254,7.755 -4.694,7.517 -5.331,7.173 -5.048,6.101 -5.112,5.229 h 2.322 c -0.087,0.697 0.169,1.61 -0.133,2.071"
             style="fill:#59ad29;fill-opacity:1;fill-rule:nonzero;stroke:none"
             id="path1246"
             inkscape:connector-curvature="0" /></g><g
           id="g1248"
           transform="translate(639.4216,132.2554)"><path
             d="m 0,0 h 1.086 c 0.366,0 0.843,0.038 1.086,-0.033 0.43,-0.126 0.73,-0.636 0.952,-1.019 0.716,-1.237 1.491,-2.561 2.188,-3.726 V 0 H 7.868 V -9.806 C 7.001,-9.7 5.912,-10.016 5.362,-9.639 5.075,-9.441 4.882,-8.984 4.694,-8.67 4.092,-7.663 3.44,-6.563 2.873,-5.613 H 2.539 C 2.5,-6.977 2.534,-8.414 2.522,-9.806 H -0.017 V -0.05 L 0,0"
             style="fill:#59ad29;fill-opacity:1;fill-rule:nonzero;stroke:none"
             id="path1250"
             inkscape:connector-curvature="0" /></g><g
           id="g1252"
           transform="translate(648.2584,132.2554)"><path
             d="M 0,0 H 3.241 V -3.675 C 3.982,-3.784 4.125,-3.245 4.31,-2.756 4.652,-1.85 5.049,-0.843 5.362,0 H 8.603 C 8.387,-0.645 8.1,-1.34 7.835,-2.038 7.574,-2.723 7.385,-3.451 6.932,-3.926 6.755,-4.112 6.532,-4.216 6.365,-4.41 c 0.796,-0.222 1.614,-0.534 1.937,-1.236 0.042,-0.091 0.087,-0.22 0.1,-0.334 0.075,-0.619 0,-1.292 0,-1.938 V -9.856 H 5.145 V -7.2 c 0,0.355 0.043,0.741 -0.05,0.969 -0.232,0.568 -1.02,0.563 -1.838,0.568 C 3.218,-7.027 3.252,-8.464 3.241,-9.856 H -0.017 V -0.05 L 0,0"
             style="fill:#59ad29;fill-opacity:1;fill-rule:nonzero;stroke:none"
             id="path1254"
             inkscape:connector-curvature="0" /></g><g
           id="g1256"
           transform="translate(635.6129,127.7117)" /><g
           id="g1260"
           transform="translate(624.0198,130.0839)" /><g
           id="g1264"
           transform="translate(624.0198,126.6927)" /><g
           id="g1268"
           transform="translate(605.8785,124.0867)"><path
             d="m 0,0 c 0.216,0.049 0.588,-0.297 0.818,-0.468 1.675,-1.243 3.733,-2.222 5.864,-2.973 2.46,-0.868 5.185,-1.59 7.968,-2.122 5.67,-1.083 11.785,-1.653 18.526,-1.653 6.593,0 12.91,0.561 18.542,1.653 5.199,1.009 10.168,2.481 13.815,5.112 0.222,0.16 0.589,0.492 0.785,0.468 0.173,-0.022 0.254,-0.284 0.3,-0.418 0.156,-0.446 0.256,-1.377 0.134,-1.921 -0.185,-0.825 -0.757,-1.186 -1.286,-1.57 -3.298,-2.393 -7.38,-4.082 -11.877,-5.262 -6.045,-1.587 -12.797,-2.473 -20.397,-2.472 -7.492,0 -14.375,0.854 -20.413,2.455 -2.979,0.79 -5.788,1.81 -8.335,3.091 -1.251,0.628 -2.462,1.356 -3.542,2.171 -0.525,0.397 -1.112,0.746 -1.303,1.554 -0.122,0.516 -0.062,1.429 0.1,1.921 C -0.245,-0.265 -0.167,-0.038 0,0"
             style="fill:#59ad29;fill-opacity:1;fill-rule:nonzero;stroke:none"
             id="path1270"
             inkscape:connector-curvature="0" /></g></g></g></g></svg>