<?xml version="1.0" encoding="UTF-8" standalone="no"?>
<!-- Created with Inkscape (http://www.inkscape.org/) -->

<svg
   xmlns:dc="http://purl.org/dc/elements/1.1/"
   xmlns:cc="http://creativecommons.org/ns#"
   xmlns:rdf="http://www.w3.org/1999/02/22-rdf-syntax-ns#"
   xmlns:svg="http://www.w3.org/2000/svg"
   xmlns="http://www.w3.org/2000/svg"
   xmlns:sodipodi="http://sodipodi.sourceforge.net/DTD/sodipodi-0.dtd"
   xmlns:inkscape="http://www.inkscape.org/namespaces/inkscape"
   version="1.1"
   id="svg2"
   xml:space="preserve"
   width="208.85066"
   height="34.557331"
   viewBox="0 0 208.85066 34.557332"
   sodipodi:docname="פועלים.svg"
   inkscape:version="0.92.2 5c3e80d, 2017-08-06"><metadata
     id="metadata8"><rdf:RDF><cc:Work
         rdf:about=""><dc:format>image/svg+xml</dc:format><dc:type
           rdf:resource="http://purl.org/dc/dcmitype/StillImage" /><dc:title></dc:title></cc:Work></rdf:RDF></metadata><defs
     id="defs6"><clipPath
       clipPathUnits="userSpaceOnUse"
       id="clipPath20"><path
         d="M 0,0 H 793.7 V 1048.82 H 0 Z"
         id="path18"
         inkscape:connector-curvature="0" /></clipPath><clipPath
       clipPathUnits="userSpaceOnUse"
       id="clipPath30"><path
         d="m 28.3477,28.3477 h 737.004 v 992.125 H 28.3477 Z"
         id="path28"
         inkscape:connector-curvature="0" /></clipPath><clipPath
       clipPathUnits="userSpaceOnUse"
       id="clipPath44"><path
         d="M 64.082,160.227 H 221.02 v 26.5195 H 64.082 Z"
         id="path42"
         inkscape:connector-curvature="0" /></clipPath><clipPath
       clipPathUnits="userSpaceOnUse"
       id="clipPath78"><path
         d="m 28.3477,28.3477 h 737.004 v 992.125 H 28.3477 Z"
         id="path76"
         inkscape:connector-curvature="0" /></clipPath><clipPath
       clipPathUnits="userSpaceOnUse"
       id="clipPath158"><path
         d="m 28.3477,430.797 v -4.301 l 8.957,4.301 z"
         id="path156"
         inkscape:connector-curvature="0" /></clipPath><clipPath
       clipPathUnits="userSpaceOnUse"
       id="clipPath164"><path
         d="m 28.3477,430.797 v -4.301 l 8.957,4.301"
         id="path162"
         inkscape:connector-curvature="0" /></clipPath><clipPath
       clipPathUnits="userSpaceOnUse"
       id="clipPath170"><path
         d="m 37,425.996 v 5 h -9 v -5 z"
         id="path168"
         inkscape:connector-curvature="0" /></clipPath><clipPath
       clipPathUnits="userSpaceOnUse"
       id="clipPath176"><path
         d="M 0,0 H 793.7 V 1048.82 H 0 Z"
         id="path174"
         inkscape:connector-curvature="0" /></clipPath><clipPath
       clipPathUnits="userSpaceOnUse"
       id="clipPath188"><path
         d="M 0,0 H 793.7 V 1048.82 H 0 Z"
         id="path186"
         inkscape:connector-curvature="0" /></clipPath><clipPath
       clipPathUnits="userSpaceOnUse"
       id="clipPath200"><path
         d="m 28.3477,338.219 h 118.762 V 507.492 H 28.3477 Z"
         id="path198"
         inkscape:connector-curvature="0" /></clipPath><clipPath
       clipPathUnits="userSpaceOnUse"
       id="clipPath224"><path
         d="m 125.996,497.996 v 9 H 28 v -9 z"
         id="path222"
         inkscape:connector-curvature="0" /></clipPath><clipPath
       clipPathUnits="userSpaceOnUse"
       id="clipPath230"><path
         d="m 28.3477,498.184 h 97.7227 v 9.30859 H 28.3477 Z"
         id="path228"
         inkscape:connector-curvature="0" /></clipPath><clipPath
       clipPathUnits="userSpaceOnUse"
       id="clipPath242"><path
         d="m 125.645,507.492 v -9.308 l 21.464,8.05 v 1.258 z"
         id="path240"
         inkscape:connector-curvature="0" /></clipPath><clipPath
       clipPathUnits="userSpaceOnUse"
       id="clipPath248"><path
         d="m 125.645,507.492 v -9.308 l 21.464,8.05 v 1.258"
         id="path246"
         inkscape:connector-curvature="0" /></clipPath><clipPath
       clipPathUnits="userSpaceOnUse"
       id="clipPath254"><path
         d="m 147,497.996 v 9 h -22 v -9 z"
         id="path252"
         inkscape:connector-curvature="0" /></clipPath><clipPath
       clipPathUnits="userSpaceOnUse"
       id="clipPath260"><path
         d="M 0,0 H 793.7 V 1048.82 H 0 Z"
         id="path258"
         inkscape:connector-curvature="0" /></clipPath><clipPath
       clipPathUnits="userSpaceOnUse"
       id="clipPath272"><path
         d="M 0,0 H 793.7 V 1048.82 H 0 Z"
         id="path270"
         inkscape:connector-curvature="0" /></clipPath><clipPath
       clipPathUnits="userSpaceOnUse"
       id="clipPath282"><path
         d="m 28.3477,507.492 v -58.976 l 16.7148,6.269 v 52.707 z"
         id="path280"
         inkscape:connector-curvature="0" /></clipPath><clipPath
       clipPathUnits="userSpaceOnUse"
       id="clipPath288"><path
         d="m 28.3477,507.492 v -58.976 l 16.7148,6.269 v 52.707"
         id="path286"
         inkscape:connector-curvature="0" /></clipPath><clipPath
       clipPathUnits="userSpaceOnUse"
       id="clipPath294"><path
         d="m 44.9961,447.996 v 59 h -17 v -59 z"
         id="path292"
         inkscape:connector-curvature="0" /></clipPath><clipPath
       clipPathUnits="userSpaceOnUse"
       id="clipPath300"><path
         d="M 0,0 H 793.7 V 1048.82 H 0 Z"
         id="path298"
         inkscape:connector-curvature="0" /></clipPath><clipPath
       clipPathUnits="userSpaceOnUse"
       id="clipPath312"><path
         d="m 28.3477,28.3477 h 737.004 v 992.125 H 28.3477 Z"
         id="path310"
         inkscape:connector-curvature="0" /></clipPath><clipPath
       clipPathUnits="userSpaceOnUse"
       id="clipPath322"><path
         d="m 382.344,882.23 c -52.278,0 -94.656,-50.91 -94.656,-113.71 v 0 -149.579 h 126.671 l 81.055,2.215 0.168,149.168 c 0,8.899 -0.828,17.567 -2.398,25.883 v 0 c -10.289,49.422 -47.5,86.023 -91.829,86.023 v 0 z"
         id="path320"
         inkscape:connector-curvature="0" /></clipPath><clipPath
       clipPathUnits="userSpaceOnUse"
       id="clipPath328"><path
         d="m 382.344,882.23 c -52.278,0 -94.656,-50.91 -94.656,-113.71 v 0 -149.579 h 126.671 l 81.055,2.215 0.168,149.168 c 0,8.899 -0.828,17.567 -2.398,25.883 v 0 c -10.289,49.422 -47.5,86.023 -91.829,86.023 v 0"
         id="path326"
         inkscape:connector-curvature="0" /></clipPath><clipPath
       clipPathUnits="userSpaceOnUse"
       id="clipPath334"><path
         d="m 519.078,821.57 c 0,117.711 -79.433,213.14 -177.422,213.14 v -213.14 0 z m -177.422,213.14 c -97.988,0 -177.422,-95.429 -177.422,-213.14 h 177.422 v 0 z M 519.078,821.57 H 341.656 v 0 -213.136 c 97.989,0 177.422,95.425 177.422,213.136 z m -354.844,0 c 0,-117.711 79.434,-213.136 177.422,-213.136 v 213.136 0 z m 354.844,0 h 51.176 c 0,151.66 -102.348,274.61 -228.598,274.61 v -61.47 c 97.989,0 177.422,-95.429 177.422,-213.14 z m -177.422,213.14 v 61.47 c -126.25,0 -228.597,-122.95 -228.597,-274.61 h 51.175 c 0,117.711 79.434,213.14 177.422,213.14 z M 519.078,821.57 c 0,-117.711 -79.433,-213.136 -177.422,-213.136 v -61.473 c 126.25,0 228.598,122.949 228.598,274.609 z m -354.844,0 h -51.175 c 0,-151.66 102.347,-274.609 228.597,-274.609 v 61.473 c -97.988,0 -177.422,95.425 -177.422,213.136 z"
         id="path332"
         inkscape:connector-curvature="0" /></clipPath><clipPath
       clipPathUnits="userSpaceOnUse"
       id="clipPath340"><path
         d="M 0,0 H 793.7 V 1048.82 H 0 Z"
         id="path338"
         inkscape:connector-curvature="0" /></clipPath><clipPath
       clipPathUnits="userSpaceOnUse"
       id="clipPath352"><path
         d="m 382.344,882.23 c -52.278,0 -94.656,-50.91 -94.656,-113.71 v 0 -153.036 l 207.726,5.672 0.168,149.168 c 0,8.899 -0.828,17.567 -2.398,25.883 v 0 c -10.289,49.422 -47.5,86.023 -91.829,86.023 v 0 z"
         id="path350"
         inkscape:connector-curvature="0" /></clipPath><clipPath
       clipPathUnits="userSpaceOnUse"
       id="clipPath358"><path
         d="m 382.344,882.23 c -52.278,0 -94.656,-50.91 -94.656,-113.71 v 0 -153.036 l 207.726,5.672 0.168,149.168 c 0,8.899 -0.828,17.567 -2.398,25.883 v 0 c -10.289,49.422 -47.5,86.023 -91.829,86.023 v 0"
         id="path356"
         inkscape:connector-curvature="0" /></clipPath><clipPath
       clipPathUnits="userSpaceOnUse"
       id="clipPath364"><path
         d="m 520.691,820.563 c 0,118.781 -80.156,215.067 -179.035,215.067 v -215.067 0 z M 341.656,1035.63 c -98.879,0 -179.035,-96.286 -179.035,-215.067 h 179.035 v 0 z M 520.691,820.563 H 341.656 v 0 -215.071 c 98.879,0 179.035,96.289 179.035,215.071 z m -358.07,0 c 0,-118.782 80.156,-215.071 179.035,-215.071 v 215.071 0 z m 358.07,0 h 51.403 c 0,152.882 -103.172,276.827 -230.438,276.827 v -61.76 c 98.879,0 179.035,-96.286 179.035,-215.067 z M 341.656,1035.63 v 61.76 c -127.265,0 -230.437,-123.945 -230.437,-276.827 h 51.402 c 0,118.781 80.156,215.067 179.035,215.067 z M 520.691,820.563 c 0,-118.782 -80.156,-215.071 -179.035,-215.071 v -61.754 c 127.266,0 230.438,123.942 230.438,276.825 z m -358.07,0 h -51.402 c 0,-152.883 103.172,-276.825 230.437,-276.825 v 61.754 c -98.879,0 -179.035,96.289 -179.035,215.071 z"
         id="path362"
         inkscape:connector-curvature="0" /></clipPath><clipPath
       clipPathUnits="userSpaceOnUse"
       id="clipPath370"><path
         d="M 0,0 H 793.7 V 1048.82 H 0 Z"
         id="path368"
         inkscape:connector-curvature="0" /></clipPath><clipPath
       clipPathUnits="userSpaceOnUse"
       id="clipPath382"><path
         d="m 382.344,882.23 h -0.254 c -0.063,0 -0.129,-0.003 -0.188,-0.003 v 0 h -0.015 c -0.071,0 -0.137,0 -0.207,0 v 0 h -0.039 c -0.067,0 -0.125,-0.004 -0.188,-0.004 v 0 h -0.019 c -0.071,0 -0.137,0 -0.207,0 v 0 h -0.043 c -0.059,-0.004 -0.121,-0.004 -0.184,-0.004 v 0 h -0.023 c -0.067,-0.004 -0.133,-0.004 -0.2,-0.004 v 0 c -0.015,0 -0.035,-0.004 -0.047,-0.004 v 0 c -0.058,0 -0.113,0 -0.171,0 v 0 h -0.036 c -0.066,-0.004 -0.132,-0.008 -0.199,-0.008 v 0 c -0.015,0 -0.031,0 -0.047,0 v 0 c -0.058,-0.004 -0.113,-0.004 -0.172,-0.008 v 0 c -0.011,0 -0.023,0 -0.035,0 v 0 c -0.066,0 -0.136,-0.004 -0.203,-0.004 v 0 c -0.012,0 -0.023,-0.003 -0.035,-0.003 v 0 c -0.059,0 -0.117,-0.004 -0.176,-0.004 v 0 c -0.011,0 -0.027,0 -0.039,0 v 0 c -0.066,-0.004 -0.133,-0.008 -0.203,-0.008 v 0 c -0.008,0 -0.019,0 -0.031,0 v 0 c -0.059,-0.004 -0.121,-0.008 -0.18,-0.008 v 0 c -0.015,0 -0.019,0 -0.035,0 v 0 c -0.066,-0.004 -0.137,-0.008 -0.203,-0.012 v 0 c -0.012,0 -0.02,0 -0.031,0 v 0 c -0.063,-0.004 -0.118,-0.004 -0.18,-0.008 v 0 c -0.012,0 -0.024,0 -0.035,0 v 0 c -0.071,-0.003 -0.141,-0.007 -0.207,-0.011 v 0 c -0.004,0 -0.012,0 -0.02,0 v 0 c -0.062,-0.004 -0.129,-0.008 -0.191,-0.012 v 0 c -0.012,0 -0.02,0 -0.031,0 v 0 c -0.141,-0.008 -0.282,-0.016 -0.418,-0.023 v 0 c -0.012,0 -0.02,0 -0.032,0 v 0 c -0.14,-0.008 -0.285,-0.016 -0.425,-0.028 v 0 c -0.008,0 -0.012,0 -0.016,0 v 0 c -0.145,-0.008 -0.289,-0.015 -0.434,-0.027 v 0 c -0.004,0 -0.011,0 -0.015,0 v 0 c -0.145,-0.012 -0.289,-0.024 -0.434,-0.031 v 0 c -0.004,0 -0.008,0 -0.012,0 v 0 c -0.144,-0.012 -0.289,-0.024 -0.433,-0.036 v 0 c -0.008,0 -0.008,0 -0.008,0 v 0 c -35.977,-2.839 -66.465,-29.828 -80.34,-67.597 v 0 c 14.891,39.859 47.891,67.57 86.215,67.57 v 0 h 19.012 c 1.172,0 2.336,-0.027 3.496,-0.082 v 0 c -43.278,-1.926 -79.137,-39.203 -88.653,-88.808 v 0 c -1.621,-8.336 -2.48,-17.024 -2.48,-25.954 v 0 -101.937 l 0.297,0.141 h 1.66 l 43.801,22.949 h -2.035 l 3.062,1.476 h 1.789 l 43.801,22.95 h -2.164 l 3.059,1.476 h 1.921 l 43.797,22.949 h -2.293 l 3.063,1.477 h 2.051 l 39.156,20.515 v -0.003 l 0.101,-20.512 h 0.961 v -1.477 h -0.953 l 0.113,-22.949 h 0.84 v -1.476 h -0.832 l 0.117,-22.95 h 0.887 l 0.09,80.586 c 0,8.899 -0.828,17.567 -2.398,25.883 v 0 c -10.289,49.422 -47.5,86.023 -91.829,86.023 v 0 z M 495.32,688.262 h -0.711 l 0.118,-22.949 h 0.593 v -1.473 h -0.586 l 0.067,-13.684 -63.778,-30.758 64.391,1.758 0.078,67.965 z"
         id="path380"
         inkscape:connector-curvature="0" /></clipPath><clipPath
       clipPathUnits="userSpaceOnUse"
       id="clipPath388"><path
         d="m 382.344,882.23 h -0.254 c -0.063,0 -0.129,-0.003 -0.188,-0.003 v 0 h -0.015 c -0.071,0 -0.137,0 -0.207,0 v 0 h -0.039 c -0.067,0 -0.125,-0.004 -0.188,-0.004 v 0 h -0.019 c -0.071,0 -0.137,0 -0.207,0 v 0 h -0.043 c -0.059,-0.004 -0.121,-0.004 -0.184,-0.004 v 0 h -0.023 c -0.067,-0.004 -0.133,-0.004 -0.2,-0.004 v 0 c -0.015,0 -0.035,-0.004 -0.047,-0.004 v 0 c -0.058,0 -0.113,0 -0.171,0 v 0 h -0.036 c -0.066,-0.004 -0.132,-0.008 -0.199,-0.008 v 0 c -0.015,0 -0.031,0 -0.047,0 v 0 c -0.058,-0.004 -0.113,-0.004 -0.172,-0.008 v 0 c -0.011,0 -0.023,0 -0.035,0 v 0 c -0.066,0 -0.136,-0.004 -0.203,-0.004 v 0 c -0.012,0 -0.023,-0.003 -0.035,-0.003 v 0 c -0.059,0 -0.117,-0.004 -0.176,-0.004 v 0 c -0.011,0 -0.027,0 -0.039,0 v 0 c -0.066,-0.004 -0.133,-0.008 -0.203,-0.008 v 0 c -0.008,0 -0.019,0 -0.031,0 v 0 c -0.059,-0.004 -0.121,-0.008 -0.18,-0.008 v 0 c -0.015,0 -0.019,0 -0.035,0 v 0 c -0.066,-0.004 -0.137,-0.008 -0.203,-0.012 v 0 c -0.012,0 -0.02,0 -0.031,0 v 0 c -0.063,-0.004 -0.118,-0.004 -0.18,-0.008 v 0 c -0.012,0 -0.024,0 -0.035,0 v 0 c -0.071,-0.003 -0.141,-0.007 -0.207,-0.011 v 0 c -0.004,0 -0.012,0 -0.02,0 v 0 c -0.062,-0.004 -0.129,-0.008 -0.191,-0.012 v 0 c -0.012,0 -0.02,0 -0.031,0 v 0 c -0.141,-0.008 -0.282,-0.016 -0.418,-0.023 v 0 c -0.012,0 -0.02,0 -0.032,0 v 0 c -0.14,-0.008 -0.285,-0.016 -0.425,-0.028 v 0 c -0.008,0 -0.012,0 -0.016,0 v 0 c -0.145,-0.008 -0.289,-0.015 -0.434,-0.027 v 0 c -0.004,0 -0.011,0 -0.015,0 v 0 c -0.145,-0.012 -0.289,-0.024 -0.434,-0.031 v 0 c -0.004,0 -0.008,0 -0.012,0 v 0 c -0.144,-0.012 -0.289,-0.024 -0.433,-0.036 v 0 c -0.008,0 -0.008,0 -0.008,0 v 0 c -35.977,-2.839 -66.465,-29.828 -80.34,-67.597 v 0 c 14.891,39.859 47.891,67.57 86.215,67.57 v 0 h 19.012 c 1.172,0 2.336,-0.027 3.496,-0.082 v 0 c -43.278,-1.926 -79.137,-39.203 -88.653,-88.808 v 0 c -1.621,-8.336 -2.48,-17.024 -2.48,-25.954 v 0 -101.937 l 0.297,0.141 h 1.66 l 43.801,22.949 h -2.035 l 3.062,1.476 h 1.789 l 43.801,22.95 h -2.164 l 3.059,1.476 h 1.921 l 43.797,22.949 h -2.293 l 3.063,1.477 h 2.051 l 39.156,20.515 v -0.003 l 0.101,-20.512 h 0.961 v -1.477 h -0.953 l 0.113,-22.949 h 0.84 v -1.476 h -0.832 l 0.117,-22.95 h 0.887 l 0.09,80.586 c 0,8.899 -0.828,17.567 -2.398,25.883 v 0 c -10.289,49.422 -47.5,86.023 -91.829,86.023 v 0 z M 495.32,688.262 h -0.711 l 0.118,-22.949 h 0.593 v -1.473 h -0.586 l 0.067,-13.684 -63.778,-30.758 64.391,1.758 0.078,67.965"
         id="path386"
         inkscape:connector-curvature="0" /></clipPath><clipPath
       clipPathUnits="userSpaceOnUse"
       id="clipPath394"><path
         d="m 520.691,820.563 c 0,118.781 -80.156,215.067 -179.035,215.067 v -215.067 0 z M 341.656,1035.63 c -98.879,0 -179.035,-96.286 -179.035,-215.067 h 179.035 v 0 z M 520.691,820.563 H 341.656 v 0 -215.071 c 98.879,0 179.035,96.289 179.035,215.071 z m -358.07,0 c 0,-118.782 80.156,-215.071 179.035,-215.071 v 215.071 0 z m 358.07,0 h 48.942 c 0,151.25 -102.07,273.867 -227.977,273.867 v -58.8 c 98.879,0 179.035,-96.286 179.035,-215.067 z M 341.656,1035.63 v 58.8 C 215.75,1094.43 113.68,971.813 113.68,820.563 h 48.941 c 0,118.781 80.156,215.067 179.035,215.067 z M 520.691,820.563 c 0,-118.782 -80.156,-215.071 -179.035,-215.071 v -58.797 c 125.907,0 227.977,122.618 227.977,273.868 z m -358.07,0 H 113.68 c 0,-151.25 102.07,-273.868 227.976,-273.868 v 58.797 c -98.879,0 -179.035,96.289 -179.035,215.071 z"
         id="path392"
         inkscape:connector-curvature="0" /></clipPath><clipPath
       clipPathUnits="userSpaceOnUse"
       id="clipPath400"><path
         d="M 0,0 H 793.7 V 1048.82 H 0 Z"
         id="path398"
         inkscape:connector-curvature="0" /></clipPath><clipPath
       clipPathUnits="userSpaceOnUse"
       id="clipPath412"><path
         d="m 381.918,881.953 c -0.082,0 -0.164,0 -0.246,0 v 0 h -0.078 c -0.059,0 -0.114,0 -0.168,-0.004 v 0 h -0.09 c -0.055,0 -0.109,0 -0.16,0 v 0 c -0.031,0 -0.059,0 -0.09,0 v 0 c -0.055,0 -0.106,0 -0.16,0 v 0 c -0.031,-0.004 -0.059,-0.004 -0.09,-0.004 v 0 c -0.059,0 -0.117,0 -0.176,-0.004 v 0 c -0.023,0 -0.047,0 -0.07,0 v 0 c -0.082,0 -0.164,0 -0.246,-0.003 v 0 h -0.012 c -0.078,-0.004 -0.152,-0.004 -0.23,-0.004 v 0 c -0.028,0 -0.055,0 -0.079,-0.004 v 0 c -0.054,0 -0.113,-0.004 -0.168,-0.004 v 0 c -0.031,0 -0.058,0 -0.089,0 v 0 c -0.051,-0.004 -0.11,-0.004 -0.161,-0.008 v 0 c -0.031,0 -0.058,0 -0.089,0 v 0 c -0.055,-0.004 -0.11,-0.004 -0.164,-0.008 v 0 c -0.024,0 -0.055,0 -0.079,0 v 0 c -0.066,-0.004 -0.125,-0.004 -0.191,-0.008 v 0 c -0.019,0 -0.035,0 -0.055,-0.004 v 0 c -0.086,0 -0.164,-0.003 -0.25,-0.007 v 0 c -0.007,0 -0.011,0 -0.015,0 v 0 c -0.078,-0.004 -0.153,-0.004 -0.227,-0.008 v 0 c -0.023,-0.004 -0.047,-0.004 -0.07,-0.004 v 0 c -0.063,-0.004 -0.117,-0.008 -0.18,-0.008 v 0 c -0.023,-0.004 -0.055,-0.004 -0.082,-0.004 v 0 c -0.055,-0.004 -0.109,-0.008 -0.164,-0.008 v 0 c -0.027,0 -0.055,-0.004 -0.082,-0.004 v 0 c -0.055,-0.003 -0.113,-0.007 -0.168,-0.011 v 0 c -0.027,0 -0.051,0 -0.078,0 v 0 c -0.07,-0.008 -0.137,-0.008 -0.203,-0.012 v 0 c -0.012,-0.004 -0.028,-0.004 -0.039,-0.004 v 0 c -0.082,-0.004 -0.168,-0.012 -0.25,-0.015 v 0 c -0.008,0 -0.012,0 -0.016,0 v 0 c -0.078,-0.004 -0.156,-0.008 -0.23,-0.016 v 0 c -0.02,0 -0.039,0 -0.063,0 v 0 c -0.058,-0.004 -0.121,-0.008 -0.183,-0.016 v 0 c -0.024,0 -0.047,-0.004 -0.075,-0.004 v 0 c -0.058,-0.004 -0.117,-0.007 -0.175,-0.011 v 0 c -0.024,0 -0.047,-0.004 -0.071,-0.004 v 0 c -0.062,-0.004 -0.125,-0.008 -0.183,-0.016 v 0 c -0.02,0 -0.043,0 -0.063,-0.004 v 0 c -0.074,-0.004 -0.152,-0.008 -0.226,-0.015 v 0 c -0.008,0 -0.012,0 -0.016,0 v 0 c -0.168,-0.016 -0.336,-0.028 -0.504,-0.043 v 0 c -0.012,0 -0.027,0 -0.047,-0.004 v 0 c -0.066,-0.004 -0.133,-0.008 -0.199,-0.016 v 0 c -0.02,0 -0.035,-0.004 -0.055,-0.004 v 0 c -0.062,-0.008 -0.133,-0.012 -0.199,-0.015 v 0 c -0.016,-0.004 -0.031,-0.004 -0.047,-0.008 v 0 c -0.07,-0.004 -0.144,-0.012 -0.215,-0.02 v 0 c -0.011,0 -0.019,0 -0.031,0 v 0 c -0.254,-0.023 -0.504,-0.051 -0.754,-0.074 v 0 c -0.012,0 -0.023,-0.004 -0.035,-0.004 v 0 c -0.07,-0.008 -0.141,-0.016 -0.211,-0.019 v 0 c -0.016,-0.004 -0.035,-0.008 -0.051,-0.008 v 0 c -0.066,-0.008 -0.132,-0.016 -0.203,-0.024 v 0 c -0.015,0 -0.027,-0.004 -0.043,-0.004 v 0 c -0.074,-0.007 -0.152,-0.015 -0.23,-0.023 v 0 c -0.004,0 -0.008,-0.004 -0.012,-0.004 v 0 c -0.254,-0.027 -0.508,-0.059 -0.762,-0.09 v 0 c -0.004,0 -0.004,0 -0.007,0 v 0 c -0.083,-0.012 -0.161,-0.019 -0.239,-0.027 v 0 c -0.011,-0.004 -0.015,-0.004 -0.027,-0.004 v 0 c -0.078,-0.012 -0.152,-0.02 -0.231,-0.031 v 0 c -0.003,0 -0.011,0 -0.015,-0.004 v 0 c -0.426,-0.055 -0.848,-0.11 -1.27,-0.172 v 0 h -0.004 c -29.265,-4.27 -54.425,-24.793 -69.211,-53.941 v 0 c -0.007,-0.008 -0.011,-0.02 -0.015,-0.028 v 0 c -0.035,-0.07 -0.071,-0.14 -0.106,-0.211 v 0 c -0.011,-0.019 -0.019,-0.039 -0.031,-0.058 v 0 c -0.027,-0.059 -0.059,-0.121 -0.09,-0.18 v 0 c -0.011,-0.023 -0.023,-0.047 -0.039,-0.074 v 0 c -0.027,-0.055 -0.055,-0.11 -0.082,-0.168 v 0 c -0.012,-0.024 -0.023,-0.051 -0.039,-0.074 v 0 c -0.027,-0.059 -0.055,-0.114 -0.082,-0.172 v 0 c -0.012,-0.024 -0.023,-0.047 -0.035,-0.071 v 0 c -0.039,-0.082 -0.078,-0.156 -0.117,-0.234 v 0 c -0.016,-0.031 -0.032,-0.063 -0.043,-0.09 v 0 c -0.024,-0.047 -0.047,-0.098 -0.074,-0.144 v 0 c -0.02,-0.043 -0.04,-0.082 -0.059,-0.125 v 0 c -0.016,-0.036 -0.035,-0.075 -0.055,-0.11 v 0 c -0.023,-0.047 -0.043,-0.09 -0.066,-0.136 v 0 c -0.012,-0.032 -0.031,-0.063 -0.043,-0.09 v 0 c -0.024,-0.055 -0.051,-0.106 -0.074,-0.153 v 0 c -0.012,-0.023 -0.024,-0.05 -0.036,-0.074 v 0 c -0.027,-0.055 -0.05,-0.113 -0.082,-0.168 v 0 c -0.003,-0.012 -0.011,-0.027 -0.015,-0.035 v 0 c -0.172,-0.359 -0.34,-0.715 -0.508,-1.074 v 0 c -1.422,-3.031 -2.727,-6.145 -3.922,-9.336 v 0 c -2.133,-5.715 -3.898,-11.688 -5.25,-17.86 v 0 c -0.004,-0.007 -0.004,-0.015 -0.008,-0.027 v 0 c -0.019,-0.101 -0.043,-0.199 -0.066,-0.301 v 0 c 0,-0.015 -0.004,-0.031 -0.008,-0.047 v 0 c -0.019,-0.097 -0.043,-0.195 -0.062,-0.293 v 0 c -0.004,-0.011 -0.008,-0.027 -0.008,-0.042 v 0 c -0.024,-0.106 -0.047,-0.208 -0.071,-0.313 v 0 c 0,-0.008 0,-0.012 -0.003,-0.023 v 0 c -0.047,-0.223 -0.09,-0.446 -0.137,-0.668 v 0 c -0.004,-0.024 -0.012,-0.047 -0.016,-0.067 v 0 c -0.015,-0.086 -0.035,-0.172 -0.054,-0.262 v 0 c -0.004,-0.035 -0.008,-0.058 -0.016,-0.093 v 0 c -0.016,-0.078 -0.031,-0.153 -0.047,-0.231 v 0 c -0.008,-0.035 -0.016,-0.074 -0.023,-0.109 v 0 c -0.012,-0.074 -0.028,-0.145 -0.043,-0.223 v 0 c -0.008,-0.035 -0.016,-0.07 -0.024,-0.109 v 0 c -0.012,-0.074 -0.027,-0.149 -0.043,-0.223 v 0 c -0.008,-0.035 -0.011,-0.07 -0.019,-0.105 v 0 c -0.02,-0.11 -0.043,-0.215 -0.063,-0.324 v 0 c -1.621,-8.336 -2.476,-17.024 -2.476,-25.954 v 0 -116.457 l 25.168,13.188 h -1.903 l 2.762,1.332 v 101.937 c 0,8.93 0.859,17.618 2.48,25.954 v 0 c 9.516,49.605 45.375,86.882 88.653,88.808 v 0 0 c -1.16,0.055 -2.324,0.082 -3.496,0.082 v 0 z"
         id="path410"
         inkscape:connector-curvature="0" /></clipPath><clipPath
       clipPathUnits="userSpaceOnUse"
       id="clipPath418"><path
         d="m 381.918,881.953 c -0.082,0 -0.164,0 -0.246,0 v 0 h -0.078 c -0.059,0 -0.114,0 -0.168,-0.004 v 0 h -0.09 c -0.055,0 -0.109,0 -0.16,0 v 0 c -0.031,0 -0.059,0 -0.09,0 v 0 c -0.055,0 -0.106,0 -0.16,0 v 0 c -0.031,-0.004 -0.059,-0.004 -0.09,-0.004 v 0 c -0.059,0 -0.117,0 -0.176,-0.004 v 0 c -0.023,0 -0.047,0 -0.07,0 v 0 c -0.082,0 -0.164,0 -0.246,-0.003 v 0 h -0.012 c -0.078,-0.004 -0.152,-0.004 -0.23,-0.004 v 0 c -0.028,0 -0.055,0 -0.079,-0.004 v 0 c -0.054,0 -0.113,-0.004 -0.168,-0.004 v 0 c -0.031,0 -0.058,0 -0.089,0 v 0 c -0.051,-0.004 -0.11,-0.004 -0.161,-0.008 v 0 c -0.031,0 -0.058,0 -0.089,0 v 0 c -0.055,-0.004 -0.11,-0.004 -0.164,-0.008 v 0 c -0.024,0 -0.055,0 -0.079,0 v 0 c -0.066,-0.004 -0.125,-0.004 -0.191,-0.008 v 0 c -0.019,0 -0.035,0 -0.055,-0.004 v 0 c -0.086,0 -0.164,-0.003 -0.25,-0.007 v 0 c -0.007,0 -0.011,0 -0.015,0 v 0 c -0.078,-0.004 -0.153,-0.004 -0.227,-0.008 v 0 c -0.023,-0.004 -0.047,-0.004 -0.07,-0.004 v 0 c -0.063,-0.004 -0.117,-0.008 -0.18,-0.008 v 0 c -0.023,-0.004 -0.055,-0.004 -0.082,-0.004 v 0 c -0.055,-0.004 -0.109,-0.008 -0.164,-0.008 v 0 c -0.027,0 -0.055,-0.004 -0.082,-0.004 v 0 c -0.055,-0.003 -0.113,-0.007 -0.168,-0.011 v 0 c -0.027,0 -0.051,0 -0.078,0 v 0 c -0.07,-0.008 -0.137,-0.008 -0.203,-0.012 v 0 c -0.012,-0.004 -0.028,-0.004 -0.039,-0.004 v 0 c -0.082,-0.004 -0.168,-0.012 -0.25,-0.015 v 0 c -0.008,0 -0.012,0 -0.016,0 v 0 c -0.078,-0.004 -0.156,-0.008 -0.23,-0.016 v 0 c -0.02,0 -0.039,0 -0.063,0 v 0 c -0.058,-0.004 -0.121,-0.008 -0.183,-0.016 v 0 c -0.024,0 -0.047,-0.004 -0.075,-0.004 v 0 c -0.058,-0.004 -0.117,-0.007 -0.175,-0.011 v 0 c -0.024,0 -0.047,-0.004 -0.071,-0.004 v 0 c -0.062,-0.004 -0.125,-0.008 -0.183,-0.016 v 0 c -0.02,0 -0.043,0 -0.063,-0.004 v 0 c -0.074,-0.004 -0.152,-0.008 -0.226,-0.015 v 0 c -0.008,0 -0.012,0 -0.016,0 v 0 c -0.168,-0.016 -0.336,-0.028 -0.504,-0.043 v 0 c -0.012,0 -0.027,0 -0.047,-0.004 v 0 c -0.066,-0.004 -0.133,-0.008 -0.199,-0.016 v 0 c -0.02,0 -0.035,-0.004 -0.055,-0.004 v 0 c -0.062,-0.008 -0.133,-0.012 -0.199,-0.015 v 0 c -0.016,-0.004 -0.031,-0.004 -0.047,-0.008 v 0 c -0.07,-0.004 -0.144,-0.012 -0.215,-0.02 v 0 c -0.011,0 -0.019,0 -0.031,0 v 0 c -0.254,-0.023 -0.504,-0.051 -0.754,-0.074 v 0 c -0.012,0 -0.023,-0.004 -0.035,-0.004 v 0 c -0.07,-0.008 -0.141,-0.016 -0.211,-0.019 v 0 c -0.016,-0.004 -0.035,-0.008 -0.051,-0.008 v 0 c -0.066,-0.008 -0.132,-0.016 -0.203,-0.024 v 0 c -0.015,0 -0.027,-0.004 -0.043,-0.004 v 0 c -0.074,-0.007 -0.152,-0.015 -0.23,-0.023 v 0 c -0.004,0 -0.008,-0.004 -0.012,-0.004 v 0 c -0.254,-0.027 -0.508,-0.059 -0.762,-0.09 v 0 c -0.004,0 -0.004,0 -0.007,0 v 0 c -0.083,-0.012 -0.161,-0.019 -0.239,-0.027 v 0 c -0.011,-0.004 -0.015,-0.004 -0.027,-0.004 v 0 c -0.078,-0.012 -0.152,-0.02 -0.231,-0.031 v 0 c -0.003,0 -0.011,0 -0.015,-0.004 v 0 c -0.426,-0.055 -0.848,-0.11 -1.27,-0.172 v 0 h -0.004 c -29.265,-4.27 -54.425,-24.793 -69.211,-53.941 v 0 c -0.007,-0.008 -0.011,-0.02 -0.015,-0.028 v 0 c -0.035,-0.07 -0.071,-0.14 -0.106,-0.211 v 0 c -0.011,-0.019 -0.019,-0.039 -0.031,-0.058 v 0 c -0.027,-0.059 -0.059,-0.121 -0.09,-0.18 v 0 c -0.011,-0.023 -0.023,-0.047 -0.039,-0.074 v 0 c -0.027,-0.055 -0.055,-0.11 -0.082,-0.168 v 0 c -0.012,-0.024 -0.023,-0.051 -0.039,-0.074 v 0 c -0.027,-0.059 -0.055,-0.114 -0.082,-0.172 v 0 c -0.012,-0.024 -0.023,-0.047 -0.035,-0.071 v 0 c -0.039,-0.082 -0.078,-0.156 -0.117,-0.234 v 0 c -0.016,-0.031 -0.032,-0.063 -0.043,-0.09 v 0 c -0.024,-0.047 -0.047,-0.098 -0.074,-0.144 v 0 c -0.02,-0.043 -0.04,-0.082 -0.059,-0.125 v 0 c -0.016,-0.036 -0.035,-0.075 -0.055,-0.11 v 0 c -0.023,-0.047 -0.043,-0.09 -0.066,-0.136 v 0 c -0.012,-0.032 -0.031,-0.063 -0.043,-0.09 v 0 c -0.024,-0.055 -0.051,-0.106 -0.074,-0.153 v 0 c -0.012,-0.023 -0.024,-0.05 -0.036,-0.074 v 0 c -0.027,-0.055 -0.05,-0.113 -0.082,-0.168 v 0 c -0.003,-0.012 -0.011,-0.027 -0.015,-0.035 v 0 c -0.172,-0.359 -0.34,-0.715 -0.508,-1.074 v 0 c -1.422,-3.031 -2.727,-6.145 -3.922,-9.336 v 0 c -2.133,-5.715 -3.898,-11.688 -5.25,-17.86 v 0 c -0.004,-0.007 -0.004,-0.015 -0.008,-0.027 v 0 c -0.019,-0.101 -0.043,-0.199 -0.066,-0.301 v 0 c 0,-0.015 -0.004,-0.031 -0.008,-0.047 v 0 c -0.019,-0.097 -0.043,-0.195 -0.062,-0.293 v 0 c -0.004,-0.011 -0.008,-0.027 -0.008,-0.042 v 0 c -0.024,-0.106 -0.047,-0.208 -0.071,-0.313 v 0 c 0,-0.008 0,-0.012 -0.003,-0.023 v 0 c -0.047,-0.223 -0.09,-0.446 -0.137,-0.668 v 0 c -0.004,-0.024 -0.012,-0.047 -0.016,-0.067 v 0 c -0.015,-0.086 -0.035,-0.172 -0.054,-0.262 v 0 c -0.004,-0.035 -0.008,-0.058 -0.016,-0.093 v 0 c -0.016,-0.078 -0.031,-0.153 -0.047,-0.231 v 0 c -0.008,-0.035 -0.016,-0.074 -0.023,-0.109 v 0 c -0.012,-0.074 -0.028,-0.145 -0.043,-0.223 v 0 c -0.008,-0.035 -0.016,-0.07 -0.024,-0.109 v 0 c -0.012,-0.074 -0.027,-0.149 -0.043,-0.223 v 0 c -0.008,-0.035 -0.011,-0.07 -0.019,-0.105 v 0 c -0.02,-0.11 -0.043,-0.215 -0.063,-0.324 v 0 c -1.621,-8.336 -2.476,-17.024 -2.476,-25.954 v 0 -116.457 l 25.168,13.188 h -1.903 l 2.762,1.332 v 101.937 c 0,8.93 0.859,17.618 2.48,25.954 v 0 c 9.516,49.605 45.375,86.882 88.653,88.808 v 0 0 c -1.16,0.055 -2.324,0.082 -3.496,0.082 v 0"
         id="path416"
         inkscape:connector-curvature="0" /></clipPath><clipPath
       clipPathUnits="userSpaceOnUse"
       id="clipPath424"><path
         d="M 287,833.176 V 688.828 h 115.996 v 144.348 z m 0,48.82 v -48.82 h 115.996 v 48.82 z m 0,-193.168 V 650 h 115.996 v 38.828 z"
         id="path422"
         inkscape:connector-curvature="0" /></clipPath><clipPath
       clipPathUnits="userSpaceOnUse"
       id="clipPath430"><path
         d="M 0,0 H 793.7 V 1048.82 H 0 Z"
         id="path428"
         inkscape:connector-curvature="0" /></clipPath><clipPath
       clipPathUnits="userSpaceOnUse"
       id="clipPath442"><path
         d="m 494.258,759.102 h -0.004 L 455.102,738.59 h 39.257 l -0.101,20.515 z m -41.977,-21.989 -43.797,-22.949 h 85.996 l -0.113,22.949 z m -46.613,-24.425 -43.801,-22.95 h 132.735 l -0.114,22.95 z M 359.051,688.262 315.25,665.313 h 179.477 l -0.118,22.949 z m -46.617,-24.422 -25.168,-13.188 -0.942,-0.496 -19.219,-9.265 h 208.481 l -3.063,-1.477 H 264.047 l -6.156,-2.969 -20.887,-10.074 -16.492,-7.953 -1.821,-0.879 h 208.481 l -2.09,-1.008 69.719,33.625 -0.067,13.684 z m 111.675,-47.777 0.973,0.468 z m -208.48,0 -45.352,-21.872 h 208.481 l 45.351,21.872 z m -48.41,-23.348 -45.356,-21.875 h 208.481 l -0.606,-0.289 45.957,22.164 z M 85.5391,553.32 73.4492,547.492 H 281.93 l 45.347,21.871 H 118.801 l 0.543,0.262 z m -12.418,-5.988 -0.3203,-0.152 0.6484,0.312 z m -2.7305,-1.316 -42.0429,-20.278 v -1.597 H 233.516 l 45.351,21.875 z M 28.3477,522.664 V 500.793 H 185.102 l 45.347,21.871 z M 182.039,499.316 H 28.3477 V 477.441 H 136.688 l 10.421,5.032 37.871,18.261 z m -48.414,-23.347 2.059,0.992 1.004,0.48 z m -105.2773,0 v -21.875 h 59.9257 l -0.1132,-0.055 31.2378,15.066 14.227,6.864 z m 0,-23.352 v -21.82 h 11.625 l 45.2382,21.82 z"
         id="path440"
         inkscape:connector-curvature="0" /></clipPath><clipPath
       clipPathUnits="userSpaceOnUse"
       id="clipPath448"><path
         d="m 494.258,759.102 h -0.004 L 455.102,738.59 h 39.257 l -0.101,20.515 z m -41.977,-21.989 -43.797,-22.949 h 85.996 l -0.113,22.949 z m -46.613,-24.425 -43.801,-22.95 h 132.735 l -0.114,22.95 z M 359.051,688.262 315.25,665.313 h 179.477 l -0.118,22.949 z m -46.617,-24.422 -25.168,-13.188 -0.942,-0.496 -19.219,-9.265 h 208.481 l -3.063,-1.477 H 264.047 l -6.156,-2.969 -20.887,-10.074 -16.492,-7.953 -1.821,-0.879 h 208.481 l -2.09,-1.008 69.719,33.625 -0.067,13.684 z m 111.675,-47.777 0.973,0.468 z m -208.48,0 -45.352,-21.872 h 208.481 l 45.351,21.872 z m -48.41,-23.348 -45.356,-21.875 h 208.481 l -0.606,-0.289 45.957,22.164 z M 85.5391,553.32 73.4492,547.492 H 281.93 l 45.347,21.871 H 118.801 l 0.543,0.262 z m -12.418,-5.988 -0.3203,-0.152 0.6484,0.312 z m -2.7305,-1.316 -42.0429,-20.278 v -1.597 H 233.516 l 45.351,21.875 z M 28.3477,522.664 V 500.793 H 185.102 l 45.347,21.871 z M 182.039,499.316 H 28.3477 V 477.441 H 136.688 l 10.421,5.032 37.871,18.261 z m -48.414,-23.347 2.059,0.992 1.004,0.48 z m -105.2773,0 v -21.875 h 59.9257 l -0.1132,-0.055 31.2378,15.066 14.227,6.864 z m 0,-23.352 v -21.82 h 11.625 l 45.2382,21.82"
         id="path446"
         inkscape:connector-curvature="0" /></clipPath><clipPath
       clipPathUnits="userSpaceOnUse"
       id="clipPath454"><path
         d="M 495.992,507.93 V 759.992 H 28 V 507.93 Z m 0,-77.93 v 77.93 H 28 V 430 Z"
         id="path452"
         inkscape:connector-curvature="0" /></clipPath><clipPath
       clipPathUnits="userSpaceOnUse"
       id="clipPath460"><path
         d="M 0,0 H 793.7 V 1048.82 H 0 Z"
         id="path458"
         inkscape:connector-curvature="0" /></clipPath><clipPath
       clipPathUnits="userSpaceOnUse"
       id="clipPath472"><path
         d="m 494.359,738.59 0.008,-1.477 h 0.953 v 1.477 z m -41.308,0 -3.063,-1.477 h 2.293 l 2.821,1.477 z"
         id="path470"
         inkscape:connector-curvature="0" /></clipPath><clipPath
       clipPathUnits="userSpaceOnUse"
       id="clipPath478"><path
         d="M 0,0 H 793.7 V 1048.82 H 0 Z"
         id="path476"
         inkscape:connector-curvature="0" /></clipPath><clipPath
       clipPathUnits="userSpaceOnUse"
       id="clipPath490"><path
         d="m 455.102,738.59 -2.821,-1.477 h 42.086 l -0.008,1.477 z"
         id="path488"
         inkscape:connector-curvature="0" /></clipPath><clipPath
       clipPathUnits="userSpaceOnUse"
       id="clipPath496"><path
         d="M 0,0 H 793.7 V 1048.82 H 0 Z"
         id="path494"
         inkscape:connector-curvature="0" /></clipPath><clipPath
       clipPathUnits="userSpaceOnUse"
       id="clipPath508"><path
         d="m 494.48,714.164 0.008,-1.476 h 0.832 v 1.476 z m -87.917,0 -3.059,-1.476 h 2.164 l 2.816,1.476 z"
         id="path506"
         inkscape:connector-curvature="0" /></clipPath><clipPath
       clipPathUnits="userSpaceOnUse"
       id="clipPath514"><path
         d="M 0,0 H 793.7 V 1048.82 H 0 Z"
         id="path512"
         inkscape:connector-curvature="0" /></clipPath><clipPath
       clipPathUnits="userSpaceOnUse"
       id="clipPath526"><path
         d="m 408.484,714.164 -2.816,-1.476 h 88.82 l -0.008,1.476 z"
         id="path524"
         inkscape:connector-curvature="0" /></clipPath><clipPath
       clipPathUnits="userSpaceOnUse"
       id="clipPath532"><path
         d="M 0,0 H 793.7 V 1048.82 H 0 Z"
         id="path530"
         inkscape:connector-curvature="0" /></clipPath><clipPath
       clipPathUnits="userSpaceOnUse"
       id="clipPath544"><path
         d="m 495.492,689.738 v -0.617 l 0.02,0.109 0.101,0.508 z"
         id="path542"
         inkscape:connector-curvature="0" /></clipPath><clipPath
       clipPathUnits="userSpaceOnUse"
       id="clipPath550"><path
         d="m 495.492,689.738 v -0.617 l 0.02,0.109 0.101,0.508"
         id="path548"
         inkscape:connector-curvature="0" /></clipPath><clipPath
       clipPathUnits="userSpaceOnUse"
       id="clipPath556"><path
         d="m 495.996,688.996 v 1 h -1 v -1 z"
         id="path554"
         inkscape:connector-curvature="0" /></clipPath><clipPath
       clipPathUnits="userSpaceOnUse"
       id="clipPath562"><path
         d="M 0,0 H 793.7 V 1048.82 H 0 Z"
         id="path560"
         inkscape:connector-curvature="0" /></clipPath><clipPath
       clipPathUnits="userSpaceOnUse"
       id="clipPath574"><path
         d="m 494.605,689.738 0.004,-1.476 h 0.711 l 0.172,0.859 v 0.617 z m -134.527,0 -3.062,-1.476 h 2.035 l 2.816,1.476 z"
         id="path572"
         inkscape:connector-curvature="0" /></clipPath><clipPath
       clipPathUnits="userSpaceOnUse"
       id="clipPath580"><path
         d="M 0,0 H 793.7 V 1048.82 H 0 Z"
         id="path578"
         inkscape:connector-curvature="0" /></clipPath><clipPath
       clipPathUnits="userSpaceOnUse"
       id="clipPath592"><path
         d="m 361.867,689.738 -2.816,-1.476 h 135.558 l -0.004,1.476 z"
         id="path590"
         inkscape:connector-curvature="0" /></clipPath><clipPath
       clipPathUnits="userSpaceOnUse"
       id="clipPath598"><path
         d="M 0,0 H 793.7 V 1048.82 H 0 Z"
         id="path596"
         inkscape:connector-curvature="0" /></clipPath><clipPath
       clipPathUnits="userSpaceOnUse"
       id="clipPath610"><path
         d="m 494.727,665.313 0.007,-1.473 h 0.586 v 1.473 z m -181.137,0 -0.297,-0.141 v -0.883 l 1.957,1.024 z"
         id="path608"
         inkscape:connector-curvature="0" /></clipPath><clipPath
       clipPathUnits="userSpaceOnUse"
       id="clipPath616"><path
         d="M 0,0 H 793.7 V 1048.82 H 0 Z"
         id="path614"
         inkscape:connector-curvature="0" /></clipPath><clipPath
       clipPathUnits="userSpaceOnUse"
       id="clipPath628"><path
         d="m 310.531,663.84 h 1.903 l 0.859,0.449 v 0.883 z"
         id="path626"
         inkscape:connector-curvature="0" /></clipPath><clipPath
       clipPathUnits="userSpaceOnUse"
       id="clipPath634"><path
         d="M 0,0 H 793.7 V 1048.82 H 0 Z"
         id="path632"
         inkscape:connector-curvature="0" /></clipPath><clipPath
       clipPathUnits="userSpaceOnUse"
       id="clipPath646"><path
         d="m 315.25,665.313 -1.957,-1.024 -0.859,-0.449 h 182.3 l -0.007,1.473 z"
         id="path644"
         inkscape:connector-curvature="0" /></clipPath><clipPath
       clipPathUnits="userSpaceOnUse"
       id="clipPath652"><path
         d="M 0,0 H 793.7 V 1048.82 H 0 Z"
         id="path650"
         inkscape:connector-curvature="0" /></clipPath><clipPath
       clipPathUnits="userSpaceOnUse"
       id="clipPath664"><path
         d="m 264.047,639.414 3.058,1.477 z"
         id="path662"
         inkscape:connector-curvature="0" /></clipPath><clipPath
       clipPathUnits="userSpaceOnUse"
       id="clipPath670"><path
         d="m 264.047,639.414 3.058,1.477"
         id="path668"
         inkscape:connector-curvature="0" /></clipPath><clipPath
       clipPathUnits="userSpaceOnUse"
       id="clipPath676"><path
         d="m 266.996,638.996 v 2 h -3 v -2 z"
         id="path674"
         inkscape:connector-curvature="0" /></clipPath><clipPath
       clipPathUnits="userSpaceOnUse"
       id="clipPath682"><path
         d="M 0,0 H 793.7 V 1048.82 H 0 Z"
         id="path680"
         inkscape:connector-curvature="0" /></clipPath><clipPath
       clipPathUnits="userSpaceOnUse"
       id="clipPath694"><path
         d="m 267.105,640.891 -3.058,-1.477 h 208.476 l 3.063,1.477 z"
         id="path692"
         inkscape:connector-curvature="0" /></clipPath><clipPath
       clipPathUnits="userSpaceOnUse"
       id="clipPath700"><path
         d="M 0,0 H 793.7 V 1048.82 H 0 Z"
         id="path698"
         inkscape:connector-curvature="0" /></clipPath><clipPath
       clipPathUnits="userSpaceOnUse"
       id="clipPath712"><path
         d="m 218.691,617.539 -3.062,-1.476 z"
         id="path710"
         inkscape:connector-curvature="0" /></clipPath><clipPath
       clipPathUnits="userSpaceOnUse"
       id="clipPath718"><path
         d="m 218.691,617.539 -3.062,-1.476 3.062,1.476"
         id="path716"
         inkscape:connector-curvature="0" /></clipPath><clipPath
       clipPathUnits="userSpaceOnUse"
       id="clipPath724"><path
         d="m 218.996,615.996 v 2 h -3 v -2 z"
         id="path722"
         inkscape:connector-curvature="0" /></clipPath><clipPath
       clipPathUnits="userSpaceOnUse"
       id="clipPath730"><path
         d="M 0,0 H 793.7 V 1048.82 H 0 Z"
         id="path728"
         inkscape:connector-curvature="0" /></clipPath><clipPath
       clipPathUnits="userSpaceOnUse"
       id="clipPath742"><path
         d="m 218.691,617.539 -3.062,-1.476 h 208.48 l 3.063,1.476 z"
         id="path740"
         inkscape:connector-curvature="0" /></clipPath><clipPath
       clipPathUnits="userSpaceOnUse"
       id="clipPath748"><path
         d="M 0,0 H 793.7 V 1048.82 H 0 Z"
         id="path746"
         inkscape:connector-curvature="0" /></clipPath><clipPath
       clipPathUnits="userSpaceOnUse"
       id="clipPath760"><path
         d="m 170.277,594.191 -3.058,-1.476 h 208.476 l 3.063,1.476 z"
         id="path758"
         inkscape:connector-curvature="0" /></clipPath><clipPath
       clipPathUnits="userSpaceOnUse"
       id="clipPath766"><path
         d="M 0,0 H 793.7 V 1048.82 H 0 Z"
         id="path764"
         inkscape:connector-curvature="0" /></clipPath><clipPath
       clipPathUnits="userSpaceOnUse"
       id="clipPath778"><path
         d="m 121.863,570.84 -0.808,-0.391 z"
         id="path776"
         inkscape:connector-curvature="0" /></clipPath><clipPath
       clipPathUnits="userSpaceOnUse"
       id="clipPath784"><path
         d="m 121.863,570.84 -0.808,-0.391 0.808,0.391"
         id="path782"
         inkscape:connector-curvature="0" /></clipPath><clipPath
       clipPathUnits="userSpaceOnUse"
       id="clipPath790"><path
         d="m 121.996,569.996 v 1 h -1 v -1 z"
         id="path788"
         inkscape:connector-curvature="0" /></clipPath><clipPath
       clipPathUnits="userSpaceOnUse"
       id="clipPath796"><path
         d="M 0,0 H 793.7 V 1048.82 H 0 Z"
         id="path794"
         inkscape:connector-curvature="0" /></clipPath><clipPath
       clipPathUnits="userSpaceOnUse"
       id="clipPath808"><path
         d="m 327.281,569.363 v 0 l 1.442,0.696 z"
         id="path806"
         inkscape:connector-curvature="0" /></clipPath><clipPath
       clipPathUnits="userSpaceOnUse"
       id="clipPath814"><path
         d="m 327.281,569.363 v 0 l 1.442,0.696"
         id="path812"
         inkscape:connector-curvature="0" /></clipPath><clipPath
       clipPathUnits="userSpaceOnUse"
       id="clipPath820"><path
         d="m 327.996,568.996 v 1 h -1 v -1 z"
         id="path818"
         inkscape:connector-curvature="0" /></clipPath><clipPath
       clipPathUnits="userSpaceOnUse"
       id="clipPath826"><path
         d="M 0,0 H 793.7 V 1048.82 H 0 Z"
         id="path824"
         inkscape:connector-curvature="0" /></clipPath><clipPath
       clipPathUnits="userSpaceOnUse"
       id="clipPath838"><path
         d="m 121.863,570.84 -3.062,-1.477 h 208.48 l 1.442,0.696 1.621,0.781 z"
         id="path836"
         inkscape:connector-curvature="0" /></clipPath><clipPath
       clipPathUnits="userSpaceOnUse"
       id="clipPath844"><path
         d="M 0,0 H 793.7 V 1048.82 H 0 Z"
         id="path842"
         inkscape:connector-curvature="0" /></clipPath><clipPath
       clipPathUnits="userSpaceOnUse"
       id="clipPath856"><path
         d="m 73.4492,547.492 -0.6484,-0.312 -2.4102,-1.164 H 278.867 l 3.063,1.476 z"
         id="path854"
         inkscape:connector-curvature="0" /></clipPath><clipPath
       clipPathUnits="userSpaceOnUse"
       id="clipPath862"><path
         d="M 0,0 H 793.7 V 1048.82 H 0 Z"
         id="path860"
         inkscape:connector-curvature="0" /></clipPath><clipPath
       clipPathUnits="userSpaceOnUse"
       id="clipPath874"><path
         d="m 230.449,522.664 0.274,0.133 z"
         id="path872"
         inkscape:connector-curvature="0" /></clipPath><clipPath
       clipPathUnits="userSpaceOnUse"
       id="clipPath880"><path
         d="m 230.449,522.664 0.274,0.133"
         id="path878"
         inkscape:connector-curvature="0" /></clipPath><clipPath
       clipPathUnits="userSpaceOnUse"
       id="clipPath886"><path
         d="m 230.996,521.996 v 1 h -1 v -1 z"
         id="path884"
         inkscape:connector-curvature="0" /></clipPath><clipPath
       clipPathUnits="userSpaceOnUse"
       id="clipPath892"><path
         d="M 0,0 H 793.7 V 1048.82 H 0 Z"
         id="path890"
         inkscape:connector-curvature="0" /></clipPath><clipPath
       clipPathUnits="userSpaceOnUse"
       id="clipPath904"><path
         d="m 28.3477,524.141 v -1.477 H 230.449 l 0.274,0.133 2.793,1.344 z"
         id="path902"
         inkscape:connector-curvature="0" /></clipPath><clipPath
       clipPathUnits="userSpaceOnUse"
       id="clipPath910"><path
         d="M 0,0 H 793.7 V 1048.82 H 0 Z"
         id="path908"
         inkscape:connector-curvature="0" /></clipPath><clipPath
       clipPathUnits="userSpaceOnUse"
       id="clipPath922"><path
         d="m 28.3477,500.793 v -1.477 H 182.039 l 2.941,1.418 0.122,0.059 z m 0,-23.352 v -1.472 H 133.625 l 3.063,1.472 z"
         id="path920"
         inkscape:connector-curvature="0" /></clipPath><clipPath
       clipPathUnits="userSpaceOnUse"
       id="clipPath928"><path
         d="M 0,0 H 793.7 V 1048.82 H 0 Z"
         id="path926"
         inkscape:connector-curvature="0" /></clipPath><clipPath
       clipPathUnits="userSpaceOnUse"
       id="clipPath940"><path
         d="m 28.3477,454.094 v -1.477 h 56.8632 l 3.0625,1.477 z"
         id="path938"
         inkscape:connector-curvature="0" /></clipPath><clipPath
       clipPathUnits="userSpaceOnUse"
       id="clipPath946"><path
         d="M 0,0 H 793.7 V 1048.82 H 0 Z"
         id="path944"
         inkscape:connector-curvature="0" /></clipPath><clipPath
       clipPathUnits="userSpaceOnUse"
       id="clipPath958"><path
         d="M 0,0 H 793.7 V 1048.82 H 0 Z"
         id="path956"
         inkscape:connector-curvature="0" /></clipPath><clipPath
       clipPathUnits="userSpaceOnUse"
       id="clipPath970"><path
         d="m 28.3477,430.797 h 467.266 V 882.231 H 28.3477 Z"
         id="path968"
         inkscape:connector-curvature="0" /></clipPath><clipPath
       clipPathUnits="userSpaceOnUse"
       id="clipPath1042"><path
         d="m 459.996,662.996 v 73.633 H 355 v -73.633 z m 0,73.633 v 5.367 H 355 v -5.367 z"
         id="path1040"
         inkscape:connector-curvature="0" /></clipPath><clipPath
       clipPathUnits="userSpaceOnUse"
       id="clipPath1048"><path
         d="m 355.117,662.961 h 105.004 v 78.9766 H 355.117 Z"
         id="path1046"
         inkscape:connector-curvature="0" /></clipPath><clipPath
       clipPathUnits="userSpaceOnUse"
       id="clipPath1060"><path
         d="m 459.746,741.938 v -78.977 l 35.449,13.293 v 78.976 z"
         id="path1058"
         inkscape:connector-curvature="0" /></clipPath><clipPath
       clipPathUnits="userSpaceOnUse"
       id="clipPath1066"><path
         d="m 459.746,741.938 v -78.977 l 35.449,13.293 v 78.976"
         id="path1064"
         inkscape:connector-curvature="0" /></clipPath><clipPath
       clipPathUnits="userSpaceOnUse"
       id="clipPath1072"><path
         d="m 494.996,662.996 v 76.113 H 459 v -76.113 z m 0,76.113 v 15.887 H 459 v -15.887 z"
         id="path1070"
         inkscape:connector-curvature="0" /></clipPath><clipPath
       clipPathUnits="userSpaceOnUse"
       id="clipPath1078"><path
         d="M 0,0 H 793.7 V 1048.82 H 0 Z"
         id="path1076"
         inkscape:connector-curvature="0" /></clipPath><clipPath
       clipPathUnits="userSpaceOnUse"
       id="clipPath1090"><path
         d="m 407.715,774.039 -54.574,-20.754 h 107.605 l 34.449,13.102 v 2.527 c 0,1.719 -0.031,3.426 -0.093,5.125 v 0 z"
         id="path1088"
         inkscape:connector-curvature="0" /></clipPath><clipPath
       clipPathUnits="userSpaceOnUse"
       id="clipPath1096"><path
         d="m 407.715,774.039 -54.574,-20.754 h 107.605 l 34.449,13.102 v 2.527 c 0,1.719 -0.031,3.426 -0.093,5.125 v 0"
         id="path1094"
         inkscape:connector-curvature="0" /></clipPath><clipPath
       clipPathUnits="userSpaceOnUse"
       id="clipPath1102"><path
         d="m 353.141,753 h 141.855 v 20.996 H 353.141 Z M 353,753 h 0.141 v 20.996 H 353 Z"
         id="path1100"
         inkscape:connector-curvature="0" /></clipPath><clipPath
       clipPathUnits="userSpaceOnUse"
       id="clipPath1108"><path
         d="M 0,0 H 793.7 V 1048.82 H 0 Z"
         id="path1106"
         inkscape:connector-curvature="0" /></clipPath><clipPath
       clipPathUnits="userSpaceOnUse"
       id="clipPath1120"><path
         d="m 352.996,737 h 62.961 v 15.996 h -62.961 z m 62.961,0 h 45.039 v 15.996 h -45.039 z"
         id="path1118"
         inkscape:connector-curvature="0" /></clipPath><clipPath
       clipPathUnits="userSpaceOnUse"
       id="clipPath1126"><path
         d="m 353.203,736.895 h 107.543 v 16.5156 H 353.203 Z"
         id="path1124"
         inkscape:connector-curvature="0" /></clipPath><clipPath
       clipPathUnits="userSpaceOnUse"
       id="clipPath1138"><path
         d="m 460.363,753.41 v -16.512 l 34.832,13.059 v 16.516 z"
         id="path1136"
         inkscape:connector-curvature="0" /></clipPath><clipPath
       clipPathUnits="userSpaceOnUse"
       id="clipPath1144"><path
         d="m 460.363,753.41 v -16.512 l 34.832,13.059 v 16.516"
         id="path1142"
         inkscape:connector-curvature="0" /></clipPath><clipPath
       clipPathUnits="userSpaceOnUse"
       id="clipPath1150"><path
         d="m 494.996,736.996 v 28.488 H 460 v -28.488 z m 0,28.488 v 0.512 H 460 v -0.512 z"
         id="path1148"
         inkscape:connector-curvature="0" /></clipPath><clipPath
       clipPathUnits="userSpaceOnUse"
       id="clipPath1156"><path
         d="M 0,0 H 793.7 V 1048.82 H 0 Z"
         id="path1154"
         inkscape:connector-curvature="0" /></clipPath><clipPath
       clipPathUnits="userSpaceOnUse"
       id="clipPath1168"><path
         d="m 371.605,882.23 c -47.613,-5.984 -84.726,-54.539 -84.726,-113.316 v 0 -153.953 h 208.316 v 153.953 c 0,58.777 -37.117,107.332 -84.726,113.316 v 0 z"
         id="path1166"
         inkscape:connector-curvature="0" /></clipPath><clipPath
       clipPathUnits="userSpaceOnUse"
       id="clipPath1174"><path
         d="M 0,0 H 793.7 V 1048.82 H 0 Z"
         id="path1172"
         inkscape:connector-curvature="0" /></clipPath><clipPath
       clipPathUnits="userSpaceOnUse"
       id="clipPath1190"><path
         d="M 311.996,585.996 V 710.422 H 196 V 585.996 Z m 0,124.426 v 8.574 H 196 v -8.574 z"
         id="path1188"
         inkscape:connector-curvature="0" /></clipPath><clipPath
       clipPathUnits="userSpaceOnUse"
       id="clipPath1196"><path
         d="M 196.613,586.43 H 312.351 V 719.356 H 196.613 Z"
         id="path1194"
         inkscape:connector-curvature="0" /></clipPath><clipPath
       clipPathUnits="userSpaceOnUse"
       id="clipPath1208"><path
         d="M 311.941,719.355 V 586.43 l 59.52,22.316 v 132.93 z"
         id="path1206"
         inkscape:connector-curvature="0" /></clipPath><clipPath
       clipPathUnits="userSpaceOnUse"
       id="clipPath1214"><path
         d="M 311.941,719.355 V 586.43 l 59.52,22.316 v 132.93"
         id="path1212"
         inkscape:connector-curvature="0" /></clipPath><clipPath
       clipPathUnits="userSpaceOnUse"
       id="clipPath1220"><path
         d="M 370.996,585.996 V 705.57 H 312 V 585.996 Z m 0,119.574 v 36.426 H 312 V 705.57 Z"
         id="path1218"
         inkscape:connector-curvature="0" /></clipPath><clipPath
       clipPathUnits="userSpaceOnUse"
       id="clipPath1226"><path
         d="M 0,0 H 793.7 V 1048.82 H 0 Z"
         id="path1224"
         inkscape:connector-curvature="0" /></clipPath><clipPath
       clipPathUnits="userSpaceOnUse"
       id="clipPath1238"><path
         d="m 254.586,754.738 -60.148,-22.875 h 118.605 l 60.148,22.875 z"
         id="path1236"
         inkscape:connector-curvature="0" /></clipPath><clipPath
       clipPathUnits="userSpaceOnUse"
       id="clipPath1244"><path
         d="m 254.586,754.738 -60.148,-22.875 h 118.605 l 60.148,22.875"
         id="path1242"
         inkscape:connector-curvature="0" /></clipPath><clipPath
       clipPathUnits="userSpaceOnUse"
       id="clipPath1250"><path
         d="m 194.996,732 h 178 v 22.996 h -178 z"
         id="path1248"
         inkscape:connector-curvature="0" /></clipPath><clipPath
       clipPathUnits="userSpaceOnUse"
       id="clipPath1256"><path
         d="M 0,0 H 793.7 V 1048.82 H 0 Z"
         id="path1254"
         inkscape:connector-curvature="0" /></clipPath><clipPath
       clipPathUnits="userSpaceOnUse"
       id="clipPath1268"><path
         d="m 193.996,713 h 69.68 v 18.996 h -69.68 z m 69.68,0 h 49.32 v 18.996 h -49.32 z"
         id="path1266"
         inkscape:connector-curvature="0" /></clipPath><clipPath
       clipPathUnits="userSpaceOnUse"
       id="clipPath1274"><path
         d="m 194.508,713.797 h 118.535 v 18.2031 H 194.508 Z"
         id="path1272"
         inkscape:connector-curvature="0" /></clipPath><clipPath
       clipPathUnits="userSpaceOnUse"
       id="clipPath1286"><path
         d="m 312.617,732 v -18.203 l 60.961,22.859 v 18.207 z"
         id="path1284"
         inkscape:connector-curvature="0" /></clipPath><clipPath
       clipPathUnits="userSpaceOnUse"
       id="clipPath1292"><path
         d="m 312.617,732 v -18.203 l 60.961,22.859 v 18.207"
         id="path1290"
         inkscape:connector-curvature="0" /></clipPath><clipPath
       clipPathUnits="userSpaceOnUse"
       id="clipPath1298"><path
         d="m 373.996,712.996 v 32.313 H 312 v -32.313 z m 0,32.313 v 9.687 H 312 v -9.687 z"
         id="path1296"
         inkscape:connector-curvature="0" /></clipPath><clipPath
       clipPathUnits="userSpaceOnUse"
       id="clipPath1304"><path
         d="M 0,0 H 793.7 V 1048.82 H 0 Z"
         id="path1302"
         inkscape:connector-curvature="0" /></clipPath><clipPath
       clipPathUnits="userSpaceOnUse"
       id="clipPath1316"><path
         d="M 0,0 H 793.7 V 1048.82 H 0 Z"
         id="path1314"
         inkscape:connector-curvature="0" /></clipPath><clipPath
       clipPathUnits="userSpaceOnUse"
       id="clipPath1332"><path
         d="m 173.996,521.996 v 92.676 H 58 v -92.676 z m 0,92.676 v 6.324 H 58 v -6.324 z"
         id="path1330"
         inkscape:connector-curvature="0" /></clipPath><clipPath
       clipPathUnits="userSpaceOnUse"
       id="clipPath1338"><path
         d="m 58.6953,521.883 h 115.738 v 99.4766 H 58.6953 Z"
         id="path1336"
         inkscape:connector-curvature="0" /></clipPath><clipPath
       clipPathUnits="userSpaceOnUse"
       id="clipPath1350"><path
         d="m 174.02,621.359 v -99.472 l 59.523,22.32 v 99.473 z"
         id="path1348"
         inkscape:connector-curvature="0" /></clipPath><clipPath
       clipPathUnits="userSpaceOnUse"
       id="clipPath1356"><path
         d="m 174.02,621.359 v -99.472 l 59.523,22.32 v 99.473"
         id="path1354"
         inkscape:connector-curvature="0" /></clipPath><clipPath
       clipPathUnits="userSpaceOnUse"
       id="clipPath1362"><path
         d="m 233.996,521.996 v 93.356 H 174 v -93.356 z m 0,93.356 v 28.644 H 174 v -28.644 z"
         id="path1360"
         inkscape:connector-curvature="0" /></clipPath><clipPath
       clipPathUnits="userSpaceOnUse"
       id="clipPath1368"><path
         d="M 0,0 H 793.7 V 1048.82 H 0 Z"
         id="path1366"
         inkscape:connector-curvature="0" /></clipPath><clipPath
       clipPathUnits="userSpaceOnUse"
       id="clipPath1380"><path
         d="M 116.664,656.742 56.5156,633.867 H 175.121 l 60.152,22.875 z"
         id="path1378"
         inkscape:connector-curvature="0" /></clipPath><clipPath
       clipPathUnits="userSpaceOnUse"
       id="clipPath1386"><path
         d="M 116.664,656.742 56.5156,633.867 H 175.121 l 60.152,22.875"
         id="path1384"
         inkscape:connector-curvature="0" /></clipPath><clipPath
       clipPathUnits="userSpaceOnUse"
       id="clipPath1392"><path
         d="M 56.9961,634 H 234.996 v 22.996 H 56.9961 Z"
         id="path1390"
         inkscape:connector-curvature="0" /></clipPath><clipPath
       clipPathUnits="userSpaceOnUse"
       id="clipPath1398"><path
         d="M 0,0 H 793.7 V 1048.82 H 0 Z"
         id="path1396"
         inkscape:connector-curvature="0" /></clipPath><clipPath
       clipPathUnits="userSpaceOnUse"
       id="clipPath1410"><path
         d="m 56,616 h 69.758 v 17.996 H 56 Z m 69.758,0 H 175 v 17.996 h -49.242 z"
         id="path1408"
         inkscape:connector-curvature="0" /></clipPath><clipPath
       clipPathUnits="userSpaceOnUse"
       id="clipPath1416"><path
         d="m 56.5859,615.801 h 118.535 v 18.2027 H 56.5859 Z"
         id="path1414"
         inkscape:connector-curvature="0" /></clipPath><clipPath
       clipPathUnits="userSpaceOnUse"
       id="clipPath1428"><path
         d="m 174.699,634.004 v -18.203 l 60.961,22.859 v 18.203 z"
         id="path1426"
         inkscape:connector-curvature="0" /></clipPath><clipPath
       clipPathUnits="userSpaceOnUse"
       id="clipPath1434"><path
         d="m 174.699,634.004 v -18.203 l 60.961,22.859 v 18.203"
         id="path1432"
         inkscape:connector-curvature="0" /></clipPath><clipPath
       clipPathUnits="userSpaceOnUse"
       id="clipPath1440"><path
         d="m 235.996,615.996 v 31.317 H 174 v -31.317 z m 0,31.317 v 9.683 H 174 v -9.683 z"
         id="path1438"
         inkscape:connector-curvature="0" /></clipPath><clipPath
       clipPathUnits="userSpaceOnUse"
       id="clipPath1446"><path
         d="M 0,0 H 793.7 V 1048.82 H 0 Z"
         id="path1444"
         inkscape:connector-curvature="0" /></clipPath><clipPath
       clipPathUnits="userSpaceOnUse"
       id="clipPath1458"><path
         d="M 0,0 H 793.7 V 1048.82 H 0 Z"
         id="path1456"
         inkscape:connector-curvature="0" /></clipPath><clipPath
       clipPathUnits="userSpaceOnUse"
       id="clipPath1474"><path
         d="m 603.273,974.727 -5.019,-1.372 c -0.945,-0.257 -1.5,-1.234 -1.242,-2.179 v 0 l 3.41,-12.492 c 0.164,-0.606 0.637,-1.079 1.242,-1.243 v 0 l 10.816,-2.957 c 0.606,-0.164 1.083,-0.636 1.247,-1.242 v 0 l 2.949,-10.812 c 0.164,-0.606 0.637,-1.078 1.242,-1.242 v 0 l 10.816,-2.954 c 0.606,-0.164 1.079,-0.64 1.243,-1.246 v 0 l 2.953,-10.812 c 0.164,-0.606 0.636,-1.078 1.246,-1.242 v 0 l 10.812,-2.954 c 0.606,-0.167 1.082,-0.64 1.246,-1.246 v 0 l 2.954,-10.816 c 0.167,-0.605 0.636,-1.078 1.246,-1.246 v 0 l 10.82,-2.953 c 0.601,-0.168 1.078,-0.641 1.242,-1.246 v 0 l 2.953,-10.817 c 0.168,-0.605 0.641,-1.078 1.242,-1.246 v 0 l 10.829,-2.961 c 0.601,-0.164 1.078,-0.636 1.242,-1.242 v 0 l 2.101,-7.68 c 0.258,-0.945 1.235,-1.5 2.18,-1.242 v 0 l 5.02,1.371 c 0.945,0.258 1.5,1.235 1.242,2.18 v 0 l -3.418,12.5 c -0.164,0.602 -0.641,1.078 -1.242,1.242 v 0 l -10.825,2.957 c -0.605,0.164 -1.078,0.641 -1.242,1.242 v 0 l -2.957,10.821 c -0.164,0.605 -0.637,1.078 -1.242,1.246 v 0 l -10.82,2.957 c -0.606,0.164 -1.079,0.637 -1.243,1.242 v 0 l -2.957,10.816 c -0.164,0.606 -0.636,1.082 -1.242,1.246 v 0 l -10.816,2.954 c -0.606,0.164 -1.078,0.636 -1.242,1.246 v 0 l -2.954,10.812 c -0.164,0.606 -0.64,1.078 -1.246,1.242 v 0 l -10.812,2.954 c -0.606,0.164 -1.078,0.636 -1.242,1.246 v 0 l -2.95,10.808 c -0.167,0.606 -0.64,1.082 -1.246,1.246 v 0 l -10.816,2.953 c -0.605,0.164 -1.078,0.637 -1.242,1.247 v 0 l -2.098,7.667 c -0.215,0.79 -0.93,1.309 -1.711,1.309 v 0 c -0.152,0 -0.308,-0.019 -0.469,-0.062"
         id="path1472"
         inkscape:connector-curvature="0" /></clipPath><clipPath
       clipPathUnits="userSpaceOnUse"
       id="clipPath1480"><path
         d="m 603.273,974.727 -5.019,-1.372 c -0.945,-0.257 -1.5,-1.234 -1.242,-2.179 v 0 l 3.41,-12.492 c 0.164,-0.606 0.637,-1.079 1.242,-1.243 v 0 l 10.816,-2.957 c 0.606,-0.164 1.083,-0.636 1.247,-1.242 v 0 l 2.949,-10.812 c 0.164,-0.606 0.637,-1.078 1.242,-1.242 v 0 l 10.816,-2.954 c 0.606,-0.164 1.079,-0.64 1.243,-1.246 v 0 l 2.953,-10.812 c 0.164,-0.606 0.636,-1.078 1.246,-1.242 v 0 l 10.812,-2.954 c 0.606,-0.167 1.082,-0.64 1.246,-1.246 v 0 l 2.954,-10.816 c 0.167,-0.605 0.636,-1.078 1.246,-1.246 v 0 l 10.82,-2.953 c 0.601,-0.168 1.078,-0.641 1.242,-1.246 v 0 l 2.953,-10.817 c 0.168,-0.605 0.641,-1.078 1.242,-1.246 v 0 l 10.829,-2.961 c 0.601,-0.164 1.078,-0.636 1.242,-1.242 v 0 l 2.101,-7.68 c 0.258,-0.945 1.235,-1.5 2.18,-1.242 v 0 l 5.02,1.371 c 0.945,0.258 1.5,1.235 1.242,2.18 v 0 l -3.418,12.5 c -0.164,0.602 -0.641,1.078 -1.242,1.242 v 0 l -10.825,2.957 c -0.605,0.164 -1.078,0.641 -1.242,1.242 v 0 l -2.957,10.821 c -0.164,0.605 -0.637,1.078 -1.242,1.246 v 0 l -10.82,2.957 c -0.606,0.164 -1.079,0.637 -1.243,1.242 v 0 l -2.957,10.816 c -0.164,0.606 -0.636,1.082 -1.242,1.246 v 0 l -10.816,2.954 c -0.606,0.164 -1.078,0.636 -1.242,1.246 v 0 l -2.954,10.812 c -0.164,0.606 -0.64,1.078 -1.246,1.242 v 0 l -10.812,2.954 c -0.606,0.164 -1.078,0.636 -1.242,1.246 v 0 l -2.95,10.808 c -0.167,0.606 -0.64,1.082 -1.246,1.246 v 0 l -10.816,2.953 c -0.605,0.164 -1.078,0.637 -1.242,1.247 v 0 l -2.098,7.667 c -0.215,0.79 -0.93,1.309 -1.711,1.309 v 0 c -0.152,0 -0.308,-0.019 -0.469,-0.062"
         id="path1478"
         inkscape:connector-curvature="0" /></clipPath><clipPath
       clipPathUnits="userSpaceOnUse"
       id="clipPath1486"><path
         d="m 725.395,791.379 c 114.636,88.184 136.082,252.601 47.898,367.241 L 565.723,998.949 v 0 z m 47.898,367.241 c -88.184,114.64 -252.605,136.08 -367.242,47.9 L 565.723,998.949 v 0 z M 725.395,791.379 565.723,998.949 v 0 L 358.152,839.277 C 446.336,724.641 610.758,703.195 725.395,791.379 Z M 406.051,1206.52 C 291.414,1118.34 269.969,953.914 358.152,839.277 l 207.571,159.672 v 0 z"
         id="path1484"
         inkscape:connector-curvature="0" /></clipPath><clipPath
       clipPathUnits="userSpaceOnUse"
       id="clipPath1492"><path
         d="M 0,0 H 793.7 V 1048.82 H 0 Z"
         id="path1490"
         inkscape:connector-curvature="0" /></clipPath><clipPath
       clipPathUnits="userSpaceOnUse"
       id="clipPath1504"><path
         d="m 618.66,990.113 -5.019,-1.375 c -0.946,-0.254 -1.5,-1.23 -1.246,-2.175 v 0 l 3.414,-12.493 c 0.164,-0.605 0.636,-1.082 1.242,-1.242 v 0 l 10.816,-2.957 c 0.606,-0.164 1.078,-0.637 1.242,-1.242 v 0 l 2.954,-10.813 c 0.164,-0.605 0.636,-1.078 1.242,-1.242 v 0 l 10.816,-2.953 c 0.606,-0.164 1.078,-0.641 1.242,-1.246 v 0 l 2.953,-10.812 c 0.164,-0.606 0.637,-1.083 1.247,-1.247 v 0 l 10.812,-2.953 c 0.605,-0.164 1.078,-0.636 1.246,-1.242 v 0 l 2.953,-10.816 c 0.164,-0.606 0.637,-1.078 1.242,-1.246 v 0 l 10.821,-2.957 c 0.605,-0.164 1.082,-0.637 1.246,-1.243 v 0 l 2.953,-10.816 c 0.164,-0.605 0.641,-1.078 1.242,-1.242 v 0 l 10.828,-2.961 c 0.606,-0.168 1.078,-0.641 1.242,-1.246 v 0 l 2.102,-7.68 c 0.258,-0.945 1.23,-1.504 2.176,-1.242 v 0 l 5.019,1.371 c 0.95,0.258 1.504,1.234 1.246,2.18 v 0 l -3.418,12.496 c -0.164,0.605 -0.636,1.078 -1.242,1.242 v 0 l -10.824,2.961 c -0.605,0.168 -1.078,0.641 -1.242,1.246 v 0 l -2.957,10.816 c -0.164,0.606 -0.637,1.082 -1.242,1.246 v 0 l -10.821,2.954 c -0.605,0.168 -1.082,0.64 -1.246,1.246 v 0 l -2.953,10.816 c -0.168,0.606 -0.637,1.082 -1.246,1.246 v 0 l -10.812,2.953 c -0.606,0.164 -1.079,0.637 -1.247,1.243 v 0 l -2.949,10.816 c -0.168,0.605 -0.64,1.078 -1.246,1.242 v 0 l -10.812,2.953 c -0.606,0.164 -1.079,0.637 -1.246,1.246 v 0 l -2.95,10.809 c -0.164,0.605 -0.636,1.078 -1.242,1.246 v 0 l -10.816,2.953 c -0.606,0.168 -1.078,0.637 -1.246,1.242 v 0 l -2.094,7.672 c -0.215,0.789 -0.93,1.309 -1.707,1.309 v 0 c -0.156,0 -0.317,-0.024 -0.473,-0.063"
         id="path1502"
         inkscape:connector-curvature="0" /></clipPath><clipPath
       clipPathUnits="userSpaceOnUse"
       id="clipPath1510"><path
         d="m 618.66,990.113 -5.019,-1.375 c -0.946,-0.254 -1.5,-1.23 -1.246,-2.175 v 0 l 3.414,-12.493 c 0.164,-0.605 0.636,-1.082 1.242,-1.242 v 0 l 10.816,-2.957 c 0.606,-0.164 1.078,-0.637 1.242,-1.242 v 0 l 2.954,-10.813 c 0.164,-0.605 0.636,-1.078 1.242,-1.242 v 0 l 10.816,-2.953 c 0.606,-0.164 1.078,-0.641 1.242,-1.246 v 0 l 2.953,-10.812 c 0.164,-0.606 0.637,-1.083 1.247,-1.247 v 0 l 10.812,-2.953 c 0.605,-0.164 1.078,-0.636 1.246,-1.242 v 0 l 2.953,-10.816 c 0.164,-0.606 0.637,-1.078 1.242,-1.246 v 0 l 10.821,-2.957 c 0.605,-0.164 1.082,-0.637 1.246,-1.243 v 0 l 2.953,-10.816 c 0.164,-0.605 0.641,-1.078 1.242,-1.242 v 0 l 10.828,-2.961 c 0.606,-0.168 1.078,-0.641 1.242,-1.246 v 0 l 2.102,-7.68 c 0.258,-0.945 1.23,-1.504 2.176,-1.242 v 0 l 5.019,1.371 c 0.95,0.258 1.504,1.234 1.246,2.18 v 0 l -3.418,12.496 c -0.164,0.605 -0.636,1.078 -1.242,1.242 v 0 l -10.824,2.961 c -0.605,0.168 -1.078,0.641 -1.242,1.246 v 0 l -2.957,10.816 c -0.164,0.606 -0.637,1.082 -1.242,1.246 v 0 l -10.821,2.954 c -0.605,0.168 -1.082,0.64 -1.246,1.246 v 0 l -2.953,10.816 c -0.168,0.606 -0.637,1.082 -1.246,1.246 v 0 l -10.812,2.953 c -0.606,0.164 -1.079,0.637 -1.247,1.243 v 0 l -2.949,10.816 c -0.168,0.605 -0.64,1.078 -1.246,1.242 v 0 l -10.812,2.953 c -0.606,0.164 -1.079,0.637 -1.246,1.246 v 0 l -2.95,10.809 c -0.164,0.605 -0.636,1.078 -1.242,1.246 v 0 l -10.816,2.953 c -0.606,0.168 -1.078,0.637 -1.246,1.242 v 0 l -2.094,7.672 c -0.215,0.789 -0.93,1.309 -1.707,1.309 v 0 c -0.156,0 -0.317,-0.024 -0.473,-0.063"
         id="path1508"
         inkscape:connector-curvature="0" /></clipPath><clipPath
       clipPathUnits="userSpaceOnUse"
       id="clipPath1516"><path
         d="m 725.395,791.379 c 114.636,88.184 136.082,252.601 47.898,367.241 L 565.723,998.949 v 0 z m 47.898,367.241 c -88.184,114.64 -252.605,136.08 -367.242,47.9 L 565.723,998.949 v 0 z M 725.395,791.379 565.723,998.949 v 0 L 358.152,839.277 C 446.336,724.641 610.758,703.195 725.395,791.379 Z M 406.051,1206.52 C 291.414,1118.34 269.969,953.914 358.152,839.277 l 207.571,159.672 v 0 z"
         id="path1514"
         inkscape:connector-curvature="0" /></clipPath><clipPath
       clipPathUnits="userSpaceOnUse"
       id="clipPath1522"><path
         d="M 0,0 H 793.7 V 1048.82 H 0 Z"
         id="path1520"
         inkscape:connector-curvature="0" /></clipPath><clipPath
       clipPathUnits="userSpaceOnUse"
       id="clipPath1534"><path
         d="m 572.504,943.953 -5.024,-1.371 c -0.945,-0.258 -1.5,-1.23 -1.242,-2.176 v 0 l 3.41,-12.492 c 0.165,-0.609 0.641,-1.082 1.247,-1.246 v 0 l 10.816,-2.953 c 0.602,-0.164 1.078,-0.641 1.242,-1.246 v 0 l 2.949,-10.809 c 0.164,-0.609 0.641,-1.082 1.243,-1.246 v 0 l 10.816,-2.953 c 0.605,-0.164 1.078,-0.637 1.246,-1.242 v 0 l 2.949,-10.813 c 0.168,-0.609 0.641,-1.082 1.246,-1.246 v 0 l 10.817,-2.953 c 0.601,-0.164 1.078,-0.641 1.242,-1.242 v 0 l 2.957,-10.82 c 0.164,-0.606 0.637,-1.079 1.242,-1.243 v 0 l 10.82,-2.957 c 0.606,-0.168 1.079,-0.64 1.243,-1.246 v 0 l 2.957,-10.816 c 0.164,-0.606 0.636,-1.078 1.242,-1.242 v 0 l 10.824,-2.961 c 0.606,-0.164 1.078,-0.641 1.242,-1.246 v 0 l 2.102,-7.68 c 0.258,-0.945 1.234,-1.5 2.18,-1.242 v 0 l 5.019,1.371 c 0.945,0.258 1.504,1.234 1.242,2.18 v 0 l -3.418,12.5 c -0.164,0.605 -0.636,1.078 -1.242,1.242 v 0 l -10.82,2.961 c -0.61,0.164 -1.078,0.636 -1.246,1.242 v 0 l -2.953,10.816 c -0.168,0.606 -0.641,1.082 -1.247,1.246 v 0 l -10.82,2.957 c -0.605,0.164 -1.078,0.641 -1.242,1.246 v 0 l -2.953,10.817 c -0.168,0.605 -0.641,1.078 -1.246,1.246 v 0 l -10.817,2.949 c -0.601,0.164 -1.078,0.641 -1.242,1.242 v 0 l -2.953,10.817 c -0.164,0.605 -0.637,1.078 -1.242,1.246 v 0 l -10.817,2.949 c -0.605,0.168 -1.078,0.641 -1.242,1.246 v 0 l -2.949,10.813 c -0.164,0.601 -0.641,1.078 -1.242,1.242 v 0 l -10.82,2.953 c -0.606,0.168 -1.079,0.641 -1.243,1.242 v 0 l -2.097,7.676 c -0.215,0.789 -0.926,1.305 -1.707,1.305 v 0 c -0.157,0 -0.313,-0.02 -0.469,-0.063"
         id="path1532"
         inkscape:connector-curvature="0" /></clipPath><clipPath
       clipPathUnits="userSpaceOnUse"
       id="clipPath1540"><path
         d="m 572.504,943.953 -5.024,-1.371 c -0.945,-0.258 -1.5,-1.23 -1.242,-2.176 v 0 l 3.41,-12.492 c 0.165,-0.609 0.641,-1.082 1.247,-1.246 v 0 l 10.816,-2.953 c 0.602,-0.164 1.078,-0.641 1.242,-1.246 v 0 l 2.949,-10.809 c 0.164,-0.609 0.641,-1.082 1.243,-1.246 v 0 l 10.816,-2.953 c 0.605,-0.164 1.078,-0.637 1.246,-1.242 v 0 l 2.949,-10.813 c 0.168,-0.609 0.641,-1.082 1.246,-1.246 v 0 l 10.817,-2.953 c 0.601,-0.164 1.078,-0.641 1.242,-1.242 v 0 l 2.957,-10.82 c 0.164,-0.606 0.637,-1.079 1.242,-1.243 v 0 l 10.82,-2.957 c 0.606,-0.168 1.079,-0.64 1.243,-1.246 v 0 l 2.957,-10.816 c 0.164,-0.606 0.636,-1.078 1.242,-1.242 v 0 l 10.824,-2.961 c 0.606,-0.164 1.078,-0.641 1.242,-1.246 v 0 l 2.102,-7.68 c 0.258,-0.945 1.234,-1.5 2.18,-1.242 v 0 l 5.019,1.371 c 0.945,0.258 1.504,1.234 1.242,2.18 v 0 l -3.418,12.5 c -0.164,0.605 -0.636,1.078 -1.242,1.242 v 0 l -10.82,2.961 c -0.61,0.164 -1.078,0.636 -1.246,1.242 v 0 l -2.953,10.816 c -0.168,0.606 -0.641,1.082 -1.247,1.246 v 0 l -10.82,2.957 c -0.605,0.164 -1.078,0.641 -1.242,1.246 v 0 l -2.953,10.817 c -0.168,0.605 -0.641,1.078 -1.246,1.246 v 0 l -10.817,2.949 c -0.601,0.164 -1.078,0.641 -1.242,1.242 v 0 l -2.953,10.817 c -0.164,0.605 -0.637,1.078 -1.242,1.246 v 0 l -10.817,2.949 c -0.605,0.168 -1.078,0.641 -1.242,1.246 v 0 l -2.949,10.813 c -0.164,0.601 -0.641,1.078 -1.242,1.242 v 0 l -10.82,2.953 c -0.606,0.168 -1.079,0.641 -1.243,1.242 v 0 l -2.097,7.676 c -0.215,0.789 -0.926,1.305 -1.707,1.305 v 0 c -0.157,0 -0.313,-0.02 -0.469,-0.063"
         id="path1538"
         inkscape:connector-curvature="0" /></clipPath><clipPath
       clipPathUnits="userSpaceOnUse"
       id="clipPath1546"><path
         d="m 725.395,791.379 c 114.636,88.184 136.082,252.601 47.898,367.241 L 565.723,998.949 v 0 z m 47.898,367.241 c -88.184,114.64 -252.605,136.08 -367.242,47.9 L 565.723,998.949 v 0 z M 725.395,791.379 565.723,998.949 v 0 L 358.152,839.277 C 446.336,724.641 610.758,703.195 725.395,791.379 Z M 406.051,1206.52 C 291.414,1118.34 269.969,953.914 358.152,839.277 l 207.571,159.672 v 0 z"
         id="path1544"
         inkscape:connector-curvature="0" /></clipPath><clipPath
       clipPathUnits="userSpaceOnUse"
       id="clipPath1552"><path
         d="M 0,0 H 793.7 V 1048.82 H 0 Z"
         id="path1550"
         inkscape:connector-curvature="0" /></clipPath><clipPath
       clipPathUnits="userSpaceOnUse"
       id="clipPath1564"><path
         d="m 587.891,959.34 -5.024,-1.371 c -0.945,-0.258 -1.5,-1.235 -1.242,-2.18 v 0 l 3.41,-12.492 c 0.164,-0.606 0.637,-1.078 1.246,-1.242 v 0 l 10.813,-2.953 c 0.605,-0.164 1.082,-0.641 1.246,-1.247 v 0 l 2.949,-10.808 c 0.164,-0.609 0.637,-1.078 1.242,-1.246 v 0 l 10.817,-2.953 c 0.605,-0.164 1.078,-0.637 1.246,-1.243 v 0 l 2.949,-10.816 c 0.168,-0.605 0.641,-1.078 1.246,-1.242 v 0 l 10.813,-2.953 c 0.609,-0.164 1.078,-0.641 1.246,-1.242 v 0 l 2.953,-10.821 c 0.168,-0.605 0.64,-1.078 1.246,-1.242 v 0 l 10.82,-2.961 c 0.606,-0.164 1.078,-0.637 1.242,-1.242 v 0 l 2.957,-10.816 c 0.164,-0.606 0.637,-1.079 1.243,-1.243 v 0 l 10.824,-2.961 c 0.605,-0.168 1.078,-0.64 1.242,-1.246 v 0 l 2.102,-7.679 c 0.257,-0.946 1.234,-1.5 2.179,-1.243 v 0 l 5.02,1.372 c 0.945,0.257 1.5,1.234 1.242,2.179 v 0 l -3.414,12.5 c -0.168,0.606 -0.641,1.078 -1.246,1.242 v 0 l -10.824,2.957 c -0.606,0.168 -1.079,0.641 -1.243,1.247 v 0 l -2.957,10.82 c -0.164,0.601 -0.636,1.074 -1.242,1.242 v 0 l -10.82,2.957 c -0.606,0.168 -1.078,0.641 -1.242,1.242 v 0 l -2.957,10.821 c -0.164,0.605 -0.637,1.078 -1.243,1.246 v 0 l -10.812,2.949 c -0.609,0.164 -1.082,0.641 -1.246,1.246 v 0 l -2.953,10.812 c -0.164,0.606 -0.637,1.079 -1.242,1.243 v 0 l -10.817,2.953 c -0.605,0.168 -1.078,0.64 -1.242,1.246 v 0 l -2.949,10.808 c -0.168,0.606 -0.641,1.083 -1.246,1.247 v 0 l -10.817,2.953 c -0.605,0.168 -1.078,0.64 -1.246,1.246 v 0 l -2.094,7.672 c -0.214,0.785 -0.929,1.304 -1.711,1.304 v 0 c -0.152,0 -0.308,-0.019 -0.464,-0.062"
         id="path1562"
         inkscape:connector-curvature="0" /></clipPath><clipPath
       clipPathUnits="userSpaceOnUse"
       id="clipPath1570"><path
         d="m 587.891,959.34 -5.024,-1.371 c -0.945,-0.258 -1.5,-1.235 -1.242,-2.18 v 0 l 3.41,-12.492 c 0.164,-0.606 0.637,-1.078 1.246,-1.242 v 0 l 10.813,-2.953 c 0.605,-0.164 1.082,-0.641 1.246,-1.247 v 0 l 2.949,-10.808 c 0.164,-0.609 0.637,-1.078 1.242,-1.246 v 0 l 10.817,-2.953 c 0.605,-0.164 1.078,-0.637 1.246,-1.243 v 0 l 2.949,-10.816 c 0.168,-0.605 0.641,-1.078 1.246,-1.242 v 0 l 10.813,-2.953 c 0.609,-0.164 1.078,-0.641 1.246,-1.242 v 0 l 2.953,-10.821 c 0.168,-0.605 0.64,-1.078 1.246,-1.242 v 0 l 10.82,-2.961 c 0.606,-0.164 1.078,-0.637 1.242,-1.242 v 0 l 2.957,-10.816 c 0.164,-0.606 0.637,-1.079 1.243,-1.243 v 0 l 10.824,-2.961 c 0.605,-0.168 1.078,-0.64 1.242,-1.246 v 0 l 2.102,-7.679 c 0.257,-0.946 1.234,-1.5 2.179,-1.243 v 0 l 5.02,1.372 c 0.945,0.257 1.5,1.234 1.242,2.179 v 0 l -3.414,12.5 c -0.168,0.606 -0.641,1.078 -1.246,1.242 v 0 l -10.824,2.957 c -0.606,0.168 -1.079,0.641 -1.243,1.247 v 0 l -2.957,10.82 c -0.164,0.601 -0.636,1.074 -1.242,1.242 v 0 l -10.82,2.957 c -0.606,0.168 -1.078,0.641 -1.242,1.242 v 0 l -2.957,10.821 c -0.164,0.605 -0.637,1.078 -1.243,1.246 v 0 l -10.812,2.949 c -0.609,0.164 -1.082,0.641 -1.246,1.246 v 0 l -2.953,10.812 c -0.164,0.606 -0.637,1.079 -1.242,1.243 v 0 l -10.817,2.953 c -0.605,0.168 -1.078,0.64 -1.242,1.246 v 0 l -2.949,10.808 c -0.168,0.606 -0.641,1.083 -1.246,1.247 v 0 l -10.817,2.953 c -0.605,0.168 -1.078,0.64 -1.246,1.246 v 0 l -2.094,7.672 c -0.214,0.785 -0.929,1.304 -1.711,1.304 v 0 c -0.152,0 -0.308,-0.019 -0.464,-0.062"
         id="path1568"
         inkscape:connector-curvature="0" /></clipPath><clipPath
       clipPathUnits="userSpaceOnUse"
       id="clipPath1576"><path
         d="m 725.395,791.379 c 114.636,88.184 136.082,252.601 47.898,367.241 L 565.723,998.949 v 0 z m 47.898,367.241 c -88.184,114.64 -252.605,136.08 -367.242,47.9 L 565.723,998.949 v 0 z M 725.395,791.379 565.723,998.949 v 0 L 358.152,839.277 C 446.336,724.641 610.758,703.195 725.395,791.379 Z M 406.051,1206.52 C 291.414,1118.34 269.969,953.914 358.152,839.277 l 207.571,159.672 v 0 z"
         id="path1574"
         inkscape:connector-curvature="0" /></clipPath><clipPath
       clipPathUnits="userSpaceOnUse"
       id="clipPath1582"><path
         d="M 0,0 H 793.7 V 1048.82 H 0 Z"
         id="path1580"
         inkscape:connector-curvature="0" /></clipPath><clipPath
       clipPathUnits="userSpaceOnUse"
       id="clipPath1594"><path
         d="m 541.73,913.18 -5.019,-1.371 c -0.945,-0.258 -1.504,-1.231 -1.242,-2.176 v 0 l 3.41,-12.492 c 0.164,-0.606 0.637,-1.078 1.242,-1.246 v 0 l 10.817,-2.954 c 0.605,-0.164 1.078,-0.636 1.242,-1.242 v 0 l 2.953,-10.812 c 0.164,-0.606 0.637,-1.078 1.242,-1.242 v 0 l 10.813,-2.954 c 0.609,-0.168 1.078,-0.636 1.246,-1.246 v 0 l 2.953,-10.816 c 0.164,-0.606 0.636,-1.074 1.242,-1.242 v 0 l 10.816,-2.953 c 0.606,-0.164 1.078,-0.637 1.246,-1.243 v 0 l 2.954,-10.82 c 0.164,-0.601 0.636,-1.074 1.242,-1.242 v 0 l 10.824,-2.957 c 0.602,-0.164 1.074,-0.637 1.242,-1.242 v 0 l 2.953,-10.817 c 0.164,-0.605 0.637,-1.082 1.242,-1.246 v 0 l 10.829,-2.961 c 0.601,-0.164 1.078,-0.636 1.242,-1.242 v 0 l 2.101,-7.684 c 0.254,-0.945 1.235,-1.5 2.176,-1.242 v 0 l 5.024,1.375 c 0.941,0.254 1.5,1.235 1.242,2.176 v 0 l -3.418,12.5 c -0.164,0.606 -0.641,1.078 -1.242,1.246 v 0 l -10.825,2.957 c -0.605,0.164 -1.078,0.641 -1.246,1.242 v 0 l -2.953,10.821 c -0.168,0.605 -0.637,1.078 -1.242,1.242 v 0 l -10.82,2.961 c -0.606,0.164 -1.078,0.637 -1.246,1.242 v 0 l -2.954,10.816 c -0.168,0.606 -0.64,1.079 -1.246,1.243 v 0 l -10.812,2.953 c -0.606,0.168 -1.078,0.64 -1.246,1.246 v 0 l -2.949,10.812 c -0.168,0.606 -0.641,1.082 -1.247,1.246 v 0 l -10.812,2.954 c -0.609,0.164 -1.082,0.636 -1.246,1.246 v 0 l -2.949,10.808 c -0.164,0.606 -0.637,1.078 -1.243,1.242 v 0 l -10.816,2.957 c -0.605,0.165 -1.082,0.637 -1.246,1.243 v 0 l -2.094,7.672 c -0.215,0.789 -0.93,1.304 -1.711,1.304 v 0 c -0.152,0 -0.312,-0.019 -0.469,-0.062"
         id="path1592"
         inkscape:connector-curvature="0" /></clipPath><clipPath
       clipPathUnits="userSpaceOnUse"
       id="clipPath1600"><path
         d="m 541.73,913.18 -5.019,-1.371 c -0.945,-0.258 -1.504,-1.231 -1.242,-2.176 v 0 l 3.41,-12.492 c 0.164,-0.606 0.637,-1.078 1.242,-1.246 v 0 l 10.817,-2.954 c 0.605,-0.164 1.078,-0.636 1.242,-1.242 v 0 l 2.953,-10.812 c 0.164,-0.606 0.637,-1.078 1.242,-1.242 v 0 l 10.813,-2.954 c 0.609,-0.168 1.078,-0.636 1.246,-1.246 v 0 l 2.953,-10.816 c 0.164,-0.606 0.636,-1.074 1.242,-1.242 v 0 l 10.816,-2.953 c 0.606,-0.164 1.078,-0.637 1.246,-1.243 v 0 l 2.954,-10.82 c 0.164,-0.601 0.636,-1.074 1.242,-1.242 v 0 l 10.824,-2.957 c 0.602,-0.164 1.074,-0.637 1.242,-1.242 v 0 l 2.953,-10.817 c 0.164,-0.605 0.637,-1.082 1.242,-1.246 v 0 l 10.829,-2.961 c 0.601,-0.164 1.078,-0.636 1.242,-1.242 v 0 l 2.101,-7.684 c 0.254,-0.945 1.235,-1.5 2.176,-1.242 v 0 l 5.024,1.375 c 0.941,0.254 1.5,1.235 1.242,2.176 v 0 l -3.418,12.5 c -0.164,0.606 -0.641,1.078 -1.242,1.246 v 0 l -10.825,2.957 c -0.605,0.164 -1.078,0.641 -1.246,1.242 v 0 l -2.953,10.821 c -0.168,0.605 -0.637,1.078 -1.242,1.242 v 0 l -10.82,2.961 c -0.606,0.164 -1.078,0.637 -1.246,1.242 v 0 l -2.954,10.816 c -0.168,0.606 -0.64,1.079 -1.246,1.243 v 0 l -10.812,2.953 c -0.606,0.168 -1.078,0.64 -1.246,1.246 v 0 l -2.949,10.812 c -0.168,0.606 -0.641,1.082 -1.247,1.246 v 0 l -10.812,2.954 c -0.609,0.164 -1.082,0.636 -1.246,1.246 v 0 l -2.949,10.808 c -0.164,0.606 -0.637,1.078 -1.243,1.242 v 0 l -10.816,2.957 c -0.605,0.165 -1.082,0.637 -1.246,1.243 v 0 l -2.094,7.672 c -0.215,0.789 -0.93,1.304 -1.711,1.304 v 0 c -0.152,0 -0.312,-0.019 -0.469,-0.062"
         id="path1598"
         inkscape:connector-curvature="0" /></clipPath><clipPath
       clipPathUnits="userSpaceOnUse"
       id="clipPath1606"><path
         d="m 725.395,791.379 c 114.636,88.184 136.082,252.601 47.898,367.241 L 565.723,998.949 v 0 z m 47.898,367.241 c -88.184,114.64 -252.605,136.08 -367.242,47.9 L 565.723,998.949 v 0 z M 725.395,791.379 565.723,998.949 v 0 L 358.152,839.277 C 446.336,724.641 610.758,703.195 725.395,791.379 Z M 406.051,1206.52 C 291.414,1118.34 269.969,953.914 358.152,839.277 l 207.571,159.672 v 0 z"
         id="path1604"
         inkscape:connector-curvature="0" /></clipPath><clipPath
       clipPathUnits="userSpaceOnUse"
       id="clipPath1612"><path
         d="M 0,0 H 793.7 V 1048.82 H 0 Z"
         id="path1610"
         inkscape:connector-curvature="0" /></clipPath><clipPath
       clipPathUnits="userSpaceOnUse"
       id="clipPath1624"><path
         d="m 557.117,928.566 -5.019,-1.371 c -0.946,-0.257 -1.504,-1.23 -1.246,-2.175 v 0 l 3.41,-12.493 c 0.168,-0.605 0.64,-1.082 1.246,-1.246 v 0 l 10.812,-2.953 c 0.61,-0.164 1.082,-0.637 1.246,-1.246 v 0 l 2.95,-10.809 c 0.164,-0.605 0.64,-1.078 1.246,-1.246 v 0 l 10.812,-2.953 c 0.606,-0.164 1.078,-0.636 1.246,-1.242 v 0 l 2.953,-10.816 c 0.165,-0.606 0.637,-1.078 1.243,-1.243 v 0 l 10.816,-2.953 c 0.606,-0.164 1.078,-0.636 1.242,-1.242 v 0 l 2.957,-10.816 c 0.164,-0.61 0.637,-1.078 1.242,-1.246 v 0 l 10.821,-2.957 c 0.605,-0.164 1.078,-0.637 1.242,-1.243 v 0 l 2.957,-10.82 c 0.164,-0.605 0.637,-1.078 1.242,-1.242 v 0 l 10.824,-2.961 c 0.606,-0.164 1.079,-0.637 1.246,-1.242 v 0 l 2.098,-7.684 c 0.262,-0.945 1.235,-1.5 2.18,-1.242 v 0 l 5.019,1.371 c 0.946,0.258 1.504,1.234 1.246,2.18 v 0 l -3.418,12.5 c -0.167,0.605 -0.636,1.078 -1.246,1.242 v 0 l -10.82,2.961 c -0.605,0.164 -1.078,0.637 -1.242,1.242 v 0 l -2.957,10.82 c -0.164,0.606 -0.641,1.079 -1.246,1.243 v 0 l -10.821,2.957 c -0.605,0.168 -1.078,0.64 -1.242,1.246 v 0 l -2.957,10.816 c -0.164,0.606 -0.636,1.078 -1.242,1.246 v 0 l -10.812,2.953 c -0.61,0.164 -1.082,0.637 -1.247,1.243 v 0 l -2.953,10.816 c -0.164,0.602 -0.636,1.074 -1.242,1.242 v 0 l -10.812,2.953 c -0.61,0.164 -1.078,0.637 -1.246,1.242 v 0 l -2.95,10.813 c -0.164,0.605 -0.636,1.078 -1.246,1.242 v 0 l -10.812,2.953 c -0.61,0.168 -1.082,0.641 -1.246,1.246 v 0 l -2.094,7.672 c -0.219,0.789 -0.934,1.309 -1.711,1.309 v 0 c -0.156,0 -0.313,-0.024 -0.469,-0.067"
         id="path1622"
         inkscape:connector-curvature="0" /></clipPath><clipPath
       clipPathUnits="userSpaceOnUse"
       id="clipPath1630"><path
         d="m 557.117,928.566 -5.019,-1.371 c -0.946,-0.257 -1.504,-1.23 -1.246,-2.175 v 0 l 3.41,-12.493 c 0.168,-0.605 0.64,-1.082 1.246,-1.246 v 0 l 10.812,-2.953 c 0.61,-0.164 1.082,-0.637 1.246,-1.246 v 0 l 2.95,-10.809 c 0.164,-0.605 0.64,-1.078 1.246,-1.246 v 0 l 10.812,-2.953 c 0.606,-0.164 1.078,-0.636 1.246,-1.242 v 0 l 2.953,-10.816 c 0.165,-0.606 0.637,-1.078 1.243,-1.243 v 0 l 10.816,-2.953 c 0.606,-0.164 1.078,-0.636 1.242,-1.242 v 0 l 2.957,-10.816 c 0.164,-0.61 0.637,-1.078 1.242,-1.246 v 0 l 10.821,-2.957 c 0.605,-0.164 1.078,-0.637 1.242,-1.243 v 0 l 2.957,-10.82 c 0.164,-0.605 0.637,-1.078 1.242,-1.242 v 0 l 10.824,-2.961 c 0.606,-0.164 1.079,-0.637 1.246,-1.242 v 0 l 2.098,-7.684 c 0.262,-0.945 1.235,-1.5 2.18,-1.242 v 0 l 5.019,1.371 c 0.946,0.258 1.504,1.234 1.246,2.18 v 0 l -3.418,12.5 c -0.167,0.605 -0.636,1.078 -1.246,1.242 v 0 l -10.82,2.961 c -0.605,0.164 -1.078,0.637 -1.242,1.242 v 0 l -2.957,10.82 c -0.164,0.606 -0.641,1.079 -1.246,1.243 v 0 l -10.821,2.957 c -0.605,0.168 -1.078,0.64 -1.242,1.246 v 0 l -2.957,10.816 c -0.164,0.606 -0.636,1.078 -1.242,1.246 v 0 l -10.812,2.953 c -0.61,0.164 -1.082,0.637 -1.247,1.243 v 0 l -2.953,10.816 c -0.164,0.602 -0.636,1.074 -1.242,1.242 v 0 l -10.812,2.953 c -0.61,0.164 -1.078,0.637 -1.246,1.242 v 0 l -2.95,10.813 c -0.164,0.605 -0.636,1.078 -1.246,1.242 v 0 l -10.812,2.953 c -0.61,0.168 -1.082,0.641 -1.246,1.246 v 0 l -2.094,7.672 c -0.219,0.789 -0.934,1.309 -1.711,1.309 v 0 c -0.156,0 -0.313,-0.024 -0.469,-0.067"
         id="path1628"
         inkscape:connector-curvature="0" /></clipPath><clipPath
       clipPathUnits="userSpaceOnUse"
       id="clipPath1636"><path
         d="m 725.395,791.379 c 114.636,88.184 136.082,252.601 47.898,367.241 L 565.723,998.949 v 0 z m 47.898,367.241 c -88.184,114.64 -252.605,136.08 -367.242,47.9 L 565.723,998.949 v 0 z M 725.395,791.379 565.723,998.949 v 0 L 358.152,839.277 C 446.336,724.641 610.758,703.195 725.395,791.379 Z M 406.051,1206.52 C 291.414,1118.34 269.969,953.914 358.152,839.277 l 207.571,159.672 v 0 z"
         id="path1634"
         inkscape:connector-curvature="0" /></clipPath><clipPath
       clipPathUnits="userSpaceOnUse"
       id="clipPath1642"><path
         d="M 0,0 H 793.7 V 1048.82 H 0 Z"
         id="path1640"
         inkscape:connector-curvature="0" /></clipPath><clipPath
       clipPathUnits="userSpaceOnUse"
       id="clipPath1654"><path
         d="m 54.0703,885.375 h 10.2773 v 99.0977 H 54.0703 Z"
         id="path1652"
         inkscape:connector-curvature="0" /></clipPath></defs><sodipodi:namedview
     pagecolor="#ffffff"
     bordercolor="#666666"
     borderopacity="1"
     objecttolerance="10"
     gridtolerance="10"
     guidetolerance="10"
     inkscape:pageopacity="0"
     inkscape:pageshadow="2"
     inkscape:window-width="640"
     inkscape:window-height="480"
     id="namedview4"
     showgrid="false"
     inkscape:zoom="2.3749027"
     inkscape:cx="104.42533"
     inkscape:cy="17.278662"
     inkscape:window-x="0"
     inkscape:window-y="0"
     inkscape:window-maximized="0"
     inkscape:current-layer="g10" /><g
     id="g10"
     inkscape:groupmode="layer"
     inkscape:label="2019.08.22 - כותרות (dragged)"
     transform="matrix(1.3333333,0,0,-1.3333333,-85.442665,248.59333)"><g
       id="g12" /><g
       id="g38"><g
         id="g40"
         clip-path="url(#clipPath44)"><path
           d="m 207.738,186.445 c -0.773,0 -1.547,-0.3 -2.133,-0.902 l -9.902,-9.926 c -1.203,-1.199 -1.203,-3.113 0,-4.289 l 9.902,-9.898 c 0.586,-0.602 1.36,-0.903 2.133,-0.903 0.778,0 1.555,0.301 2.157,0.903 l 9.925,9.898 c 1.2,1.176 1.2,3.09 0,4.289 l -9.925,9.926 c -0.602,0.602 -1.379,0.902 -2.157,0.902"
           style="fill:#ed1c24;fill-opacity:1;fill-rule:nonzero;stroke:none"
           id="path46"
           inkscape:connector-curvature="0" /><path
           d="m 69.9102,178.828 h -5.8321 v -13.75 h 13.2383 v 6.496 c 0,2.672 -0.6133,4.387 -1.7187,5.539 -1.1993,1.227 -2.9414,1.715 -5.6875,1.715 m -2.668,-11.004 v 8.16 h 2.5976 c 1.4922,0 2.5704,-0.316 3.211,-0.98 0.7578,-0.758 1.125,-1.883 1.125,-3.383 v -3.797 h -6.9336"
           style="fill:#515153;fill-opacity:1;fill-rule:nonzero;stroke:none"
           id="path48"
           inkscape:connector-curvature="0" /><path
           d="m 88.1914,182.285 h -3.1367 v -6.301 h 7.5742 l -3.3594,-10.906 h 3.2344 l 3.4336,11.25 c 0.4648,1.543 -0.2461,2.5 -1.8398,2.5 h -5.9063 v 3.457"
           style="fill:#515153;fill-opacity:1;fill-rule:nonzero;stroke:none"
           id="path50"
           inkscape:connector-curvature="0" /><path
           d="m 125.176,179.148 c -3.871,0 -6.199,-2.234 -6.199,-5.05 0,-2.551 1.839,-4.461 5.097,-4.461 0.465,0 0.688,0.027 0.832,0.027 v 2.524 c -0.121,-0.075 -0.269,-0.075 -0.441,-0.075 -1.371,0 -2.254,0.93 -2.254,2.133 0,1.274 1.031,2.203 2.891,2.203 2.429,0 4.023,-1.519 4.023,-4.508 0,-3.187 -1.863,-4.484 -4.758,-4.484 -1.176,0 -2.988,0.27 -4.535,0.785 l -0.707,-2.476 c 1.348,-0.664 3.652,-1.004 5.266,-1.004 4.804,0 7.941,2.351 7.941,7.226 0,4.633 -2.742,7.16 -7.156,7.16"
           style="fill:#515153;fill-opacity:1;fill-rule:nonzero;stroke:none"
           id="path52"
           inkscape:connector-curvature="0" /><path
           d="m 174.004,178.828 h -3.113 v -8.945 c 0,-1.348 -0.688,-2.207 -1.938,-2.207 -0.539,0 -1.055,0.125 -1.371,0.222 l -0.664,-2.453 c 0.738,-0.343 1.523,-0.437 2.207,-0.437 3.285,0 4.879,1.687 4.879,4.996 v 8.824"
           style="fill:#515153;fill-opacity:1;fill-rule:nonzero;stroke:none"
           id="path54"
           inkscape:connector-curvature="0" /><path
           d="m 79.543,171.402 h 3.18359 v 7.42578 H 79.543 Z"
           style="fill:#515153;fill-opacity:1;fill-rule:nonzero;stroke:none"
           id="path56"
           inkscape:connector-curvature="0" /><path
           d="m 110.301,178.828 h -3.137 v -6.64 c 0,-1.547 -0.367,-2.672 -1.055,-3.333 -0.418,-0.394 -1.175,-0.761 -1.765,-0.835 l -2.989,10.808 h -3.4058 l 3.1838,-11.004 h -3.1369 v -2.746 h 4.9529 c 2.719,0 4.457,0.469 5.66,1.668 1.129,1.152 1.692,2.891 1.692,5.488 v 6.594"
           style="fill:#515153;fill-opacity:1;fill-rule:nonzero;stroke:none"
           id="path58"
           inkscape:connector-curvature="0" /><path
           d="m 113.242,165.078 h 3.16016 v 13.75 H 113.242 Z"
           style="fill:#515153;fill-opacity:1;fill-rule:nonzero;stroke:none"
           id="path60"
           inkscape:connector-curvature="0" /><path
           d="m 139.344,178.828 h -5.028 v -2.844 h 4.879 c 1.543,0 2.696,-0.316 3.383,-0.976 0.735,-0.762 0.981,-1.891 0.981,-3.387 v -6.543 h 3.136 v 6.496 c 0,2.621 -0.539,4.387 -1.687,5.539 -1.18,1.176 -2.969,1.715 -5.664,1.715"
           style="fill:#515153;fill-opacity:1;fill-rule:nonzero;stroke:none"
           id="path62"
           inkscape:connector-curvature="0" /><path
           d="m 165.473,178.828 h -11.18 v -2.844 h 9.684 l -3.309,-10.906 h 3.211 l 3.434,11.25 c 0.46,1.543 -0.247,2.5 -1.84,2.5"
           style="fill:#515153;fill-opacity:1;fill-rule:nonzero;stroke:none"
           id="path64"
           inkscape:connector-curvature="0" /><path
           d="m 179.445,178.828 h -2.843 v -2.844 h 2.695 c 1.566,0 2.648,-0.218 3.258,-0.906 0.734,-0.758 1.078,-1.961 1.078,-3.457 v -3.797 h -7.278 v -2.746 h 12.5 v 2.746 h -2.058 v 3.75 c 0,2.621 -0.563,4.387 -1.715,5.539 -1.176,1.227 -2.969,1.715 -5.637,1.715"
           style="fill:#515153;fill-opacity:1;fill-rule:nonzero;stroke:none"
           id="path66"
           inkscape:connector-curvature="0" /><path
           d="m 134.516,165.078 h 3.18359 v 7.25781 H 134.516 Z"
           style="fill:#515153;fill-opacity:1;fill-rule:nonzero;stroke:none"
           id="path68"
           inkscape:connector-curvature="0" /><path
           d="m 154.465,161.328 h 3.21094 v 10.8594 H 154.465 Z"
           style="fill:#515153;fill-opacity:1;fill-rule:nonzero;stroke:none"
           id="path70"
           inkscape:connector-curvature="0" /></g></g></g></svg>