<svg xmlns="http://www.w3.org/2000/svg" xml:space="preserve" width="208.851" height="34.557" viewBox="0 0 208.851 34.557"><defs><clipPath id="a" clipPathUnits="userSpaceOnUse"><path d="M64.082 160.227H221.02v26.52H64.082Z"/></clipPath></defs><g clip-path="url(#a)" transform="matrix(1.33333 0 0 -1.33333 -85.443 248.593)"><path d="M207.738 186.445c-.773 0-1.547-.3-2.133-.902l-9.902-9.926c-1.203-1.199-1.203-3.113 0-4.289l9.902-9.898a2.97 2.97 0 0 1 2.133-.903 3.04 3.04 0 0 1 2.157.903l9.925 9.898c1.2 1.176 1.2 3.09 0 4.289l-9.925 9.926a3.04 3.04 0 0 1-2.157.902" style="fill:#ed1c24;fill-opacity:1;fill-rule:nonzero;stroke:none"/><path d="M69.91 178.828h-5.832v-13.75h13.238v6.496c0 2.672-.613 4.387-1.718 5.539-1.2 1.227-2.942 1.715-5.688 1.715m-2.668-11.004v8.16h2.598c1.492 0 2.57-.316 3.21-.98.759-.758 1.126-1.883 1.126-3.383v-3.797zm20.949 14.461h-3.136v-6.301h7.574l-3.36-10.906h3.235l3.433 11.25c.465 1.543-.246 2.5-1.84 2.5h-5.906zm36.985-3.137c-3.871 0-6.199-2.234-6.199-5.05 0-2.551 1.839-4.461 5.097-4.461.465 0 .688.027.832.027v2.524c-.121-.075-.269-.075-.441-.075-1.371 0-2.254.93-2.254 2.133 0 1.274 1.031 2.203 2.891 2.203 2.429 0 4.023-1.519 4.023-4.508 0-3.187-1.863-4.484-4.758-4.484-1.176 0-2.988.27-4.535.785l-.707-2.476c1.348-.664 3.652-1.004 5.266-1.004 4.804 0 7.941 2.351 7.941 7.226 0 4.633-2.742 7.16-7.156 7.16m48.828-.32h-3.113v-8.945c0-1.348-.688-2.207-1.938-2.207-.539 0-1.055.125-1.371.222l-.664-2.453c.738-.343 1.523-.437 2.207-.437 3.285 0 4.879 1.687 4.879 4.996zm-94.461-7.426h3.184v7.426h-3.184Zm30.758 7.426h-3.137v-6.64c0-1.547-.367-2.672-1.055-3.333-.418-.394-1.175-.761-1.765-.835l-2.989 10.808h-3.406l3.184-11.004h-3.137v-2.746h4.953c2.719 0 4.457.469 5.66 1.668 1.129 1.152 1.692 2.891 1.692 5.488zm2.941-13.75h3.16v13.75h-3.16Zm26.102 13.75h-5.028v-2.844h4.879c1.543 0 2.696-.316 3.383-.976.735-.762.981-1.891.981-3.387v-6.543h3.136v6.496c0 2.621-.539 4.387-1.687 5.539-1.18 1.176-2.969 1.715-5.664 1.715m26.129 0h-11.18v-2.844h9.684l-3.309-10.906h3.211l3.434 11.25c.46 1.543-.247 2.5-1.84 2.5m13.972 0h-2.843v-2.844h2.695c1.566 0 2.648-.218 3.258-.906.734-.758 1.078-1.961 1.078-3.457v-3.797h-7.278v-2.746h12.5v2.746h-2.058v3.75c0 2.621-.563 4.387-1.715 5.539-1.176 1.227-2.969 1.715-5.637 1.715" style="fill:#515153;fill-opacity:1;fill-rule:nonzero;stroke:none"/><path d="M134.516 165.078h3.184v7.258h-3.184Zm19.949-3.75h3.21v10.86h-3.21Z" style="fill:#515153;fill-opacity:1;fill-rule:nonzero;stroke:none"/></g></svg>