<?xml version="1.0" encoding="UTF-8" standalone="no"?>
<!-- Created with Inkscape (http://www.inkscape.org/) -->

<svg
   xmlns:dc="http://purl.org/dc/elements/1.1/"
   xmlns:cc="http://creativecommons.org/ns#"
   xmlns:rdf="http://www.w3.org/1999/02/22-rdf-syntax-ns#"
   xmlns:svg="http://www.w3.org/2000/svg"
   xmlns="http://www.w3.org/2000/svg"
   xmlns:sodipodi="http://sodipodi.sourceforge.net/DTD/sodipodi-0.dtd"
   xmlns:inkscape="http://www.inkscape.org/namespaces/inkscape"
   width="360"
   height="55"
   viewBox="0 0 95.249998 14.552084"
   version="1.1"
   id="svg4330"
   inkscape:version="0.92.5 (2060ec1f9f, 2020-04-08)"
   sodipodi:docname="ישראכרט 2023.svg">
  <defs
     id="defs4324" />
  <sodipodi:namedview
     id="base"
     pagecolor="#ffffff"
     bordercolor="#666666"
     borderopacity="1.0"
     inkscape:pageopacity="0.0"
     inkscape:pageshadow="2"
     inkscape:zoom="0.98994949"
     inkscape:cx="112.52953"
     inkscape:cy="102.86771"
     inkscape:document-units="mm"
     inkscape:current-layer="layer1"
     showgrid="false"
     units="px"
     inkscape:window-width="1366"
     inkscape:window-height="705"
     inkscape:window-x="-8"
     inkscape:window-y="-8"
     inkscape:window-maximized="1" />
  <metadata
     id="metadata4327">
    <rdf:RDF>
      <cc:Work
         rdf:about="">
        <dc:format>image/svg+xml</dc:format>
        <dc:type
           rdf:resource="http://purl.org/dc/dcmitype/StillImage" />
        <dc:title></dc:title>
      </cc:Work>
    </rdf:RDF>
  </metadata>
  <g
     inkscape:label="Layer 1"
     inkscape:groupmode="layer"
     id="layer1"
     transform="translate(0,-282.4479)">
    <path
       inkscape:connector-curvature="0"
       id="path3006"
       d="m 89.82922,289.80038 5.25671,2.86846 c 0.21769,0.11525 0.21769,0.42898 0,0.54423 l -6.74216,3.68162 c -0.22089,0.11845 -0.48981,0.11845 -0.7139,0 l -6.74217,-3.68162 c -0.2177,-0.11525 -0.2177,-0.42898 0,-0.54423 l 5.25671,-2.86846 c 0.0576,-0.032 0.0576,-0.11845 0,-0.15046 l -5.25671,-2.86846 c -0.2177,-0.11845 -0.2177,-0.42899 0,-0.54744 l 6.74217,-3.67841 c 0.22409,-0.12166 0.49301,-0.12166 0.7139,0 l 6.74535,3.67841 c 0.2145,0.11845 0.2145,0.42899 0,0.54744 l -5.2599,2.86846 c -0.0576,0.032 -0.0576,0.11845 0,0.15046"
       style="fill:#0c1419;fill-opacity:1;fill-rule:nonzero;stroke:none;stroke-width:0.81955892" />
    <path
       inkscape:connector-curvature="0"
       id="path3008"
       d="m 49.56519,285.2896 h -3.787264 c -0.02559,0 -0.04485,0.0192 -0.04485,0.0416 l 0.0035,1.91764 c 0,0.0224 0.01918,0.0416 0.0416,0.0416 l 4.363521,-0.003 c 1.299766,0 2.080903,0.80355 2.080903,2.09372 l 0.0035,5.45519 c 0,0.0256 0.01918,0.0448 0.04169,0.0448 h 2.055294 c 0.02233,0 0.0416,-0.0192 0.0416,-0.0448 l -0.0035,-4.86293 c -0.0035,-2.58994 -1.341554,-4.68686 -4.795862,-4.68366"
       style="fill:#0c1419;fill-opacity:1;fill-rule:nonzero;stroke:none;stroke-width:0.81955892" />
    <path
       inkscape:connector-curvature="0"
       id="path3010"
       d="m 16.081725,285.2896 h -3.787263 c -0.0223,0 -0.04485,0.0192 -0.04485,0.0416 l 0.0035,1.91764 c 0,0.0224 0.01919,0.0416 0.04168,0.0416 l 4.363505,-0.003 c 1.299781,0 2.080926,0.80355 2.080926,2.09372 l 0.0035,5.45519 c 0,0.0256 0.01919,0.0448 0.0416,0.0448 h 2.055305 c 0.0223,0 0.04169,-0.0192 0.04169,-0.0448 l -0.0035,-4.86293 c 0,-2.58994 -1.341395,-4.68686 -4.7957,-4.68365"
       style="fill:#0c1419;fill-opacity:1;fill-rule:nonzero;stroke:none;stroke-width:0.81955892" />
    <path
       inkscape:connector-curvature="0"
       id="path3012"
       d="m 43.661807,285.2896 h -2.308215 c -0.02233,0 -0.03837,0.0192 -0.03837,0.0416 0,2.42346 -0.14727,4.1106 -1.863225,4.1106 l -3.550353,-4.12021 c -0.01918,-0.0192 -0.04485,-0.032 -0.0736,-0.032 h -2.874849 c -0.02558,0 -0.03842,0.0288 -0.02233,0.048 l 3.534349,4.06258 c -2.471486,0 -3.393485,2.15775 -3.399891,5.43598 0,0.0224 0.01918,0.0448 0.0416,0.0448 h 2.349825 c 0.02559,0 0.04485,-0.0192 0.04485,-0.0416 0,-1.1557 0.121664,-4.52037 1.709555,-4.52037 l 3.995346,4.52998 c 0.01601,0.0192 0.0416,0.032 0.07041,0.032 h 2.810823 c 0.02233,0 0.03842,-0.0288 0.02233,-0.048 l -3.876896,-4.49478 c 2.023282,0 3.697616,-1.00844 3.47031,-5.01019 -0.0035,-0.0224 -0.01918,-0.0384 -0.0416,-0.0384"
       style="fill:#0c1419;fill-opacity:1;fill-rule:nonzero;stroke:none;stroke-width:0.81955892" />
    <path
       inkscape:connector-curvature="0"
       id="path3014"
       d="m 73.53408,285.2896 h -2.17374 c -0.0223,0 -0.0416,0.0192 -0.0416,0.0416 l 0.004,5.42318 c 0,0.0224 0.0192,0.0416 0.0416,0.0416 h 2.17695 c 0.0223,0 0.0417,-0.0192 0.0417,-0.0448 l -0.004,-5.41997 c 0,-0.0224 -0.0192,-0.0416 -0.0448,-0.0416"
       style="fill:#0c1419;fill-opacity:1;fill-rule:nonzero;stroke:none;stroke-width:0.81955892" />
    <path
       inkscape:connector-curvature="0"
       id="path3016"
       d="m 26.902461,285.2896 h -3.787265 c -0.02233,0 -0.0416,0.0192 -0.0416,0.0416 l 0.0035,1.91764 c 0,0.0256 0.01919,0.0448 0.0416,0.0448 l 2.7372,-0.003 c 2.762814,-0.003 3.876898,-0.2177 3.876898,2.78522 0.0035,2.68598 -1.738355,2.79803 -3.24942,2.80123 l -3.361471,-0.0128 c -0.0224,0 -0.0416,0.0192 -0.0416,0.0416 v 1.93044 c 0,0.0256 0.01919,0.0448 0.04485,0.0448 h 3.1854 c 3.098953,-0.003 5.557641,-1.43103 5.557641,-4.95577 -0.0035,-2.69238 -1.847212,-4.63883 -4.965388,-4.63563"
       style="fill:#0c1419;fill-opacity:1;fill-rule:nonzero;stroke:none;stroke-width:0.81955892" />
    <path
       inkscape:connector-curvature="0"
       id="path3018"
       d="m 6.6151772,285.2896 h -1.715954 c -0.02233,0 -0.0416,0.0192 -0.0416,0.0416 v 1.93365 c 0,0.0224 0.01919,0.0416 0.04485,0.0416 h 1.847215 c 1.062856,-0.003 1.927243,0.53463 1.927243,2.01368 0,1.47905 0.0096,3.80967 -3.243023,3.81287 -3.03173,0.003 -3.27823,-1.99127 -3.303841,-3.14058 -0.03524,-1.52386 0.02558,-4.18423 0.0321,-4.54919 0.0035,-0.0224 -0.01602,-0.0416 -0.0416,-0.0416 H 0.17411224 c -0.02233,0 -0.04168,0.016 -0.04168,0.0384 -0.02558,0.31054 -0.188881,2.49389 -0.112042,4.66765 0.09924,2.79482 1.31897596,5.023 5.41677196,5.023 4.8181118,-0.003 5.4103618,-3.15338 5.4071658,-5.57045 0,-3.45751 -2.3466318,-4.27387 -4.2290468,-4.27066"
       style="fill:#0c1419;fill-opacity:1;fill-rule:nonzero;stroke:none;stroke-width:0.81955892" />
    <path
       inkscape:connector-curvature="0"
       id="path3020"
       d="m 69.29543,289.20172 c -0.0704,1.98807 -0.6627,3.46712 -1.75757,4.45315 -1.09488,0.97963 -2.69238,1.46624 -4.76369,1.47264 -4.145816,-0.003 -6.386783,-1.93685 -6.524457,-5.91619 -0.0544,-1.40221 -0.01601,-2.80443 0.02882,-3.8833 0,-0.0224 0.01918,-0.0384 0.04169,-0.0384 h 1.991275 c 0.02233,0 0.04168,0.0192 0.04168,0.0416 -0.02558,1.24214 -0.06086,3.59518 0.09925,4.44675 1.181301,0.17928 1.882423,0.0896 2.401046,-0.2209 0.809964,-0.49301 0.877189,-1.6135 0.877189,-4.22585 0,-0.0224 0.01918,-0.0416 0.0416,-0.0416 h 2.266577 c 0.0224,0 0.0417,0.0192 0.0417,0.0416 0.0864,3.29104 -0.11525,4.03697 -1.16211,4.92696 -1.174918,0.99564 -2.942094,0.84197 -4.174634,0.78114 0.496226,1.19733 1.706351,2.0553 4.030564,2.0553 3.84168,0 4.27068,-2.734 4.3411,-4.01135 0.0512,-0.98604 0.0321,-2.53231 0.007,-3.75205 -0.004,-0.0224 0.016,-0.0416 0.0416,-0.0416 h 2.05531 c 0.0223,0 0.0417,0.016 0.0417,0.0384 0.0449,1.07567 0.0801,2.49069 0.0352,3.8737"
       style="fill:#0c1419;fill-opacity:1;fill-rule:nonzero;stroke:none;stroke-width:0.81955892" />
  </g>
</svg>
