<?xml version="1.0" encoding="UTF-8" standalone="no"?>
<svg
   xmlns:svg="http://www.w3.org/2000/svg"
   xmlns="http://www.w3.org/2000/svg"
   version="1.1"
   width="589.864692418"
   height="169.53040466" viewBox="0 0 858.86749 246.84331"
   id="svg5840">
  <defs
     id="defs5842" />
  <g
     transform="translate(9.43375,-397.51196)"
     id="layer1">
    <path
       d="m 848.43375,398.51196 -856.854575,0 0,244.8433 856.854575,0 0,-244.8433 z"
       id="path718"
       style="fill:#ffffff;fill-opacity:1;fill-rule:nonzero;stroke:none" />
    <path
       d="m 848.42083,542.29261 -856.85458,0 0,101.06265 856.85458,0 0,-101.06265 z"
       id="path720"
       style="fill:#254aa5;fill-opacity:1;fill-rule:nonzero;stroke:none" />
    <path
       d="m 329.87213,537.69121 c -39.48668,0 -51.06772,-23.01989 -91.04557,-23.01989 -39.97783,0 -50.75751,23.01989 -91.03263,23.01989 l -54.76435,0.0125 -101.450405,0 -0.012875,-139.19166 856.85458,0 0,139.17925 -518.5487,0"
       id="path722"
       style="fill:#fcfeff;fill-opacity:1;fill-rule:nonzero;stroke:none" />
    <path
       d="m -8.420825,537.61366 -0.012875,-139.1017 856.85458,0 0,139.1017 -518.53578,0 c -39.43497,0 -51.04186,-23.05866 -91.05849,-23.05866 -40.00368,0 -50.82213,23.05866 -91.05848,23.05866 l -54.7385,0 -101.450405,0"
       id="path724"
       style="fill:#fcfeff;fill-opacity:1;fill-rule:nonzero;stroke:none" />
    <path
       d="M -8.420825,537.52318 -8.4337,398.51196 l 856.85458,0 0,139.01122 -518.50993,0 c -39.38327,0 -51.04186,-23.08452 -91.08434,-23.08452 -40.04246,0 -50.88676,23.08452 -91.08433,23.08452 l -54.71265,0 -101.450405,0"
       id="path726"
       style="fill:#fafdff;fill-opacity:1;fill-rule:nonzero;stroke:none" />
    <path
       d="M -8.420825,537.44563 -8.4337,398.51196 l 856.85458,0 0,138.92075 -518.48408,0 c -39.3445,0 -51.02894,-23.11038 -91.11019,-23.11038 -40.08125,0 -50.95138,23.11038 -91.11018,23.11038 l -54.6868,0.0125 -101.450405,0"
       id="path728"
       style="fill:#fafdff;fill-opacity:1;fill-rule:nonzero;stroke:none" />
    <path
       d="m -8.420825,537.35516 -0.012875,-138.8432 856.85458,0 0,138.8432 -518.45823,0 c -39.30572,0 -51.01601,-23.14915 -91.13604,-23.14915 -40.1071,0 -51.02893,23.14915 -91.13603,23.14915 l -54.66095,0 -101.450405,0"
       id="path730"
       style="fill:#f9fdff;fill-opacity:1;fill-rule:nonzero;stroke:none" />
    <path
       d="M -8.420825,537.26468 -8.4337,398.51196 l 856.85458,0 0,138.75272 -518.43237,0 c -39.25403,0 -51.01602,-23.17499 -91.1619,-23.17499 -40.14587,0 -51.09357,23.17499 -91.16188,23.17499 l -54.6351,0 -101.450405,0"
       id="path732"
       style="fill:#f9fdff;fill-opacity:1;fill-rule:nonzero;stroke:none" />
    <path
       d="M -8.420825,537.17421 -8.4337,398.51196 l 856.85458,0 0,138.66225 -518.40652,0 c -39.21526,0 -51.0031,-23.20085 -91.18775,-23.20085 -40.18465,0 -51.1582,23.20085 -91.17481,23.20085 l -54.62217,0 -101.450405,0"
       id="path734"
       style="fill:#f7fcff;fill-opacity:1;fill-rule:nonzero;stroke:none" />
    <path
       d="M -8.420825,537.09665 -8.4337,398.51196 l 856.85458,0 0,138.58469 -518.38067,0 c -39.16356,0 -50.99017,-23.23963 -91.2136,-23.23963 -40.2105,0 -51.22282,23.23963 -91.20066,23.23963 l -54.59632,0 -101.450405,0"
       id="path736"
       style="fill:#f7fcff;fill-opacity:1;fill-rule:nonzero;stroke:none" />
    <path
       d="M -8.420825,537.00617 -8.4337,398.51196 l 856.85458,0 0,138.49421 -518.35482,0 c -39.12477,0 -50.97725,-23.26547 -91.23945,-23.26547 -40.24927,0 -51.28745,23.26547 -91.22651,23.26547 l -54.57047,0 -101.450405,0"
       id="path738"
       style="fill:#f5fcfe;fill-opacity:1;fill-rule:nonzero;stroke:none" />
    <path
       d="M -8.420825,536.9157 -8.4337,398.51196 l 856.85458,0 0,138.40374 -518.34189,0 c -39.07308,0 -50.96433,-23.29133 -91.25238,-23.29133 -40.28805,0 -51.35207,23.29133 -91.25236,23.29133 l -54.54462,0 -101.450405,0"
       id="path740"
       style="fill:#f5fcfe;fill-opacity:1;fill-rule:nonzero;stroke:none" />
    <path
       d="M -8.420825,536.83815 -8.4337,398.51196 l 856.85458,0 0,138.32619 -518.31604,0 c -39.02138,0 -50.9514,-23.3301 -91.27823,-23.3301 -40.32682,0 -51.42962,23.3301 -91.27821,23.3301 l -54.51877,0 -101.450405,0"
       id="path742"
       style="fill:#f3fbfe;fill-opacity:1;fill-rule:nonzero;stroke:none" />
    <path
       d="M -8.420825,536.74767 -8.4337,398.51196 l 856.85458,0 0,138.23571 -518.29019,0 c -38.9826,0 -50.93848,-23.35595 -91.30408,-23.35595 -40.35267,0 -51.49425,23.35595 -91.30406,23.35595 l -54.49292,0 -101.450405,0"
       id="path744"
       style="fill:#f3fbfe;fill-opacity:1;fill-rule:nonzero;stroke:none" />
    <path
       d="M -8.420825,536.67012 -8.4337,398.51196 l 856.85458,0 0,138.14524 -518.26434,0 c -38.94383,0 -50.93848,-23.38182 -91.32993,-23.38182 -40.39145,0 -51.55887,23.38182 -91.32992,23.38182 l -54.46706,0.0129 -101.450405,0"
       id="path746"
       style="fill:#f1fafe;fill-opacity:1;fill-rule:nonzero;stroke:none" />
    <path
       d="M -8.420825,536.57965 -8.4337,398.51196 l 856.85458,0 0,138.06769 -518.23849,0 c -38.89213,0 -50.92555,-23.42059 -91.35578,-23.42059 -40.43022,0 -51.6235,23.42059 -91.35577,23.42059 l -54.44121,0 -101.450405,0"
       id="path748"
       style="fill:#f1fafe;fill-opacity:1;fill-rule:nonzero;stroke:none" />
    <path
       d="m -8.420825,536.48916 -0.012875,-137.9772 856.85458,0 0,137.9772 -518.21264,0 c -38.85335,0 -50.91263,-23.44643 -91.38163,-23.44643 -40.45607,0 -51.68813,23.44643 -91.3687,23.44643 l -54.42828,0 -101.450405,0"
       id="path750"
       style="fill:#effafe;fill-opacity:1;fill-rule:nonzero;stroke:none" />
    <path
       d="M -8.420825,536.41161 -8.4337,398.51196 l 856.85458,0 0,137.88673 -518.18679,0 c -38.80165,0 -50.91263,-23.47228 -91.40748,-23.47228 -40.49485,0 -51.76568,23.47228 -91.39455,23.47228 l -54.40243,0.0125 -101.450405,0"
       id="path752"
       style="fill:#effafe;fill-opacity:1;fill-rule:nonzero;stroke:none" />
    <path
       d="M -8.420825,536.32113 -8.4337,398.51196 l 856.85458,0 0,137.80917 -518.17387,0 c -38.74995,0 -50.88676,-23.51105 -91.4204,-23.51105 -40.53362,0 -51.83031,23.51105 -91.4204,23.51105 l -54.37658,0 -101.450405,0"
       id="path754"
       style="fill:#edf9fe;fill-opacity:1;fill-rule:nonzero;stroke:none" />
    <path
       d="m -8.420825,536.23066 -0.012875,-137.7187 856.85458,0 0,137.7187 -518.14802,0 c -38.71116,0 -50.87383,-23.53691 -91.44625,-23.53691 -40.55947,0 -51.89493,23.53691 -91.44625,23.53691 l -54.35073,0 -101.450405,0"
       id="path756"
       style="fill:#edf9fe;fill-opacity:1;fill-rule:nonzero;stroke:none" />
    <path
       d="M -8.420825,536.15311 -8.4337,398.51196 l 856.85458,0 0,137.62822 -518.12217,0 c -38.65946,0 -50.87383,-23.56276 -91.4721,-23.56276 -40.59825,0 -51.95956,23.56276 -91.4721,23.56276 l -54.32488,0.0125 -101.450405,0"
       id="path758"
       style="fill:#ebf9fe;fill-opacity:1;fill-rule:nonzero;stroke:none" />
    <path
       d="M -8.420825,536.06263 -8.4337,398.51196 l 856.85458,0 0,137.55067 -518.09632,0 c -38.62068,0 -50.86091,-23.60153 -91.49795,-23.60153 -40.63702,0 -52.02418,23.60153 -91.49795,23.60153 l -54.29903,0 -101.450405,0"
       id="path760"
       style="fill:#ebf9fe;fill-opacity:1;fill-rule:nonzero;stroke:none" />
    <path
       d="m -8.420825,535.97216 -0.012875,-137.4602 856.85458,0 0,137.4602 -518.07047,0 c -38.58191,0 -50.84798,-23.62739 -91.5238,-23.62739 -40.66287,0 -52.08881,23.62739 -91.5238,23.62739 l -54.27318,0 -101.450405,0"
       id="path762"
       style="fill:#e9f8fe;fill-opacity:1;fill-rule:nonzero;stroke:none" />
    <path
       d="M -8.420825,535.89461 -8.4337,398.51196 l 856.85458,0 0,137.36971 -518.04462,0 c -38.53021,0 -50.84798,-23.65322 -91.54965,-23.65322 -40.70166,0 -52.16636,23.65322 -91.53672,23.65322 l -54.26026,0.013 -101.450405,0"
       id="path764"
       style="fill:#e9f8fe;fill-opacity:1;fill-rule:nonzero;stroke:none" />
    <path
       d="M -8.420825,535.80412 -8.4337,398.51196 l 856.85458,0 0,137.29216 -518.01877,0 c -38.49143,0 -50.83506,-23.692 -91.5755,-23.692 -40.74043,0 -52.23098,23.692 -91.56257,23.692 l -54.23441,0 -101.450405,0"
       id="path766"
       style="fill:#e7f7fd;fill-opacity:1;fill-rule:nonzero;stroke:none" />
    <path
       d="M -8.420825,535.71365 -8.4337,398.51196 l 856.85458,0 0,137.20169 -517.99292,0 c -38.43973,0 -50.82213,-23.71787 -91.60135,-23.71787 -40.77921,0 -52.29562,23.71787 -91.58842,23.71787 l -54.20856,0 -101.450405,0"
       id="path768"
       style="fill:#e7f7fd;fill-opacity:1;fill-rule:nonzero;stroke:none" />
    <path
       d="M -8.420825,535.62317 -8.4337,398.51196 l 856.85458,0 0,137.11121 -517.97999,0 c -38.38804,0 -50.79629,-23.74371 -91.61428,-23.74371 -40.80506,0 -52.36025,23.74371 -91.61427,23.74371 l -54.18271,0 -101.450405,0"
       id="path770"
       style="fill:#e5f7fd;fill-opacity:1;fill-rule:nonzero;stroke:none" />
    <path
       d="M -8.420825,535.54562 -8.4337,398.51196 l 856.85458,0 0,137.03366 -517.95414,0 c -38.34926,0 -50.79629,-23.78249 -91.64013,-23.78249 -40.84383,0 -52.42487,23.78249 -91.64012,23.78249 l -54.15686,0 -101.450405,0"
       id="path772"
       style="fill:#e5f7fd;fill-opacity:1;fill-rule:nonzero;stroke:none" />
    <path
       d="M -8.420825,535.45515 -8.4337,398.51196 l 856.85458,0 0,136.94319 -517.92829,0 c -38.29755,0 -50.78336,-23.80834 -91.66598,-23.80834 -40.88261,0 -52.50242,23.80834 -91.66597,23.80834 l -54.13101,0 -101.450405,0"
       id="path774"
       style="fill:#e3f6fd;fill-opacity:1;fill-rule:nonzero;stroke:none" />
    <path
       d="M -8.420825,535.36467 -8.4337,398.51196 l 856.85458,0 0,136.85271 -517.90244,0 c -38.25878,0 -50.77044,-23.83419 -91.69183,-23.83419 -40.90846,0 -52.56705,23.83419 -91.69182,23.83419 l -54.10516,0 -101.450405,0"
       id="path776"
       style="fill:#e3f6fd;fill-opacity:1;fill-rule:nonzero;stroke:none" />
    <path
       d="M -8.420825,535.28712 -8.4337,398.51196 l 856.85458,0 0,136.77516 -517.87659,0 c -38.22,0 -50.77044,-23.87297 -91.71768,-23.87297 -40.94723,0 -52.63167,23.87297 -91.71767,23.87297 l -54.07931,0 -101.450405,0"
       id="path778"
       style="fill:#e1f5fd;fill-opacity:1;fill-rule:nonzero;stroke:none" />
    <path
       d="M -8.420825,535.19663 -8.4337,398.51196 l 856.85458,0 0,136.68467 -517.85074,0 c -38.1683,0 -50.75751,-23.89881 -91.74353,-23.89881 -40.98601,0 -52.6963,23.89881 -91.7306,23.89881 l -54.06638,0 -101.450405,0"
       id="path780"
       style="fill:#e1f5fd;fill-opacity:1;fill-rule:nonzero;stroke:none" />
    <path
       d="M -8.420825,535.11908 -8.4337,398.51196 l 856.85458,0 0,136.5942 -517.82488,0 c -38.12954,0 -50.7446,-23.92466 -91.76939,-23.92466 -41.01186,0 -52.76092,23.92466 -91.75645,23.92466 l -54.04053,0.0125 -101.450405,0"
       id="path782"
       style="fill:#dff5fd;fill-opacity:1;fill-rule:nonzero;stroke:none" />
    <path
       d="M -8.420825,535.02861 -8.4337,398.51196 l 856.85458,0 0,136.51665 -517.79903,0 c -38.07784,0 -50.7446,-23.96344 -91.79524,-23.96344 -41.05063,0 -52.83847,23.96344 -91.7823,23.96344 l -54.01468,0 -101.450405,0"
       id="path784"
       style="fill:#dff5fd;fill-opacity:1;fill-rule:nonzero;stroke:none" />
    <path
       d="M -8.420825,534.93813 -8.4337,398.51196 l 856.85458,0 0,136.42617 -517.7861,0 c -38.02614,0 -50.71875,-23.98928 -91.80817,-23.98928 -41.08941,0 -52.90311,23.98928 -91.80815,23.98928 l -155.439235,0"
       id="path786"
       style="fill:#ddf4fd;fill-opacity:1;fill-rule:nonzero;stroke:none" />
    <path
       d="M -8.420825,534.86058 -8.4337,398.51196 l 856.85458,0 0,136.3357 -517.76025,0 c -37.98737,0 -50.70582,-24.01515 -91.83402,-24.01515 -41.11526,0 -52.96773,24.01515 -91.834,24.01515 l -53.96298,0.0125 -101.450405,0"
       id="path788"
       style="fill:#ddf4fd;fill-opacity:1;fill-rule:nonzero;stroke:none" />
    <path
       d="M -8.420825,534.77011 -8.4337,398.51196 l 856.85458,0 0,136.25815 -517.7344,0 c -37.93567,0 -50.70582,-24.05393 -91.85987,-24.05393 -41.15403,0 -53.03236,24.05393 -91.85985,24.05393 l -53.93713,0 -101.450405,0"
       id="path790"
       style="fill:#dbf3fd;fill-opacity:1;fill-rule:nonzero;stroke:none" />
    <path
       d="M -8.420825,534.67963 -8.4337,398.51196 l 856.85458,0 0,136.16767 -517.70855,0 c -37.89688,0 -50.69289,-24.07977 -91.88572,-24.07977 -41.19281,0 -53.09698,24.07977 -91.8857,24.07977 l -53.91128,0 -101.450405,0"
       id="path792"
       style="fill:#dbf3fd;fill-opacity:1;fill-rule:nonzero;stroke:none" />
    <path
       d="M -8.420825,534.60207 -8.4337,398.51196 l 856.85458,0 0,136.07719 -517.6827,0 c -37.8581,0 -50.67997,-24.10561 -91.91157,-24.10561 -41.23158,0 -53.16161,24.10561 -91.91155,24.10561 l -53.88543,0.0129 -101.450405,0"
       id="path794"
       style="fill:#d9f3fd;fill-opacity:1;fill-rule:nonzero;stroke:none" />
    <path
       d="M -8.420825,534.5116 -8.4337,398.51196 l 856.85458,0 0,135.99964 -517.65685,0 c -37.8064,0 -50.66704,-24.14439 -91.93742,-24.14439 -41.25743,0 -53.23916,24.14439 -91.92447,24.14439 l -53.87251,0 -101.450405,0"
       id="path796"
       style="fill:#d9f3fd;fill-opacity:1;fill-rule:nonzero;stroke:none" />
    <path
       d="M -8.420825,534.42112 -8.4337,398.51196 l 856.85458,0 0,135.90916 -517.631,0 c -37.76763,0 -50.66704,-24.17025 -91.96327,-24.17025 -41.29622,0 -53.30378,24.17025 -91.95033,24.17025 l -53.84665,0 -101.450405,0"
       id="path798"
       style="fill:#d7f2fc;fill-opacity:1;fill-rule:nonzero;stroke:none" />
    <path
       d="M -8.420825,534.34357 -8.4337,398.51196 l 856.85458,0 0,135.81869 -517.61808,0 c -37.703,0 -50.64119,-24.1961 -91.97619,-24.1961 -41.335,0 -53.36841,24.1961 -91.97618,24.1961 l -53.8208,0.0129 -101.450405,0"
       id="path800"
       style="fill:#d7f2fc;fill-opacity:1;fill-rule:nonzero;stroke:none" />
    <path
       d="M -8.420825,534.2531 -8.4337,398.51196 l 856.85458,0 0,135.74114 -517.59223,0 c -37.66422,0 -50.62826,-24.23488 -92.00204,-24.23488 -41.36085,0 -53.43303,24.23488 -92.00203,24.23488 l -53.79495,0 -101.450405,0"
       id="path802"
       style="fill:#d5f1fc;fill-opacity:1;fill-rule:nonzero;stroke:none" />
    <path
       d="M -8.420825,534.16262 -8.4337,398.51196 l 856.85458,0 0,135.65066 -517.56638,0 c -37.62545,0 -50.62826,-24.26072 -92.02789,-24.26072 -41.39962,0 -53.49767,24.26072 -92.02788,24.26072 l -53.7691,0 -101.450405,0"
       id="path804"
       style="fill:#d5f1fc;fill-opacity:1;fill-rule:nonzero;stroke:none" />
    <path
       d="M -8.420825,534.08507 -8.4337,398.51196 l 856.85458,0 0,135.56019 -517.54053,0 c -37.57375,0 -50.61534,-24.28658 -92.05374,-24.28658 -41.4384,0 -53.57522,24.28658 -92.05373,24.28658 l -53.74325,0.0129 -101.450405,0"
       id="path806"
       style="fill:#d3f1fc;fill-opacity:1;fill-rule:nonzero;stroke:none" />
    <path
       d="M -8.420825,533.99458 -8.4337,398.51196 l 856.85458,0 0,135.48262 -517.51468,0 c -37.53496,0 -50.60241,-24.32533 -92.07959,-24.32533 -41.46425,0 -53.63985,24.32533 -92.07958,24.32533 l -53.7174,0 -101.450405,0"
       id="path808"
       style="fill:#d3f1fc;fill-opacity:1;fill-rule:nonzero;stroke:none" />
    <path
       d="M -8.420825,533.90411 -8.4337,398.51196 l 856.85458,0 0,135.39215 -517.48883,0 c -37.49619,0 -50.60241,-24.3512 -92.10544,-24.3512 -41.50302,0 -53.70447,24.3512 -92.10543,24.3512 l -53.69155,0 -101.450405,0"
       id="path810"
       style="fill:#d1f0fc;fill-opacity:1;fill-rule:nonzero;stroke:none" />
    <path
       d="m -8.420825,533.82656 -0.012875,-135.3146 856.85458,0 0,135.30168 -517.46298,0 c -37.44449,0 -50.58949,-24.37705 -92.13129,-24.37705 -41.5418,0 -53.7691,24.37705 -92.11836,24.37705 l -53.67862,0.0125 -101.450405,0"
       id="path812"
       style="fill:#d1f0fc;fill-opacity:1;fill-rule:nonzero;stroke:none" />
    <path
       d="M -8.420825,533.73608 -8.4337,398.51196 l 856.85458,0 0,135.22412 -517.43713,0 c -37.40571,0 -50.57656,-24.41582 -92.15714,-24.41582 -41.56765,0 -53.83372,24.41582 -92.14421,24.41582 l -53.65277,0 -101.450405,0"
       id="path814"
       style="fill:#cff0fc;fill-opacity:1;fill-rule:nonzero;stroke:none" />
    <path
       d="M -8.420825,533.64561 -8.4337,398.51196 l 856.85458,0 0,135.13365 -517.4242,0 c -37.34109,0 -50.56364,-24.44168 -92.17007,-24.44168 -41.60642,0 -53.91127,24.44168 -92.17006,24.44168 l -53.62692,0 -101.450405,0"
       id="path816"
       style="fill:#cff0fc;fill-opacity:1;fill-rule:nonzero;stroke:none" />
    <path
       d="m -8.420825,533.56806 -0.012875,-135.0561 856.85458,0 0,135.04317 -517.39835,0 c -37.30232,0 -50.55072,-24.46752 -92.19592,-24.46752 -41.6452,0 -53.9759,24.46752 -92.19591,24.46752 l -53.60107,0.0125 -101.450405,0"
       id="path818"
       style="fill:#cdeffc;fill-opacity:1;fill-rule:nonzero;stroke:none" />
    <path
       d="M -8.420825,533.47758 -8.4337,398.51196 l 856.85458,0 0,134.96562 -517.3725,0 c -37.26354,0 -50.53779,-24.50631 -92.22177,-24.50631 -41.68397,0 -54.04052,24.50631 -92.22176,24.50631 l -53.57522,0 -101.450405,0"
       id="path820"
       style="fill:#cdeffc;fill-opacity:1;fill-rule:nonzero;stroke:none" />
    <path
       d="M -8.420825,533.3871 -8.4337,398.51196 l 856.85458,0 0,134.87514 -517.34665,0 c -37.21184,0 -50.52485,-24.53215 -92.24762,-24.53215 -41.70982,0 -54.10516,24.53215 -92.24761,24.53215 l -53.54937,0 -101.450405,0"
       id="path822"
       style="fill:#cbeefc;fill-opacity:1;fill-rule:nonzero;stroke:none" />
    <path
       d="M -8.420825,533.30955 -8.4337,398.51196 l 856.85458,0 0,134.78466 -517.3208,0 c -37.17307,0 -50.52485,-24.558 -92.27347,-24.558 -41.7486,0 -54.16978,24.558 -92.27346,24.558 l -53.52352,0.0129 -101.450405,0"
       id="path824"
       style="fill:#cbeefc;fill-opacity:1;fill-rule:nonzero;stroke:none" />
    <path
       d="M -8.420825,533.21907 -8.4337,398.51196 l 856.85458,0 0,134.70711 -517.29495,0 c -37.13428,0 -50.51193,-24.59677 -92.29932,-24.59677 -41.78737,0 -54.23441,24.59677 -92.29931,24.59677 l -53.49767,0 -101.450405,0"
       id="path826"
       style="fill:#c9eefc;fill-opacity:1;fill-rule:nonzero;stroke:none" />
    <path
       d="M -8.420825,533.1286 -8.4337,398.51196 l 856.85458,0 0,134.61664 -517.2691,0 c -37.08258,0 -50.499,-24.62263 -92.32517,-24.62263 -41.81322,0 -54.31196,24.62263 -92.31223,24.62263 l -53.48475,0 -101.450405,0"
       id="path828"
       style="fill:#c9eefc;fill-opacity:1;fill-rule:nonzero;stroke:none" />
    <path
       d="M -8.420825,533.05105 -8.4337,398.51196 l 856.85458,0 0,134.52616 -517.24325,0 c -37.0438,0 -50.499,-24.64849 -92.35102,-24.64849 -41.852,0 -54.37658,24.64849 -92.33808,24.64849 l -53.4589,0.0129 -101.450405,0"
       id="path830"
       style="fill:#c7edfb;fill-opacity:1;fill-rule:nonzero;stroke:none" />
    <path
       d="M -8.420825,532.96057 -8.4337,398.51196 l 856.85458,0 0,134.44861 -517.23033,0 c -36.97917,0 -50.47315,-24.68726 -92.36394,-24.68726 -41.89077,0 -54.44121,24.68726 -92.36393,24.68726 l -53.43305,0 -101.450405,0"
       id="path832"
       style="fill:#c7edfb;fill-opacity:1;fill-rule:nonzero;stroke:none" />
    <path
       d="M -8.420825,532.8701 -8.4337,398.51196 l 856.85458,0 0,134.35814 -517.20447,0 c -36.94041,0 -50.46023,-24.71312 -92.3898,-24.71312 -41.91663,0 -54.50583,24.71312 -92.38978,24.71312 l -53.4072,0 -101.450405,0"
       id="path834"
       style="fill:#c5ecfb;fill-opacity:1;fill-rule:nonzero;stroke:none" />
    <path
       d="M -8.420825,532.79253 -8.4337,398.51196 l 856.85458,0 0,134.26765 -517.17862,0 c -36.90163,0 -50.46023,-24.72602 -92.41565,-24.72602 -41.95541,0 -54.57046,24.72602 -92.41563,24.72602 l -53.38135,0.0129 -101.450405,0"
       id="path836"
       style="fill:#c5ecfb;fill-opacity:1;fill-rule:nonzero;stroke:none" />
    <path
       d="m -8.420825,532.70206 -0.012875,-134.1901 856.85458,0 0,134.1901 -517.15277,0 c -36.84993,0 -50.44731,-24.77773 -92.4415,-24.77773 -41.99418,0 -54.64801,24.77773 -92.44148,24.77773 l -53.3555,0 -101.450405,0"
       id="path838"
       style="fill:#c3ecfb;fill-opacity:1;fill-rule:nonzero;stroke:none" />
    <path
       d="M -8.420825,532.61158 -8.4337,398.51196 l 856.85458,0 0,134.09962 -517.12692,0 c -36.81116,0 -50.43438,-24.79065 -92.46735,-24.79065 -42.02003,0 -54.71265,24.79065 -92.46733,24.79065 l -53.32965,0 -101.450405,0"
       id="path840"
       style="fill:#c3ecfb;fill-opacity:1;fill-rule:nonzero;stroke:none" />
    <path
       d="M -8.420825,532.53403 -8.4337,398.51196 l 856.85458,0 0,134.00915 -517.10107,0 c -36.77238,0 -50.43438,-24.82944 -92.4932,-24.82944 -42.05881,0 -54.77727,24.82944 -92.49318,24.82944 l -53.3038,0.0125 -101.450405,0"
       id="path842"
       style="fill:#c2ebfb;fill-opacity:1;fill-rule:nonzero;stroke:none" />
    <path
       d="m -8.420825,532.44356 -0.012875,-133.9316 856.85458,0 0,133.9316 -517.07522,0 c -36.72067,0 -50.42146,-24.85529 -92.51905,-24.85529 -42.09758,0 -54.8419,24.85529 -92.50611,24.85529 l -53.29087,0 -101.450405,0"
       id="path844"
       style="fill:#c2ebfb;fill-opacity:1;fill-rule:nonzero;stroke:none" />
    <path
       d="M -8.420825,532.35308 -8.4337,398.51196 l 856.85458,0 0,133.84112 -517.04937,0 c -36.6819,0 -50.40853,-24.88113 -92.5449,-24.88113 -42.12343,0 -54.90652,24.88113 -92.53196,24.88113 l -53.26502,0 -101.450405,0"
       id="path846"
       style="fill:#c0ebfb;fill-opacity:1;fill-rule:nonzero;stroke:none" />
    <path
       d="M -8.420825,532.27553 -8.4337,398.51196 l 856.85458,0 0,133.75065 -517.03644,0 c -36.61728,0 -50.38269,-24.90699 -92.55783,-24.90699 -42.16221,0 -54.98407,24.90699 -92.55782,24.90699 l -53.23916,0.0125 -101.450405,0"
       id="path848"
       style="fill:#c0ebfb;fill-opacity:1;fill-rule:nonzero;stroke:none" />
    <path
       d="M -8.420825,532.18505 -8.4337,398.51196 l 856.85458,0 0,133.67309 -517.01059,0 c -36.5785,0 -50.38269,-24.94575 -92.58368,-24.94575 -42.20098,0 -55.0487,24.94575 -92.58367,24.94575 l -53.21331,0 -101.450405,0"
       id="path850"
       style="fill:#beeafb;fill-opacity:1;fill-rule:nonzero;stroke:none" />
    <path
       d="M -8.420825,532.09457 -8.4337,398.51196 l 856.85458,0 0,133.58261 -516.98474,0 c -36.53973,0 -50.36976,-24.97161 -92.60953,-24.97161 -42.23976,0 -55.11332,24.97161 -92.60952,24.97161 l -53.18746,0 -101.450405,0"
       id="path852"
       style="fill:#beeafb;fill-opacity:1;fill-rule:nonzero;stroke:none" />
    <path
       d="M -8.420825,532.01702 -8.4337,398.51196 l 856.85458,0 0,133.49214 -516.95889,0 c -36.48803,0 -50.35684,-24.99746 -92.63538,-24.99746 -42.26561,0 -55.17795,24.99746 -92.63537,24.99746 l -53.16161,0.0129 -101.450405,0"
       id="path854"
       style="fill:#bce9fb;fill-opacity:1;fill-rule:nonzero;stroke:none" />
    <path
       d="M -8.420825,531.92655 -8.4337,398.51196 l 856.85458,0 0,133.41459 -516.93304,0 c -36.44925,0 -50.35684,-25.03624 -92.66123,-25.03624 -42.30438,0 -55.24257,25.03624 -92.66122,25.03624 l -53.13576,0 -101.450405,0"
       id="path856"
       style="fill:#bce9fb;fill-opacity:1;fill-rule:nonzero;stroke:none" />
    <path
       d="M -8.420825,531.83607 -8.4337,398.51196 l 856.85458,0 0,133.32411 -516.90719,0 c -36.41048,0 -50.3439,-25.06209 -92.68708,-25.06209 -42.34316,0 -55.3072,25.06209 -92.67415,25.06209 l -53.12283,0 -101.450405,0"
       id="path858"
       style="fill:#bae9fb;fill-opacity:1;fill-rule:nonzero;stroke:none" />
    <path
       d="M -8.420825,531.75852 -8.4337,398.51196 l 856.85458,0 0,133.23364 -516.88134,0 c -36.35878,0 -50.33098,-25.08794 -92.71293,-25.08794 -42.36901,0 -55.38476,25.08794 -92.7,25.08794 l -53.09698,0.0129 -101.450405,0"
       id="path860"
       style="fill:#bae9fb;fill-opacity:1;fill-rule:nonzero;stroke:none" />
    <path
       d="M -8.420825,531.66805 -8.4337,398.51196 l 856.85458,0 0,133.15609 -516.85549,0 c -36.31999,0 -50.33098,-25.12673 -92.73878,-25.12673 -42.40778,0 -55.44938,25.12673 -92.72585,25.12673 l -53.07113,0 -101.450405,0"
       id="path862"
       style="fill:#b8e8fb;fill-opacity:1;fill-rule:nonzero;stroke:none" />
    <path
       d="m -8.420825,531.57756 -0.012875,-133.0656 856.85458,0 0,133.0656 -516.84257,0 c -36.25536,0 -50.30512,-25.15256 -92.7517,-25.15256 -42.44656,0 -55.51401,25.15256 -92.7517,25.15256 l -53.04528,0 -101.450405,0"
       id="path864"
       style="fill:#b8e8fb;fill-opacity:1;fill-rule:nonzero;stroke:none" />
    <path
       d="M -8.420825,531.50001 -8.4337,398.51196 l 856.85458,0 0,132.97512 -516.81672,0 c -36.21658,0 -50.2922,-25.17841 -92.77755,-25.17841 -42.47241,0 -55.57863,25.17841 -92.77755,25.17841 l -53.01943,0.0129 -101.450405,0"
       id="path866"
       style="fill:#b6e8fa;fill-opacity:1;fill-rule:nonzero;stroke:none" />
    <path
       d="M -8.420825,531.40953 -8.4337,398.51196 l 856.85458,0 0,132.89757 -516.79087,0 c -36.17781,0 -50.2922,-25.21718 -92.8034,-25.21718 -42.5112,0 -55.64326,25.21718 -92.8034,25.21718 l -52.99358,0 -101.450405,0"
       id="path868"
       style="fill:#b6e8fa;fill-opacity:1;fill-rule:nonzero;stroke:none" />
    <path
       d="m -8.420825,531.31906 -0.012875,-132.8071 856.85458,0 0,132.8071 -516.76502,0 c -36.12611,0 -50.27927,-25.24304 -92.82925,-25.24304 -42.54997,0 -55.72081,25.24304 -92.82925,25.24304 l -52.96773,0 -101.450405,0"
       id="path870"
       style="fill:#b4e7fa;fill-opacity:1;fill-rule:nonzero;stroke:none" />
    <path
       d="M -8.420825,531.24151 -8.4337,398.51196 l 856.85458,0 0,132.71663 -516.73917,0 c -36.08733,0 -50.26635,-25.2689 -92.8551,-25.2689 -42.57582,0 -55.78543,25.2689 -92.8551,25.2689 l -52.94188,0.0125 -101.450405,0"
       id="path872"
       style="fill:#b4e7fa;fill-opacity:1;fill-rule:nonzero;stroke:none" />
    <path
       d="M -8.420825,531.15103 -8.4337,398.51196 l 856.85458,0 0,132.63907 -516.71332,0 c -36.04856,0 -50.25342,-25.30767 -92.88095,-25.30767 -42.6146,0 -55.85006,25.30767 -92.86802,25.30767 l -52.92896,0 -101.450405,0"
       id="path874"
       style="fill:#b2e6fa;fill-opacity:1;fill-rule:nonzero;stroke:none" />
    <path
       d="m -8.420825,531.06056 -0.012875,-132.5486 856.85458,0 0,132.5486 -516.68747,0 c -35.99686,0 -50.25342,-25.33353 -92.9068,-25.33353 -42.65337,0 -55.91468,25.33353 -92.89387,25.33353 l -52.90311,0 -101.450405,0"
       id="path876"
       style="fill:#b2e6fa;fill-opacity:1;fill-rule:nonzero;stroke:none" />
    <path
       d="M -8.420825,530.983 -8.4337,398.51196 l 856.85458,0 0,132.47104 -516.66162,0 c -35.95808,0 -50.2405,-25.37229 -92.93265,-25.37229 -42.69215,0 -55.97932,25.37229 -92.91972,25.37229 l -154.327665,0"
       id="path878"
       style="fill:#b0e6fa;fill-opacity:1;fill-rule:nonzero;stroke:none" />
    <path
       d="M -8.420825,530.89252 -8.4337,398.51196 l 856.85458,0 0,132.38056 -516.64869,0 c -35.89345,0 -50.21465,-25.39814 -92.94558,-25.39814 -42.718,0 -56.04395,25.39814 -92.94557,25.39814 l -52.85141,0 -101.450405,0"
       id="path880"
       style="fill:#b0e6fa;fill-opacity:1;fill-rule:nonzero;stroke:none" />
    <path
       d="M -8.420825,530.80205 -8.4337,398.51196 l 856.85458,0 0,132.29009 -516.62284,0 c -35.85468,0 -50.21465,-25.42399 -92.97143,-25.42399 -42.75677,0 -56.1215,25.42399 -92.97142,25.42399 l -52.82556,0 -101.450405,0"
       id="path882"
       style="fill:#aee5fa;fill-opacity:1;fill-rule:nonzero;stroke:none" />
    <path
       d="M -8.420825,530.7245 -8.4337,398.51196 l 856.85458,0 0,132.19961 -516.59698,0 c -35.81591,0 -50.20174,-25.44985 -92.99729,-25.44985 -42.79555,0 -56.18612,25.44985 -92.99727,25.44985 l -52.79971,0.0129 -101.450405,0"
       id="path884"
       style="fill:#aee5fa;fill-opacity:1;fill-rule:nonzero;stroke:none" />
    <path
       d="M -8.420825,530.63402 -8.4337,398.51196 l 856.85458,0 0,132.12206 -516.57113,0 c -35.76421,0 -50.18881,-25.48862 -93.02314,-25.48862 -42.8214,0 -56.25075,25.48862 -93.02312,25.48862 l -52.77386,0 -101.450405,0"
       id="path886"
       style="fill:#ace4fa;fill-opacity:1;fill-rule:nonzero;stroke:none" />
    <path
       d="M -8.420825,530.54355 -8.4337,398.51196 l 856.85458,0 0,132.03159 -516.54528,0 c -35.72544,0 -50.18881,-25.51448 -93.04899,-25.51448 -42.86017,0 -56.31537,25.51448 -93.04897,25.51448 l -52.74801,0 -101.450405,0"
       id="path888"
       style="fill:#ace4fa;fill-opacity:1;fill-rule:nonzero;stroke:none" />
    <path
       d="M -8.420825,530.466 -8.4337,398.51196 l 856.85458,0 0,131.94111 -516.51943,0 c -35.68666,0 -50.17589,-25.54032 -93.07484,-25.54032 -42.89895,0 -56.38,25.54032 -93.0619,25.54032 l -52.73508,0.0129 -101.450405,0"
       id="path890"
       style="fill:#aae4fa;fill-opacity:1;fill-rule:nonzero;stroke:none" />
    <path
       d="M -8.420825,530.37551 -8.4337,398.51196 l 856.85458,0 0,131.86355 -516.49358,0 c -35.63496,0 -50.16296,-25.57909 -93.10069,-25.57909 -42.9248,0 -56.45755,25.57909 -93.08775,25.57909 l -52.70923,0 -101.450405,0"
       id="path892"
       style="fill:#aae4fa;fill-opacity:1;fill-rule:nonzero;stroke:none" />
    <path
       d="M -8.420825,530.28503 -8.4337,398.51196 l 856.85458,0 0,131.77307 -516.48065,0 c -35.58327,0 -50.15003,-25.60495 -93.11362,-25.60495 -42.96357,0 -56.52217,25.60495 -93.1136,25.60495 l -52.68338,0 -101.450405,0"
       id="path894"
       style="fill:#a8e3fa;fill-opacity:1;fill-rule:nonzero;stroke:none" />
    <path
       d="M -8.420825,530.20748 -8.4337,398.51196 l 856.85458,0 0,131.6826 -516.4548,0 c -35.53155,0 -50.1371,-25.6308 -93.13947,-25.6308 -43.00235,0 -56.58681,25.6308 -93.13945,25.6308 l -52.65753,0.0129 -101.450405,0"
       id="path896"
       style="fill:#a8e3fa;fill-opacity:1;fill-rule:nonzero;stroke:none" />
    <path
       d="M -8.420825,530.11701 -8.4337,398.51196 l 856.85458,0 0,131.60505 -516.42895,0 c -35.49278,0 -50.12418,-25.66958 -93.16532,-25.66958 -43.0282,0 -56.65143,25.66958 -93.16531,25.66958 l -52.63167,0 -101.450405,0"
       id="path898"
       style="fill:#a6e2f9;fill-opacity:1;fill-rule:nonzero;stroke:none" />
    <path
       d="M -8.420825,530.02653 -8.4337,398.51196 l 856.85458,0 0,131.51457 -516.4031,0 c -35.454,0 -50.11125,-25.69542 -93.19117,-25.69542 -43.06697,0 -56.71606,25.69542 -93.19116,25.69542 l -52.60582,0 -101.450405,0"
       id="path900"
       style="fill:#a6e2f9;fill-opacity:1;fill-rule:nonzero;stroke:none" />
    <path
       d="M -8.420825,529.94898 -8.4337,398.51196 l 856.85458,0 0,131.4241 -516.37725,0 c -35.4023,0 -50.11125,-25.72128 -93.21702,-25.72128 -43.10575,0 -56.79361,25.72128 -93.21701,25.72128 l -52.57997,0.0125 -101.450405,0"
       id="path902"
       style="fill:#a4e2f9;fill-opacity:1;fill-rule:nonzero;stroke:none" />
    <path
       d="M -8.420825,529.85851 -8.4337,398.51196 l 856.85458,0 0,131.34655 -516.3514,0 c -35.36353,0 -50.09833,-25.76006 -93.24287,-25.76006 -43.14453,0 -56.85823,25.76006 -93.24286,25.76006 l -154.004525,0"
       id="path904"
       style="fill:#a4e2f9;fill-opacity:1;fill-rule:nonzero;stroke:none" />
    <path
       d="M -8.420825,529.76802 -8.4337,398.51196 l 856.85458,0 0,131.25606 -516.32555,0 c -35.32475,0 -50.0854,-25.7859 -93.26872,-25.7859 -43.17038,0 -56.92286,25.7859 -93.25578,25.7859 l -52.5412,0 -101.450405,0"
       id="path906"
       style="fill:#a2e1f9;fill-opacity:1;fill-rule:nonzero;stroke:none" />
    <path
       d="M -8.420825,529.69047 -8.4337,398.51196 l 856.85458,0 0,131.16559 -516.2997,0 c -35.27305,0 -50.0854,-25.81175 -93.29457,-25.81175 -43.20916,0 -56.98748,25.81175 -93.28163,25.81175 l -52.51535,0.0125 -101.450405,0"
       id="path908"
       style="fill:#a2e1f9;fill-opacity:1;fill-rule:nonzero;stroke:none" />
    <path
       d="M -8.420825,529.6 -8.4337,398.51196 l 856.85458,0 0,131.08804 -516.28678,0 c -35.22135,0 -50.05955,-25.85053 -93.30749,-25.85053 -43.24793,0 -57.05211,25.85053 -93.30748,25.85053 l -52.4895,0 -101.450405,0"
       id="path910"
       style="fill:#a0e0f9;fill-opacity:1;fill-rule:nonzero;stroke:none" />
    <path
       d="M -8.420825,529.50952 -8.4337,398.51196 l 856.85458,0 0,130.99756 -516.26093,0 c -35.16965,0 -50.04662,-25.87637 -93.33334,-25.87637 -43.27378,0 -57.11673,25.87637 -93.33333,25.87637 l -52.46365,0 -101.450405,0"
       id="path912"
       style="fill:#a0e0f9;fill-opacity:1;fill-rule:nonzero;stroke:none" />
    <path
       d="M -8.420825,529.43197 -8.4337,398.51196 l 856.85458,0 0,130.90709 -516.23508,0 c -35.13086,0 -50.04662,-25.90224 -93.35919,-25.90224 -43.31256,0 -57.1943,25.90224 -93.35918,25.90224 l -52.4378,0.0129 -101.450405,0"
       id="path914"
       style="fill:#9ee0f9;fill-opacity:1;fill-rule:nonzero;stroke:none" />
    <path
       d="M -8.420825,529.3415 -8.4337,398.51196 l 856.85458,0 0,130.82954 -516.20923,0 c -35.09209,0 -50.0337,-25.94102 -93.38504,-25.94102 -43.35133,0 -57.25892,25.94102 -93.38503,25.94102 l -52.41195,0 -101.450405,0"
       id="path916"
       style="fill:#9ee0f9;fill-opacity:1;fill-rule:nonzero;stroke:none" />
    <path
       d="M -8.420825,529.25102 -8.4337,398.51196 l 856.85458,0 0,130.73906 -516.18338,0 c -35.04039,0 -50.02077,-25.96686 -93.41089,-25.96686 -43.37718,0 -57.32355,25.96686 -93.41088,25.96686 l -52.3861,0 -101.450405,0"
       id="path918"
       style="fill:#9cdff9;fill-opacity:1;fill-rule:nonzero;stroke:none" />
    <path
       d="M -8.420825,529.17347 -8.4337,398.51196 l 856.85458,0 0,130.64857 -516.15753,0 c -35.00161,0 -50.02077,-25.9927 -93.43674,-25.9927 -43.41596,0 -57.38817,25.9927 -93.43673,25.9927 l -52.36025,0.013 -101.450405,0"
       id="path920"
       style="fill:#9cdff9;fill-opacity:1;fill-rule:nonzero;stroke:none" />
    <path
       d="M -8.420825,529.08298 -8.4337,398.51196 l 856.85458,0 0,130.57102 -516.13168,0 c -34.96284,0 -50.00785,-26.03147 -93.46259,-26.03147 -43.45473,0 -57.4528,26.03147 -93.44966,26.03147 l -52.34732,0 -101.450405,0"
       id="path922"
       style="fill:#9adff9;fill-opacity:1;fill-rule:nonzero;stroke:none" />
    <path
       d="M -8.420825,528.99251 -8.4337,398.51196 l 856.85458,0 0,130.48055 -516.10583,0 c -34.91114,0 -49.99492,-26.05733 -93.48844,-26.05733 -43.48058,0 -57.53035,26.05733 -93.47551,26.05733 l -52.32147,0 -101.450405,0"
       id="path924"
       style="fill:#9adff9;fill-opacity:1;fill-rule:nonzero;stroke:none" />
    <path
       d="m -8.420825,528.91496 -0.012875,-130.403 856.85458,0 0,130.39007 -516.0929,0 c -34.85944,0 -49.96908,-26.08318 -93.50137,-26.08318 -43.51936,0 -57.59497,26.08318 -93.50136,26.08318 l -52.29562,0.0129 -101.450405,0"
       id="path926"
       style="fill:#99def9;fill-opacity:1;fill-rule:nonzero;stroke:none" />
    <path
       d="M -8.420825,528.82448 -8.4337,398.51196 l 856.85458,0 0,130.31252 -516.06705,0 c -34.80774,0 -49.96907,-26.12196 -93.52722,-26.12196 -43.55813,0 -57.6596,26.12196 -93.52721,26.12196 l -52.26977,0 -101.450405,0"
       id="path928"
       style="fill:#97def8;fill-opacity:1;fill-rule:nonzero;stroke:none" />
    <path
       d="M -8.420825,528.73401 -8.4337,398.51196 l 856.85458,0 0,130.22205 -516.0412,0 c -34.76897,0 -49.95614,-26.14781 -93.55307,-26.14781 -43.59691,0 -57.72422,26.14781 -93.55306,26.14781 l -153.694325,0"
       id="path930"
       style="fill:#97def8;fill-opacity:1;fill-rule:nonzero;stroke:none" />
    <path
       d="m -8.420825,528.65646 -0.012875,-130.1445 856.85458,0 0,130.13157 -516.01535,0 c -34.73018,0 -49.94322,-26.17366 -93.57892,-26.17366 -43.62276,0 -57.78886,26.17366 -93.57891,26.17366 l -52.21807,0.0125 -101.450405,0"
       id="path932"
       style="fill:#95ddf8;fill-opacity:1;fill-rule:nonzero;stroke:none" />
    <path
       d="M -8.420825,528.56598 -8.4337,398.51196 l 856.85458,0 0,130.05402 -515.98949,0 c -34.67849,0 -49.94323,-26.21243 -93.60478,-26.21243 -43.66153,0 -57.86641,26.21243 -93.60476,26.21243 l -52.19222,0 -101.450405,0"
       id="path934"
       style="fill:#95ddf8;fill-opacity:1;fill-rule:nonzero;stroke:none" />
    <path
       d="M -8.420825,528.4755 -8.4337,398.51196 l 856.85458,0 0,129.96354 -515.96364,0 c -34.63971,0 -49.9303,-26.23829 -93.63063,-26.23829 -43.70031,0 -57.93103,26.23829 -93.61768,26.23829 l -52.1793,0 -101.450405,0"
       id="path936"
       style="fill:#93dcf8;fill-opacity:1;fill-rule:nonzero;stroke:none" />
    <path
       d="M -8.420825,528.39795 -8.4337,398.51196 l 856.85458,0 0,129.87306 -515.93779,0 c -34.60094,0 -49.91738,-26.26413 -93.65648,-26.26413 -43.72617,0 -57.99566,26.26413 -93.64353,26.26413 l -52.15345,0.0125 -101.450405,0"
       id="path938"
       style="fill:#93dcf8;fill-opacity:1;fill-rule:nonzero;stroke:none" />
    <path
       d="M -8.420825,528.30747 -8.4337,398.51196 l 856.85458,0 0,129.79551 -515.91194,0 c -34.54924,0 -49.91738,-26.30291 -93.68233,-26.30291 -43.76495,0 -58.06028,26.30291 -93.66938,26.30291 l -52.1276,0 -101.450405,0"
       id="path940"
       style="fill:#91dcf8;fill-opacity:1;fill-rule:nonzero;stroke:none" />
    <path
       d="M -8.420825,528.217 -8.4337,398.51196 l 856.85458,0 0,129.70504 -515.89902,0 c -34.49753,0 -49.89152,-26.32877 -93.69525,-26.32877 -43.80372,0 -58.12491,26.32877 -93.69523,26.32877 l -52.10175,0 -101.450405,0"
       id="path942"
       style="fill:#91dcf8;fill-opacity:1;fill-rule:nonzero;stroke:none" />
    <path
       d="M -8.420825,528.13945 -8.4337,398.51196 l 856.85458,0 0,129.62749 -515.87317,0 c -34.44583,0 -49.8786,-26.36754 -93.7211,-26.36754 -43.82957,0 -58.18953,26.36754 -93.72108,26.36754 l -153.526305,0"
       id="path944"
       style="fill:#8fdbf8;fill-opacity:1;fill-rule:nonzero;stroke:none" />
    <path
       d="M -8.420825,528.04897 -8.4337,398.51196 l 856.85458,0 0,129.53701 -515.84732,0 c -34.40706,0 -49.8786,-26.3934 -93.74695,-26.3934 -43.86835,0 -58.26708,26.3934 -93.74693,26.3934 l -52.05005,0 -101.450405,0"
       id="path946"
       style="fill:#8fdbf8;fill-opacity:1;fill-rule:nonzero;stroke:none" />
    <path
       d="M -8.420825,527.9585 -8.4337,398.51196 l 856.85458,0 0,129.44654 -515.82147,0 c -34.36828,0 -49.86567,-26.41925 -93.7728,-26.41925 -43.90712,0 -58.33171,26.41925 -93.7728,26.41925 l -52.02418,0 -101.450405,0"
       id="path948"
       style="fill:#8ddaf8;fill-opacity:1;fill-rule:nonzero;stroke:none" />
    <path
       d="M -8.420825,527.88093 -8.4337,398.51196 l 856.85458,0 0,129.36897 -515.79562,0 c -34.31657,0 -49.85275,-26.45801 -93.79865,-26.45801 -43.93297,0 -58.39635,26.45801 -93.79865,26.45801 l -51.99833,0 -101.450405,0"
       id="path950"
       style="fill:#8ddaf8;fill-opacity:1;fill-rule:nonzero;stroke:none" />
    <path
       d="m -8.420825,527.79046 -0.012875,-129.2785 856.85458,0 0,129.2785 -515.76977,0 c -34.2778,0 -49.83982,-26.48386 -93.8245,-26.48386 -43.97175,0 -58.46097,26.48386 -93.81157,26.48386 l -51.98541,0 -101.450405,0"
       id="path952"
       style="fill:#8bdaf8;fill-opacity:1;fill-rule:nonzero;stroke:none" />
    <path
       d="M -8.420825,527.69998 -8.4337,398.51196 l 856.85458,0 0,129.18802 -515.74392,0 c -34.23902,0 -49.83982,-26.50971 -93.85035,-26.50971 -44.01052,0 -58.5256,26.50971 -93.83742,26.50971 l -51.95956,0 -101.450405,0"
       id="path954"
       style="fill:#8bdaf8;fill-opacity:1;fill-rule:nonzero;stroke:none" />
    <path
       d="M -8.420825,527.62243 -8.4337,398.51196 l 856.85458,0 0,129.11047 -515.71807,0 c -34.18732,0 -49.8269,-26.54849 -93.8762,-26.54849 -44.0493,0 -58.60315,26.54849 -93.86327,26.54849 l -51.93371,0 -101.450405,0"
       id="path956"
       style="fill:#8ad9f8;fill-opacity:1;fill-rule:nonzero;stroke:none" />
    <path
       d="m -8.420825,527.53196 -0.012875,-129.02 856.85458,0 0,129.02 -515.70514,0 c -34.13563,0 -49.80105,-26.57435 -93.88913,-26.57435 -44.07515,0 -58.66777,26.57435 -93.88912,26.57435 l -51.90786,0 -101.450405,0"
       id="path958"
       style="fill:#8ad9f8;fill-opacity:1;fill-rule:nonzero;stroke:none" />
    <path
       d="M -8.420825,527.44148 -8.4337,398.51196 l 856.85458,0 0,128.92952 -515.67929,0 c -34.08393,0 -49.80105,-26.6002 -93.91498,-26.6002 -44.11392,0 -58.7324,26.6002 -93.91497,26.6002 l -51.88201,0 -101.450405,0"
       id="path960"
       style="fill:#88d9f8;fill-opacity:1;fill-rule:nonzero;stroke:none" />
    <path
       d="M -8.420825,527.36393 -8.4337,398.51196 l 856.85458,0 0,128.85197 -515.65344,0 c -34.04515,0 -49.78813,-26.63897 -93.94083,-26.63897 -44.1527,0 -58.79702,26.63897 -93.94082,26.63897 l -51.85616,0 -101.450405,0"
       id="path962"
       style="fill:#88d9f8;fill-opacity:1;fill-rule:nonzero;stroke:none" />
    <path
       d="M -8.420825,527.27345 -8.4337,398.51196 l 856.85458,0 0,128.76149 -515.62759,0 c -34.00638,0 -49.77519,-26.66482 -93.96668,-26.66482 -44.17855,0 -58.86165,26.66482 -93.96667,26.66482 l -153.280715,0"
       id="path964"
       style="fill:#86d8f7;fill-opacity:1;fill-rule:nonzero;stroke:none" />
    <path
       d="M -8.420825,527.18297 -8.4337,398.51196 l 856.85458,0 0,128.67101 -515.60174,0 c -33.95466,0 -49.77519,-26.69066 -93.99253,-26.69066 -44.21732,0 -58.9392,26.69066 -93.99252,26.69066 l -51.80446,0 -101.450405,0"
       id="path966"
       style="fill:#86d8f7;fill-opacity:1;fill-rule:nonzero;stroke:none" />
    <path
       d="M -8.420825,527.10542 -8.4337,398.51196 l 856.85458,0 0,128.58054 -515.57589,0 c -33.91589,0 -49.76226,-26.71653 -94.01838,-26.71653 -44.2561,0 -59.00383,26.71653 -94.00545,26.71653 l -51.79153,0.0125 -101.450405,0"
       id="path968"
       style="fill:#84d7f7;fill-opacity:1;fill-rule:nonzero;stroke:none" />
    <path
       d="M -8.420825,527.01495 -8.4337,398.51196 l 856.85458,0 0,128.50299 -515.55004,0 c -33.87711,0 -49.74934,-26.7553 -94.04423,-26.7553 -44.28195,0 -59.06846,26.7553 -94.0313,26.7553 l -153.216085,0"
       id="path970"
       style="fill:#84d7f7;fill-opacity:1;fill-rule:nonzero;stroke:none" />
    <path
       d="M -8.420825,526.92447 -8.4337,398.51196 l 856.85458,0 0,128.41251 -515.52419,0 c -33.82541,0 -49.74934,-26.78115 -94.07008,-26.78115 -44.32072,0 -59.13308,26.78115 -94.05715,26.78115 l -51.73983,0 -101.450405,0"
       id="path972"
       style="fill:#82d7f7;fill-opacity:1;fill-rule:nonzero;stroke:none" />
    <path
       d="M -8.420825,526.84692 -8.4337,398.51196 l 856.85458,0 0,128.33496 -515.51127,0 c -33.77371,0 -49.72348,-26.81992 -94.083,-26.81992 -44.35951,0 -59.19771,26.81992 -94.083,26.81992 l -51.71398,0 -101.450405,0"
       id="path974"
       style="fill:#82d7f7;fill-opacity:1;fill-rule:nonzero;stroke:none" />
    <path
       d="M -8.420825,526.75645 -8.4337,398.51196 l 856.85458,0 0,128.24449 -515.48542,0 c -33.72201,0 -49.71056,-26.84578 -94.10885,-26.84578 -44.38536,0 -59.26233,26.84578 -94.10885,26.84578 l -51.68813,0 -101.450405,0"
       id="path976"
       style="fill:#80d6f7;fill-opacity:1;fill-rule:nonzero;stroke:none" />
    <path
       d="m -8.420825,526.66596 -0.012875,-128.154 856.85458,0 0,128.154 -515.45957,0 c -33.68323,0 -49.69763,-26.87163 -94.1347,-26.87163 -44.42413,0 -59.33988,26.87163 -94.1347,26.87163 l -51.66228,0 -101.450405,0"
       id="path978"
       style="fill:#80d6f7;fill-opacity:1;fill-rule:nonzero;stroke:none" />
    <path
       d="M -8.420825,526.58841 -8.4337,398.51196 l 856.85458,0 0,128.07645 -515.43372,0 c -33.64446,0 -49.69763,-26.9104 -94.16055,-26.9104 -44.46291,0 -59.40451,26.9104 -94.16055,26.9104 l -51.63643,0 -101.450405,0"
       id="path980"
       style="fill:#7ed6f7;fill-opacity:1;fill-rule:nonzero;stroke:none" />
    <path
       d="M -8.420825,526.49793 -8.4337,398.51196 l 856.85458,0 0,127.98597 -515.40787,0 c -33.59276,0 -49.68471,-26.93625 -94.1864,-26.93625 -44.50168,0 -59.46913,26.93625 -94.1864,26.93625 l -51.61058,0 -101.450405,0"
       id="path982"
       style="fill:#7ed6f7;fill-opacity:1;fill-rule:nonzero;stroke:none" />
    <path
       d="m -8.420825,526.40746 -0.012875,-127.8955 856.85458,0 0,127.8955 -515.382,0 c -33.55399,0 -49.6718,-26.9621 -94.21227,-26.9621 -44.52753,0 -59.53376,26.9621 -94.19932,26.9621 l -153.048065,0"
       id="path984"
       style="fill:#7cd5f7;fill-opacity:1;fill-rule:nonzero;stroke:none" />
    <path
       d="M -8.420825,526.32991 -8.4337,398.51196 l 856.85458,0 0,127.81795 -515.35615,0 c -33.51522,0 -49.6718,-27.00088 -94.23812,-27.00088 -44.56631,0 -59.5984,27.00088 -94.22517,27.00088 l -51.57181,0 -101.450405,0"
       id="path986"
       style="fill:#7cd5f7;fill-opacity:1;fill-rule:nonzero;stroke:none" />
    <path
       d="M -8.420825,526.23943 -8.4337,398.51196 l 856.85458,0 0,127.72747 -515.34323,0 c -33.45059,0 -49.64595,-27.02673 -94.25104,-27.02673 -44.60508,0 -59.67595,27.02673 -94.25102,27.02673 l -51.54596,0 -101.450405,0"
       id="path988"
       style="fill:#7ad4f7;fill-opacity:1;fill-rule:nonzero;stroke:none" />
    <path
       d="m -8.420825,526.14896 -0.012875,-127.637 856.85458,0 0,127.637 -515.31738,0 c -33.41181,0 -49.63302,-27.05259 -94.27689,-27.05259 -44.63093,0 -59.74057,27.05259 -94.27687,27.05259 l -152.970515,0"
       id="path990"
       style="fill:#7ad4f7;fill-opacity:1;fill-rule:nonzero;stroke:none" />
    <path
       d="M -8.420825,526.0714 -8.4337,398.51196 l 856.85458,0 0,127.55944 -515.29153,0 c -33.36011,0 -49.63302,-27.09135 -94.30274,-27.09135 -44.66971,0 -59.8052,27.09135 -94.30272,27.09135 l -51.49426,0 -101.450405,0"
       id="path992"
       style="fill:#78d4f7;fill-opacity:1;fill-rule:nonzero;stroke:none" />
    <path
       d="M -8.420825,525.98092 -8.4337,398.51196 l 856.85458,0 0,127.46896 -515.26568,0 c -33.32134,0 -49.6201,-27.1172 -94.32859,-27.1172 -44.70848,0 -59.86982,27.1172 -94.32857,27.1172 l -51.46841,0 -101.450405,0"
       id="path994"
       style="fill:#78d4f7;fill-opacity:1;fill-rule:nonzero;stroke:none" />
    <path
       d="M -8.420825,525.89045 -8.4337,398.51196 l 856.85458,0 0,127.37849 -515.23983,0 c -33.28256,0 -49.60717,-27.14305 -94.35444,-27.14305 -44.73433,0 -59.93445,27.14305 -94.35442,27.14305 l -152.892965,0"
       id="path996"
       style="fill:#76d3f6;fill-opacity:1;fill-rule:nonzero;stroke:none" />
    <path
       d="M -8.420825,525.8129 -8.4337,398.51196 l 856.85458,0 0,127.28801 -515.21398,0 c -33.23086,0 -49.60716,-27.16891 -94.38029,-27.16891 -44.77311,0 -60.012,27.16891 -94.36735,27.16891 l -51.42963,0.0125 -101.450405,0"
       id="path998"
       style="fill:#76d3f6;fill-opacity:1;fill-rule:nonzero;stroke:none" />
    <path
       d="M -8.420825,525.72242 -8.4337,398.51196 l 856.85458,0 0,127.21046 -515.18813,0 c -33.19209,0 -49.59424,-27.20769 -94.40614,-27.20769 -44.81188,0 -60.07662,27.20769 -94.39321,27.20769 l -152.854175,0"
       id="path1000"
       style="fill:#73d2f6;fill-opacity:1;fill-rule:nonzero;stroke:none" />
    <path
       d="M -8.420825,525.63195 -8.4337,398.51196 l 856.85458,0 0,127.11999 -515.16228,0 c -33.1533,0 -49.58131,-27.23354 -94.43199,-27.23354 -44.83773,0 -60.14125,27.23354 -94.41906,27.23354 l -51.37792,0 -101.450405,0"
       id="path1002"
       style="fill:#73d2f6;fill-opacity:1;fill-rule:nonzero;stroke:none" />
    <path
       d="M -8.420825,525.5544 -8.4337,398.51196 l 856.85458,0 0,127.04244 -515.14935,0 c -33.08868,0 -49.55547,-27.27231 -94.44492,-27.27231 -44.87651,0 -60.20588,27.27231 -94.44491,27.27231 l -51.35207,0 -101.450405,0"
       id="path1004"
       style="fill:#72d2f6;fill-opacity:1;fill-rule:nonzero;stroke:none" />
    <path
       d="M -8.420825,525.46391 -8.4337,398.51196 l 856.85458,0 0,126.95195 -515.1235,0 c -33.0499,0 -49.55547,-27.29815 -94.47077,-27.29815 -44.91528,0 -60.27051,27.29815 -94.47076,27.29815 l -152.776625,0"
       id="path1006"
       style="fill:#72d2f6;fill-opacity:1;fill-rule:nonzero;stroke:none" />
    <path
       d="M -8.420825,525.37343 -8.4337,398.51196 l 856.85458,0 0,126.86147 -515.09765,0 c -32.9982,0 -49.54254,-27.32399 -94.49662,-27.32399 -44.94113,0 -60.33513,27.32399 -94.49661,27.32399 l -51.30037,0 -101.450405,0"
       id="path1008"
       style="fill:#70d1f6;fill-opacity:1;fill-rule:nonzero;stroke:none" />
    <path
       d="M -8.420825,525.29588 -8.4337,398.51196 l 856.85458,0 0,126.78392 -515.0718,0 c -32.95943,0 -49.52962,-27.36278 -94.52247,-27.36278 -44.97992,0 -60.41268,27.36278 -94.52246,27.36278 l -152.724925,0"
       id="path1010"
       style="fill:#70d1f6;fill-opacity:1;fill-rule:nonzero;stroke:none" />
    <path
       d="M -8.420825,525.20541 -8.4337,398.51196 l 856.85458,0 0,126.69345 -515.04595,0 c -32.92065,0 -49.52962,-27.37571 -94.54832,-27.37571 -45.0187,0 -60.47731,27.37571 -94.54831,27.37571 l -51.24867,0 -101.450405,0"
       id="path1012"
       style="fill:#6ed0f6;fill-opacity:1;fill-rule:nonzero;stroke:none" />
    <path
       d="M -8.420825,525.11493 -8.4337,398.51196 l 856.85458,0 0,126.60297 -515.0201,0 c -32.86895,0 -49.51669,-27.40156 -94.57417,-27.40156 -45.05747,0 -60.54193,27.40156 -94.56123,27.40156 l -51.23575,0 -101.450405,0"
       id="path1014"
       style="fill:#6ed0f6;fill-opacity:1;fill-rule:nonzero;stroke:none" />
    <path
       d="M -8.420825,525.03738 -8.4337,398.51196 l 856.85458,0 0,126.52542 -514.99425,0 c -32.83018,0 -49.50377,-27.44033 -94.60002,-27.44033 -45.08332,0 -60.60656,27.44033 -94.58708,27.44033 l -152.660305,0"
       id="path1016"
       style="fill:#6cd0f6;fill-opacity:1;fill-rule:nonzero;stroke:none" />
    <path
       d="M -8.420825,524.94691 -8.4337,398.51196 l 856.85458,0 0,126.43495 -514.9684,0 c -32.7914,0 -49.50377,-27.46619 -94.62587,-27.46619 -45.1221,0 -60.67118,27.46619 -94.61293,27.46619 l -51.18405,0 -101.450405,0"
       id="path1018"
       style="fill:#6cd0f6;fill-opacity:1;fill-rule:nonzero;stroke:none" />
    <path
       d="M -8.420825,524.85642 -8.4337,398.51196 l 856.85458,0 0,126.34446 -514.95548,0 c -32.72676,0 -49.47791,-27.49203 -94.63879,-27.49203 -45.16087,0 -60.74873,27.49203 -94.63878,27.49203 l -51.1582,0 -101.450405,0"
       id="path1020"
       style="fill:#6acff6;fill-opacity:1;fill-rule:nonzero;stroke:none" />
    <path
       d="M -8.420825,524.77887 -8.4337,398.51196 l 856.85458,0 0,126.26691 -514.92963,0 c -32.68799,0 -49.46499,-27.53081 -94.66464,-27.53081 -45.18672,0 -60.81337,27.53081 -94.66463,27.53081 l -51.13235,0 -101.450405,0"
       id="path1022"
       style="fill:#6acff6;fill-opacity:1;fill-rule:nonzero;stroke:none" />
    <path
       d="M -8.420825,524.6884 -8.4337,398.51196 l 856.85458,0 0,126.17644 -514.90378,0 c -32.63629,0 -49.46499,-27.55666 -94.69049,-27.55666 -45.2255,0 -60.878,27.55666 -94.69048,27.55666 l -51.1065,0 -101.450405,0"
       id="path1024"
       style="fill:#68cef6;fill-opacity:1;fill-rule:nonzero;stroke:none" />
    <path
       d="M -8.420825,524.59792 -8.4337,398.51196 l 856.85458,0 0,126.08596 -514.87793,0 c -32.59751,0 -49.45206,-27.58251 -94.71634,-27.58251 -45.26427,0 -60.94262,27.58251 -94.71633,27.58251 l -152.531055,0"
       id="path1026"
       style="fill:#68cef6;fill-opacity:1;fill-rule:nonzero;stroke:none" />
    <path
       d="M -8.420825,524.52037 -8.4337,398.51196 l 856.85458,0 0,126.00841 -514.85208,0 c -32.55874,0 -49.43914,-27.62128 -94.74219,-27.62128 -45.29012,0 -61.00725,27.62128 -94.74218,27.62128 l -51.0548,0 -101.450405,0"
       id="path1028"
       style="fill:#66cef5;fill-opacity:1;fill-rule:nonzero;stroke:none" />
    <path
       d="M -8.420825,524.4299 -8.4337,398.51196 l 856.85458,0 0,125.91794 -514.82623,0 c -32.50704,0 -49.42621,-27.64715 -94.76804,-27.64715 -45.3289,0 -61.07187,27.64715 -94.75511,27.64715 l -51.04187,0 -101.450405,0"
       id="path1030"
       style="fill:#66cef5;fill-opacity:1;fill-rule:nonzero;stroke:none" />
    <path
       d="M -8.420825,524.33942 -8.4337,398.51196 l 856.85458,0 0,125.82746 -514.80038,0 c -32.46826,0 -49.42621,-27.673 -94.79389,-27.673 -45.36767,0 -61.14942,27.673 -94.78096,27.673 l -152.466425,0"
       id="path1032"
       style="fill:#64cdf5;fill-opacity:1;fill-rule:nonzero;stroke:none" />
    <path
       d="m -8.420825,524.26186 -0.012875,-125.7499 856.85458,0 0,125.73697 -514.77452,0 c -32.4295,0 -49.41328,-27.69883 -94.81975,-27.69883 -45.39352,0 -61.21405,27.69883 -94.80681,27.69883 l -50.99017,0.0129 -101.450405,0"
       id="path1034"
       style="fill:#64cdf5;fill-opacity:1;fill-rule:nonzero;stroke:none" />
    <path
       d="M -8.420825,524.17138 -8.4337,398.51196 l 856.85458,0 0,125.65942 -514.76159,0 c -32.36488,0 -49.38744,-27.73761 -94.83268,-27.73761 -45.4323,0 -61.27867,27.73761 -94.83266,27.73761 l -152.414725,0"
       id="path1036"
       style="fill:#62cdf5;fill-opacity:1;fill-rule:nonzero;stroke:none" />
    <path
       d="M -8.420825,524.08091 -8.4337,398.51196 l 856.85458,0 0,125.56895 -514.73574,0 c -32.32609,0 -49.38744,-27.76346 -94.85853,-27.76346 -45.47107,0 -61.3433,27.76346 -94.85851,27.76346 l -50.93847,0 -101.450405,0"
       id="path1038"
       style="fill:#62cdf5;fill-opacity:1;fill-rule:nonzero;stroke:none" />
    <path
       d="m -8.420825,524.00336 -0.012875,-125.4914 856.85458,0 0,125.4914 -514.70989,0 c -32.27439,0 -49.37451,-27.80225 -94.88438,-27.80225 -45.50985,0 -61.40792,27.80225 -94.88436,27.80225 l -50.91262,0 -101.450405,0"
       id="path1040"
       style="fill:#60ccf5;fill-opacity:1;fill-rule:nonzero;stroke:none" />
    <path
       d="M -8.420825,523.91288 -8.4337,398.51196 l 856.85458,0 0,125.40092 -514.68404,0 c -32.23561,0 -49.36159,-27.82809 -94.91023,-27.82809 -45.5357,0 -61.48548,27.82809 -94.91021,27.82809 l -152.337175,0"
       id="path1042"
       style="fill:#60ccf5;fill-opacity:1;fill-rule:nonzero;stroke:none" />
    <path
       d="M -8.420825,523.82241 -8.4337,398.51196 l 856.85458,0 0,125.31045 -514.65819,0 c -32.19684,0 -49.36159,-27.85395 -94.93608,-27.85395 -45.57448,0 -61.55011,27.85395 -94.93606,27.85395 l -50.86092,0 -101.450405,0"
       id="path1044"
       style="fill:#5ecbf5;fill-opacity:1;fill-rule:nonzero;stroke:none" />
    <path
       d="m -8.420825,523.74486 -0.012875,-125.2329 856.85458,0 0,125.2329 -514.63234,0 c -32.14514,0 -49.34866,-27.89272 -94.96193,-27.89272 -45.61326,0 -61.61473,27.89272 -94.94898,27.89272 l -50.848,0 -101.450405,0"
       id="path1046"
       style="fill:#5ecbf5;fill-opacity:1;fill-rule:nonzero;stroke:none" />
    <path
       d="M -8.420825,523.65437 -8.4337,398.51196 l 856.85458,0 0,125.14241 -514.60649,0 c -32.10636,0 -49.33574,-27.91856 -94.98778,-27.91856 -45.63911,0 -61.67936,27.91856 -94.97483,27.91856 l -50.82215,0 -101.450405,0"
       id="path1048"
       style="fill:#5ccbf5;fill-opacity:1;fill-rule:nonzero;stroke:none" />
    <path
       d="m -8.43375,523.5639 0,-125.05194 856.85458,0 0,125.05194 -514.59357,0 c -32.05466,0 -49.32281,-27.94441 -95.0007,-27.94441 -45.67788,0 -61.74399,27.94441 -95.0007,27.94441 l -50.79628,0 -101.46333,0"
       id="path1050"
       style="fill:#5ccbf5;fill-opacity:1;fill-rule:nonzero;stroke:none" />
    <path
       d="m -8.43375,523.48635 0,-124.97439 856.85458,0 0,124.97439 -514.56772,0 c -32.00296,0 -49.30989,-27.9832 -95.02655,-27.9832 -45.71666,0 -61.82154,27.9832 -95.02655,27.9832 l -152.23376,0"
       id="path1052"
       style="fill:#5acaf5;fill-opacity:1;fill-rule:nonzero;stroke:none" />
    <path
       d="m -8.43375,523.39587 0,-124.88391 856.85458,0 0,124.88391 -514.54187,0 c -31.96417,0 -49.29696,-28.00905 -95.0524,-28.00905 -45.74251,0 -61.88616,28.00905 -95.0524,28.00905 l -50.74458,0 -101.46333,0"
       id="path1054"
       style="fill:#5acaf5;fill-opacity:1;fill-rule:nonzero;stroke:none" />
    <path
       d="m -8.43375,523.3054 0,-124.79344 856.85458,0 0,124.79344 -514.51602,0 c -31.91247,0 -49.28404,-28.0349 -95.07825,-28.0349 -45.78129,0 -61.95079,28.0349 -95.07825,28.0349 l -152.18206,0"
       id="path1056"
       style="fill:#58c9f5;fill-opacity:1;fill-rule:nonzero;stroke:none" />
    <path
       d="m -8.43375,523.22785 0,-124.71589 856.85458,0 0,124.71589 -514.49017,0 c -31.8737,0 -49.28404,-28.07368 -95.1041,-28.07368 -45.82006,0 -62.01541,28.07368 -95.1041,28.07368 l -50.69288,0 -101.46333,0"
       id="path1058"
       style="fill:#58c9f5;fill-opacity:1;fill-rule:nonzero;stroke:none" />
    <path
       d="m -8.43375,523.13737 0,-124.62541 856.85458,0 0,124.62541 -514.46432,0 c -31.83492,0 -49.27111,-28.09952 -95.12995,-28.09952 -45.84591,0 -62.08005,28.09952 -95.12995,28.09952 l -50.66704,0 -101.46332,0"
       id="path1060"
       style="fill:#56c9f4;fill-opacity:1;fill-rule:nonzero;stroke:none" />
    <path
       d="m -8.43375,523.04688 0,-124.53492 856.85458,0 0,124.53492 -514.43847,0 c -31.78322,0 -49.25818,-28.12537 -95.1558,-28.12537 -45.88468,0 -62.14467,28.12537 -95.14287,28.12537 l -152.11744,0"
       id="path1062"
       style="fill:#56c9f4;fill-opacity:1;fill-rule:nonzero;stroke:none" />
    <path
       d="m -8.43375,522.96933 0,-124.45737 856.85458,0 0,124.45737 -514.41262,0 c -31.74445,0 -49.25818,-28.16414 -95.18165,-28.16414 -45.92346,0 -62.22222,28.16414 -95.16872,28.16414 l -50.62826,0 -101.46333,0"
       id="path1064"
       style="fill:#54c8f4;fill-opacity:1;fill-rule:nonzero;stroke:none" />
    <path
       d="m -8.43375,522.87886 0,-124.3669 856.85458,0 0,124.3669 -514.39969,0 c -31.69275,0 -49.23234,-28.19 -95.19458,-28.19 -45.96223,0 -62.28685,28.19 -95.19457,28.19 l -152.06574,0"
       id="path1066"
       style="fill:#54c8f4;fill-opacity:1;fill-rule:nonzero;stroke:none" />
    <path
       d="m -8.43375,522.78838 0,-124.27642 856.85458,0 0,124.27642 -514.37384,0 c -31.64105,0 -49.2194,-28.21584 -95.22043,-28.21584 -45.98809,0 -62.35147,28.21584 -95.22042,28.21584 l -152.03989,0"
       id="path1068"
       style="fill:#53c8f4;fill-opacity:1;fill-rule:nonzero;stroke:none" />
    <path
       d="m -8.43375,522.71083 0,-124.19887 856.85458,0 0,124.18595 -514.34799,0 c -31.60228,0 -49.2194,-28.2417 -95.24628,-28.2417 -46.02686,0 -62.4161,28.2417 -95.24627,28.2417 l -50.55071,0.0129 -101.46333,0"
       id="path1070"
       style="fill:#53c8f4;fill-opacity:1;fill-rule:nonzero;stroke:none" />
    <path
       d="m -8.43375,522.62036 0,-124.1084 856.85458,0 0,124.1084 -514.32214,0 c -31.55057,0 -49.20648,-28.28049 -95.27213,-28.28049 -46.06563,0 -62.48072,28.28049 -95.27212,28.28049 l -50.52486,0 -101.46333,0"
       id="path1072"
       style="fill:#51c7f4;fill-opacity:1;fill-rule:nonzero;stroke:none" />
    <path
       d="m -8.43375,522.52988 0,-124.01792 856.85458,0 0,124.01792 -514.29629,0 c -31.51179,0 -49.19355,-28.30633 -95.29798,-28.30633 -46.09149,0 -62.55827,28.30633 -95.29797,28.30633 l -50.49901,0 -101.46333,0"
       id="path1074"
       style="fill:#51c7f4;fill-opacity:1;fill-rule:nonzero;stroke:none" />
    <path
       d="m -8.43375,522.45232 0,-123.94036 856.85458,0 0,123.94036 -514.27044,0 c -31.47301,0 -49.19355,-28.3451 -95.32383,-28.3451 -46.13026,0 -62.6229,28.3451 -95.3109,28.3451 l -151.94941,0"
       id="path1076"
       style="fill:#4fc6f4;fill-opacity:1;fill-rule:nonzero;stroke:none" />
    <path
       d="m -8.43375,522.36185 0,-123.84989 856.85458,0 0,123.84989 -514.24459,0 c -31.42131,0 -49.18063,-28.37095 -95.34968,-28.37095 -46.16905,0 -62.68754,28.37095 -95.33675,28.37095 l -50.46024,0 -101.46332,0"
       id="path1078"
       style="fill:#4fc6f4;fill-opacity:1;fill-rule:nonzero;stroke:none" />
    <path
       d="m -8.43375,522.27137 0,-123.75941 856.85458,0 0,123.75941 -514.21874,0 c -31.38254,0 -49.1677,-28.3968 -95.37553,-28.3968 -46.1949,0 -62.75216,28.3968 -95.3626,28.3968 l -50.43439,0 -101.46332,0"
       id="path1080"
       style="fill:#4dc6f4;fill-opacity:1;fill-rule:nonzero;stroke:none" />
    <path
       d="m -8.43375,522.19382 0,-123.68186 856.85458,0 0,123.68186 -514.20582,0 c -31.31791,0 -49.14185,-28.43558 -95.38845,-28.43558 -46.23367,0 -62.81678,28.43558 -95.38845,28.43558 l -151.87186,0"
       id="path1082"
       style="fill:#4dc6f4;fill-opacity:1;fill-rule:nonzero;stroke:none" />
    <path
       d="m -8.43375,522.10335 0,-123.59139 856.85458,0 0,123.59139 -514.17997,0 c -31.27914,0 -49.14185,-28.46144 -95.4143,-28.46144 -46.27245,0 -62.89433,28.46144 -95.4143,28.46144 l -151.84601,0"
       id="path1084"
       style="fill:#4bc5f4;fill-opacity:1;fill-rule:nonzero;stroke:none" />
    <path
       d="m -8.43375,522.01287 0,-123.50091 856.85458,0 0,123.50091 -514.15411,0 c -31.24037,0 -49.12893,-28.48728 -95.44016,-28.48728 -46.2983,0 -62.95896,28.48728 -95.44015,28.48728 l -50.35683,0 -101.46333,0"
       id="path1086"
       style="fill:#4bc5f4;fill-opacity:1;fill-rule:nonzero;stroke:none" />
    <path
       d="m -8.43375,521.93532 0,-123.42336 856.85458,0 0,123.42336 -514.12825,0 c -31.18868,0 -49.11602,-28.52606 -95.46602,-28.52606 -46.33707,0 -63.02358,28.52606 -95.466,28.52606 l -151.79431,0"
       id="path1088"
       style="fill:#49c4f4;fill-opacity:1;fill-rule:nonzero;stroke:none" />
    <path
       d="m -8.43375,521.84483 0,-123.33287 856.85458,0 0,123.33287 -514.1024,0 c -31.14989,0 -49.11602,-28.55189 -95.49187,-28.55189 -46.37585,0 -63.08821,28.55189 -95.49185,28.55189 l -50.30513,0 -101.46333,0"
       id="path1090"
       style="fill:#49c4f4;fill-opacity:1;fill-rule:nonzero;stroke:none" />
    <path
       d="m -8.43375,521.75436 0,-123.2424 856.85458,0 0,123.2424 -514.07655,0 c -31.11112,0 -49.10309,-28.57775 -95.51772,-28.57775 -46.41462,0 -63.15283,28.57775 -95.50477,28.57775 l -151.75554,0"
       id="path1092"
       style="fill:#47c4f3;fill-opacity:1;fill-rule:nonzero;stroke:none" />
    <path
       d="m -8.43375,521.67681 0,-123.16485 856.85458,0 0,123.16485 -514.05071,0 c -31.05941,0 -49.09016,-28.61654 -95.54356,-28.61654 -46.44047,0 -63.21746,28.61654 -95.53062,28.61654 l -151.72969,0"
       id="path1094"
       style="fill:#47c4f3;fill-opacity:1;fill-rule:nonzero;stroke:none" />
    <path
       d="m -8.43375,521.58633 0,-123.07437 856.85458,0 0,123.07437 -514.02485,0 c -31.02064,0 -49.09017,-28.64238 -95.56942,-28.64238 -46.47925,0 -63.29502,28.64238 -95.55647,28.64238 l -50.24051,0 -101.46333,0"
       id="path1096"
       style="fill:#45c3f3;fill-opacity:1;fill-rule:nonzero;stroke:none" />
    <path
       d="m -8.43375,521.49586 0,-122.9839 856.85458,0 0,122.9839 -514.01193,0 c -30.95601,0 -49.06431,-28.66824 -95.58234,-28.66824 -46.51802,0 -63.35965,28.66824 -95.58232,28.66824 l -151.67799,0"
       id="path1098"
       style="fill:#45c3f3;fill-opacity:1;fill-rule:nonzero;stroke:none" />
    <path
       d="m -8.43375,521.41831 0,-122.90635 856.85458,0 0,122.90635 -513.98608,0 c -30.91724,0 -49.05139,-28.70701 -95.60819,-28.70701 -46.54387,0 -63.42427,28.70701 -95.60818,28.70701 l -50.1888,0 -101.46333,0"
       id="path1100"
       style="fill:#43c3f3;fill-opacity:1;fill-rule:nonzero;stroke:none" />
    <path
       d="m -8.43375,521.32783 0,-122.81587 856.85458,0 0,122.81587 -513.96023,0 c -30.87846,0 -49.05139,-28.73286 -95.63404,-28.73286 -46.58265,0 -63.4889,28.73286 -95.63403,28.73286 l -151.62628,0"
       id="path1102"
       style="fill:#43c3f3;fill-opacity:1;fill-rule:nonzero;stroke:none" />
    <path
       d="m -8.43375,521.23735 0,-122.72539 856.85458,0 0,122.72539 -513.93438,0 c -30.82676,0 -49.03845,-28.75871 -95.65989,-28.75871 -46.62142,0 -63.55352,28.75871 -95.65989,28.75871 l -151.60042,0"
       id="path1104"
       style="fill:#41c2f3;fill-opacity:1;fill-rule:nonzero;stroke:none" />
    <path
       d="m -8.43375,521.1598 0,-122.64784 856.85458,0 0,122.64784 -513.90853,0 c -30.78799,0 -49.02553,-28.79749 -95.68574,-28.79749 -46.64727,0 -63.63107,28.79749 -95.68573,28.79749 l -151.57458,0"
       id="path1106"
       style="fill:#41c2f3;fill-opacity:1;fill-rule:nonzero;stroke:none" />
    <path
       d="m -8.43375,521.06932 0,-122.55736 856.85458,0 0,122.55736 -513.88268,0 c -30.7492,0 -49.0126,-28.82333 -95.71159,-28.82333 -46.68605,0 -63.6957,28.82333 -95.69866,28.82333 l -151.56165,0"
       id="path1108"
       style="fill:#3fc1f3;fill-opacity:1;fill-rule:nonzero;stroke:none" />
    <path
       d="m -8.43375,520.97885 0,-122.46689 856.85458,0 0,122.46689 -513.85683,0 c -30.6975,0 -49.0126,-28.84919 -95.73744,-28.84919 -46.72482,0 -63.76032,28.84919 -95.72451,28.84919 l -151.5358,0"
       id="path1110"
       style="fill:#3fc1f3;fill-opacity:1;fill-rule:nonzero;stroke:none" />
    <path
       d="m -8.43375,520.9013 0,-122.38934 856.85458,0 0,122.38934 -513.83098,0 c -30.65872,0 -48.99967,-28.88796 -95.76329,-28.88796 -46.75067,0 -63.82495,28.88796 -95.75036,28.88796 l -151.50995,0"
       id="path1112"
       style="fill:#3dc1f3;fill-opacity:1;fill-rule:nonzero;stroke:none" />
    <path
       d="m -8.43375,520.81082 0,-122.29886 856.85458,0 0,122.29886 -513.81805,0 c -30.5941,0 -48.97383,-28.91382 -95.77622,-28.91382 -46.78946,0 -63.88958,28.91382 -95.77621,28.91382 l -50.02077,0 -101.46333,0"
       id="path1114"
       style="fill:#3dc1f3;fill-opacity:1;fill-rule:nonzero;stroke:none" />
    <path
       d="m -8.43375,520.72035 0,-122.20839 856.85458,0 0,122.20839 -513.7922,0 c -30.55533,0 -48.97383,-28.93968 -95.80207,-28.93968 -46.82823,0 -63.96713,28.93968 -95.80206,28.93968 l -151.45825,0"
       id="path1116"
       style="fill:#3bc0f3;fill-opacity:1;fill-rule:nonzero;stroke:none" />
    <path
       d="m -8.43375,520.6428 0,-122.13084 856.85458,0 0,122.13084 -513.76635,0 c -30.51655,0 -48.9609,-28.97845 -95.82792,-28.97845 -46.86701,0 -64.03176,28.97845 -95.82791,28.97845 l -49.96907,0 -101.46333,0"
       id="path1118"
       style="fill:#3bc0f3;fill-opacity:1;fill-rule:nonzero;stroke:none" />
    <path
       d="m -8.43375,520.55231 0,-122.04035 856.85458,0 0,122.04035 -513.7405,0 c -30.46485,0 -48.94798,-29.00429 -95.85377,-29.00429 -46.89286,0 -64.09638,29.00429 -95.85376,29.00429 l -49.94322,0 -101.46333,0"
       id="path1120"
       style="fill:#39bff3;fill-opacity:1;fill-rule:nonzero;stroke:none" />
    <path
       d="m -8.43375,520.46183 0,-121.94987 856.85458,0 0,121.94987 -513.71466,0 c -30.42607,0 -48.94797,-29.03013 -95.87961,-29.03013 -46.93163,0 -64.16101,29.03013 -95.87961,29.03013 l -151.3807,0"
       id="path1122"
       style="fill:#39bff3;fill-opacity:1;fill-rule:nonzero;stroke:none" />
    <path
       d="m -8.43375,520.38428 0,-121.87232 856.85458,0 0,121.87232 -513.6888,0 c -30.3873,0 -48.93505,-29.06892 -95.90547,-29.06892 -46.97041,0 -64.22563,29.06892 -95.89253,29.06892 l -151.36778,0"
       id="path1124"
       style="fill:#37bff2;fill-opacity:1;fill-rule:nonzero;stroke:none" />
    <path
       d="m -8.43375,520.29381 0,-121.78185 856.85458,0 0,121.78185 -513.66295,0 c -30.33559,0 -48.92213,-29.09477 -95.93132,-29.09477 -46.99626,0 -64.29026,29.09477 -95.91839,29.09477 l -49.87859,0 -101.46333,0"
       id="path1126"
       style="fill:#37bff2;fill-opacity:1;fill-rule:nonzero;stroke:none" />
    <path
       d="m -8.43375,520.20333 0,-121.69137 856.85458,0 0,121.69137 -513.6371,0 c -30.29682,0 -48.92213,-29.12062 -95.95717,-29.12062 -47.03504,0 -64.36781,29.12062 -95.94424,29.12062 l -151.31607,0"
       id="path1128"
       style="fill:#35bef2;fill-opacity:1;fill-rule:nonzero;stroke:none" />
    <path
       d="m -8.43375,520.12578 0,-121.61382 856.85458,0 0,121.61382 -513.62418,0 c -30.23219,0 -48.89627,-29.15939 -95.97009,-29.15939 -47.07381,0 -64.43244,29.15939 -95.97008,29.15939 l -49.8269,0 -101.46333,0"
       id="path1130"
       style="fill:#35bef2;fill-opacity:1;fill-rule:nonzero;stroke:none" />
    <path
       d="m -8.43375,520.03531 0,-121.52335 856.85458,0 0,121.52335 -513.59833,0 c -30.19341,0 -48.88335,-29.18525 -95.99594,-29.18525 -47.09966,0 -64.49707,29.18525 -95.99594,29.18525 l -151.26437,0"
       id="path1132"
       style="fill:#33bdf2;fill-opacity:1;fill-rule:nonzero;stroke:none" />
    <path
       d="m -8.43375,519.94482 0,-121.43286 856.85458,0 0,121.43286 -513.57248,0 c -30.15464,0 -48.87042,-29.21108 -96.02179,-29.21108 -47.13844,0 -64.5617,29.21108 -96.02178,29.21108 l -151.23853,0"
       id="path1134"
       style="fill:#33bdf2;fill-opacity:1;fill-rule:nonzero;stroke:none" />
    <path
       d="m -8.43375,519.86727 0,-121.35531 856.85458,0 0,121.35531 -513.54662,0 c -30.10295,0 -48.87043,-29.24987 -96.04765,-29.24987 -47.17721,0 -64.62632,29.24987 -96.04764,29.24987 l -151.21267,0"
       id="path1136"
       style="fill:#31bdf2;fill-opacity:1;fill-rule:nonzero;stroke:none" />
    <path
       d="m -8.43375,519.7768 0,-121.26484 856.85458,0 0,121.26484 -513.52077,0 c -30.06417,0 -48.8575,-29.27573 -96.0735,-29.27573 -47.20306,0 -64.70387,29.27573 -96.06056,29.27573 l -151.19975,0"
       id="path1138"
       style="fill:#31bdf2;fill-opacity:1;fill-rule:nonzero;stroke:none" />
    <path
       d="m -8.43375,519.68632 0,-121.17436 856.85458,0 0,121.17436 -513.49492,0 c -30.0254,0 -48.84457,-29.30157 -96.09935,-29.30157 -47.24183,0 -64.7685,29.30157 -96.08641,29.30157 l -49.71057,0 -101.46333,0"
       id="path1140"
       style="fill:#2fbcf2;fill-opacity:1;fill-rule:nonzero;stroke:none" />
    <path
       d="m -8.43375,519.60877 0,-121.09681 856.85458,0 0,121.09681 -513.46907,0 c -29.97368,0 -48.84457,-29.34035 -96.1252,-29.34035 -47.28061,0 -64.83312,29.34035 -96.11226,29.34035 l -49.68472,0 -101.46333,0"
       id="path1142"
       style="fill:#2fbcf2;fill-opacity:1;fill-rule:nonzero;stroke:none" />
    <path
       d="m -8.43375,519.5183 0,-121.00634 856.85458,0 0,121.00634 -513.45614,0 c -29.92199,0 -48.81873,-29.3662 -96.13813,-29.3662 -47.30646,0 -64.89775,29.3662 -96.13811,29.3662 l -151.1222,0"
       id="path1144"
       style="fill:#2dbbf2;fill-opacity:1;fill-rule:nonzero;stroke:none" />
    <path
       d="m -8.43375,519.42782 0,-120.91586 856.85458,0 0,120.91586 -513.43029,0 c -29.87029,0 -48.8058,-29.39206 -96.16398,-29.39206 -47.34524,0 -64.96237,29.39206 -96.16396,29.39206 l -151.09635,0"
       id="path1146"
       style="fill:#2dbbf2;fill-opacity:1;fill-rule:nonzero;stroke:none" />
    <path
       d="m -8.43375,519.35026 0,-120.8383 856.85458,0 0,120.8383 -513.40444,0 c -29.83151,0 -48.8058,-29.43082 -96.18983,-29.43082 -47.38401,0 -65.027,29.43082 -96.18981,29.43082 l -151.0705,0"
       id="path1148"
       style="fill:#2bbbf2;fill-opacity:1;fill-rule:nonzero;stroke:none" />
    <path
       d="m -8.43375,519.25978 0,-120.74782 856.85458,0 0,120.74782 -513.37859,0 c -29.79274,0 -48.79288,-29.45667 -96.21568,-29.45667 -47.4228,0 -65.10456,29.45667 -96.21567,29.45667 l -151.04464,0"
       id="path1150"
       style="fill:#2bbbf2;fill-opacity:1;fill-rule:nonzero;stroke:none" />
    <path
       d="m -8.43375,519.16931 0,-120.65735 856.85458,0 0,120.65735 -513.35274,0 c -29.74104,0 -48.77995,-29.48252 -96.24153,-29.48252 -47.44865,0 -65.16919,29.48252 -96.24152,29.48252 l -49.55546,0 -101.46333,0"
       id="path1152"
       style="fill:#29baf2;fill-opacity:1;fill-rule:nonzero;stroke:none" />
    <path
       d="m -8.43375,519.09176 0,-120.5798 856.85458,0 0,120.5798 -513.32689,0 c -29.70227,0 -48.77995,-29.5213 -96.26738,-29.5213 -47.48742,0 -65.23381,29.5213 -96.25445,29.5213 l -151.00586,0"
       id="path1154"
       style="fill:#29baf2;fill-opacity:1;fill-rule:nonzero;stroke:none" />
    <path
       d="m -8.43375,519.00128 0,-120.48932 856.85458,0 0,120.48932 -513.30104,0 c -29.66349,0 -48.76703,-29.54716 -96.29323,-29.54716 -47.5262,0 -65.29843,29.54716 -96.2803,29.54716 l -49.51669,0 -101.46332,0"
       id="path1156"
       style="fill:#27baf1;fill-opacity:1;fill-rule:nonzero;stroke:none" />
    <path
       d="m -8.43375,518.91081 0,-120.39885 856.85458,0 0,120.39885 -513.27519,0 c -29.61179,0 -48.7541,-29.57301 -96.31908,-29.57301 -47.55205,0 -65.36306,29.57301 -96.30615,29.57301 l -150.95416,0"
       id="path1158"
       style="fill:#27baf1;fill-opacity:1;fill-rule:nonzero;stroke:none" />
    <path
       d="m -8.43375,518.83326 0,-120.3213 856.85458,0 0,120.3213 -513.26227,0 c -29.56007,0 -48.72825,-29.61179 -96.332,-29.61179 -47.59082,0 -65.44061,29.61179 -96.332,29.61179 l -49.46499,0 -101.46332,0"
       id="path1160"
       style="fill:#25b9f1;fill-opacity:1;fill-rule:nonzero;stroke:none" />
    <path
       d="m -8.43375,518.74277 0,-120.23081 856.85458,0 0,120.23081 -513.23642,0 c -29.50837,0 -48.72825,-29.63762 -96.35785,-29.63762 -47.6296,0 -65.50523,29.63762 -96.35785,29.63762 l -150.90246,0"
       id="path1162"
       style="fill:#25b9f1;fill-opacity:1;fill-rule:nonzero;stroke:none" />
    <path
       d="m -8.43375,518.6523 0,-120.14034 856.85458,0 0,120.14034 -513.21057,0 c -29.4696,0 -48.71532,-29.66348 -96.3837,-29.66348 -47.65545,0 -65.56986,29.66348 -96.3837,29.66348 l -150.87661,0"
       id="path1164"
       style="fill:#23b8f1;fill-opacity:1;fill-rule:nonzero;stroke:none" />
    <path
       d="m -8.43375,518.57475 0,-120.06279 856.85458,0 0,120.06279 -513.18472,0 c -29.43082,0 -48.7024,-29.70226 -96.40955,-29.70226 -47.69422,0 -65.63448,29.70226 -96.40955,29.70226 l -150.85076,0"
       id="path1166"
       style="fill:#23b8f1;fill-opacity:1;fill-rule:nonzero;stroke:none" />
    <path
       d="m -8.43375,518.48427 0,-119.97231 856.85458,0 0,119.97231 -513.15887,0 c -29.37912,0 -48.7024,-29.72811 -96.4354,-29.72811 -47.733,0 -65.69912,29.72811 -96.4354,29.72811 l -150.82491,0"
       id="path1168"
       style="fill:#21b8f1;fill-opacity:1;fill-rule:nonzero;stroke:none" />
    <path
       d="m -8.43375,518.3938 0,-119.88184 856.85458,0 0,119.88184 -513.13302,0 c -29.34035,0 -48.68947,-29.75396 -96.46125,-29.75396 -47.77177,0 -65.77667,29.75396 -96.44832,29.75396 l -150.81199,0"
       id="path1170"
       style="fill:#21b8f1;fill-opacity:1;fill-rule:nonzero;stroke:none" />
    <path
       d="m -8.43375,518.31625 0,-119.80429 856.85458,0 0,119.80429 -513.10717,0 c -29.30157,0 -48.67655,-29.79274 -96.4871,-29.79274 -47.79762,0 -65.8413,29.79274 -96.47417,29.79274 l -150.78614,0"
       id="path1172"
       style="fill:#1fb7f1;fill-opacity:1;fill-rule:nonzero;stroke:none" />
    <path
       d="m -8.43375,518.22577 0,-119.71381 856.85458,0 0,119.71381 -513.08132,0 c -29.24987,0 -48.67654,-29.81858 -96.51295,-29.81858 -47.8364,0 -65.90592,29.81858 -96.50002,29.81858 l -150.76029,0"
       id="path1174"
       style="fill:#1fb7f1;fill-opacity:1;fill-rule:nonzero;stroke:none" />
    <path
       d="m -8.43375,518.13528 0,-119.62332 856.85458,0 0,119.62332 -513.06839,0 c -29.19818,0 -48.65069,-29.84442 -96.52588,-29.84442 -47.87517,0 -65.97055,29.84442 -96.52587,29.84442 l -150.73444,0"
       id="path1176"
       style="fill:#1db6f1;fill-opacity:1;fill-rule:nonzero;stroke:none" />
    <path
       d="m -8.43375,518.05773 0,-119.54577 856.85458,0 0,119.54577 -513.04254,0 c -29.14647,0 -48.63776,-29.88321 -96.55173,-29.88321 -47.90102,0 -66.03517,29.88321 -96.55172,29.88321 l -150.70859,0"
       id="path1178"
       style="fill:#1db6f1;fill-opacity:1;fill-rule:nonzero;stroke:none" />
    <path
       d="m -8.43375,517.96726 0,-119.4553 856.85458,0 0,119.4553 -513.01669,0 c -29.10769,0 -48.63776,-29.90906 -96.57758,-29.90906 -47.9398,0 -66.11272,29.90906 -96.57757,29.90906 l -49.21942,0 -101.46332,0"
       id="path1180"
       style="fill:#1cb6f1;fill-opacity:1;fill-rule:nonzero;stroke:none" />
    <path
       d="m -8.43375,517.87678 0,-119.36482 856.85458,0 0,119.36482 -512.99084,0 c -29.06892,0 -48.62484,-29.93491 -96.60343,-29.93491 -47.97857,0 -66.17735,29.93491 -96.60342,29.93491 l -150.65689,0"
       id="path1182"
       style="fill:#1cb6f1;fill-opacity:1;fill-rule:nonzero;stroke:none" />
    <path
       d="m -8.43375,517.79923 0,-119.28727 856.85458,0 0,119.28727 -512.96499,0 c -29.01721,0 -48.61191,-29.97368 -96.62928,-29.97368 -48.00443,0 -66.24197,29.97368 -96.62927,29.97368 l -150.63104,0"
       id="path1184"
       style="fill:#1ab5f1;fill-opacity:1;fill-rule:nonzero;stroke:none" />
    <path
       d="m -8.43375,517.70876 0,-119.1968 856.85458,0 0,119.1968 -512.93913,0 c -28.97845,0 -48.599,-29.99954 -96.65514,-29.99954 -48.04321,0 -66.30661,29.99954 -96.6422,29.99954 l -150.61811,0"
       id="path1186"
       style="fill:#1ab5f1;fill-opacity:1;fill-rule:nonzero;stroke:none" />
    <path
       d="m -8.43375,517.61828 0,-119.10632 856.85458,0 0,119.10632 -512.91328,0 c -28.93967,0 -48.599,-30.02539 -96.68099,-30.02539 -48.08199,0 -66.37123,30.02539 -96.66805,30.02539 l -150.59226,0"
       id="path1188"
       style="fill:#18b5f1;fill-opacity:1;fill-rule:nonzero;stroke:none" />
    <path
       d="m -8.43375,517.54072 0,-119.02876 856.85458,0 0,119.02876 -512.88743,0 c -28.88797,0 -48.58607,-30.05123 -96.70684,-30.05123 -48.10783,0 -66.43586,30.05123 -96.6939,30.05123 l -150.56641,0"
       id="path1190"
       style="fill:#18b5f1;fill-opacity:1;fill-rule:nonzero;stroke:none" />
    <path
       d="m -8.43375,517.45025 0,-118.93829 856.85458,0 0,118.93829 -512.8745,0 c -28.83628,0 -48.56023,-30.09001 -96.71977,-30.09001 -48.14661,0 -66.51341,30.09001 -96.71975,30.09001 l -150.54056,0"
       id="path1192"
       style="fill:#16b4f0;fill-opacity:1;fill-rule:nonzero;stroke:none" />
    <path
       d="m -8.43375,517.35977 0,-118.84781 856.85458,0 0,118.84781 -512.84866,0 c -28.78457,0 -48.56022,-30.10293 -96.74561,-30.10293 -48.18539,0 -66.57804,30.10293 -96.7456,30.10293 l -150.51471,0"
       id="path1194"
       style="fill:#16b4f0;fill-opacity:1;fill-rule:nonzero;stroke:none" />
    <path
       d="m -8.43375,517.28222 0,-118.77026 856.85458,0 0,118.77026 -512.8228,0 c -28.74579,0 -48.5473,-30.14171 -96.77147,-30.14171 -48.21123,0 -66.64266,30.14171 -96.77145,30.14171 l -49.02553,0 -101.46333,0"
       id="path1196"
       style="fill:#14b3f0;fill-opacity:1;fill-rule:nonzero;stroke:none" />
    <path
       d="m -8.43375,517.19175 0,-118.67979 856.85458,0 0,118.67979 -512.79695,0 c -28.70702,0 -48.53438,-30.16758 -96.79732,-30.16758 -48.25001,0 -66.70728,30.16758 -96.7973,30.16758 l -150.46301,0"
       id="path1198"
       style="fill:#14b3f0;fill-opacity:1;fill-rule:nonzero;stroke:none" />
    <path
       d="m -8.43375,517.10127 0,-118.58931 856.85458,0 0,118.58931 -512.7711,0 c -28.65532,0 -48.53438,-30.19342 -96.82317,-30.19342 -48.28878,0 -66.77191,30.19342 -96.82316,30.19342 l -150.43715,0"
       id="path1200"
       style="fill:#12b3f0;fill-opacity:1;fill-rule:nonzero;stroke:none" />
    <path
       d="m -8.43375,517.02372 0,-118.51176 856.85458,0 0,118.51176 -512.74525,0 c -28.61654,0 -48.52145,-30.2322 -96.84902,-30.2322 -48.32756,0 -66.84946,30.2322 -96.83608,30.2322 l -48.9609,0 -101.46333,0"
       id="path1202"
       style="fill:#12b3f0;fill-opacity:1;fill-rule:nonzero;stroke:none" />
    <path
       d="m -8.43375,516.93323 0,-118.42127 856.85458,0 0,118.42127 -512.71941,0 c -28.57776,0 -48.50852,-30.25803 -96.87486,-30.25803 -48.35341,0 -66.91409,30.25803 -96.86193,30.25803 l -150.39838,0"
       id="path1204"
       style="fill:#10b2f0;fill-opacity:1;fill-rule:nonzero;stroke:none" />
    <path
       d="m -8.43375,516.84276 0,-118.3308 856.85458,0 0,118.3308 -512.69355,0 c -28.52607,0 -48.50853,-30.28389 -96.90072,-30.28389 -48.39218,0 -66.97872,30.28389 -96.88778,30.28389 l -150.37253,0"
       id="path1206"
       style="fill:#10b2f0;fill-opacity:1;fill-rule:nonzero;stroke:none" />
    <path
       d="m -8.43375,516.76521 0,-118.25325 856.85458,0 0,118.25325 -512.68063,0 c -28.47436,0 -48.48267,-30.32267 -96.91364,-30.32267 -48.43096,0 -67.04335,30.32267 -96.91364,30.32267 l -150.34667,0"
       id="path1208"
       style="fill:#0eb1f0;fill-opacity:1;fill-rule:nonzero;stroke:none" />
    <path
       d="m -8.43375,516.67473 0,-118.16277 856.85458,0 0,118.16277 -512.65478,0 c -28.42266,0 -48.46974,-30.34852 -96.93949,-30.34852 -48.45681,0 -67.10797,30.34852 -96.93949,30.34852 l -150.32082,0"
       id="path1210"
       style="fill:#0eb1f0;fill-opacity:1;fill-rule:nonzero;stroke:none" />
    <path
       d="m -8.43375,516.58426 0,-118.0723 856.85458,0 0,118.0723 -512.62893,0 c -28.38387,0 -48.45681,-30.37437 -96.96534,-30.37437 -48.49558,0 -67.1726,30.37437 -96.96533,30.37437 l -150.29498,0"
       id="path1212"
       style="fill:#0cb1f0;fill-opacity:1;fill-rule:nonzero;stroke:none" />
    <path
       d="m -8.43375,516.50671 0,-117.99475 856.85458,0 0,117.99475 -512.60308,0 c -28.3451,0 -48.45681,-30.41315 -96.99119,-30.41315 -48.53436,0 -67.25015,30.41315 -96.99119,30.41315 l -150.26912,0"
       id="path1214"
       style="fill:#0cb1f0;fill-opacity:1;fill-rule:nonzero;stroke:none" />
    <path
       d="m -8.43375,516.41623 0,-117.90427 856.85458,0 0,117.90427 -512.57723,0 c -28.2934,0 -48.44389,-30.43899 -97.01704,-30.43899 -48.56021,0 -67.31477,30.43899 -97.01703,30.43899 l -150.24328,0"
       id="path1216"
       style="fill:#0ab0f0;fill-opacity:1;fill-rule:nonzero;stroke:none" />
    <path
       d="m -8.43375,516.32575 0,-117.81379 856.85458,0 0,117.81379 -512.55138,0 c -28.25462,0 -48.43096,-30.46484 -97.04289,-30.46484 -48.59898,0 -67.3794,30.46484 -97.02996,30.46484 l -48.7541,0 -101.47625,0"
       id="path1218"
       style="fill:#0ab0f0;fill-opacity:1;fill-rule:nonzero;stroke:none" />
    <path
       d="m -8.43375,516.2482 0,-117.73624 856.85458,0 0,117.73624 -512.52553,0 c -28.21585,0 -48.43096,-30.50363 -97.06874,-30.50363 -48.63777,0 -67.44402,30.50363 -97.05581,30.50363 l -150.2045,0"
       id="path1220"
       style="fill:#08b0f0;fill-opacity:1;fill-rule:nonzero;stroke:none" />
    <path
       d="m -8.43375,516.15772 0,-117.64576 856.85458,0 0,117.64576 -512.51261,0 c -28.15122,0 -48.40511,-30.52947 -97.08166,-30.52947 -48.66362,0 -67.50865,30.52947 -97.08166,30.52947 l -48.7024,0 -101.47625,0"
       id="path1222"
       style="fill:#08b0f0;fill-opacity:1;fill-rule:nonzero;stroke:none" />
    <path
       d="m -8.43375,516.06725 0,-117.55529 856.85458,0 0,117.55529 -512.48675,0 c -28.11245,0 -48.39219,-30.55533 -97.10752,-30.55533 -48.7024,0 -67.58621,30.55533 -97.10751,30.55533 l -150.1528,0"
       id="path1224"
       style="fill:#06afef;fill-opacity:1;fill-rule:nonzero;stroke:none" />
    <path
       d="m -8.43375,515.9897 0,-117.47774 856.85458,0 0,117.47774 -512.4609,0 c -28.06076,0 -48.39219,-30.5941 -97.13337,-30.5941 -48.74117,0 -67.65084,30.5941 -97.13336,30.5941 l -150.12695,0"
       id="path1226"
       style="fill:#06afef;fill-opacity:1;fill-rule:nonzero;stroke:none" />
    <path
       d="m -8.43375,515.89922 0,-117.38726 856.85458,0 0,117.38726 -512.43505,0 c -28.02198,0 -48.37927,-30.61995 -97.15922,-30.61995 -48.77995,0 -67.71546,30.61995 -97.15921,30.61995 l -150.1011,0"
       id="path1228"
       style="fill:#04aeef;fill-opacity:1;fill-rule:nonzero;stroke:none" />
    <path
       d="m -8.43375,515.80875 0,-117.29679 856.85458,0 0,117.29679 -512.4092,0 c -27.98319,0 -48.36634,-30.64581 -97.18507,-30.64581 -48.8058,0 -67.78009,30.64581 -97.18506,30.64581 l -150.07525,0"
       id="path1230"
       style="fill:#04aeef;fill-opacity:1;fill-rule:nonzero;stroke:none" />
    <path
       d="m -8.43375,515.73118 0,-117.21922 856.85458,0 0,117.21922 -512.38336,0 c -27.93148,0 -48.36633,-30.68457 -97.21091,-30.68457 -48.84457,0 -67.84471,30.68457 -97.19799,30.68457 l -150.06232,0"
       id="path1232"
       style="fill:#02aeef;fill-opacity:1;fill-rule:nonzero;stroke:none" />
    <path
       d="m -8.43375,515.64071 0,-117.12875 856.85458,0 0,117.12875 -512.35751,0 c -27.89271,0 -48.35341,-30.71042 -97.23676,-30.71042 -48.88335,0 -67.92226,30.71042 -97.22384,30.71042 l -150.03647,0"
       id="path1234"
       style="fill:#02aeef;fill-opacity:1;fill-rule:nonzero;stroke:none" />
    <path
       d="m 336.08919,515.55023 c -27.85395,0 -48.3405,-30.73627 -97.26263,-30.73627 -48.9092,0 -67.98688,30.73627 -97.24968,30.73627 l -150.01063,0 0,-117.03827 856.8675,0 -0.0129,117.03827 -512.33164,0"
       id="path1236"
       style="fill:#00adef;fill-opacity:1;fill-rule:nonzero;stroke:none" />
    <path
       d="m 679.70261,441.7359 0,15.84375 c 0,1.49934 0.43357,2.72236 1.3125,3.5625 1.02109,0.98232 2.68229,1.21875 5.5,1.21875 l 12.3125,0 c 2.90819,0 6.77818,0.54207 9.53125,3.0625 2.72724,2.49458 4.3125,6.13669 4.3125,13 0,11.77493 -4.6946,20.53785 -10.9375,25.65625 -2.61091,2.1456 -5.82136,3.62746 -8.78125,4.3125 0.0646,0.0776 0.0646,5.8125 0,5.8125 9.93954,-0.82721 18.5804,-4.30846 24.875,-9.75 7.43202,-6.42386 11.8125,-15.55656 11.8125,-26.375 0,-8.47897 -1.90976,-14.189 -6.1875,-17.5625 -3.2184,-2.57212 -7.80144,-3.96875 -14.40625,-3.96875 l -8.375,0 c -1.70614,0 -4.71875,0.36499 -4.71875,-2.75 l 0.0312,-12.0625 -16.28125,0 z m -195.15625,14.8125 0.0625,35.65625 c 0,0 4.17085,-0.7204 7.90625,-2 3.7354,-1.29252 8.1875,-3.34375 8.1875,-3.34375 l 0,-30.3125 -16.15625,0 z m 28.5625,0 0,5.96875 15.46875,0 0,1.15625 -0.34375,0.1875 c -1.80954,1.04694 -3.26164,2.12141 -5.1875,3.75 -6.12658,5.15717 -7.25475,10.549 -8.25,18.9375 l -2.84375,26.96875 16.78125,0 2.8125,-29.25 c 1.383,-10.85723 3.59002,-16.58985 7.3125,-19.9375 1.48641,-1.2796 3.11291,-1.84375 5,-1.84375 2.00342,0 3.79484,0.64497 5.28125,1.9375 3.82588,3.29595 5.75,10.22884 5.75,20.75 0,10.54703 -1.57399,17.5532 -5.59375,20.875 -1.77076,1.68027 -3.95798,2.375 -6.375,2.375 -0.77552,0 -1.33001,-0.0399 -1.9375,-0.15625 l -0.875,5.5625 c 0.43946,0.10341 0.97334,0.19075 1.59375,0.28125 1.37008,0.16803 3.27294,0.3125 6.375,0.3125 6.37216,0 11.63747,-1.85066 15.4375,-5.25 5.09255,-4.61433 8.21875,-12.60009 8.21875,-24.375 0,-11.29669 -2.85672,-18.78751 -7.78125,-23.15625 -3.94221,-3.39935 -9.20671,-5.09375 -16.03125,-5.09375 l -34.8125,0 z m 71.34375,0 -0.0312,56.96875 16.40625,0 -0.0312,-56.96875 -16.34375,0 z m 47.125,0 -19.03125,0.0312 15.84375,21.65625 -0.90625,0.40625 c -2.58505,1.25375 -4.76164,2.55352 -6.6875,4.15625 -5.95855,5.22181 -7.28125,11.57812 -7.28125,20.03125 l 0,10.6875 16.09375,0 0,-19.5 c 0,-3.46398 -0.34717,-7.22221 1.65625,-10.15625 0.60749,-0.89179 0.8125,-0.875 0.8125,-0.875 l 22,30.53125 19,-0.0312 -17.59375,-23.84375 1.34375,-0.6875 c 2.58505,-1.25375 4.96206,-2.70977 6.875,-4.3125 5.95855,-5.22181 7.09375,-11.57812 7.09375,-20.03125 l 0,-8.0625 -15.90625,0 0,16.8125 c 0,3.45105 0.23951,7.31711 -1.53125,10.40625 -0.77552,1.24083 -1.09375,1.4375 -1.09375,1.4375 l -20.6875,-28.65625 z m -147.125,96.375 0,69.875 12.625,0 0,-69.875 -12.625,0 z m 231.6875,0 0,10.1875 12.625,0 0,-10.1875 -12.625,0 z m -182.875,18 c -18.12122,0 -26.625,15.4527 -26.625,28.0938 0,10.6503 6.31709,24.5937 23.84375,24.5937 8.51775,0 14.69214,-4.2033 20.25,-10.5625 l -3.125,-3.2188 c -3.54152,3.8777 -8.77296,7.3438 -14.34375,7.3438 -5.64834,0 -10.87044,-3.9208 -12.71875,-12.5938 24.51923,-3.8774 30.34375,-13.4429 30.34375,-20.875 0,-3.5543 -2.09526,-7.9007 -5.46875,-9.9687 -3.20547,-1.9776 -6.50791,-2.8125 -12.15625,-2.8125 z m 127.1875,0 c -12.2273,0 -22.84853,15.7022 -26.3125,24.375 l 0,-23.5625 -12.625,0 0,51.0625 12.625,0 0,-8.9688 c 0,-12.8863 13.23027,-31.7187 19.71875,-31.7187 1.09865,0 2.28125,0.4945 2.28125,2.5625 l 0,38.125 12.65625,0 0,-8.9688 c 0,-12.8863 13.23026,-31.7187 19.71875,-31.7187 1.09865,0 2.28125,0.4945 2.28125,2.5625 l 0,38.125 12.625,0 0,-42.3125 c 0,-6.5273 -1.77772,-9.5625 -8.34375,-9.5625 -12.2273,0 -22.73974,15.6246 -26.28125,24.375 l 0,-14.8125 c 0,-6.5273 -1.77771,-9.5625 -8.34375,-9.5625 z m -100.4375,0.8125 0,42.3125 c 0,6.3592 2.19132,9.5625 8.34375,9.5625 12.13682,0 24.27098,-16.5147 27.8125,-25.1875 l 0,24.375 12.65625,0 0,-51.0625 -12.65625,0 0,8.5 c 0,12.8865 -14.76152,32.1875 -21.25,32.1875 -1.43471,0 -2.25,-1.0448 -2.25,-2.5312 l 0,-38.1563 -12.65625,0 z m 156.125,0 0,51.0625 12.625,0 0,-51.0625 -12.625,0 z m -184.21875,4.5625 c 4.13608,0 6.9375,2.5603 6.9375,7.1875 0,8.4144 -6.6639,12.2894 -18.96875,15.8437 -0.0905,-0.9951 -0.0937,-1.3959 -0.0937,-2.4687 0,-12.964 6.39911,-20.5625 12.125,-20.5625 z"
       id="path1238"
       style="fill:#ffffff;fill-opacity:1;fill-rule:evenodd;stroke:none" />
  </g>
</svg>
