<svg xmlns="http://www.w3.org/2000/svg" width="61" height="19" viewBox="0 0 61 19">
    <g fill="#1D1C64" fill-rule="evenodd">
        <path d="M34.811 1.96C34.196.69 33.074.037 31.591 0c-1.557-.036-2.642.653-3.258 1.958l-5.5 11.603C22.216 14.83 22 15.374 22 16.245 22 17.659 23.158 19 25.112 19c1.376 0 2.1-.471 2.896-1.777l.796-1.305c.543-.87 1.375-1.74 2.75-1.74 1.34 0 2.172.87 2.715 1.74l.796 1.305C35.86 18.53 36.549 19 37.924 19 39.914 19 41 17.622 41 16.208c0-.87-.145-1.377-.724-2.574L34.811 1.959zM17.012 0c-1.23 0-1.898.363-2.566 1.162L10.018 6.43 5.554 1.162C4.886.363 4.218 0 2.988 0 1.265 0 0 1.199 0 3.488v12.279C0 18.019 1.23 19 3.163 19c.809 0 1.477-.182 2.004-.581.562-.545.879-1.38.879-2.652v-4.76l1.406 1.817c.632.8 1.37 1.417 2.566 1.417.984 0 1.687-.4 2.495-1.453l1.441-1.78v4.759c0 1.271.317 2.107.88 2.652.526.4 1.194.581 2.003.581C18.77 19 20 18.02 20 15.767V3.487C20 1.2 18.735 0 17.012 0M56.43 9.575l3.582-3.991c.695-.798.988-1.56.988-2.502C61 1.522 59.463 0 57.707 0c-.914 0-1.792.435-2.634 1.378l-3.06 3.47-3.05-3.506C48.16.399 47.207 0 46.293 0 44.5 0 43 1.45 43 3.046c0 .943.293 1.704.988 2.502l3.574 4.002-3.5 3.866c-.696.798-.952 1.56-.952 2.466 0 1.523 1.353 3.118 3.256 3.118.951 0 1.83-.363 2.67-1.342L52 14.271l2.964 3.387c.805.943 1.72 1.342 2.598 1.342 1.976 0 3.293-1.595 3.293-3.082 0-.907-.257-1.668-.952-2.466L56.43 9.575z"/>
    </g>
</svg>
