<?xml version="1.0" encoding="UTF-8" standalone="no"?>
<!-- Generator: Adobe Illustrator 26.3.1, SVG Export Plug-In . SVG Version: 6.00 Build 0)  -->

<svg
   xmlns:dc="http://purl.org/dc/elements/1.1/"
   xmlns:cc="http://creativecommons.org/ns#"
   xmlns:rdf="http://www.w3.org/1999/02/22-rdf-syntax-ns#"
   xmlns:svg="http://www.w3.org/2000/svg"
   xmlns="http://www.w3.org/2000/svg"
   xmlns:xlink="http://www.w3.org/1999/xlink"
   xmlns:sodipodi="http://sodipodi.sourceforge.net/DTD/sodipodi-0.dtd"
   xmlns:inkscape="http://www.inkscape.org/namespaces/inkscape"
   version="1.1"
   id="Layer_1"
   x="0px"
   y="0px"
   viewBox="0 0 66 20"
   style="enable-background:new 0 0 66 20;"
   xml:space="preserve"
   sodipodi:docname="logoo.svg"
   inkscape:version="0.92.3 (2405546, 2018-03-11)"><metadata
   id="metadata31"><rdf:RDF><cc:Work
       rdf:about=""><dc:format>image/svg+xml</dc:format><dc:type
         rdf:resource="http://purl.org/dc/dcmitype/StillImage" /><dc:title></dc:title></cc:Work></rdf:RDF></metadata><defs
   id="defs29"><rect
   height="185"
   width="425.2"
   y="-73.6"
   x="-154.9"
   id="SVGID_1_" /><rect
   height="185"
   width="425.2"
   y="-73.6"
   x="-154.9"
   id="SVGID_3_" /><rect
   height="185"
   width="425.2"
   y="-73.6"
   x="-154.9"
   id="SVGID_5_" /><rect
   height="185"
   width="425.2"
   y="-73.6"
   x="-154.9"
   id="SVGID_7_" /><rect
   height="185"
   width="425.2"
   y="-73.6"
   x="-154.9"
   id="SVGID_9_" /><rect
   height="185"
   width="425.2"
   y="-73.6"
   x="-154.9"
   id="SVGID_11_" /><rect
   height="185"
   width="425.2"
   y="-73.6"
   x="-154.9"
   id="SVGID_13_" /><rect
   height="185"
   width="425.2"
   y="-73.6"
   x="-154.9"
   id="SVGID_15_" /><rect
   height="185"
   width="425.2"
   y="-73.6"
   x="-154.9"
   id="SVGID_17_" />
	
	
	
	
	
	
	
	
	
	
</defs><sodipodi:namedview
   pagecolor="#ffffff"
   bordercolor="#666666"
   borderopacity="1"
   objecttolerance="10"
   gridtolerance="10"
   guidetolerance="10"
   inkscape:pageopacity="0"
   inkscape:pageshadow="2"
   inkscape:window-width="1366"
   inkscape:window-height="705"
   id="namedview27"
   showgrid="false"
   inkscape:zoom="8.9090909"
   inkscape:cx="41.678392"
   inkscape:cy="5.6383663"
   inkscape:window-x="-8"
   inkscape:window-y="-8"
   inkscape:window-maximized="1"
   inkscape:current-layer="Layer_1" />
<style
   type="text/css"
   id="style2">
	.st0{fill:#00000;}
</style>
<path
   inkscape:connector-curvature="0"
   id="path4"
   d="M 9.7,1.3 C 5,1.3 1.2,5.1 1.2,9.8 c 0,4.7 3.8,8.5 8.5,8.5 4.7,0 8.5,-3.8 8.5,-8.5 0,-4.7 -3.8,-8.5 -8.5,-8.5 m 9.6,8.5 c 0,5.3 -4.3,9.6 -9.6,9.6 -5.3,0 -9.6,-4.3 -9.6,-9.6 0,-5.3 4.3,-9.6 9.6,-9.6 5.3,0 9.6,4.3 9.6,9.6"
   class="st0"
   clip-path="url(#SVGID_4_)" /><rect
   id="rect6"
   height="12.6"
   width="1.1"
   class="st0"
   y="3.5"
   x="9.1999998"
   clip-path="url(#SVGID_4_)" /><g
   id="g928"
   transform="matrix(0.17890849,0,0,0.17890849,22.23968,6.5749283)"
   style="fill:#000000">
	<g
   id="g846"
   style="fill:#000000">
		<defs
   id="defs841">
			<rect
   height="185"
   width="425.20001"
   y="-73.599998"
   x="-154.89999"
   id="rect947" />
		</defs>
		<clipPath
   id="SVGID_2_">
			<use
   id="use843"
   style="overflow:visible"
   xlink:href="#SVGID_1_"
   x="0"
   y="0"
   width="100%"
   height="100%" />
		</clipPath>
	</g>
	<g
   id="g856"
   style="fill:#000000">
		<defs
   id="defs849">
			<rect
   height="185"
   width="425.20001"
   y="-73.599998"
   x="-154.89999"
   id="rect953" />
		</defs>
		<clipPath
   id="SVGID_4_">
			<use
   id="use851"
   style="overflow:visible"
   xlink:href="#SVGID_3_"
   x="0"
   y="0"
   width="100%"
   height="100%" />
		</clipPath>
		<polygon
   id="polygon854"
   clip-path="url(#SVGID_4_)"
   points="87.4,20.5 87.4,35.3 103.6,35.3 103.6,39.8 82.5,39.8 82.5,0.6 103.6,0.6 103.6,5.1 87.4,5.1 87.4,16.1 103.1,16.1 103.1,20.5 "
   class="st0"
   style="fill:#000000" />
	</g>
	<g
   id="g866"
   style="fill:#000000">
		<defs
   id="defs859">
			<rect
   height="185"
   width="425.20001"
   y="-73.599998"
   x="-154.89999"
   id="rect960" />
		</defs>
		<clipPath
   id="SVGID_6_">
			<use
   id="use861"
   style="overflow:visible"
   xlink:href="#SVGID_5_"
   x="0"
   y="0"
   width="100%"
   height="100%" />
		</clipPath>
		<polygon
   id="polygon864"
   clip-path="url(#SVGID_6_)"
   points="158.9,20.5 158.9,35.3 175.1,35.3 175.1,39.8 154.1,39.8 154.1,0.6 175.1,0.6 175.1,5.1 158.9,5.1 158.9,16.1 174.6,16.1 174.6,20.5 "
   class="st1"
   style="fill:#000000" />
	</g>
	<g
   id="g876"
   style="fill:#000000">
		<defs
   id="defs869">
			<rect
   height="185"
   width="425.20001"
   y="-73.599998"
   x="-154.89999"
   id="rect967" />
		</defs>
		<clipPath
   id="SVGID_8_">
			<use
   id="use871"
   style="overflow:visible"
   xlink:href="#SVGID_7_"
   x="0"
   y="0"
   width="100%"
   height="100%" />
		</clipPath>
		<path
   id="path874"
   clip-path="url(#SVGID_8_)"
   d="m 184.6,19.2 h 1.6 c 5,0 10.4,-0.9 10.4,-7.2 0,-6.1 -5.8,-7 -10.7,-7 h -1.3 z m 19.5,20.6 h -5.9 L 186.7,23.2 h -2 v 16.6 h -4.9 V 0.6 h 5.9 c 3.5,0 7.2,0.1 10.3,1.8 3.3,1.9 5.1,5.6 5.1,9.4 0,5.6 -3.7,10.3 -9.4,11 z"
   class="st2"
   inkscape:connector-curvature="0"
   style="fill:#000000" />
	</g>
	<g
   id="g886"
   style="fill:#000000">
		<defs
   id="defs879">
			<rect
   height="185"
   width="425.20001"
   y="-73.599998"
   x="-154.89999"
   id="rect974" />
		</defs>
		<clipPath
   id="SVGID_10_">
			<use
   id="use881"
   style="overflow:visible"
   xlink:href="#SVGID_9_"
   x="0"
   y="0"
   width="100%"
   height="100%" />
		</clipPath>
		<polygon
   id="polygon884"
   clip-path="url(#SVGID_10_)"
   points="73,39.8 77.9,39.8 77.9,0.6 73,0.6 73,32 48.5,0.6 43.6,0.6 43.6,39.8 48.5,39.8 48.5,8.2 "
   class="st3"
   style="fill:#000000" />
	</g>
	<g
   id="g896"
   style="fill:#000000">
		<defs
   id="defs889">
			<rect
   height="185"
   width="425.20001"
   y="-73.599998"
   x="-154.89999"
   id="rect981" />
		</defs>
		<clipPath
   id="SVGID_12_">
			<use
   id="use891"
   style="overflow:visible"
   xlink:href="#SVGID_11_"
   x="0"
   y="0"
   width="100%"
   height="100%" />
		</clipPath>
		<polygon
   id="polygon894"
   clip-path="url(#SVGID_12_)"
   points="149.3,35.3 127.4,35.3 149.3,5.1 149.3,0.6 124.3,0.6 124.3,5.1 143.5,5.1 121.6,35.3 121.6,39.8 149.3,39.8 "
   class="st4"
   style="fill:#000000" />
	</g>
	<g
   id="g906"
   style="fill:#000000">
		<defs
   id="defs899">
			<rect
   height="185"
   width="425.20001"
   y="-73.599998"
   x="-154.89999"
   id="rect988" />
		</defs>
		<clipPath
   id="SVGID_14_">
			<use
   id="use901"
   style="overflow:visible"
   xlink:href="#SVGID_13_"
   x="0"
   y="0"
   width="100%"
   height="100%" />
		</clipPath>
		<path
   id="path904"
   clip-path="url(#SVGID_14_)"
   d="m 20.2,4.7 c -8.6,0 -15.5,7 -15.5,15.5 0,8.5 7,15.5 15.5,15.5 8.6,0 15.5,-7 15.5,-15.5 C 35.7,11.7 28.8,4.7 20.2,4.7 M 40.4,20.2 C 40.4,31.4 31.3,40.4 20.2,40.4 9,40.4 0,31.3 0,20.2 0,9.1 9.1,0 20.2,0 31.4,0 40.4,9 40.4,20.2"
   class="st5"
   inkscape:connector-curvature="0"
   style="fill:#000000" />
	</g>
	<g
   id="g916"
   style="fill:#000000">
		<defs
   id="defs909">
			<rect
   height="185"
   width="425.20001"
   y="-73.599998"
   x="-154.89999"
   id="rect995" />
		</defs>
		<clipPath
   id="SVGID_16_">
			<use
   id="use911"
   style="overflow:visible"
   xlink:href="#SVGID_15_"
   x="0"
   y="0"
   width="100%"
   height="100%" />
		</clipPath>
		<path
   id="path914"
   clip-path="url(#SVGID_16_)"
   d="m 223.4,4.7 c -8.6,0 -15.5,7 -15.5,15.5 0,8.5 7,15.5 15.5,15.5 8.6,0 15.5,-7 15.5,-15.5 0,-8.5 -6.9,-15.5 -15.5,-15.5 m 20.3,15.5 c 0,11.2 -9.1,20.2 -20.2,20.2 -11.2,0 -20.2,-9.1 -20.2,-20.2 0,-11.1 9.1,-20.2 20.2,-20.2 11.1,0 20.2,9 20.2,20.2"
   class="st6"
   inkscape:connector-curvature="0"
   style="fill:#000000" />
	</g>
	<g
   id="g926"
   style="fill:#000000">
		<defs
   id="defs919">
			<rect
   height="185"
   width="425.20001"
   y="-73.599998"
   x="-154.89999"
   id="rect1002" />
		</defs>
		<clipPath
   id="SVGID_18_">
			<use
   id="use921"
   style="overflow:visible"
   xlink:href="#SVGID_17_"
   x="0"
   y="0"
   width="100%"
   height="100%" />
		</clipPath>
		<path
   id="path924"
   clip-path="url(#SVGID_18_)"
   d="m 10.7,56 h 14 V 70.1 H 23 V 57.5 h -7.5 v 8.3 c 0,1.1 -0.1,1.9 -0.4,2.5 -0.2,0.6 -0.6,1 -1.1,1.3 -0.5,0.3 -1.2,0.4 -2.1,0.4 h -1.4 v -1.5 h 1.3 c 0.5,0 0.9,-0.1 1.2,-0.2 0.3,-0.1 0.5,-0.3 0.6,-0.7 0.1,-0.3 0.2,-0.8 0.2,-1.5 v -8.8 h -3 V 56 Z M 31,63.7 H 29.3 V 57.5 H 27.1 V 56 h 4 v 7.7 z m 6.8,6.4 H 36 l 4.9,-12.6 h -8.5 v -5.7 h 1.7 V 56 h 9.1 v 0.1 z m 7.7,0 L 44.1,56 h 1.7 l 1.3,12.6 H 48 c 1.3,0 2.5,-0.3 3.6,-0.8 1.1,-0.5 2,-1.3 2.6,-2.3 0.6,-1 1,-2.3 1,-3.7 0,-1.5 -0.3,-2.6 -0.9,-3.3 -0.6,-0.7 -1.4,-1.1 -2.5,-1.1 -0.9,0 -1.7,0.2 -2.6,0.6 V 56.5 C 50,56.1 51,55.9 52,55.9 c 1.4,0 2.6,0.5 3.5,1.4 0.9,0.9 1.4,2.4 1.4,4.3 0,1.7 -0.4,3.2 -1.2,4.5 -0.8,1.3 -1.9,2.3 -3.3,3 -1.4,0.7 -3.1,1 -5.1,1 z M 61.7,63.7 H 60 V 57.5 H 57.8 V 56 h 4 v 7.7 z m 1.9,5.1 c 1.2,-0.2 2.3,-0.8 3.2,-1.8 1.1,-1.2 1.7,-2.8 1.7,-4.6 0,-0.2 0,-0.6 -0.1,-1.1 L 68,57.5 H 64.3 V 56 h 5.2 L 71,70.1 h -1.6 l -0.6,-4.8 c -0.3,1.2 -0.7,2.1 -1.4,2.9 -0.5,0.7 -1.1,1.2 -1.8,1.6 -0.7,0.4 -1.3,0.6 -2,0.6 v 0 z M 76,63.7 H 74.3 V 57.5 H 72.1 V 56 h 4 v 7.7 z m 11.2,6.4 H 85.5 V 57.5 H 77.6 V 56 h 11.8 v 1.5 H 87.2 Z M 95.5,56 h 14 v 14.1 h -1.7 V 57.5 h -7.5 v 8.3 c 0,1.1 -0.1,1.9 -0.4,2.5 -0.2,0.6 -0.6,1 -1.1,1.3 -0.5,0.3 -1.2,0.4 -2.1,0.4 h -1.4 v -1.5 h 1.3 c 0.5,0 0.9,-0.1 1.2,-0.2 0.3,-0.1 0.5,-0.3 0.6,-0.7 0.1,-0.3 0.2,-0.8 0.2,-1.5 v -8.8 h -3 V 56 Z m 20.3,7.7 h -1.7 v -6.2 h -2.2 V 56 h 4 v 7.7 z m 3.7,6.4 -1.4,-14.1 h 1.7 l 1.3,12.6 h 0.9 c 1.3,0 2.5,-0.3 3.6,-0.8 1.1,-0.5 2,-1.3 2.6,-2.3 0.6,-1 1,-2.3 1,-3.7 0,-1.5 -0.3,-2.6 -0.9,-3.3 -0.6,-0.7 -1.4,-1.1 -2.5,-1.1 -0.9,0 -1.7,0.2 -2.6,0.6 v -1.5 c 0.8,-0.4 1.8,-0.6 2.8,-0.6 1.4,0 2.6,0.5 3.5,1.4 0.9,0.9 1.4,2.4 1.4,4.3 0,1.7 -0.4,3.2 -1.2,4.5 -0.8,1.3 -1.9,2.3 -3.3,3 -1.4,0.7 -3.1,1 -5.1,1 z m 20.1,-8.5 c 0,-1 -0.1,-1.9 -0.4,-2.4 -0.2,-0.6 -0.6,-1 -1.2,-1.2 -0.6,-0.2 -1.4,-0.4 -2.5,-0.4 h -4.3 v -1.5 h 4.7 c 1.9,0 3.3,0.4 4.1,1.2 0.8,0.8 1.2,2.2 1.2,4.1 v 8.7 h -1.6 z m 4.5,8.5 v -1.5 h 9.1 v -7.1 c 0,-1 -0.1,-1.9 -0.4,-2.4 -0.2,-0.6 -0.6,-1 -1.2,-1.2 -0.6,-0.2 -1.4,-0.4 -2.5,-0.4 h -3.3 v 6.2 h -1.7 V 56 h 5.5 c 1.9,0 3.3,0.4 4.1,1.3 0.8,0.8 1.2,2.2 1.2,4.1 v 8.7 z M 161.9,56 h 14 v 14.1 h -1.7 V 57.5 h -7.6 v 8.3 c 0,1.1 -0.1,1.9 -0.4,2.5 -0.2,0.6 -0.6,1 -1.1,1.3 -0.5,0.3 -1.2,0.4 -2.1,0.4 h -1.4 v -1.5 h 1.3 c 0.5,0 0.9,-0.1 1.2,-0.2 0.3,-0.1 0.5,-0.3 0.6,-0.7 0.1,-0.3 0.2,-0.8 0.2,-1.5 v -8.8 h -3 z m 20.3,14.1 h -1.7 V 57.5 h -2.2 V 56 h 4 z m 13,0 c -1.7,-2.6 -3.5,-5.1 -5.3,-7.6 -0.8,0.3 -1.5,0.7 -2,1.3 -0.5,0.6 -0.8,1.4 -0.9,2.5 l -0.6,3.8 h -1.7 l 0.6,-3.8 c 0.2,-1.4 0.6,-2.4 1.2,-3.2 0.6,-0.7 1.4,-1.3 2.5,-1.7 -1.5,-2 -3,-3.8 -4.5,-5.4 h 2 c 0.8,0.9 1.6,1.9 2.4,2.9 0.8,1 1.7,2.2 2.8,3.7 0.7,-0.2 1.2,-0.5 1.6,-0.7 0.4,-0.3 0.7,-0.6 0.9,-1.2 0.2,-0.5 0.4,-1.3 0.6,-2.3 l 0.3,-2.4 h 1.7 l -0.4,2.7 c -0.1,1 -0.4,1.9 -0.7,2.5 -0.3,0.6 -0.7,1.1 -1.2,1.5 -0.5,0.4 -1.1,0.7 -1.9,0.9 0.3,0.4 1.2,1.6 2.5,3.6 l 2.1,2.9 c 0,0 -2,0 -2,0 z m 11.7,0 h -1.8 l 4.7,-12.6 H 198.9 V 56 h 13.2 v 0.1 z m -5.9,3.4 h -1.7 V 61.9 h 1.7 z m 17.5,-3.4 h -5.3 v -1.5 h 3.5 V 57.5 h -3.4 V 56 h 5.1 z m 14.1,0 h -11.5 v -1.5 h 7.6 V 57.5 h -7.4 V 56 h 9.2 v 12.6 h 2.2 v 1.5 z"
   class="st7"
   inkscape:connector-curvature="0"
   style="fill:#000000" />
	</g>
</g>
<style
   id="style838"
   type="text/css">
	.st0{clip-path:url(#SVGID_4_);}
	.st1{clip-path:url(#SVGID_6_);}
	.st2{clip-path:url(#SVGID_8_);}
	.st3{clip-path:url(#SVGID_10_);}
	.st4{clip-path:url(#SVGID_12_);}
	.st5{clip-path:url(#SVGID_14_);}
	.st6{clip-path:url(#SVGID_16_);}
	.st7{clip-path:url(#SVGID_18_);}
</style></svg>