<?xml version="1.0" encoding="UTF-8" standalone="no"?>
<!-- Created with Inkscape (http://www.inkscape.org/) -->

<svg
   xmlns:dc="http://purl.org/dc/elements/1.1/"
   xmlns:cc="http://creativecommons.org/ns#"
   xmlns:rdf="http://www.w3.org/1999/02/22-rdf-syntax-ns#"
   xmlns:svg="http://www.w3.org/2000/svg"
   xmlns="http://www.w3.org/2000/svg"
   xmlns:sodipodi="http://sodipodi.sourceforge.net/DTD/sodipodi-0.dtd"
   xmlns:inkscape="http://www.inkscape.org/namespaces/inkscape"
   version="1.1"
   id="svg2"
   xml:space="preserve"
   width="140"
   height="30"
   viewBox="0 0 140 30"
   sodipodi:docname="אוצר החייל.svg"
   inkscape:version="0.92.3 (2405546, 2018-03-11)"><metadata
     id="metadata8"><rdf:RDF><cc:Work
         rdf:about=""><dc:format>image/svg+xml</dc:format><dc:type
           rdf:resource="http://purl.org/dc/dcmitype/StillImage" /><dc:title></dc:title></cc:Work></rdf:RDF></metadata><defs
     id="defs6"><clipPath
       clipPathUnits="userSpaceOnUse"
       id="clipPath104"><path
         d="M 0,0 H 1247.244 V 595.276 H 0 Z"
         id="path102"
         inkscape:connector-curvature="0" /></clipPath><clipPath
       clipPathUnits="userSpaceOnUse"
       id="clipPath128"><path
         d="M 0,0 H 1247.244 V 595.276 H 0 Z"
         id="path126"
         inkscape:connector-curvature="0" /></clipPath><clipPath
       clipPathUnits="userSpaceOnUse"
       id="clipPath172"><path
         d="M 0,0 H 1247.244 V 595.276 H 0 Z"
         id="path170"
         inkscape:connector-curvature="0" /></clipPath><clipPath
       clipPathUnits="userSpaceOnUse"
       id="clipPath224"><path
         d="M 0,0 H 1247.244 V 595.276 H 0 Z"
         id="path222"
         inkscape:connector-curvature="0" /></clipPath><linearGradient
       x1="0"
       y1="0"
       x2="1"
       y2="0"
       gradientUnits="userSpaceOnUse"
       gradientTransform="matrix(-117.44124,0,24.962906,-117.44124,180.02716,24.305359)"
       spreadMethod="pad"
       id="linearGradient246"><stop
         style="stop-opacity:1;stop-color:#ffffff"
         offset="0"
         id="stop242" /><stop
         style="stop-opacity:1;stop-color:#fdb927"
         offset="1"
         id="stop244" /></linearGradient></defs><sodipodi:namedview
     pagecolor="#ffffff"
     bordercolor="#666666"
     borderopacity="1"
     objecttolerance="10"
     gridtolerance="10"
     guidetolerance="10"
     inkscape:pageopacity="0"
     inkscape:pageshadow="2"
     inkscape:window-width="1366"
     inkscape:window-height="705"
     id="namedview4"
     showgrid="false"
     inkscape:zoom="2.1498259"
     inkscape:cx="151.53817"
     inkscape:cy="45.793839"
     inkscape:window-x="-8"
     inkscape:window-y="-8"
     inkscape:window-maximized="1"
     inkscape:current-layer="g10" /><g
     id="g10"
     inkscape:groupmode="layer"
     inkscape:label="Eicilov-alon"
     transform="matrix(1.3333333,0,0,-1.3333333,0,29.99998)"><g
       id="g98"
       transform="matrix(0.70542686,0,0,0.70542686,-21.995879,-9.914831)"><g
         id="g100"
         clip-path="url(#clipPath104)"><g
           id="g106"
           transform="translate(53.7923,31.4597)"><path
             d="m 0,0 2.387,-1.988 c 0.41,-0.341 0.255,-0.468 0.067,-0.473 l -3.4,-0.08 C -1.19,-2.547 -1.503,-2.4 -1.758,-2.188 l -2.51,2.098 c -0.527,0.439 -0.735,0.994 -0.486,1.262 l 2.281,2.451 c 0.224,0.241 0.061,0.77 -0.434,1.186 l -2.248,1.889 c -0.538,0.45 -0.771,1.009 -0.513,1.281 l 2.341,2.474 c 0.176,0.186 0.392,0.344 0.732,0.347 l 3.192,0.029 C 0.854,10.831 1.092,10.55 0.99,10.44 L -1.337,7.928 C -1.564,7.683 -1.331,7.148 -0.851,6.739 L 1.311,4.895 C 1.846,4.44 2.078,3.887 1.824,3.613 L -0.421,1.194 C -0.656,0.94 -0.494,0.411 0,0 m -6.746,1.721 c 0.534,-0.455 0.767,-1.007 0.511,-1.282 l -2.245,-2.42 c -0.236,-0.255 -0.072,-0.783 0.422,-1.193 l 2.42,-2.011 c 0.328,-0.273 0.313,-0.458 0.022,-0.463 l -3.388,-0.067 c -0.246,-0.005 -0.556,0.14 -0.812,0.353 l -2.51,2.098 c -0.526,0.439 -0.737,0.992 -0.486,1.261 l 2.281,2.452 c 0.225,0.242 0.061,0.77 -0.434,1.186 l -1.998,1.677 c -0.526,0.44 -0.737,0.993 -0.486,1.262 l 2.281,2.452 c 0.225,0.242 0.062,0.771 -0.434,1.187 l -2.249,1.888 c -0.538,0.451 -0.77,1.009 -0.512,1.282 l 2.341,2.474 c 0.175,0.184 0.391,0.343 0.733,0.346 l 3.198,0.023 c 0.206,0.01 0.498,-0.251 0.376,-0.393 l -2.318,-2.502 c -0.228,-0.246 0.007,-0.779 0.488,-1.189 L -7.383,8.298 C -6.849,7.843 -6.616,7.291 -6.872,7.016 L -9.117,4.597 C -9.352,4.341 -9.175,3.825 -8.695,3.403 Z m -10.092,-1.776 2.387,-1.988 c 0.41,-0.341 0.255,-0.468 0.067,-0.472 l -3.4,-0.081 c -0.243,-0.005 -0.556,0.14 -0.812,0.354 l -2.51,2.097 c -0.526,0.44 -0.735,0.994 -0.486,1.261 l 2.281,2.452 c 0.224,0.241 0.061,0.771 -0.434,1.187 l -2.249,1.888 c -0.537,0.451 -0.77,1.01 -0.512,1.281 l 2.342,2.474 c 0.175,0.186 0.39,0.345 0.732,0.348 l 3.192,0.028 c 0.257,0.002 0.494,-0.279 0.393,-0.388 l -2.329,-2.513 c -0.227,-0.245 0.008,-0.78 0.488,-1.189 l 2.162,-1.844 c 0.535,-0.456 0.768,-1.007 0.511,-1.282 l -2.243,-2.419 c -0.236,-0.254 -0.073,-0.783 0.42,-1.194"
             style="fill:#fdb927;fill-opacity:1;fill-rule:nonzero;stroke:none"
             id="path108"
             inkscape:connector-curvature="0" /></g><g
           id="g110"
           transform="translate(65.1349,17.8466)"><path
             d="M 0,0 -0.373,3.033 H -1.964 L -1.592,0 c 0.228,-0.102 0.503,-0.143 0.787,-0.143 0.284,0 0.564,0.041 0.805,0.143"
             style="fill:#00529c;fill-opacity:1;fill-rule:nonzero;stroke:none"
             id="path112"
             inkscape:connector-curvature="0" /></g><g
           id="g114"
           transform="translate(70.7278,17.5001)"><path
             d="M 0,0 C -0.015,0.122 -0.031,0.254 -0.064,0.387 L -0.363,1.7 c -0.238,1.058 -0.706,1.679 -1.699,1.679 h -3.115 c 0.07,-0.57 0.378,-1.129 0.725,-1.129 l -0.105,-3.98 h 1.593 l 0.049,3.98 h 0.307 c 0.293,0 0.57,-0.193 0.671,-0.632 L -1.644,0.295 C -1.639,0.254 -1.628,0.224 -1.623,0.183 -1.577,-0.193 -1.718,-0.55 -2.077,-0.57 L -2.313,-0.58 C -2.5,-0.753 -2.614,-1.394 -2.611,-1.73 h 1.246 C -0.526,-1.73 0.153,-1.251 0,0"
             style="fill:#00529c;fill-opacity:1;fill-rule:nonzero;stroke:none"
             id="path116"
             inkscape:connector-curvature="0" /></g></g></g><g
       id="g118"
       transform="matrix(0.70542686,0,0,0.70542686,29.824777,1.2097494)"><path
         d="M 0,0 -0.625,5.089 H -2.271 L -1.645,0 Z"
         style="fill:#00529c;fill-opacity:1;fill-rule:nonzero;stroke:none"
         id="path120"
         inkscape:connector-curvature="0" /></g><g
       id="g122"
       transform="matrix(0.70542686,0,0,0.70542686,-21.995879,-9.914831)"><g
         id="g124"
         clip-path="url(#clipPath128)"><g
           id="g130"
           transform="translate(79.2098,15.77)"><path
             d="m 0,0 -1.466,1.913 c 0.815,0.255 0.926,0.978 0.848,1.619 L -0.813,5.109 H -2.412 L -2.154,3.003 H -2.23 L -3.827,5.109 H -5.58 L -4.193,3.267 C -4.968,3.003 -5.07,2.209 -4.993,1.577 L -4.799,0 H -3.2 L -3.451,2.046 -3.378,2.077 -1.822,0 Z"
             style="fill:#00529c;fill-opacity:1;fill-rule:nonzero;stroke:none"
             id="path132"
             inkscape:connector-curvature="0" /></g><g
           id="g134"
           transform="translate(83.2147,19.8821)"><path
             d="m 0,0 c -0.065,0.529 -0.323,0.997 -0.899,0.997 h -1.508 c -0.092,0 -0.157,0.092 -0.171,0.204 L -2.715,2.32 c -0.178,0.072 -0.416,0.133 -0.778,0.133 -0.361,0 -0.595,-0.102 -0.756,-0.234 L -4.053,0.631 C -4,0.193 -3.734,-0.153 -3.434,-0.153 h 1.546 c 0.215,0 0.297,-0.112 0.324,-0.326 0.007,-0.05 0.005,-0.101 0.005,-0.162 l 0.015,-1.496 c 0.008,-0.509 -0.185,-0.815 -0.624,-0.815 h -0.546 c -0.183,-0.203 -0.315,-0.814 -0.304,-1.16 h 1.37 c 1.007,0 1.73,0.631 1.702,1.924 l -0.04,1.954 C 0.011,-0.153 0.01,-0.082 0,0"
             style="fill:#00529c;fill-opacity:1;fill-rule:nonzero;stroke:none"
             id="path136"
             inkscape:connector-curvature="0" /></g><g
           id="g138"
           transform="translate(87.1061,16.4924)"><path
             d="m 0,0 -0.332,2.697 c -0.14,1.151 -0.638,1.69 -1.538,1.69 h -1.414 c 0.002,-0.02 -0.003,-0.041 0,-0.061 0.054,-0.448 0.296,-0.855 0.485,-1.068 h 0.3 c 0.292,0 0.542,-0.225 0.592,-0.632 L -1.657,0.58 C -1.638,0.438 -1.645,0.428 -1.714,0.428 H -2.483 C -2.675,0.173 -2.76,-0.386 -2.757,-0.722 h 2.3 C -0.111,-0.722 0.061,-0.499 0,0"
             style="fill:#00529c;fill-opacity:1;fill-rule:nonzero;stroke:none"
             id="path140"
             inkscape:connector-curvature="0" /></g><g
           id="g142"
           transform="translate(89.4183,17.8466)"><path
             d="M 0,0 -0.373,3.033 H -1.964 L -1.592,0 c 0.228,-0.102 0.503,-0.143 0.787,-0.143 0.284,0 0.564,0.041 0.805,0.143"
             style="fill:#00529c;fill-opacity:1;fill-rule:nonzero;stroke:none"
             id="path144"
             inkscape:connector-curvature="0" /></g><g
           id="g146"
           transform="translate(94.5811,16.9305)"><path
             d="m 0,0 h -0.954 c 0.445,0.132 0.534,0.722 0.472,1.231 L -0.616,2.32 c -0.109,0.896 -0.691,1.629 -1.37,1.629 H -4.83 c 0.076,-0.438 0.318,-0.845 0.561,-1.13 H -3.1 c 0.485,0 0.856,-0.213 0.945,-0.926 L -2.034,0.906 C -1.942,0.153 -2.392,0 -2.753,0 h -1.131 c -0.278,-0.244 -0.379,-0.733 -0.411,-1.16 h 4 C 0.006,-0.866 0.049,-0.397 0,0"
             style="fill:#00529c;fill-opacity:1;fill-rule:nonzero;stroke:none"
             id="path148"
             inkscape:connector-curvature="0" /></g><g
           id="g150"
           transform="translate(99.5394,15.77)"><path
             d="m 0,0 -0.408,3.318 c -0.16,1.313 -0.727,1.791 -1.565,1.791 H -4.904 C -4.776,4.57 -4.531,4.204 -4.334,3.98 l 1.709,-0.011 c 0.399,0 0.576,-0.305 0.632,-0.763 L -1.599,0 Z m -2.545,0 -0.384,3.125 h -0.07 c -0.484,0 -1.173,-0.275 -1.398,-0.631 L -4.092,0 Z"
             style="fill:#00529c;fill-opacity:1;fill-rule:nonzero;stroke:none"
             id="path152"
             inkscape:connector-curvature="0" /></g><g
           id="g154"
           transform="translate(107.7224,15.77)"><path
             d="m 0,0 -0.419,3.41 c -0.161,1.313 -0.77,1.699 -1.67,1.699 h -3.407 c 0.09,-0.478 0.373,-0.905 0.57,-1.129 h 0.315 L -4.294,1.405 C -4.272,1.222 -4.34,1.15 -4.478,1.15 H -4.755 C -4.947,0.896 -4.986,0.336 -4.983,0 h 1.276 c 0.785,0 1.099,0.57 0.985,1.506 L -3.026,3.98 h 0.468 c 0.347,0 0.511,-0.275 0.567,-0.733 L -1.592,0 Z"
             style="fill:#00529c;fill-opacity:1;fill-rule:nonzero;stroke:none"
             id="path156"
             inkscape:connector-curvature="0" /></g><g
           id="g158"
           transform="translate(112.338,19.7088)"><path
             d="m 0,0 -0.143,1.17 h -1.601 l 0.192,-1.556 -0.062,-0.123 -1.214,1.679 h -1.885 l 2.908,-3.948 H -3.62 c -0.228,-0.143 -0.386,-0.611 -0.411,-1.161 h 3.792 c 0.376,0 0.574,0.336 0.526,0.723 -0.024,0.193 -0.137,0.427 -0.256,0.58 L -0.712,-1.72 C 0.103,-1.465 0.079,-0.641 0,0"
             style="fill:#00529c;fill-opacity:1;fill-rule:nonzero;stroke:none"
             id="path160"
             inkscape:connector-curvature="0" /></g></g></g><g
       id="g162"
       transform="matrix(0.70542686,0,0,0.70542686,59.422158,1.2097494)"><path
         d="M 0,0 -0.625,5.089 H -2.27 L -1.645,0 Z"
         style="fill:#00529c;fill-opacity:1;fill-rule:nonzero;stroke:none"
         id="path164"
         inkscape:connector-curvature="0" /></g><g
       id="g166"
       transform="matrix(0.70542686,0,0,0.70542686,-21.995879,-9.914831)"><g
         id="g168"
         clip-path="url(#clipPath172)"><g
           id="g174"
           transform="translate(120.385,16.9305)"><path
             d="m 0,0 h -0.954 c 0.445,0.132 0.535,0.722 0.472,1.231 L -0.616,2.32 C -0.725,3.216 -1.307,3.949 -1.984,3.949 H -4.83 c 0.077,-0.438 0.319,-0.845 0.562,-1.13 h 1.169 c 0.484,0 0.857,-0.213 0.945,-0.926 L -2.033,0.906 C -1.941,0.153 -2.392,0 -2.753,0 h -1.13 c -0.279,-0.244 -0.38,-0.733 -0.412,-1.16 h 4 C 0.008,-0.866 0.05,-0.397 0,0"
             style="fill:#00529c;fill-opacity:1;fill-rule:nonzero;stroke:none"
             id="path176"
             inkscape:connector-curvature="0" /></g><g
           id="g178"
           transform="translate(125.2499,19.9226)"><path
             d="m 0,0 c -0.096,0.774 -0.456,0.957 -0.917,0.957 h -3.969 c 0.041,-0.336 0.299,-0.875 0.561,-1.13 h 2.346 c 0.261,0 0.385,-0.132 0.418,-0.407 0.01,-0.071 0.019,-0.142 0.015,-0.234 l -0.019,-1.16 c -0.008,-0.631 -0.099,-1.018 -0.591,-1.018 -0.112,-0.214 -0.137,-0.886 -0.157,-1.161 h 0.784 c 1.008,0 1.488,0.479 1.527,2.23 l 0.031,1.495 C 0.034,-0.275 0.014,-0.122 0,0 m -2.246,-5.822 -0.612,4.977 c -0.03,0 -0.07,0.01 -0.108,0.01 -0.447,0 -1.167,-0.335 -1.347,-0.752 l 0.521,-4.235 z"
             style="fill:#00529c;fill-opacity:1;fill-rule:nonzero;stroke:none"
             id="path180"
             inkscape:connector-curvature="0" /></g><g
           id="g182"
           transform="translate(131.0596,17.5001)"><path
             d="M 0,0 C -0.015,0.122 -0.031,0.254 -0.062,0.387 L -0.363,1.7 C -0.601,2.758 -1.068,3.379 -2.06,3.379 h -3.115 c 0.07,-0.57 0.376,-1.129 0.723,-1.129 l -0.104,-3.98 h 1.592 l 0.05,3.98 h 0.308 c 0.291,0 0.569,-0.193 0.669,-0.632 L -1.644,0.295 C -1.638,0.254 -1.627,0.224 -1.622,0.183 -1.576,-0.193 -1.716,-0.55 -2.075,-0.57 L -2.312,-0.58 C -2.499,-0.753 -2.613,-1.394 -2.61,-1.73 h 1.246 C -0.526,-1.73 0.153,-1.251 0,0"
             style="fill:#00529c;fill-opacity:1;fill-rule:nonzero;stroke:none"
             id="path184"
             inkscape:connector-curvature="0" /></g><g
           id="g186"
           transform="translate(72.1251,39.6021)"><path
             d="m 0,0 c -0.241,1.36 -1.129,2.563 -3.081,2.563 h -5.102 c -0.313,0 -0.537,0.235 -0.587,0.523 l -0.509,2.877 c -0.604,0.183 -1.413,0.34 -2.636,0.34 -1.224,0 -2.01,-0.261 -2.549,-0.602 l 0.721,-4.079 c 0.198,-1.125 1.11,-2.014 2.125,-2.014 h 5.231 c 0.729,0 1.015,-0.288 1.112,-0.837 0.022,-0.131 0.02,-0.262 0.021,-0.418 l 0.107,-3.845 c 0.049,-1.307 -0.593,-2.092 -2.077,-2.092 h -1.848 c -0.61,-0.523 -1.037,-2.092 -0.983,-2.982 h 4.633 c 3.409,0 5.829,1.622 5.686,4.943 l -0.21,5.022 C 0.042,-0.392 0.036,-0.209 0,0"
             style="fill:#00529c;fill-opacity:1;fill-rule:nonzero;stroke:none"
             id="path188"
             inkscape:connector-curvature="0" /></g><g
           id="g190"
           transform="translate(79.6835,34.3714)"><path
             d="M 0,0 -1.376,7.793 H -6.764 L -5.388,0 c 0.775,-0.261 1.705,-0.366 2.668,-0.366 0.962,0 1.907,0.105 2.72,0.366"
             style="fill:#00529c;fill-opacity:1;fill-rule:nonzero;stroke:none"
             id="path192"
             inkscape:connector-curvature="0" /></g><g
           id="g194"
           transform="translate(86.4106,34.3714)"><path
             d="M 0,0 -1.376,7.793 H -6.764 L -5.388,0 c 0.775,-0.261 1.705,-0.366 2.668,-0.366 0.962,0 1.907,0.105 2.72,0.366"
             style="fill:#00529c;fill-opacity:1;fill-rule:nonzero;stroke:none"
             id="path196"
             inkscape:connector-curvature="0" /></g><g
           id="g198"
           transform="translate(102.7465,29.0366)"><path
             d="m 0,0 -1.547,8.761 c -0.596,3.374 -2.386,4.367 -5.429,4.367 h -7.862 c -1.119,0 -1.391,-0.235 -1.178,-1.438 L -13.951,0 h 5.388 l -1.723,9.755 c -0.051,0.288 0.022,0.471 0.256,0.471 h 1.223 c 1.25,0 1.738,-0.706 1.947,-1.884 L -5.387,0 Z"
             style="fill:#00529c;fill-opacity:1;fill-rule:nonzero;stroke:none"
             id="path200"
             inkscape:connector-curvature="0" /></g><g
           id="g202"
           transform="translate(118.1888,29.0366)"><path
             d="m 0,0 -1.506,8.526 c -0.596,3.373 -2.531,4.602 -5.368,4.602 h -9.917 c 0.453,-1.385 1.295,-2.327 1.971,-2.902 l 5.782,-0.027 c 1.354,0 1.961,-0.784 2.169,-1.961 L -5.415,0 Z m -8.615,0 -1.419,8.029 h -0.234 c -1.641,0 -3.963,-0.706 -4.712,-1.622 L -13.848,0 Z"
             style="fill:#00529c;fill-opacity:1;fill-rule:nonzero;stroke:none"
             id="path204"
             inkscape:connector-curvature="0" /></g><g
           id="g206"
           transform="translate(136.8007,29.0366)"><path
             d="m 0,0 -1.552,8.787 c -0.596,3.374 -2.302,4.341 -5.322,4.341 h -7.808 c 0.514,-1.438 1.265,-2.301 1.969,-2.902 h 3.696 c 1.719,0 1.961,-0.785 2.169,-1.962 L -5.388,0 Z"
             style="fill:#00529c;fill-opacity:1;fill-rule:nonzero;stroke:none"
             id="path208"
             inkscape:connector-curvature="0" /></g><g
           id="g210"
           transform="translate(150.7971,39.1578)"><path
             d="m 0,0 -0.531,3.007 h -5.413 l 0.706,-4.001 -0.205,-0.314 -4.172,4.315 h -6.377 L -6,-7.14 h -6.144 c -0.768,-0.366 -1.284,-1.569 -1.346,-2.981 h 12.832 c 1.275,0 1.929,0.863 1.754,1.856 -0.088,0.498 -0.48,1.099 -0.888,1.491 l -2.55,2.354 C 0.405,-3.766 0.292,-1.648 0,0"
             style="fill:#00529c;fill-opacity:1;fill-rule:nonzero;stroke:none"
             id="path212"
             inkscape:connector-curvature="0" /></g></g></g><g
       id="g214"
       transform="matrix(0.70542686,0,0,0.70542686,90.79482,10.568366)"><path
         d="M 0,0 -2.31,13.076 H -7.879 L -5.57,0 Z"
         style="fill:#00529c;fill-opacity:1;fill-rule:nonzero;stroke:none"
         id="path216"
         inkscape:connector-curvature="0" /></g><g
       id="g218"
       transform="matrix(0.70542686,0,0,0.70542686,-21.995879,-9.914831)"><g
         id="g220"
         clip-path="url(#clipPath224)"><g
           id="g226"
           transform="translate(177.8612,29.0366)"><path
             d="m 0,0 -5.033,4.917 c 2.747,0.653 3.096,2.511 2.806,4.158 l -0.717,4.053 h -5.413 l 0.956,-5.413 h -0.261 l -5.484,5.413 h -5.936 l 4.767,-4.733 c -2.613,-0.68 -2.93,-2.72 -2.643,-4.342 L -16.242,0 h 5.414 L -11.756,5.257 -11.51,5.335 -6.169,0 Z"
             style="fill:#00529c;fill-opacity:1;fill-rule:nonzero;stroke:none"
             id="path228"
             inkscape:connector-curvature="0" /></g></g></g><g
       id="g230"
       transform="matrix(0.70542686,0,0,0.70542686,-21.995879,-9.914831)"><g
         id="g232"><g
           id="g238"><g
             id="g240"><path
               d="M 179.816,25.298 H 62.375 l 0.211,-0.992 h 117.441 z"
               style="fill:url(#linearGradient246);stroke:none"
               id="path248"
               inkscape:connector-curvature="0" /></g></g></g></g></g></svg>