<?xml version="1.0" encoding="UTF-8"?>
<!-- Generator: Adobe Illustrator 15.0.2, SVG Export Plug-In . SVG Version: 6.00 Build 0)  -->
<!DOCTYPE svg PUBLIC "-//W3C//DTD SVG 1.1//EN" "http://www.w3.org/Graphics/SVG/1.1/DTD/svg11.dtd">
<svg version="1.1" id="Layer_1" xmlns="http://www.w3.org/2000/svg" xmlns:xlink="http://www.w3.org/1999/xlink" x="0px" y="0px" width="693.296px" height="607.099px" viewBox="0 0 693.296 607.099" enable-background="new 0 0 693.296 607.099" xml:space="preserve">
<g>
	<path fill="#532C7F" d="M509.903,183.205c21.055-4.098,42.282-7.206,61.421-7.206c10.621,0,20.572,0.978,29.506,3.228   c18.656,4.781,32.291,17.156,32.264,33.402c0,7.902-3.147,16.942-10.821,26.8c-23.894,30.657-67.756,49.635-177.861,49.729h-0.228   c-30.697,0-58.997-2.464-83.842-6.014c43.407-52.153,94.382-119.039,137.013-173.937c62.131-80.024,94.314-92.333,111.578-92.681   c0.215-0.013,0.402-0.013,0.616-0.013c9.442,0.174,18.175,4.768,18.241,17.009c0.054,9.951-6.16,25.447-24.161,47.318   c-19.446,23.626-46.126,48.993-67.93,68.439c-11.786,10.527-22.166,19.299-29.185,25.139c0,0-5.37,4.446-7.754,6.294   c-2.397,1.862-3.201,2.799-2.706,4.031c0.536,1.232,2.599,0.844,4.019,0.536C501.533,184.959,509.903,183.205,509.903,183.205    M168.123,184.276c54.631,22.059,39.055,91.529,34.313,135.151c-4.166,38.277-0.229,72.109,43.527,63.725   c42.256-8.09,102.498-85.837,102.498-85.837c32.117,6.603,63.645,10.447,92.762,12.349c8.598,0.563,19.795,0.951,32.692,0.951   c37.595,0,89.479-3.415,132.793-16.567c43.261-13.072,83.654-36.403,86.413-76.167c0.107-1.714,0.174-3.375,0.174-4.996   c0.067-21.603-10.245-35.652-25.434-43.782c-15.188-8.183-40.246-10.594-60.35-10.607c-27.925,0-56.197,5.224-72.108,8.759   c13.38-7.701,35.947-21,58.688-36.376c0,0,19.982-13.152,39.671-28.166c19.715-15.014,38.921-36.55,39.631-56.077   c0.763-20.907-14.84-44.613-57.524-46.488c-42.751-1.888-77.573,14.599-113.413,40.14c-35.854,25.554-66.645,64.408-66.645,64.408   c-19.099,23.894-52.608,68.908-80.252,107.708c-0.08,0.067-21.241,30.067-43.983,62.118c-38.358-8.357-48.001-12.911-49.26-13.286   l-0.027-0.014c-0.375-0.08-1.58-0.522-2.116-0.522c-1.875-0.067-3.696,1.513-4.58,4.071c-0.321,0.764-0.455,1.527-0.455,2.21   c0.094,3.201,3.481,4.313,2.96,4.165c18.75,7.768,25.527,10.192,44.8,15.617c-50.56,69.953-59.827,83.547-72.698,81.283   c-8.665-1.54-12.027-11.746-7.621-36.456c4.835-26.88,21.697-80.868,20.8-125.427c-0.95-46.582-35.545-78.819-93.698-70.917   c0,0-29.68,3.107-66.216,23.759c-36.591,20.666-75.752,52.97-79.583,56.533c-3.777,3.549-4.795,6.924-3.067,8.545   c1.889,1.754,7.353-0.71,13.782-4.514c6.402-3.803,46.782-29.438,82.395-37.527C132.591,173.964,154.207,178.678,168.123,184.276"/>
	<path fill="#5D5D5B" d="M331.988,445.738l-1.554,10.836c-1.821,12.441-6.054,18.736-9.911,18.979   c-1.313,0.039-2.464-0.576-3.241-1.729L294.3,440.957h-20.17c-2.759,0-1.58,1.059-0.04,3.255c1.554,2.183,18.79,26.64,18.79,26.64   l-0.83,0.32c-14.451,5.666-22.741,17.479-25.152,34.314c-0.054,0.174-0.054,0.388-0.08,0.589l-1.179,8.505h13.875   c0,0,5.786,0.16,6.536-5.666l1.393-9.978c1.849-12.724,6.161-18.777,10.26-18.965c1.285,0.014,2.156,0.737,2.893,1.701   l23.01,32.907h20.304c1.688,0,2.304-0.268,1.206-1.795c-1.099-1.54-20.117-28.086-20.117-28.086l0.83-0.361   c14.68-5.732,22.97-17.76,25.421-34.876l1.179-8.505h-15.041C332.524,440.957,331.988,445.738,331.988,445.738 M447.571,440.957   h-48.215c-0.402,1.729-0.75,3.711-1.045,5.719c0,0-0.991,5.854,5.17,5.854h34.152c12.215,0,15.885,9.844,14.438,19.729   c-3.428,23.264-22.58,29.96-24.563,30.59c-1.996,0.643-4.769,1.191-5.813,5.236c-1.019,4.045-1.045,7.554-1.045,7.554v0.081   c22.019-1.406,47.813-16.822,51.671-44.198C474.947,452.046,465.652,441.011,447.571,440.957 M601.419,473.57   c2.371-17.732-3.094-32.572-25.781-32.613h-34.863c-0.388,1.729-0.736,3.711-1.044,5.719c0,0-0.991,5.719,5.183,5.719h20.331   c13.875,0,16.916,11.117,15,24.926c-1.741,12.455-8.143,25.741-22.111,25.795c0,0-20.01-0.014-23.345-0.014   c-3.349,0-4.647,2.104-5.29,4.541c-0.644,2.438-0.925,6.938-0.925,6.938s64.181,0,66.967,0c2.785,0,4.526-2.559,4.901-5.17   c0.389-2.625,0.549-6.268,0.549-6.268h-19.58l2.772-1.166C593.718,497.436,600.093,483.132,601.419,473.57 M507.212,440.957   h-19.527c-0.375,1.729-0.737,3.711-1.031,5.719c0,0-0.991,5.854,5.169,5.854h2.063h0.08h1.66c4.474-0.027,6.885,1.594,7.956,3.924   c1.045,2.291,0.844,5.184,0.482,7.742l-5.17,36.844c-0.081,0.496-0.241,1.059-0.71,1.486c-0.469,0.442-1.111,0.59-1.849,0.59   h-11.531v-0.027h-5.611c-3.349,0-4.635,2.104-5.277,4.555c-0.656,2.424-0.938,6.924-0.938,6.924h11.21h24.121   c5.906-0.08,8.772-2.719,9.644-8.317l6.441-45.791C526.189,447.158,519.922,441.011,507.212,440.957 M397.642,473.971   c-0.764,4.567-8.786,62.358-8.786,62.358s6.456,0.014,11.451,0.014c4.996,0,7.112-2.531,7.902-7.688   c0.804-5.156,9.067-64.113,9.067-64.113c-2.13,0.146-9,1.152-12.644,2.33C401.017,468.065,398.392,469.417,397.642,473.971    M176.319,447.654c-0.361,2.41-9.389,66.912-9.389,66.912h14.559c5.196,0,5.934-4.045,6.309-6.697   c0.348-2.41,9.401-66.912,9.401-66.912h-14.571C177.431,440.957,176.708,445.001,176.319,447.654 M237.018,440.957h-21.871   c-0.375,1.729-0.75,3.711-1.045,5.719c0,0-0.991,5.854,5.184,5.854h9.441c3.991,0,6.482,0.924,7.849,2.746   c1.326,1.834,1.393,4.406,0.991,7.433l-1.942,13.701c-2.021,14.184-14.96,27.442-27.349,27.47c-1.594,0-4.192-0.361-5.799-0.764   c-1.139,2.384-3.335,8.585-4.179,11.625c1.915,0.67,4.313,1.755,7.366,1.755c15.429-0.04,21.979-9.576,27.684-20.317l0.75-1.406   c0,0-0.603,15.322,0.442,19.795h15.188c3.509,0,4.045-1.821,3.804-3.844c-0.268-2.035-1.246-12.697,0-22.072l3.964-28.192   C259.585,444.841,251.683,441.091,237.018,440.957 M88.835,446.675c0,0-0.991,5.854,5.184,5.854h35.09l-8.759,62.051h15.026   c4.527,0,5.197-4.086,5.197-4.086l8.143-57.965h8.331c1.606,0,3.16-0.375,3.91-2.947c0.75-2.57,1.313-8.625,1.313-8.625H89.866   C89.491,442.685,89.144,444.667,88.835,446.675"/>
	<path fill="#5D5D5B" d="M599.343,552.027h-15.616l-22.581,21.402l2.652-16.956l0.71-4.446h-8.438c-2.464,0-3.763,1.018-4.125,3.441   c-0.04,0.242-0.12,0.805-0.228,1.581l-6.188,43.956l-0.67,4.836c0,0,5.652,0,8.491,0c2.84,0,3.75-1.795,4.045-3.965   c0.295-2.184,1.661-13.594,1.661-13.594l6.147-5.385l13.861,22.943h15.282l-20.397-31.141L599.343,552.027z M527.583,555.468   c-0.027,0.242-0.107,0.805-0.229,1.581l-3.535,29.184l-22.621-34.206h-9.991l-6.857,48.764l-0.724,5.051h8.331   c2.491,0,3.75-1.031,4.111-3.443c0.04-0.268,0.147-0.83,0.255-1.607h-0.027l3.656-29.184l22.541,34.234h9.978l6.857-48.792   l0.696-5.022h-8.316C529.243,552.027,527.971,553.044,527.583,555.468 M446.085,586.005l10.394-21.188l4.433,21.188H446.085z    M464.126,551.062h-7.755c-2.88,0-3.991,0.67-5.264,2.974c-1.232,2.304-27.911,51.806-27.911,51.806h13.125l5.397-10.889h21.054   l2.357,10.889h9.897c2.84,0,2.974-0.992,2.17-4.246C476.394,598.367,464.126,551.062,464.126,551.062 M411.598,567.937   c-0.402,3.027-1.661,5.291-6.857,5.291h-11.8l1.46-10.554h12.255C411.49,562.674,412.013,565.044,411.598,567.937 M410.526,588.724   c-0.482,3.428-1.982,6.441-7.795,6.441h-12.885l1.822-12.91h12.563C410.044,582.255,411.008,585.282,410.526,588.724    M417.839,575.88c2.679-1.487,5.611-4.916,6.295-9.631c1.259-8.959-2.866-14.223-16.072-14.223h-20.585   c-2.465,0.04-3.764,1.018-4.112,3.441c-0.04,0.242-0.12,0.805-0.24,1.581v0.026l-6.831,48.766h25.916   c14.103,0,19.755-7.447,21.135-17.252C424.106,583.219,422.084,577.728,417.839,575.88 M341.283,555.468   c-0.026,0.242-0.12,0.805-0.228,1.581l-3.536,29.184l-22.634-34.206h-10.005l-6.831,48.764l-0.723,5.051h8.316   c2.479,0,3.764-1.031,4.126-3.443c0.04-0.268,0.12-0.83,0.228-1.607l3.656-29.184l22.514,34.234h9.991l6.857-48.792l0.696-5.022   h-8.304C342.944,552.027,341.658,553.044,341.283,555.468 M218.133,555.468c-0.04,0.242-0.12,0.805-0.228,1.581l-6.188,44.185   l-0.643,4.607h8.438c2.464,0,3.723-1.031,4.098-3.443c0.027-0.213,0.081-0.615,0.175-1.164l0.054-0.389c0-0.027,0-0.041,0-0.055   l6.147-43.741l0.709-5.022h-8.45C219.78,552.027,218.494,553.044,218.133,555.468 M193.798,555.468   c-0.04,0.215-0.107,0.643-0.188,1.246h-0.014l-0.026,0.321c0,0.014,0,0.014-0.014,0.014l-3.536,29.184l-22.635-34.206h-10.018   l-6.857,49.072l-0.67,4.742h8.317c2.465,0,3.736-1.031,4.111-3.443c0.041-0.213,0.107-0.643,0.188-1.232l0.027-0.213   c0.026-0.055,0.026-0.107,0.026-0.162l0,0l3.656-29.184l22.515,34.234h9.991l6.857-48.792l0.696-5.022h-8.304   C195.445,552.027,194.159,553.044,193.798,555.468 M134.011,555.468c-0.375,2.411-4.447,31.621-4.447,31.621   c-0.938,6.443-5.813,9.135-13.688,9.135c-7.861,0-12-2.691-11.063-9.135c0,0,4.151-29.611,4.473-32.035   c0.335-2.412-1.606-3.027-3.294-3.027h-8.304l-5.063,36.041c-1.688,11.959,5.304,19.031,21.725,19.031   c16.474,0,25.434-7.072,27.107-19.031l5.063-36.041h-8.317C135.725,552.027,134.386,553.044,134.011,555.468 M278.724,578.919   c-1.54,10.971-5.934,17.746-17.224,17.746c-11.304,0-13.809-6.775-12.255-17.746c1.554-10.982,5.947-17.759,17.251-17.759   S280.291,567.937,278.724,578.919 M267.942,550.728c-18.817,0-28.367,10.433-30.858,28.191c-2.491,17.746,4.125,28.18,22.956,28.18   c18.817,0,28.367-10.434,30.818-28.18C293.362,561.161,286.773,550.728,267.942,550.728"/>
</g>
</svg>