<svg xmlns="http://www.w3.org/2000/svg" viewBox="0 0 64 64">
  <rect width="64" height="64" rx="14" fill="#0f172a"/>
  <line x1="10" y1="48" x2="54" y2="48" stroke="#1e293b" stroke-width="2"/>
  <g fill="#1e293b">
    <rect x="11" y="34" width="5" height="14" rx="1"/>
    <rect x="18" y="29" width="5" height="19" rx="1"/>
    <rect x="25" y="32" width="5" height="16" rx="1"/>
    <rect x="32" y="24" width="5" height="24" rx="1"/>
    <rect x="39" y="20" width="5" height="28" rx="1"/>
    <rect x="46" y="14" width="5" height="34" rx="1"/>
  </g>
  <polyline points="11,40 22,34 36,28 49,18 56,13"
            fill="none" stroke="#3b82f6" stroke-width="3"
            stroke-linecap="round" stroke-linejoin="round"/>
  <g fill="#3b82f6" stroke="#f8fafc" stroke-width="0.6">
    <circle cx="11" cy="40" r="2"/>
    <circle cx="22" cy="34" r="2"/>
    <circle cx="36" cy="28" r="2"/>
    <circle cx="49" cy="18" r="2"/>
    <circle cx="56" cy="13" r="2"/>
  </g>
  <polygon points="58,11 52,11 58,17" fill="#10b981"/>
</svg>
